<?xml version="1.0" encoding="UTF-8"?>
<!DOCTYPE svg PUBLIC "-//W3C//DTD SVG 1.1//EN" "http://www.w3.org/Graphics/SVG/1.1/DTD/svg11.dtd">
<!-- Creator: CorelDRAW 2017 -->
<svg xmlns="http://www.w3.org/2000/svg" xml:space="preserve" width="33.8666mm" height="33.8666mm" version="1.1" style="shape-rendering:geometricPrecision; text-rendering:geometricPrecision; image-rendering:optimizeQuality; fill-rule:evenodd; clip-rule:evenodd"
viewBox="0 0 3386.66 3386.66"
 xmlns:xlink="http://www.w3.org/1999/xlink">
 <defs>
  <style type="text/css">
   <![CDATA[
    .fil0 {fill:black}
   ]]>
  </style>
 </defs>
 <g id="Capa_x0020_1">
  <metadata id="CorelCorpID_0Corel-Layer"/>
  <g id="_2326394426176">
   <path class="fil0" d="M2600.66 361.23c557.07,374.79 789.67,1043.87 678.11,1625.08 -220.7,1149.91 -1526.42,1688.63 -2487.65,1043.02 -761.23,-511.28 -916.47,-1524.76 -432.76,-2238.75 499.51,-737.28 1493.96,-932.81 2242.3,-429.35zm-2223.57 264.49l-83.59 112.23c-6.31,19.38 -77.19,127.37 -94.44,159.62 -26.82,50.18 -52.99,104.89 -72.5,153.63 -186.09,464.82 -168.5,1002.26 71.24,1436.4 78.57,142.3 166.34,271.19 287.12,391.72 21.2,21.17 121.81,109.66 130.21,122.36l149.56 111.4c19.83,4.57 125.87,71.59 157.26,87.98 315.77,164.87 687.99,217.09 1019.62,167.91 349.31,-51.8 663.82,-206.44 929.13,-459.39 25.19,-24.02 101.63,-114.32 121.83,-125.76l112.85 -151.52c5.21,-20.09 73.36,-125.04 89.4,-156.67 26.1,-51.47 50.86,-101.88 71.48,-154.43 113.62,-289.5 142.84,-582.65 103.6,-869.87 -38.16,-279.3 -158.61,-566.72 -344.86,-804.5 -33.89,-43.28 -71.94,-85.92 -112.75,-128.38 -23.34,-24.3 -113.33,-101.4 -124.8,-121.61l-162.02 -120.68c-17.84,-4.23 -129.35,-73.97 -159.56,-89.49 -54.71,-28.09 -101.1,-49.06 -154.28,-70.01 -622.87,-245.39 -1339.26,-95.95 -1811.39,375.66 -24.95,24.94 -106.87,122.17 -123.11,133.4z"/>
   <path class="fil0" d="M1614.17 784.81c-15.64,19.63 -78.06,145.28 -97.71,183.73 -16.87,33.03 -12.25,35.82 -40.94,39.53 -36.27,4.7 -207.25,24.22 -227.15,35.1l176.2 171.06c-15.97,82.61 -30.5,163.81 -46.4,242.07 17.19,-3.34 33.05,-13.84 51.14,-22.96 19.39,-9.79 34.1,-17.6 53.18,-27.27 159.83,-81 83.43,-79.36 283.56,21.03l43.13 22.13c21.77,7.17 7,3.74 19.93,1.32l-39.53 -232.16 181.91 -175.61c-35.1,-14.71 -231.06,-30.94 -245.06,-39.69 -16.41,-10.23 -90.1,-186.35 -112.26,-218.28z"/>
   <path class="fil0" d="M2253.18 1262.55l-99.71 189.13c-17.3,34.48 -15.91,30.8 -45.16,34.65 -26.86,3.55 -210.35,25.13 -219.78,35.07l176.05 169.24c-6.12,38.91 -47.37,222.85 -43.04,244.07 66.53,-32.57 136.37,-69.22 203.71,-104.61 26.55,-13.95 25.37,-6.97 55.57,8.82l182.63 94.98c5.46,-17.09 4.56,-11.19 1.84,-29.26 -1.6,-10.67 -2.82,-17.06 -4.68,-27.74l-27.9 -164.53c-5.04,-28.67 1.1,-25.76 26.71,-50.13 38.23,-36.38 126.33,-114.13 151.19,-144.1 -30.2,-10.36 -228.54,-30.44 -242.16,-37.39 -12.06,-6.15 -49.32,-89.45 -57.72,-106.85 -12.41,-25.71 -41.19,-91.67 -57.55,-111.35z"/>
   <path class="fil0" d="M1767.18 2649.87c16.75,-23.88 75.75,-145.37 95.7,-185.95 16.96,-34.51 12.59,-32.15 42.89,-35.45 38.86,-4.25 71.59,-9.85 112.31,-15.17 29.5,-3.85 86.47,-5.02 110.26,-16.9 -33.18,-32.21 -66.93,-65.11 -100.93,-97.25 -103.9,-98.26 -82.45,-50.29 -56.54,-207.31 3.29,-19.99 6.12,-36.96 9.4,-55.55 2.63,-14.86 9.51,-41.54 5.75,-56.41 -31.44,16.64 -69.27,35.24 -103.32,51.97 -126.7,62.23 -98.5,69.32 -162.46,35.68 -36.73,-19.31 -158.7,-89.03 -178.7,-90.49 3.04,35.01 44.26,226.28 40.67,238.46 -14.36,28.41 -142.55,136.15 -176.99,172.47 42.27,17.13 230.01,30.52 247.38,42.61 12.04,8.37 92.93,188.08 114.58,219.29z"/>
   <path class="fil0" d="M914.07 1497.24c-3.29,29.06 22.97,182.51 29.64,222.98 6.12,37.15 -25.54,50.63 -79.75,103.14 -33.57,32.52 -67.83,62.95 -98.91,94.97 11.74,6.63 103.48,19.01 121.5,21.34 18.35,2.36 114.55,14.79 121.81,20.65 6.12,4.93 46.78,95.7 53.87,111.37 10.03,22.17 39.86,95.48 53.38,109.15 24.19,-41.75 40.76,-79.26 63.5,-122.41 39.48,-74.9 37.83,-99.03 75.42,-103.59 74.57,-9.04 146.89,-22.23 220.48,-31.87 -1.51,-6.17 0.2,-2.32 -4.35,-9.71l-135.16 -138.26c-25.9,-24.88 -32.19,-22.44 -26.28,-50.99l42.8 -224.33 -220.64 114.66 -217.31 -117.1z"/>
   <path class="fil0" d="M720.03 640.44c25.99,7.17 85.91,-35.2 109.43,-48.35 464.56,-259.71 952.97,-340.3 1477.91,-204.92 64.54,16.65 180.29,49.17 240.79,77.76 -97.03,-75.01 -363.73,-156.38 -485.2,-180.77 -312.21,-62.69 -623.84,-26.29 -915.67,90.29 -88.21,35.24 -358,163.31 -427.26,265.99z"/>
   <path class="fil0" d="M444.27 904.5c-37.7,69.12 67.41,132.44 110.62,61.54 44.49,-73.01 -69.39,-137.14 -110.62,-61.54z"/>
   <path class="fil0" d="M362.29 1426.09c77.32,-39.9 5.5,-155.78 -62.99,-110.04 -70.24,46.91 -7.5,146.41 62.99,110.04z"/>
   <path class="fil0" d="M665.02 813.67c70.56,-47.96 -7.87,-153.42 -75.3,-101.38 -62.83,48.51 6.97,147.83 75.3,101.38z"/>
   <path class="fil0" d="M335.51 1106.51c-35.13,68.02 76.6,133.98 114.55,53.06 32.16,-68.58 -74.34,-130.86 -114.55,-53.06z"/>
  </g>
 </g>
</svg>
