<?xml version="1.0" encoding="UTF-8"?>
<!DOCTYPE svg PUBLIC "-//W3C//DTD SVG 1.1//EN" "http://www.w3.org/Graphics/SVG/1.1/DTD/svg11.dtd">
<!-- Creator: CorelDRAW 2017 -->
<svg xmlns="http://www.w3.org/2000/svg" xml:space="preserve" width="33.8666mm" height="33.8666mm" version="1.1" style="shape-rendering:geometricPrecision; text-rendering:geometricPrecision; image-rendering:optimizeQuality; fill-rule:evenodd; clip-rule:evenodd"
viewBox="0 0 3386.66 3386.66"
 xmlns:xlink="http://www.w3.org/1999/xlink">
 <defs>
  <style type="text/css">
   <![CDATA[
    .str0 {stroke:black;stroke-width:16.93;stroke-miterlimit:22.9256}
    .fil0 {fill:black}
    .fil2 {fill:#0F8CA8}
    .fil9 {fill:#7ABECC}
    .fil8 {fill:#8FE1F4}
    .fil4 {fill:#CA8C60}
    .fil5 {fill:#CD7B34}
    .fil6 {fill:#F4A56E}
    .fil3 {fill:#F58F38}
    .fil1 {fill:#FDBD91}
    .fil7 {fill:white}
   ]]>
  </style>
 </defs>
 <g id="Capa_x0020_1">
  <metadata id="CorelCorpID_0Corel-Layer"/>
  <g id="_2326398713648">
   <polygon class="fil0" points="291.69,1058.33 397.51,1058.33 397.51,952.5 291.69,952.5 "/>
   <path class="fil1" d="M1455.75 3386.67l635.19 0c0,-221.74 -15.19,-500.49 -0.31,-715.07 6.23,-90.05 343.45,-511.77 415.48,-642.21 54.6,-98.86 10.89,-217.39 -49.73,-264.76l-420.63 -283.29c10.83,97.43 55.67,166.65 100.58,219.57 42.89,50.55 125.42,73.53 163.53,137.94 9.28,39.9 -150.26,222.04 -189.22,271.04 -124.97,157.21 -278.34,-22.12 -525.36,215.71 -118.42,114.01 -129.65,263.81 -129.53,465.75 0.11,198.44 0,396.88 0,595.32z"/>
   <path class="fil2" d="M1192.11 1888.25l-1.7 -88.11c-52.55,1.53 -107.94,1.33 -147.61,-11.7 -31.16,-95.08 -2.91,-1350.32 -13.69,-1599.98l-663.14 257.49c8.53,31.81 610.25,1349.43 695.83,1493.77l130.31 -51.47z"/>
   <g>
    <path class="fil0 str0" d="M1068.68 423.93c165.04,-7.92 309.3,89.94 372.72,221.05 125.48,259.39 -53.03,557.66 -337.65,571.54 -225.4,11 -405.02,-166.21 -414.51,-378.23 -9.8,-218.94 157.73,-403.72 379.44,-414.36zm-399.98 379.07l0 34.44c1.61,4.75 3.49,36.48 4.83,45.38 2.08,13.85 4.96,28.49 8.27,40.98 31.61,119.1 114.08,222.58 225.22,273.02 36.42,16.54 72.69,29.08 114.25,35.11 7.29,1.06 40.16,3.74 43.68,5.01l45.9 0c4.58,-2.02 35.36,-4.38 43.97,-5.76 86.56,-13.87 167.7,-58.28 225.92,-116.74 61.33,-61.57 100.67,-138.33 115.85,-227.25 1.43,-8.45 3.25,-37.51 5.55,-42.73l0 -46.5c-1.92,-4.73 -3.9,-35.46 -5.39,-44.06 -2.41,-14 -4.93,-27.58 -8.59,-40.99 -20.13,-73.84 -57.46,-135.99 -107.42,-186.91 -48.59,-49.51 -114.62,-88.53 -186.33,-108.08 -13.05,-3.56 -26.83,-6.39 -41.12,-8.77 -8.18,-1.36 -37.28,-3.35 -42.51,-5.65l-49.72 0c-4.14,1.78 -36.4,4.41 -44.65,5.79 -14.92,2.5 -27.16,5.18 -40.74,8.86 -159,43.13 -278.43,177.94 -302.28,340.42 -1.26,8.59 -3.13,39.82 -4.69,44.43z"/>
    <path class="fil0 str0" d="M936.24 652.54c-0.2,6.18 5.96,40.15 7.73,50.63 1.53,9 2.85,8.87 -2.27,13.82 -6.47,6.26 -37.34,35.25 -39.67,40.32l59.92 7.86c8.99,18.65 18.06,36.81 26.43,54.59 2.9,-3.18 4.49,-7.59 6.72,-12.04 2.38,-4.79 4.14,-8.49 6.48,-13.21 19.64,-39.48 4.8,-27.92 59.06,-37.53l11.76 -1.97c5.35,-1.78 1.94,-0.29 4.13,-2.67l-41.93 -40.01 10.09 -61.4c-9.09,2.26 -50.15,27.86 -54.2,28.19 -4.74,0.39 -45.18,-23.53 -54.25,-26.58z"/>
    <path class="fil0 str0" d="M1132.59 652.9l8.13 51.98c1.65,9.35 1.38,8.42 -3.82,13.48 -4.78,4.65 -37.82,35.88 -38.23,39.23l59.63 7.52c4.51,8.58 23.41,50.95 27.38,54.5 8.35,-16.21 16.74,-33.71 24.83,-50.59 3.19,-6.66 3.98,-5.11 12.27,-6.43l50 -8.1c-1.43,-4.18 -0.74,-2.88 -3.94,-6.05 -1.88,-1.87 -3.06,-2.95 -5,-4.78l-29.69 -28.38c-5.21,-4.91 -3.57,-5.24 -2.1,-13.82 2.2,-12.8 8.16,-41.09 8.66,-50.66 -7.49,2.39 -49.58,27.59 -53.29,28.22 -3.29,0.56 -22.89,-10.41 -27.1,-12.61 -6.23,-3.25 -21.61,-12.03 -27.73,-13.51z"/>
    <path class="fil0 str0" d="M1240.61 998.15c-0.2,-7.18 -6.42,-39.83 -8.45,-50.77 -1.72,-9.3 -2.24,-8.2 3.26,-13.3 7.04,-6.55 12.68,-12.47 19.93,-19.51 5.26,-5.09 16.33,-13.7 19.28,-19.54 -11.28,-1.48 -22.78,-3.01 -34.21,-4.36 -34.95,-4.12 -23.67,2.2 -41.64,-32.6 -2.29,-4.43 -4.22,-8.19 -6.31,-12.35 -1.66,-3.32 -4.23,-9.59 -7.16,-11.98 -3.76,7.91 -8.49,17.14 -12.75,25.45 -15.86,30.91 -9.25,28.16 -26.82,30.93 -10.09,1.58 -44.41,5.75 -48.57,8.4 5.75,6.47 42,38.16 43.08,41.09 1.34,7.72 -8.12,47.83 -9.58,60.06 10.86,-2.84 49.89,-27.79 55.09,-27.96 3.61,-0.12 45.99,23.46 54.85,26.44z"/>
    <path class="fil0 str0" d="M902.8 896.07c3.62,6.22 31.36,32.64 38.63,39.65 6.67,6.43 2.4,13.75 -0.58,32.08 -1.85,11.35 -4.14,22.4 -5.56,33.28 3.29,-0.41 23.22,-11.46 27.11,-13.65 3.97,-2.23 24.79,-13.92 27.08,-13.83 1.93,0.08 23.3,12.02 27,14.07 5.24,2.9 21.91,12.98 26.58,13.69 -1.36,-11.79 -3.6,-21.63 -5.46,-33.49 -3.22,-20.59 -7.09,-25.11 -0.34,-31.54 13.39,-12.74 25.72,-25.98 38.83,-38.7 -1.2,-0.99 -0.3,-0.48 -2.29,-1.27l-46.99 -7.42c-8.77,-1.11 -9.66,0.3 -12.69,-6.2l-24.53 -50.57 -26.69 55.07 -60.1 8.83z"/>
    <path class="fil0 str0" d="M738.55 755.49c6.18,-2.41 11.78,-19.58 14.49,-25.63 53.51,-119.55 138.06,-207.25 261.57,-257.7 15.18,-6.2 42.81,-16.8 58.95,-20.05 -30.18,-0.54 -94.78,22.61 -122.34,35.65 -70.83,33.52 -126.98,86.52 -167.44,152.43 -12.23,19.92 -46.65,84.85 -45.23,115.3z"/>
    <path class="fil0 str0" d="M722.94 848.14c2.72,19.19 32.78,16.23 30.88,-4.11 -1.95,-20.95 -33.85,-16.87 -30.88,4.11z"/>
    <path class="fil0 str0" d="M783.44 963.14c9.39,-19.24 -21.82,-31.56 -28.61,-12.46 -6.97,19.58 20.04,30 28.61,12.46z"/>
    <path class="fil0 str0" d="M753.16 797.77c6.88,-19.84 -24.11,-29.13 -29.76,-8.94 -5.28,18.81 23.1,28.15 29.76,8.94z"/>
    <path class="fil0 str0" d="M731.17 904c3.07,18.59 34.82,15.18 30.41,-6.37 -3.73,-18.26 -33.91,-14.89 -30.41,6.37z"/>
   </g>
   <path class="fil3" d="M1433.22 1693.69c-65.33,-62.58 -207.03,-123.41 -265.59,-185.56 38.95,-78.46 119.12,-186.94 169.36,-264.44 44.48,-68.61 152.11,-212.68 177.56,-285.63l470.67 -691.36 -0.16 -160.94 -853.32 0 6.54 1587.63 294.94 0.3z"/>
   <polygon class="fil0" points="1032.52,2751.66 1138.34,2751.66 1138.34,2645.83 1032.52,2645.83 "/>
   <polygon class="fil4" points="1192.11,1888.25 1387.92,1805.16 1190.41,1800.14 "/>
   <path class="fil5" d="M1433.22 1693.69l82.95 -4.02c-305.95,-198.01 -315.09,-171.83 -203.83,-325.2 35.66,-49.13 50.27,-72.89 80.77,-117.39 42.81,-62.52 382.5,-515.97 395.5,-583.91 -14.89,-10.69 -66.69,-83.34 -81.42,-94.31 -25.45,72.95 -325.72,606.22 -370.2,674.83 -50.24,77.5 -130.41,185.98 -169.36,264.44 58.56,62.15 200.26,122.98 265.59,185.56z"/>
   <path class="fil0" d="M1566.06 1858c25.08,-29.53 74.43,-44.95 114.68,-58.15 20.79,7.67 17.5,1.78 45,20.4 29.22,19.8 18.57,13.52 34.37,37.41 42.81,8.51 103.58,55.19 148.61,84.03 61.06,39.11 131.86,66.16 119.7,98.39 -21.43,56.89 -128.32,-0.25 -327.95,83.05 -97.41,40.64 -199.5,112.58 -229.62,183.37l-22.13 -50.67c-5.58,-17.81 -7.59,-32.9 -14.22,-51.56 -36.53,-102.81 -113.26,-154.77 -151.97,-233.13 46.06,-34.53 223.55,-111.37 283.53,-113.14zm-507.09 -1858.01l937.3 0c40.54,3.16 69.31,7.46 81.34,13.24 21.3,44.37 13.24,119.97 13.24,185.2 121.9,-81.62 -4.44,-175.03 346.36,37.28l241.29 142.35c47.36,27.83 82.3,46.28 125.99,72.47 391.84,234.83 393.87,183.91 273.23,364.37l-576.76 851.98c111.93,74.95 186.72,239.94 110.03,401.08 -27.92,58.68 -80.5,116.43 -118.05,172.98 -42.75,64.39 -77.19,108.91 -119.06,171.99 -168.24,253.37 -177.85,186.29 -177.22,404.86 0.55,189.59 0.01,379.28 0.01,568.88l-105.73 0c0,-221.74 -15.19,-500.49 -0.31,-715.07 6.23,-90.05 343.45,-511.77 415.48,-642.21 54.6,-98.86 10.89,-217.39 -49.73,-264.76l-420.63 -283.29c10.83,97.43 55.67,166.65 100.58,219.57 42.89,50.55 125.42,73.53 163.53,137.94 9.28,39.9 -150.26,222.04 -189.22,271.04 -124.97,157.21 -278.34,-22.12 -525.36,215.71 -118.42,114.01 -129.65,263.81 -129.53,465.75 0.11,198.44 0,396.88 0,595.32l-105.73 0c0,-260.18 0,-520.35 0,-780.52 0,-548.91 -25.22,-317.94 -171.99,-595.32 -45.61,24.14 -103.15,52.92 -171.98,52.92 -39.85,-59.51 -75.53,-130.86 -105.66,-198.61l-193.02 -415.51c-76.89,-186.32 -214.01,-442.18 -288.98,-623.85 -41.7,-101.06 -179.63,-334.8 -179.63,-428.91 81.54,-54.59 321.83,-142 425.22,-183.31 76.22,-30.47 138.66,-55.49 217.35,-86.94 197.39,-78.91 112.8,-29.78 177.64,-126.63zm880.02 1592.09c35.75,31.72 60.15,109.09 100.76,152.36 42.72,45.5 81.36,79.27 126.24,120.52 -11.25,19.17 -12.6,17.95 -26.41,35.43l-25.08 41.43c-34.33,-3.79 -10.03,2.93 -19.09,-17.79 -85.97,-16.4 -613.14,-399 -720.67,-449.92 15.03,-42.17 780.65,-1175.97 841.97,-1241.83 53.32,36.78 135.34,78.34 200.48,116.29l399.41 235.44c69.84,40.19 134.87,86.11 201.14,114.97 -21.5,59.27 -383.83,577.02 -454.25,686.96 -35.67,55.7 -117.22,173.92 -155.14,214.16 -80.24,-40.96 -143.1,-95.8 -221.13,-148.6 -92.89,-62.86 -180.05,-146.53 -226.25,-116.27 -34.17,22.38 -36.61,49.52 -34,119.86 2.05,55.07 14.92,86.24 12.02,136.99zm-748.58 208.06l197.51 5.02 -195.81 83.09 -130.31 51.47c-85.58,-144.34 -687.3,-1461.96 -695.83,-1493.77l663.14 -257.49c10.78,249.66 -17.47,1504.9 13.69,1599.98 39.67,13.03 95.06,13.23 147.61,11.7zm364.08 -813.5c-13,67.94 -118.57,197.92 -161.38,260.44 -30.5,44.5 -45.11,68.26 -80.77,117.39 -111.26,153.37 -102.12,127.19 203.83,325.2l-82.95 4.02 -294.94 -0.3 -6.54 -1587.63 853.32 0 0.16 160.94c-0.87,145.36 -17.39,135.41 -82.8,233.11 -40.75,60.86 -94.59,126.97 -129.7,190.31l-218.23 296.52z"/>
   <path class="fil6" d="M1760.11 1857.66c-62.64,-8.28 -132.86,-6.78 -194.05,0.34 -59.98,1.77 -237.47,78.61 -283.53,113.14 38.71,78.36 115.44,130.32 151.97,233.13 6.63,18.66 8.64,33.75 14.22,51.56l22.13 50.67c30.12,-70.79 132.21,-142.73 229.62,-183.37 199.63,-83.3 306.52,-26.16 327.95,-83.05 12.16,-32.23 -58.64,-59.28 -119.7,-98.39 -45.03,-28.84 -105.8,-75.52 -148.61,-84.03z"/>
   <g>
    <path class="fil0 str0" d="M1615.71 322.49c165.04,-7.92 309.3,89.94 372.72,221.05 125.48,259.4 -53.03,557.66 -337.65,571.55 -225.39,10.99 -405.02,-166.22 -414.51,-378.24 -9.79,-218.94 157.73,-403.72 379.44,-414.36zm-399.97 379.07l0 34.44c1.6,4.75 3.48,36.48 4.82,45.38 2.08,13.85 4.96,28.5 8.27,40.98 31.61,119.1 114.08,222.58 225.22,273.03 36.43,16.53 72.69,29.07 114.25,35.1 7.29,1.06 40.16,3.74 43.68,5.01l45.9 0c4.58,-2.01 35.37,-4.37 43.97,-5.75 86.56,-13.88 167.7,-58.29 225.92,-116.75 61.33,-61.57 100.67,-138.33 115.85,-227.25 1.44,-8.44 3.25,-37.5 5.55,-42.73l0 -46.5c-1.92,-4.73 -3.9,-35.46 -5.38,-44.06 -2.42,-13.99 -4.94,-27.58 -8.6,-40.99 -20.13,-73.83 -57.45,-135.99 -107.42,-186.91 -48.59,-49.51 -114.62,-88.53 -186.33,-108.08 -13.05,-3.56 -26.83,-6.38 -41.12,-8.77 -8.18,-1.36 -37.28,-3.35 -42.51,-5.65l-49.72 0c-4.14,1.79 -36.4,4.41 -44.65,5.79 -14.92,2.5 -27.16,5.18 -40.74,8.86 -159,43.13 -278.42,177.94 -302.28,340.42 -1.26,8.59 -3.13,39.83 -4.68,44.43z"/>
    <path class="fil0 str0" d="M1483.28 551.1c-0.2,6.18 5.95,40.16 7.72,50.63 1.53,9 2.85,8.87 -2.27,13.82 -6.46,6.26 -37.34,35.25 -39.67,40.32l59.92 7.86c8.99,18.65 18.06,36.81 26.43,54.6 2.9,-3.19 4.49,-7.59 6.72,-12.05 2.39,-4.78 4.14,-8.49 6.49,-13.2 19.63,-39.48 4.79,-27.93 59.05,-37.54l11.77 -1.97c5.35,-1.78 1.93,-0.29 4.12,-2.67l-41.93 -40.01 10.09 -61.4c-9.09,2.26 -50.15,27.86 -54.2,28.2 -4.74,0.39 -45.17,-23.54 -54.24,-26.59z"/>
    <path class="fil0 str0" d="M1679.62 551.46l8.13 51.98c1.65,9.35 1.39,8.42 -3.82,13.48 -4.78,4.65 -37.82,35.88 -38.22,39.23l59.62 7.52c4.51,8.58 23.41,50.95 27.39,54.5 8.34,-16.21 16.73,-33.71 24.82,-50.59 3.19,-6.66 3.98,-5.1 12.27,-6.43l50 -8.1c-1.43,-4.17 -0.74,-2.88 -3.93,-6.04 -1.89,-1.88 -3.07,-2.96 -5.01,-4.79l-29.69 -28.37c-5.21,-4.92 -3.57,-5.25 -2.1,-13.82 2.2,-12.8 8.16,-41.1 8.66,-50.67 -7.48,2.4 -49.58,27.59 -53.29,28.22 -3.28,0.56 -22.88,-10.41 -27.1,-12.61 -6.23,-3.24 -21.6,-12.03 -27.73,-13.51z"/>
    <path class="fil0 str0" d="M1787.64 896.71c-0.2,-7.18 -6.42,-39.83 -8.44,-50.77 -1.73,-9.3 -2.25,-8.19 3.25,-13.3 7.05,-6.55 12.68,-12.47 19.94,-19.5 5.25,-5.1 16.32,-13.71 19.27,-19.55 -11.28,-1.48 -22.78,-3.01 -34.21,-4.35 -34.95,-4.12 -23.67,2.19 -41.64,-32.61 -2.29,-4.43 -4.22,-8.19 -6.31,-12.34 -1.66,-3.32 -4.23,-9.6 -7.16,-11.98 -3.76,7.9 -8.49,17.14 -12.75,25.44 -15.86,30.91 -9.25,28.16 -26.81,30.93 -10.09,1.58 -44.42,5.75 -48.58,8.41 5.75,6.46 42,38.15 43.08,41.08 1.35,7.72 -8.12,47.83 -9.58,60.06 10.87,-2.83 49.89,-27.79 55.09,-27.96 3.61,-0.12 45.99,23.46 54.85,26.44z"/>
    <path class="fil0 str0" d="M1449.83 794.63c3.62,6.22 31.36,32.65 38.63,39.65 6.67,6.43 2.4,13.75 -0.58,32.08 -1.84,11.35 -4.13,22.4 -5.56,33.28 3.29,-0.41 23.22,-11.45 27.12,-13.64 3.97,-2.24 24.78,-13.92 27.07,-13.83 1.94,0.07 23.31,12.01 27.01,14.06 5.24,2.9 21.9,12.98 26.58,13.69 -1.36,-11.79 -3.61,-21.63 -5.46,-33.49 -3.22,-20.59 -7.1,-25.11 -0.35,-31.53 13.39,-12.75 25.73,-25.98 38.83,-38.7 -1.2,-1 -0.3,-0.49 -2.28,-1.28l-47 -7.42c-8.77,-1.1 -9.65,0.3 -12.68,-6.2l-24.53 -50.57 -26.7 55.07 -60.1 8.83z"/>
    <path class="fil0 str0" d="M1285.58 654.05c6.19,-2.4 11.78,-19.58 14.49,-25.63 53.51,-119.55 138.06,-207.25 261.57,-257.7 15.18,-6.2 42.81,-16.79 58.95,-20.05 -30.18,-0.54 -94.77,22.61 -122.33,35.65 -70.84,33.52 -126.99,86.52 -167.45,152.43 -12.23,19.92 -46.65,84.85 -45.23,115.3z"/>
    <path class="fil0 str0" d="M1269.97 746.71c2.72,19.18 32.78,16.23 30.88,-4.12 -1.95,-20.95 -33.85,-16.87 -30.88,4.12z"/>
    <path class="fil0 str0" d="M1330.47 861.7c9.4,-19.24 -21.81,-31.55 -28.61,-12.46 -6.97,19.59 20.05,30 28.61,12.46z"/>
    <path class="fil0 str0" d="M1300.19 696.33c6.88,-19.84 -24.1,-29.13 -29.76,-8.94 -5.27,18.81 23.1,28.15 29.76,8.94z"/>
    <path class="fil0 str0" d="M1278.21 802.56c3.06,18.59 34.81,15.19 30.4,-6.36 -3.73,-18.27 -33.91,-14.9 -30.4,6.36z"/>
   </g>
   <path class="fil4" d="M1566.06 1858c61.19,-7.12 131.41,-8.62 194.05,-0.34 -15.8,-23.89 -5.15,-17.61 -34.37,-37.41 -27.5,-18.62 -24.21,-12.73 -45,-20.4 -40.25,13.2 -89.6,28.62 -114.68,58.15z"/>
   <path class="fil7" d="M1390.53 321.73c-20.5,-52.14 7.49,-24.14 -44.54,-44.75 -18.69,29.3 -8.74,7.44 -21.93,43.03l21.41 25.19c35.23,-13.45 14.66,1.3 45.06,-23.47z"/>
   <path class="fil5" d="M1718.39 636.34l-13.34 -12.42 -13.24 -13.24 -13.21 -13.21 -13.24 -13.24 -13.23 -13.23 -13.44 -13.19 -15 -12.63 -16.17 -10.42 16.17 10.42 15 12.63 13.44 13.19 13.23 13.23 13.24 13.24 13.21 13.21 13.24 13.24 13.34 12.42 54.33 53.78c35.11,-63.34 88.95,-129.45 129.7,-190.31 65.41,-97.7 81.93,-87.75 82.8,-233.11 -75.03,64.59 -189.69,329.5 -266.83,369.64z"/>
   <path class="fil8" d="M2095.41 1924.03c14.84,-11.07 18.31,-14.37 33.53,-32.26 -70.55,-57.22 -190.27,-158.1 -189.95,-299.69 2.9,-50.75 -9.97,-81.92 -12.02,-136.99 -2.61,-70.34 -0.17,-97.48 34,-119.86 46.2,-30.26 133.36,53.41 226.25,116.27 78.03,52.8 140.89,107.64 221.13,148.6 37.92,-40.24 119.47,-158.46 155.14,-214.16 70.42,-109.94 432.75,-627.69 454.25,-686.96 -66.27,-28.86 -131.3,-74.78 -201.14,-114.97l-399.41 -235.44c-65.14,-37.95 -147.16,-79.51 -200.48,-116.29 -61.32,65.86 -826.94,1199.66 -841.97,1241.83 107.53,50.92 634.7,433.52 720.67,449.92z"/>
   <polygon class="fil0" points="2831.68,264.57 2937.5,264.57 2937.5,158.75 2831.68,158.75 "/>
   <path class="fil9" d="M2095.41 1924.03c9.06,20.72 -15.24,14 19.09,17.79l25.08 -41.43c13.81,-17.48 15.16,-16.26 26.41,-35.43 -44.88,-41.25 -83.52,-75.02 -126.24,-120.52 -40.61,-43.27 -65.01,-120.64 -100.76,-152.36 -0.32,141.59 119.4,242.47 189.95,299.69 -15.22,17.89 -18.69,21.19 -33.53,32.26z"/>
   <g>
    <path class="fil0 str0" d="M2312.23 530.87c165.04,-7.92 309.3,89.94 372.72,221.05 125.48,259.39 -53.03,557.66 -337.65,571.54 -225.4,10.99 -405.02,-166.21 -414.51,-378.23 -9.8,-218.95 157.73,-403.72 379.44,-414.36zm-399.98 379.07l0 34.43c1.61,4.76 3.49,36.49 4.83,45.39 2.08,13.85 4.96,28.49 8.27,40.98 31.61,119.09 114.08,222.58 225.22,273.02 36.42,16.54 72.69,29.07 114.25,35.11 7.29,1.06 40.16,3.73 43.68,5.01l45.9 0c4.58,-2.02 35.36,-4.38 43.97,-5.76 86.55,-13.88 167.69,-58.29 225.92,-116.74 61.32,-61.58 100.67,-138.33 115.84,-227.26 1.44,-8.44 3.26,-37.5 5.56,-42.72l0 -46.5c-1.92,-4.73 -3.9,-35.46 -5.39,-44.06 -2.41,-14 -4.93,-27.59 -8.59,-40.99 -20.13,-73.84 -57.46,-135.99 -107.42,-186.91 -48.59,-49.52 -114.62,-88.53 -186.33,-108.09 -13.05,-3.56 -26.83,-6.38 -41.13,-8.76 -8.17,-1.36 -37.27,-3.35 -42.5,-5.66l-49.72 0c-4.14,1.79 -36.4,4.42 -44.65,5.8 -14.92,2.5 -27.16,5.18 -40.74,8.86 -159,43.13 -278.43,177.94 -302.28,340.42 -1.26,8.59 -3.13,39.82 -4.69,44.43z"/>
    <path class="fil0 str0" d="M2179.79 759.48c-0.2,6.17 5.95,40.15 7.73,50.63 1.52,8.99 2.85,8.87 -2.27,13.82 -6.47,6.26 -37.34,35.24 -39.67,40.32l59.92 7.86c8.99,18.65 18.06,36.81 26.43,54.59 2.9,-3.18 4.49,-7.59 6.72,-12.05 2.38,-4.78 4.14,-8.48 6.48,-13.2 19.64,-39.48 4.8,-27.92 59.06,-37.53l11.76 -1.97c5.35,-1.79 1.94,-0.29 4.13,-2.67l-41.93 -40.01 10.09 -61.4c-9.09,2.26 -50.15,27.86 -54.2,28.19 -4.74,0.39 -45.18,-23.54 -54.25,-26.58z"/>
    <path class="fil0 str0" d="M2376.14 759.83l8.12 51.99c1.66,9.35 1.39,8.42 -3.82,13.48 -4.77,4.65 -37.81,35.88 -38.22,39.23l59.63 7.52c4.51,8.58 23.41,50.95 27.38,54.5 8.35,-16.21 16.74,-33.71 24.83,-50.6 3.19,-6.65 3.98,-5.1 12.26,-6.42l50.01 -8.1c-1.43,-4.18 -0.74,-2.88 -3.94,-6.05 -1.88,-1.87 -3.06,-2.95 -5,-4.79l-29.69 -28.37c-5.21,-4.91 -3.57,-5.24 -2.1,-13.82 2.2,-12.8 8.16,-41.09 8.66,-50.66 -7.49,2.39 -49.58,27.59 -53.29,28.22 -3.29,0.55 -22.89,-10.41 -27.1,-12.61 -6.23,-3.25 -21.61,-12.04 -27.73,-13.52z"/>
    <path class="fil0 str0" d="M2484.16 1105.09c-0.21,-7.18 -6.42,-39.83 -8.45,-50.77 -1.72,-9.31 -2.24,-8.2 3.26,-13.3 7.04,-6.56 12.68,-12.47 19.93,-19.51 5.26,-5.09 16.33,-13.7 19.28,-19.54 -11.28,-1.48 -22.78,-3.01 -34.22,-4.36 -34.95,-4.12 -23.66,2.2 -41.63,-32.6 -2.29,-4.43 -4.23,-8.2 -6.31,-12.35 -1.67,-3.32 -4.23,-9.59 -7.16,-11.98 -3.76,7.91 -8.49,17.14 -12.75,25.45 -15.86,30.91 -9.25,28.16 -26.82,30.92 -10.09,1.59 -44.41,5.76 -48.57,8.41 5.75,6.46 42,38.16 43.08,41.09 1.34,7.72 -8.12,47.82 -9.58,60.06 10.86,-2.84 49.88,-27.79 55.09,-27.96 3.61,-0.12 45.99,23.46 54.85,26.44z"/>
    <path class="fil0 str0" d="M2146.35 1003.01c3.62,6.22 31.36,32.64 38.63,39.65 6.67,6.43 2.4,13.74 -0.58,32.08 -1.85,11.35 -4.14,22.39 -5.56,33.28 3.29,-0.42 23.22,-11.46 27.11,-13.65 3.97,-2.23 24.79,-13.92 27.08,-13.83 1.93,0.08 23.3,12.01 27,14.06 5.24,2.9 21.91,12.99 26.58,13.7 -1.36,-11.8 -3.6,-21.64 -5.46,-33.5 -3.22,-20.58 -7.09,-25.1 -0.34,-31.53 13.39,-12.74 25.72,-25.98 38.83,-38.7 -1.2,-1 -0.3,-0.49 -2.29,-1.28l-47 -7.42c-8.76,-1.1 -9.65,0.31 -12.68,-6.19l-24.53 -50.57 -26.69 55.06 -60.1 8.84z"/>
    <path class="fil0 str0" d="M1982.1 862.43c6.18,-2.41 11.78,-19.58 14.49,-25.63 53.51,-119.55 138.06,-207.25 261.57,-257.7 15.18,-6.2 42.81,-16.8 58.95,-20.05 -30.18,-0.54 -94.78,22.6 -122.34,35.65 -70.83,33.52 -126.98,86.51 -167.44,152.42 -12.23,19.93 -46.65,84.86 -45.23,115.31z"/>
    <path class="fil0 str0" d="M1966.49 955.08c2.72,19.18 32.78,16.23 30.88,-4.11 -1.95,-20.95 -33.85,-16.87 -30.88,4.11z"/>
    <path class="fil0 str0" d="M2026.99 1070.08c9.39,-19.24 -21.82,-31.56 -28.61,-12.46 -6.97,19.58 20.04,30 28.61,12.46z"/>
    <path class="fil0 str0" d="M1996.71 904.7c6.88,-19.83 -24.11,-29.12 -29.77,-8.93 -5.27,18.8 23.11,28.15 29.77,8.93z"/>
    <path class="fil0 str0" d="M1974.72 1010.94c3.07,18.59 34.82,15.18 30.41,-6.37 -3.73,-18.26 -33.91,-14.9 -30.41,6.37z"/>
   </g>
  </g>
 </g>
</svg>
