<?xml version="1.0" encoding="UTF-8"?>
<!DOCTYPE svg PUBLIC "-//W3C//DTD SVG 1.1//EN" "http://www.w3.org/Graphics/SVG/1.1/DTD/svg11.dtd">
<!-- Creator: CorelDRAW 2017 -->
<svg xmlns="http://www.w3.org/2000/svg" xml:space="preserve" width="33.8666mm" height="33.8666mm" version="1.1" style="shape-rendering:geometricPrecision; text-rendering:geometricPrecision; image-rendering:optimizeQuality; fill-rule:evenodd; clip-rule:evenodd"
viewBox="0 0 3386.66 3386.66"
 xmlns:xlink="http://www.w3.org/1999/xlink">
 <defs>
  <style type="text/css">
   <![CDATA[
    .str0 {stroke:#2E58FF;stroke-width:7.62;stroke-miterlimit:22.9256}
    .fil0 {fill:#2E58FF}
    .fil3 {fill:#2E58FF}
    .fil2 {fill:#A2D0FF}
    .fil1 {fill:#D0E6FF}
   ]]>
  </style>
 </defs>
 <g id="Capa_x0020_1">
  <metadata id="CorelCorpID_0Corel-Layer"/>
  <g id="_2326489727760">
   <path class="fil0" d="M1415.52 455.02c102.16,78.6 118.33,-3.78 238.03,4.11 92.8,6.11 135.78,64.64 159.39,150.6 44.36,161.48 82.13,332.07 123.68,496.93 84.03,333.44 165.72,660.16 249.64,994.07 41.36,164.61 81.42,322.23 122.76,486.54 63.14,250.86 54.79,306.75 -188.57,367.29 -335.68,83.48 -661.76,167.12 -994.18,250.25 -159.05,39.76 -378.67,139.61 -456.83,-24.38 -32.5,-68.19 -344.78,-1349.05 -379.33,-1486.47 -40.95,-162.91 -81.61,-324.48 -122.2,-486.37 -116.06,-462.74 -43.47,-371.68 850.06,-600.38 104.27,-26.69 179.14,-11.92 194.77,-116.64 -69.84,-59.44 -130.25,-15.94 -321.08,31.75l-697.21 175.94c-97.78,36.69 -183.6,120.12 -194.45,239.01l0 15.16c14.56,186.7 466.52,1925.97 513.11,2107.41 89.5,348.43 211.3,365.12 518.77,288.22 216.52,-54.16 1031.17,-245.58 1225.85,-308.74 55.98,-18.17 107.81,-49.59 137.48,-88.14 73.66,-162.97 86.44,-140.67 33.17,-351l-452.01 -1797.88c-69.1,-274.93 -82.08,-487.65 -420.29,-446.76l15.16 -60.33c42.27,-220.52 178.42,-186.89 375.11,-137.5l920.13 231.63c130.47,32.75 363.62,56.23 387.52,177 48.12,76.81 -18.72,227.61 -41.1,318.01l-385.95 1533.06c-25.38,101.21 -53.6,205.16 -76.91,306.99 -52.11,227.73 -127.08,128.81 -129.5,253.23 65.3,106.58 176.55,-46.45 202.41,-100.68 28.9,-60.63 220.15,-840.29 243.54,-933.85 53.22,-212.84 102.46,-409.72 156.13,-624.4 52.88,-211.58 110.67,-412.74 156.69,-623.91 3.53,-16.19 5.94,-31.52 7.36,-46.05l0 -60.44c-8.27,-76.18 -48.38,-127.5 -95.44,-174.28 -47.63,-47.36 -56.19,-49.39 -127.59,-70.84 -120.43,-36.2 -1234.74,-321.03 -1402.52,-342.09l-43.79 0c-100.93,9.5 -176.12,70.56 -217.03,137.68 -26.98,44.28 -83.47,250.08 -84.78,316.25z"/>
   <path class="fil1" d="M1571.24 295.21c435.5,-34.39 398.66,346.64 482.69,563.33 201.14,-83.61 241.45,-153.7 557.78,-197.45 397.89,-55.05 466.46,118.68 649.13,-22.21l-6.84 -72.54c-23.9,-120.77 -257.05,-144.25 -387.52,-177l-920.13 -231.63c-196.69,-49.39 -332.84,-83.02 -375.11,137.5z"/>
   <path class="fil2" d="M2395.21 2951.18c69.85,28.63 163.02,40.39 225.33,26.45 2.42,-124.42 77.39,-25.5 129.5,-253.23 23.31,-101.83 51.53,-205.78 76.91,-306.99l385.95 -1533.06c22.38,-90.4 89.22,-241.2 41.1,-318.01l6.84 72.54c-182.67,140.89 -251.24,-32.84 -649.13,22.21 -316.33,43.75 -356.64,113.84 -557.78,197.45 -84.03,-216.69 -47.19,-597.72 -482.69,-563.33l-15.16 60.33c338.21,-40.89 351.19,171.83 420.29,446.76l452.01 1797.88c53.27,210.33 40.49,188.03 -33.17,351z"/>
   <path class="fil1" d="M1212.74 490.57c-15.63,104.72 -90.5,89.95 -194.77,116.64 -893.53,228.7 -966.12,137.64 -850.06,600.38 40.59,161.89 81.25,323.46 122.2,486.37 34.55,137.42 346.83,1418.28 379.33,1486.47 78.16,163.99 297.78,64.14 456.83,24.38 332.42,-83.13 658.5,-166.77 994.18,-250.25 243.36,-60.54 251.71,-116.43 188.57,-367.29 -41.34,-164.31 -81.4,-321.93 -122.76,-486.54 -83.92,-333.91 -165.61,-660.63 -249.64,-994.07 -41.55,-164.86 -79.32,-335.45 -123.68,-496.93 -23.61,-85.96 -66.59,-144.49 -159.39,-150.6 -119.7,-7.89 -135.87,74.49 -238.03,-4.11 -69.09,-3.36 -120.72,33.92 -202.78,35.55z"/>
   <path class="fil3 str0" d="M1138.21 1189.85c410.14,-57.92 732.99,253.56 776.17,597.86 13.59,108.46 0.57,215.92 -31.64,310.02 -60.85,177.75 -141.71,227.43 -167.53,267.81 -12.14,19.01 1.37,46.6 26.16,35.08 16.94,-7.88 66.14,-69.07 80.66,-89.51 175.17,-246.59 190.23,-558.17 47.05,-802.67 -79.79,-136.24 -204.82,-254.61 -370.23,-320.25 -582.97,-231.33 -1172.87,340.15 -964.66,931.54 59.47,168.93 180.93,304.38 308.06,382.29 213.35,130.72 524.11,149.84 749.81,14.52 26.83,-16.08 27.48,-47.4 -1.33,-48.38 -9.88,-0.34 -98.02,45.23 -120.76,53.54 -43.32,15.84 -88.09,28 -135.03,34.98 -414.88,61.65 -740.85,-237.92 -789.78,-584.53 -30.12,-213.37 46.72,-415.43 149.2,-533.5 52.68,-60.7 103.19,-112.69 184.86,-160.12 73.46,-42.67 158.46,-74.49 258.99,-88.68z"/>
   <path class="fil3" d="M1129.77 1558.74c9.55,30.35 56.95,39.31 77.58,59.11 26.56,25.51 14.89,78.55 27.13,115.79 27.82,1.42 56.58,-41.87 79.88,-54.19 39.22,-20.76 81.26,12.63 117.05,8.89 19.88,-30.36 -29.77,-63.12 -24.72,-110.36 3.63,-33.86 50.65,-71.69 41.71,-95.71 -1.3,-0.81 -3.47,-3.11 -4.25,-1.77 -0.79,1.35 -3.24,-1.33 -4.35,-1.55l-9.33 -1.83c-4.66,-0.4 -14.63,0.56 -19.73,1 -17.55,1.49 -27.18,1.97 -42.31,-0.44 -7.42,-20.03 -8.84,-18.2 0.67,-39.51 50.79,-11.44 145.61,-19.93 127.48,65.18 -5.39,25.29 -32.74,50.13 -40.11,71.15 -8.8,25.12 16.12,54.38 24.05,78.07 10.6,31.67 0.75,61.02 -19.77,74.14 -27.89,17.83 -61.9,4.49 -90.87,-2.67 -70.12,-17.32 -74.62,76.03 -143.06,55.9 -76.23,-22.41 -13.2,-107.33 -72.65,-141.96 -24.85,-14.47 -51.13,-25.58 -63.12,-46.9 -44.34,-78.84 77.66,-94.96 94.1,-112.29 14.2,-14.97 15.09,-63.29 25.3,-84.73 32.98,-69.29 131.39,-23.18 111.15,33.49 -42.39,16.44 -29.22,-15.01 -61.26,-21.48 -22.06,25.69 -12.52,72.71 -39.26,102.89 -20.24,22.86 -73.56,28.41 -91.31,49.78z"/>
   <path class="fil3" d="M1328.46 1958.39c9.54,30.35 56.95,39.31 77.58,59.11 26.56,25.51 14.89,78.56 27.13,115.79 27.82,1.42 56.58,-41.86 79.87,-54.19 39.22,-20.76 81.26,12.63 117.06,8.89 19.88,-30.36 -29.77,-63.12 -24.72,-110.36 3.63,-33.85 50.65,-71.69 41.7,-95.71 -1.29,-0.81 -3.46,-3.1 -4.24,-1.77 -0.79,1.35 -3.24,-1.33 -4.35,-1.55l-9.33 -1.82c-4.66,-0.41 -14.63,0.56 -19.73,0.99 -17.55,1.49 -27.18,1.97 -42.31,-0.44 -7.42,-20.03 -8.84,-18.2 0.66,-39.51 50.8,-11.44 145.62,-19.93 127.49,65.18 -5.39,25.3 -32.74,50.13 -40.11,71.15 -8.8,25.12 16.12,54.39 24.05,78.08 10.59,31.66 0.74,61.02 -19.77,74.13 -27.9,17.83 -61.9,4.49 -90.87,-2.67 -70.12,-17.32 -74.62,76.03 -143.06,55.91 -76.23,-22.41 -13.2,-107.34 -72.65,-141.97 -24.86,-14.47 -51.13,-25.57 -63.12,-46.9 -44.34,-78.84 77.65,-94.95 94.1,-112.28 14.2,-14.98 15.09,-63.3 25.29,-84.74 32.99,-69.29 131.4,-23.18 111.15,33.49 -42.38,16.45 -29.21,-15.01 -61.25,-21.48 -22.06,25.69 -12.53,72.71 -39.26,102.89 -20.25,22.86 -73.56,28.41 -91.31,49.78z"/>
   <path class="fil3" d="M720.36 1807.65c9.54,30.35 56.95,39.31 77.58,59.12 26.56,25.5 14.89,78.55 27.13,115.78 27.81,1.42 56.58,-41.86 79.87,-54.19 39.22,-20.76 81.26,12.63 117.06,8.89 19.88,-30.36 -29.77,-63.12 -24.72,-110.36 3.63,-33.85 50.65,-71.69 41.7,-95.71 -1.3,-0.8 -3.46,-3.1 -4.24,-1.77 -0.79,1.35 -3.24,-1.33 -4.35,-1.55l-9.34 -1.82c-4.65,-0.41 -14.63,0.56 -19.72,0.99 -17.55,1.49 -27.18,1.97 -42.31,-0.44 -7.42,-20.03 -8.84,-18.2 0.66,-39.51 50.8,-11.44 145.62,-19.93 127.49,65.18 -5.39,25.3 -32.74,50.13 -40.11,71.15 -8.8,25.12 16.12,54.39 24.05,78.08 10.59,31.67 0.74,61.02 -19.77,74.13 -27.9,17.83 -61.9,4.49 -90.87,-2.67 -70.12,-17.32 -74.62,76.03 -143.06,55.91 -76.23,-22.41 -13.2,-107.33 -72.65,-141.96 -24.86,-14.48 -51.13,-25.58 -63.12,-46.91 -44.34,-78.84 77.65,-94.95 94.1,-112.28 14.2,-14.98 15.09,-63.3 25.29,-84.74 32.99,-69.29 131.4,-23.18 111.15,33.49 -42.38,16.45 -29.21,-15.01 -61.25,-21.48 -22.06,25.69 -12.53,72.71 -39.26,102.9 -20.25,22.85 -73.57,28.4 -91.31,49.77z"/>
   <path class="fil3" d="M952.56 2226.41c9.54,30.36 56.95,39.32 77.57,59.12 26.56,25.51 14.9,78.55 27.14,115.79 27.81,1.42 56.58,-41.87 79.87,-54.19 39.22,-20.76 81.26,12.63 117.06,8.89 19.88,-30.36 -29.77,-63.12 -24.72,-110.36 3.62,-33.86 50.64,-71.69 41.7,-95.71 -1.3,-0.81 -3.47,-3.11 -4.24,-1.77 -0.79,1.35 -3.25,-1.33 -4.36,-1.55l-9.33 -1.83c-4.65,-0.41 -14.63,0.56 -19.72,1 -17.56,1.49 -27.18,1.96 -42.31,-0.44 -7.42,-20.03 -8.84,-18.2 0.66,-39.51 50.8,-11.44 145.61,-19.93 127.48,65.18 -5.39,25.29 -32.74,50.12 -40.1,71.14 -8.81,25.13 16.12,54.39 24.05,78.08 10.59,31.67 0.74,61.02 -19.77,74.14 -27.9,17.83 -61.9,4.49 -90.87,-2.67 -70.12,-17.32 -74.63,76.03 -143.06,55.9 -76.23,-22.41 -13.2,-107.33 -72.65,-141.96 -24.86,-14.47 -51.13,-25.58 -63.12,-46.9 -44.34,-78.84 77.65,-94.96 94.09,-112.29 14.2,-14.97 15.09,-63.29 25.3,-84.73 32.99,-69.29 131.4,-23.18 111.15,33.49 -42.38,16.44 -29.21,-15.01 -61.25,-21.48 -22.07,25.69 -12.53,72.71 -39.26,102.89 -20.25,22.86 -73.57,28.41 -91.31,49.77z"/>
  </g>
 </g>
</svg>
