<svg xmlns="http://www.w3.org/2000/svg" width="60" height="60" viewBox="0 0 60 60"><g fill="#0A0B09" fill-rule="evenodd"><path d="M16 11a1 1 0 00-1-1H5a1 1 0 00-1 1c0 2.265 2.677 5 6 5s6-2.735 6-5zm-9.666 1h7.332c-.617 1-2.027 2-3.666 2-1.639 0-3.049-1-3.666-2zM34.582 15.228c-.609.347-1.2.735-1.757 1.152a1 1 0 101.198 1.602 14.9 14.9 0 011.551-1.018.998.998 0 00.372-1.364.996.996 0 00-1.364-.372M59 41.131a1 1 0 00-1 1v1.981a1 1 0 102 0v-1.981a1 1 0 00-1-1M29.954 20.681a.997.997 0 00-1.378.317 17.205 17.205 0 00-1.003 1.85 1 1 0 001.815.841c.26-.558.556-1.107.884-1.63a1 1 0 00-.318-1.378M59 33.208a1 1 0 00-1 1v1.98a1 1 0 102 0v-1.98a1 1 0 00-1-1M50.738 14.859a16.981 16.981 0 00-1.93-.841 1 1 0 00-.682 1.88c.58.21 1.152.46 1.698.741a1 1 0 00.914-1.78M58.905 29.27l.107-.006a.999.999 0 00.888-1.1 16.84 16.84 0 00-.352-2.073 1 1 0 10-1.947.457c.141.604.247 1.22.311 1.827a1 1 0 00.993.895M59 56.977a1 1 0 00-1 1.001V59a1 1 0 102 0v-1.022a1 1 0 00-1-1.001M55.701 18.7a1 1 0 00-1.494 1.33c.41.46.796.952 1.147 1.46a.999.999 0 001.391.255c.454-.313.568-.936.255-1.392a17.422 17.422 0 00-1.299-1.653M42.612 13.004c-.704.016-1.409.076-2.094.177a1 1 0 00.144 1.989l.147-.011a15.066 15.066 0 011.85-.155c.552-.013.989-.472.977-1.024-.013-.552-.49-1.008-1.024-.976M59 49.055a1 1 0 00-1 1v1.98a1 1 0 102 0v-1.98a1 1 0 00-1-1"/><path d="M15.852 18.092C18.359 16.273 20 13.328 20 10c0-5.514-4.486-10-10-10S0 4.486 0 10c0 3.746 2.074 7.014 5.131 8.726l6.316 14.037c.818 1.816 1.161 4.997.751 6.945L9.043 54.711c-.369 1.222-.118 2.584.671 3.646A4.051 4.051 0 0 0 13 60c2.484 0 4.149-1.241 4.95-3.689l.03-.115 3.216-16.078c.337-1.685.257-3.995-.141-5.996l.584.585a3.816 3.816 0 0 0 2.707 1.119c.98 0 1.961-.373 2.707-1.119a3.832 3.832 0 0 0 0-5.414L15.852 18.092zM2 10c0-4.411 3.589-8 8-8s8 3.589 8 8-3.589 8-8 8-8-3.589-8-8zm23.639 23.293a1.83 1.83 0 0 1-2.585.001l-9.157-9.188a1 1 0 0 0-1.417 1.412l5.395 5.413.7 1.734c.751 1.861 1.054 5.095.66 7.061l-3.204 16.017C15.363 57.725 14.181 58 13 58a2.049 2.049 0 0 1-1.681-.835 2.218 2.218 0 0 1-.341-1.959l3.177-15.086c.5-2.373.112-5.966-.884-8.178L7.782 19.744C8.497 19.906 9.237 20 10 20a9.925 9.925 0 0 0 4.061-.87l11.578 11.577a1.83 1.83 0 0 1 0 2.586z"/></g></svg>