<?xml version="1.0" encoding="utf-8"?>
<svg xmlns="http://www.w3.org/2000/svg" xmlns:xlink="http://www.w3.org/1999/xlink" style="margin: auto; background: none; display: block; shape-rendering: auto;" width="200px" height="200px" viewBox="0 0 100 100" preserveAspectRatio="xMidYMid">
<g transform="rotate(0 50 50)">
  <rect x="47" y="24" rx="3" ry="6" width="6" height="12" fill="#0d4ca5">
    <animate attributeName="opacity" values="1;0" keyTimes="0;1" dur="0.8771929824561403s" begin="-0.8040935672514619s" repeatCount="indefinite"></animate>
  </rect>
</g><g transform="rotate(30 50 50)">
  <rect x="47" y="24" rx="3" ry="6" width="6" height="12" fill="#0d4ca5">
    <animate attributeName="opacity" values="1;0" keyTimes="0;1" dur="0.8771929824561403s" begin="-0.7309941520467835s" repeatCount="indefinite"></animate>
  </rect>
</g><g transform="rotate(60 50 50)">
  <rect x="47" y="24" rx="3" ry="6" width="6" height="12" fill="#0d4ca5">
    <animate attributeName="opacity" values="1;0" keyTimes="0;1" dur="0.8771929824561403s" begin="-0.6578947368421052s" repeatCount="indefinite"></animate>
  </rect>
</g><g transform="rotate(90 50 50)">
  <rect x="47" y="24" rx="3" ry="6" width="6" height="12" fill="#0d4ca5">
    <animate attributeName="opacity" values="1;0" keyTimes="0;1" dur="0.8771929824561403s" begin="-0.5847953216374269s" repeatCount="indefinite"></animate>
  </rect>
</g><g transform="rotate(120 50 50)">
  <rect x="47" y="24" rx="3" ry="6" width="6" height="12" fill="#0d4ca5">
    <animate attributeName="opacity" values="1;0" keyTimes="0;1" dur="0.8771929824561403s" begin="-0.5116959064327485s" repeatCount="indefinite"></animate>
  </rect>
</g><g transform="rotate(150 50 50)">
  <rect x="47" y="24" rx="3" ry="6" width="6" height="12" fill="#0d4ca5">
    <animate attributeName="opacity" values="1;0" keyTimes="0;1" dur="0.8771929824561403s" begin="-0.43859649122807015s" repeatCount="indefinite"></animate>
  </rect>
</g><g transform="rotate(180 50 50)">
  <rect x="47" y="24" rx="3" ry="6" width="6" height="12" fill="#0d4ca5">
    <animate attributeName="opacity" values="1;0" keyTimes="0;1" dur="0.8771929824561403s" begin="-0.36549707602339176s" repeatCount="indefinite"></animate>
  </rect>
</g><g transform="rotate(210 50 50)">
  <rect x="47" y="24" rx="3" ry="6" width="6" height="12" fill="#0d4ca5">
    <animate attributeName="opacity" values="1;0" keyTimes="0;1" dur="0.8771929824561403s" begin="-0.29239766081871343s" repeatCount="indefinite"></animate>
  </rect>
</g><g transform="rotate(240 50 50)">
  <rect x="47" y="24" rx="3" ry="6" width="6" height="12" fill="#0d4ca5">
    <animate attributeName="opacity" values="1;0" keyTimes="0;1" dur="0.8771929824561403s" begin="-0.21929824561403508s" repeatCount="indefinite"></animate>
  </rect>
</g><g transform="rotate(270 50 50)">
  <rect x="47" y="24" rx="3" ry="6" width="6" height="12" fill="#0d4ca5">
    <animate attributeName="opacity" values="1;0" keyTimes="0;1" dur="0.8771929824561403s" begin="-0.14619883040935672s" repeatCount="indefinite"></animate>
  </rect>
</g><g transform="rotate(300 50 50)">
  <rect x="47" y="24" rx="3" ry="6" width="6" height="12" fill="#0d4ca5">
    <animate attributeName="opacity" values="1;0" keyTimes="0;1" dur="0.8771929824561403s" begin="-0.07309941520467836s" repeatCount="indefinite"></animate>
  </rect>
</g><g transform="rotate(330 50 50)">
  <rect x="47" y="24" rx="3" ry="6" width="6" height="12" fill="#0d4ca5">
    <animate attributeName="opacity" values="1;0" keyTimes="0;1" dur="0.8771929824561403s" begin="0s" repeatCount="indefinite"></animate>
  </rect>
</g>
<!-- [ldio] generated by https://loading.io/ --></svg>