<?xml version="1.0" encoding="UTF-8"?>
<svg xmlns="http://www.w3.org/2000/svg" fill="none" viewBox="0 0 1830 555">
  <path class="path" stroke="url(#a)" stroke-linecap="round" stroke-linejoin="round" stroke-miterlimit="1.5" stroke-width="5" d="M1827 242.204c-139.19-2.516-91.04 96.248-196.71 132.541-129.82 44.582-198.65-115.219-78.29-183.459 116-43.661 188.19 94.52 106.1 170.173-86.63 79.848-220.31-55.801-132.67-137.498 83.53-77.855 224.76 30.219 151.14 113.343-17.22 19.44-43.79 33.814-69.72 36.421-79.28 7.964-105.35-66.351-158.14-107.785-52.83-41.462-125.63-56.404-190.05-37.439-26.42 7.775-52.16 23.977-68.06 46.659-30.94 44.142 3.83 92.925 50.73 104.496 83.03 20.494 172.54-47.222 155.25-136.128C1363.03 71.11 1085.5 143.072 1129 328.124c36.37 154.704 312.03 109.535 275.7-51.032-16.13-71.317-92.25-126.522-164.76-124.462-68.18 1.938-137.85 62.822-120.63 135.715 8.9 37.611 34.77 67.892 65.55 90.203 88.9 64.427 193.14 43.663 231.52-65.122 12.58-35.672 9.48-73.852-5.55-108.356-58.44-134.146-278.94-30.84-267.1 107.971 11.45 134.061 196.42 182.499 256.52 52.376 14.31-30.991 17.43-67.635 7.94-100.457-7.67-26.534-22.81-51.05-42.74-70.206-157.98-151.89-270.95 62.239-368.35 155.404-26.581 25.432-58.61 46.621-92.706 60.597-86.313 35.375-232.672 8.166-258.884-94.985-48.301-190.078 314.074-309.867 339.993-81.39 8.069 71.116-15.937 152.585-78.676 192.478-66.957 42.582-194.679 26.587-224.741-57.402-9.291-25.951-5.732-54.429-.669-80.894 17.842-93.284 90.043-190.342 193.739-185.596 40.687 1.862 71.668 23.243 93.592 56.604 16.113 24.519 32.042 53.375 35.662 82.94 3.48 28.347-1.25 57.42-12.378 83.621-53.913 126.902-209.907 118.269-291.55 25.702-34.55-39.17-69.652-109.241-41.772-160.547 77.018-141.734 405.77 32.055 309.863 177.373-19.715 29.877-49.527 50.202-83.813 60.07-27.994 8.059-58.184 6.904-86.502 1.236-38.666-7.747-91.977-19.703-113.469-57.084-8.502-14.786-8.218-31.369-4.447-47.601 20.005-86.192 153.973-129.569 229.303-140.314 40.457-5.771 96.645-6.688 100.105 46.721 7.31 112.493-153.997 180.709-245.271 184.141-43.201 1.621-105.452-7.768-120.797-55.274C613.756 267.899 747.022 84.951 846.94 92.48c62.374 4.7 110.738 75.212 129.709 129.564 36.361 104.162-4.528 210.88-125.796 215.75-29.488 1.182-60.638-2.85-87.334-15.982-67.578-33.233-105.244-123.03-102.857-195.996 1.239-37.903 19.038-74.403 47.025-99.645 108.69-98.02 294.733-11.206 269.597 135.79-17.741 103.774-150.174 165.14-231.898 89.352-16.565-15.36-30.434-36.678-32.177-59.752-8.604-113.621 182.689-224.663 237.798-105.085 27.636 59.959-13.76 119.351-76.074 129.611-31.907 5.255-64.158.081-96.052-2.526-26.811-2.189-79.237 2.357-64.53 43.723 8.002 22.514 29.325 39.205 51.128 47.331 122.458 45.621 175.451-164.677 53-193.038-20.417-4.728-42.193-2.376-60.482 8.023-20.005 11.375-35.563 32.146-39.395 54.966-19.877 118.329 185.102 171.381 222.605 54.565 39.592-123.319-136.961-214.468-224.849-130.444-17.221 16.464-30.44 37.583-34.556 61.263-25.089 144.381 181.939 223.689 259.493 99.597 37.557-60.11 27.67-151.967-26.426-198.592-20.349-17.543-47.025-30.39-73.992-32.932-8.475-.798-17.031-.889-25.527-.457-3.866.198-7.732.622-11.577 1.057-1.92.218-7.631 1.178-5.758.704 91.517-23.162 167.503 30.946 170.72 125.584.878 25.808-1.892 50.72-14.957 73.409-15.112 26.256-41.882 46.061-69.2 58.03-107.231 47-196.315-33.206-218.109-135.133-7.429-34.739-7.974-71.224 11.332-102.56C768.378 1.65 1049.82 196.069 976.845 347.868c-46.904 97.559-173.16 97.181-252.829 44.136-107.348-71.479-158.717-202.133-268.823-268.219-118.886-71.356-266.484-55.83-315.774 88.368-80.357 235.084 256.212 358.311 363.983 164.416 54.974-98.903-6.932-251.334-99.199-305.795-76.877-45.376-192.304-16.224-231.67 65.904-77.918 162.556 73.412 495.41 265.113 311.728 21.64-20.737 41.644-44.676 56.124-70.999 21.989-39.975 34.241-85.961 39.673-131.119C554.888 68.018 384.7 54.704 249.98 83.399 183.297 97.602 117.915 115.8 97.603 188.812c-10.337 37.159-5.048 78.438 7.712 114.293 41.89 117.708 166.357 189.45 289.698 179.838 81.232-6.336 169.07-98.43 156.201-182.54C531.936 174.396 350.883 13.556 220.202 70.924 123.198 113.51 29.741 306.685 105.949 401.663c45.218 56.348 130.144 48.938 190.597 26.452 111.779-41.576 237.117-154.313 206.918-286.613-6.09-26.677-15.674-51.965-34.129-72.651-49.556-55.548-133.338-43.958-192.963-12.572-43.802 23.06-80.424 54.794-105.449 97.974-43.325 74.759-64.768 270.396 24.372 323.07 85.493 50.519 240.853-23.067 276.2-110.697 55.794-138.325-60.634-312.415-203.928-331.871-92.574-12.57-140.635 74.613-147.19 156.652-10.775 134.866 45.323 247.319 178.695 288.334 40.098 12.334 85.014 15.671 123.956-2.188 26.108-11.977 49.665-32.234 66.68-55.22C666.044 184.06 240.055 49.37 128.474 169.304c-22.083 23.737-32.825 56.093-34.018 88.057-7.196 192.727 288.789 324.33 378.08 114.662 94.981-223.02-247.664-384.864-347.468-161.84-12.255 27.384-18.919 57.513-19.937 87.484-7.188 211.45 333.006 216.706 387.513-1.121 9.179-36.679 11.094-75.899-6.279-110.615-18.925-37.814-54.906-64.716-95.011-76.704C214.096 56.247 31.572 296.91 195.487 415.436c25.882 18.717 56.728 31.936 87.851 38.853 111.905 24.898 217.794-74.268 230.34-182.939 5.799-50.222-7.213-99.408-27.169-145.266C463.12 72.331 426.125 6.398 360.033 3.168 182.325-5.518 101.022 324.477 153.859 457.714c30.382 76.612 140.778 125.821 211.58 70.891 37.557-29.133 61.371-78.841 71.631-124.341 32.968-146.228-27.024-266.587-167.042-325.546-77.744-32.736-210.692-56.52-212.478 68.907-2.074 145.705 127.484 270.236 257.152 312.669 83.397 27.283 175.234 25.439 222.972-58.969 49.009-86.65 3.546-203.262-77.031-253.365-42.094-26.174-92.483-36.271-141.636-35.1-67.947 1.619-155.721 35.297-164.868 112.819-14.722 124.77 161.556 212.439 266.57 184.549 76.04-20.197 114.795-103.422 131.633-173.176 8.961-37.13 16.774-82.482-.622-118.507-28.537-59.102-107.577-53.209-160.033-36.428-103.479 33.103-272.788 172.425-194.99 295.594 54.199 85.812 205.291 113.067 263.719 17.143 11.597-19.041 17.426-44.655 12.58-66.73-14.125-64.346-88.048-87.127-145.962-88.632-67.616-1.756-127.57 29.035-192.007 44.071C89.506 294.188 48.559 291.608 3 285.981"></path>
  <defs>
    <linearGradient id="a" x1="3" x2="1827.13" y1="277.243" y2="277.243" gradientUnits="userSpaceOnUse">
      <stop stop-color="#F200EF"></stop>
      <stop offset="1" stop-color="#FFD501"></stop>
    </linearGradient>
  </defs>
  <style>
    @media (prefers-reduced-motion: no-preference) {
      .path {
        stroke-dasharray: 10;
        stroke-dashoffset: 1500;
        animation-name: dash;
        animation-fill-mode: forwards;
        animation-timing-function: linear;
        animation-duration: 20s;
        animation-iteration-count: infinite;
	animation-direction: reverse;
      }

      @keyframes dash {
        to {
          stroke-dashoffset: 0;
        }
      }
    }
  </style>
</svg>
