<!DOCTYPE svg PUBLIC "-//W3C//DTD SVG 1.1//EN" "http://www.w3.org/Graphics/SVG/1.1/DTD/svg11.dtd">
<svg xmlns="http://www.w3.org/2000/svg" viewBox="0 0 1920 2017">
<path d="M1273.5 225.685c-5.095.655-7.486 2.493-11.681 8.979-2.224 3.44-5.14 6.971-6.479 7.849-1.339.877-3.835 4.528-5.548 8.113-1.89 3.956-4.489 7.566-6.615 9.188-2.001 1.526-4.469 4.858-5.758 7.774-1.242 2.807-4.082 7.211-6.311 9.787-2.23 2.576-5.896 7.785-8.148 11.575-2.252 3.791-6.252 9.359-8.89 12.373-2.638 3.015-5.781 7.514-6.984 9.999-1.203 2.484-3.772 5.727-5.711 7.205-2.221 1.695-4.794 5.327-6.962 9.831-1.89 3.928-4.195 8.331-5.121 9.785-3.686 5.79 4.061 18.357 11.191 18.155 4.373-.124 15.187-10.874 19.295-19.18 1.252-2.533 4.225-6.633 6.606-9.112 2.38-2.478 5.108-6.531 6.06-9.006.953-2.475 4.28-7.258 7.394-10.629 3.114-3.371 7.342-7.984 9.396-10.25 4.582-5.057 8.901-5.561 13.623-1.588 5.257 4.424 5.303 4.832 7.666 68.967 2.055 55.755 5.258 132.053 6.402 152.5 1.279 22.849 1.896 36.728 3.087 69.5.539 14.85 1.204 30.6 1.477 35 .273 4.4.973 19.925 1.556 34.5.583 14.575 1.499 33.25 2.037 41.5 3.601 55.25 2.118 67.5-8.172 67.5-4.25 0-17.452-13.573-26.486-27.231-3.541-5.353-7.554-10.463-8.919-11.357-1.364-.895-3.885-4.08-5.6-7.079-2.569-4.489-4.117-5.939-8.763-8.206-3.103-1.514-6.587-3.353-7.741-4.086-3.134-1.991-6.307-.673-12.131 5.038-4.334 4.25-5.059 5.447-4.234 6.988 2.917 5.451 12.96 19.192 17.857 24.433 3.084 3.3 7.119 8.267 8.967 11.037 1.848 2.771 4.883 6.036 6.745 7.256 1.861 1.22 4.817 4.757 6.567 7.859 1.941 3.438 4.91 6.852 7.605 8.744 2.432 1.707 5.276 4.771 6.32 6.809 1.044 2.038 5.161 7.283 9.15 11.656 3.989 4.373 10.832 11.876 15.206 16.675 4.374 4.798 9.192 10.435 10.707 12.526 5.355 7.392 16.879 6.495 20.193-1.572 1.02-2.481 3.546-5.969 5.615-7.751 2.069-1.781 4.69-5.071 5.826-7.31 1.135-2.24 4.076-6.541 6.534-9.559 2.458-3.018 6.934-9.286 9.945-13.928 3.012-4.643 6.703-9.567 8.202-10.942 1.499-1.375 3.991-4.975 5.538-8 1.546-3.025 4.691-7.3 6.988-9.5 2.297-2.2 5.128-6.002 6.291-8.449 1.163-2.446 3.737-6.046 5.719-8 5.475-5.395 15.429-20.485 18.248-27.664 1.984-5.053-.325-8.38-8.972-12.925-5.128-2.695-5.26-2.71-8-.937-6.433 4.162-13.601 11.156-15.798 15.414-1.295 2.508-4.425 7.261-6.956 10.561-2.531 3.3-6.156 9.15-8.056 13-5.253 10.646-19.018 24.9-24.044 24.9-9.898 0-11.028-7.351-11.895-77.4-.228-18.425-.899-43.175-1.491-55-.592-11.825-1.976-41.525-3.076-66-1.101-24.475-2.684-58-3.52-74.5-2.626-51.865-3.411-69.18-4.465-98.5-.564-15.675-1.458-33.45-1.988-39.5-5.518-63.083-.194-74.172 24.59-51.222 3.491 3.233 7.434 8.162 9.243 11.555 1.734 3.255 4.779 7.158 6.766 8.673 1.988 1.516 4.853 4.712 6.369 7.101 1.515 2.39 6.463 8.003 10.994 12.474 7.455 7.355 8.523 8.072 11.224 7.532 10.419-2.084 15.405-15.299 8.234-21.824-1.97-1.793-4.703-5.63-6.074-8.527-1.518-3.208-4.392-6.87-7.352-9.365-2.673-2.254-6.087-5.966-7.588-8.248-1.501-2.282-5.728-7.299-9.394-11.149-3.665-3.85-7.849-9.074-9.296-11.608-1.448-2.535-3.888-5.426-5.423-6.425-3.407-2.218-4.722-3.801-7.444-8.967-1.16-2.2-4.982-6.925-8.493-10.5a20413.068 20413.068 0 0 1-16.912-17.25c-11.06-11.295-10.73-11.12-18.942-10.065M925 303.162c-24.693 1.999-42.347 5.452-48.595 9.506-2.104 1.365-25.652 9.332-27.583 9.332-1.847 0-11.258 5.084-13.822 7.467-1.375 1.278-5.875 4.007-10 6.063s-9.894 5.924-12.82 8.594c-2.925 2.671-8.242 6.491-11.814 8.488-4.302 2.406-7.326 4.949-8.955 7.53-1.354 2.143-4.691 5.499-7.417 7.458-2.726 1.958-5.953 5.334-7.171 7.502-1.219 2.168-4.304 5.281-6.855 6.919-3.322 2.131-5.424 4.527-7.4 8.433-1.519 3.001-4.326 6.649-6.239 8.108-2.262 1.726-4.622 5.149-6.751 9.796-1.801 3.928-5.195 9.558-7.544 12.511-3 3.773-5.007 7.788-6.749 13.5-3.91 12.826-13.185 23.288-24.106 27.193-2.573.92-8.324 3.367-12.778 5.437-4.455 2.07-12.33 4.97-17.5 6.444-9.902 2.822-14.258 4.811-22.339 10.199-2.715 1.81-8.209 4.485-12.209 5.944-5.213 1.901-8.631 3.963-12.075 7.283-2.641 2.547-8.215 6.881-12.386 9.631-4.17 2.75-8.664 6.46-9.987 8.245-1.323 1.784-5.105 5.027-8.405 7.205-3.561 2.351-6.791 5.431-7.945 7.576-1.07 1.988-4.132 5.445-6.803 7.682-2.672 2.236-5.923 6.142-7.226 8.679-1.302 2.537-4.654 7.294-7.447 10.57-2.794 3.276-5.079 6.386-5.079 6.91 0 .525-2.718 4.695-6.04 9.267-6.147 8.461-8.96 13.841-8.96 17.137 0 1.769-5.335 13.012-10.503 22.136-1.373 2.424-2.497 5.71-2.497 7.303 0 4.861-3.111 17.016-5.641 22.04-5.406 10.734-6.955 29.706-5.43 66.505 1.583 38.192 3.983 52.503 11.359 67.745 1.33 2.75 4.105 10.4 6.166 17 2.949 9.443 4.765 13.385 8.525 18.5 2.627 3.575 6.247 9.875 8.044 14 2.316 5.318 4.546 8.627 7.664 11.372 2.418 2.129 5.296 5.635 6.396 7.79 2.457 4.817 5.731 6.202 12.641 5.347 7.926-.981 9.618-2.863 10.09-11.225.456-8.069-1.124-12.054-7.866-19.844-2.258-2.608-5.792-8.387-7.855-12.841-2.063-4.455-4.537-8.746-5.5-9.536-2.911-2.392-6.534-10.615-9.189-20.86-1.384-5.337-4.098-14.203-6.033-19.703-5.512-15.67-7.134-22.733-8.425-36.681-1.536-16.594-.734-43.241 1.529-50.819 2.608-8.732 5.261-20.685 6.982-31.453 1.321-8.27 2.407-11.484 6.424-19 2.659-4.976 5.911-12.138 7.227-15.916 1.45-4.164 3.932-8.627 6.303-11.336 2.15-2.457 5.129-7.016 6.618-10.131 1.489-3.115 3.901-6.763 5.359-8.106 1.458-1.344 4.067-4.719 5.798-7.5 3.035-4.877 10.626-13.413 17.722-19.929 1.874-1.721 5.749-5.466 8.611-8.323 2.861-2.857 7.531-6.567 10.377-8.245 2.846-1.678 6.866-4.829 8.935-7.004 2.325-2.444 7.179-5.568 12.715-8.185 4.925-2.327 10.979-5.667 13.454-7.422 7.008-4.97 9.988-6.209 23.703-9.856 27.652-7.353 42.105-12.235 45.66-15.423 2.359-2.115 13.772-24.876 16.132-32.171 2.259-6.983 4.897-12.25 7.016-14.009.912-.757 3.147-4.327 4.967-7.933 1.82-3.607 5.076-8.583 7.234-11.058 2.159-2.475 6.144-7.452 8.856-11.06 6.259-8.324 25.881-27.108 31.1-29.771 2.184-1.114 6.415-4.459 9.402-7.432 3.839-3.823 7.267-6.115 11.698-7.822 3.448-1.328 9.471-4.776 13.385-7.663 7.316-5.395 10.47-6.597 29.302-11.165 4.926-1.195 13.251-3.902 18.5-6.017 14.7-5.92 23.5-7.382 45.045-7.483 18.334-.086 18.582-.058 27.64 3.107 10.931 3.82 18.92 5.892 26.36 6.837 7.249.92 13.339 3.29 19.697 7.666 2.859 1.967 8.354 4.535 12.211 5.706 4.209 1.279 9.527 3.927 13.302 6.625 3.46 2.471 8.71 5.634 11.667 7.027 2.958 1.393 7.683 4.875 10.5 7.739 2.818 2.863 6.555 5.955 8.305 6.87 1.749.916 4.585 3.616 6.3 6 1.715 2.385 5.144 5.82 7.62 7.634 2.477 1.813 5.781 5.314 7.344 7.779 1.564 2.464 4.803 5.986 7.198 7.826 2.919 2.241 5.644 5.779 8.259 10.721 2.146 4.057 5.339 9.176 7.094 11.376 4.266 5.345 5.037 6.921 8.68 17.738 1.716 5.094 5.105 13.003 7.53 17.576 13.473 25.401 16.141 95.743 4.783 126.105-2.47 6.602-4.49 12.648-4.49 13.437 0 4.057-4.459 14.905-8.464 20.593-4.755 6.752-5.639 11.287-3.897 19.994 1.824 9.123 19.025 9.608 23.539.664 1.14-2.259 3.657-6.281 5.593-8.939 2.32-3.185 4.818-8.929 7.328-16.855 2.095-6.613 4.471-13.034 5.281-14.27 4.429-6.759 9.883-41.828 11.127-71.543.584-13.949.475-15.108-2.853-30.5-1.902-8.8-3.76-18.925-4.129-22.5-1.415-13.729-5.411-25.801-13.241-40-1.668-3.025-3.6-7.3-4.294-9.5-1.898-6.021-4.748-11.253-9.198-16.883-2.205-2.789-5.338-7.883-6.961-11.319-1.624-3.437-4.239-7.164-5.812-8.284-1.573-1.12-4.975-5.069-7.559-8.775-5.615-8.05-22.395-24.575-31.46-30.981-3.575-2.527-8.781-6.716-11.568-9.311-2.788-2.594-7.647-5.936-10.799-7.427-3.152-1.492-7.396-4.242-9.432-6.112-2.035-1.871-5.951-4.14-8.701-5.044-6.28-2.063-12.592-4.946-18.929-8.646-3.402-1.986-9.136-3.756-18.5-5.71-7.464-1.559-16.046-3.739-19.071-4.846-14.319-5.241-41.603-7.218-69-5m-6 131.253c-15.016 2.105-19.075 3.32-25.5 7.627-2.2 1.475-8.183 5.034-13.295 7.909-6.686 3.76-10.021 6.324-11.883 9.139-1.424 2.151-4.021 4.797-5.771 5.879-4.671 2.886-6.681 5.464-8.674 11.124-.979 2.782-4.1 8.672-6.934 13.091-5.519 8.603-5.08 6.973-9.415 34.972-1.19 7.685-1.564 15.5-1.339 28.032.345 19.281-.142 21.185-6.227 24.332-5.885 3.043-11.702 2.379-19.462-2.221-3.85-2.283-9.025-4.658-11.5-5.279-2.475-.621-8.775-2.546-14-4.279-15.85-5.258-35.293-4.329-51.394 2.454a629.458 629.458 0 0 1-14.543 5.868c-5.383 2.081-8.835 4.24-12.5 7.819-2.785 2.72-7.972 6.918-11.528 9.329-4.634 3.142-7.129 5.674-8.812 8.945-1.292 2.509-4.139 6.538-6.328 8.953-4.31 4.756-8.594 12.915-9.518 18.125-.318 1.796-2.134 8.36-4.034 14.587-4.603 15.079-5.323 22.743-4.182 44.492.526 10.003.945 23.137.932 29.187-.013 6.05.406 16.625.93 23.5.525 6.875 1.415 25.775 1.979 42 .563 16.225 1.912 47.725 2.997 70s2.427 52.2 2.982 66.5c.555 14.3 1.688 39.05 2.518 55 .83 15.95 1.964 40.7 2.521 55 .556 14.3 1.435 35.45 1.953 47 .518 11.55 1.868 43.05 2.999 70 1.131 26.95 2.313 49.675 2.627 50.5 1.21 3.178 2.309 67.43 1.227 71.751-1.314 5.252-6.585 10.249-10.81 10.249-5.164 0-7.75-4.51-13.582-23.687-1.872-6.153-4.977-14.051-6.9-17.55-2.263-4.117-4.43-10.407-6.136-17.813-2.023-8.778-3.752-13.434-7.408-19.95-2.716-4.841-6.385-13.666-8.523-20.5-2.915-9.323-4.558-12.905-7.36-16.057-1.984-2.232-6.21-7.677-9.392-12.101-9.66-13.429-26.928-27.71-36.678-30.333-2.454-.66-7.979-2.969-12.278-5.13-10.11-5.083-19.15-6.373-38.759-5.529-21.261.915-31.335 3.183-39.754 8.95-5.847 4.005-15.97 9.213-21.453 11.037-.939.312-2.808 2.31-4.152 4.44-1.345 2.13-4.792 5.838-7.661 8.239-3.077 2.577-5.948 6.076-7.001 8.534-.983 2.291-3.814 6.449-6.292 9.239-4.243 4.777-6.122 9.062-8.209 18.711-.357 1.65-2.449 8.333-4.649 14.852l-4.001 11.852.397 15.648.397 15.648 4.65 11.162c2.557 6.139 5.832 16.264 7.277 22.5 4.081 17.616 6.34 25.703 8.505 30.456 3.409 7.483 3.881 9.126 8.421 29.27 4.448 19.732 7.231 28.963 11.795 39.112 1.36 3.025 3.913 12.475 5.674 21 1.761 8.525 4.78 19.775 6.709 25 6.297 17.055 8.206 23.558 11.342 38.637 2.105 10.125 4.318 17.573 6.942 23.363 4.55 10.04 6.023 14.63 9.628 30 1.483 6.325 4.257 14.875 6.163 19 4.722 10.217 6.831 16.421 10.368 30.5 3.077 12.245 5.745 19.763 10.451 29.446 1.456 2.996 4.19 11.464 6.075 18.819 2.443 9.53 4.867 16.153 8.439 23.053 2.756 5.325 6.153 13.905 7.548 19.067 2.607 9.643 6.458 18.592 10.358 24.069 1.218 1.71 3.907 7.958 5.976 13.884 2.309 6.611 5.752 13.844 8.911 18.718 2.832 4.369 6.27 10.869 7.64 14.444 1.371 3.575 4.545 8.975 7.054 12 2.509 3.025 5.775 7.954 7.257 10.953 1.482 2.999 4.977 7.949 7.767 11s6.472 8.022 8.183 11.047c1.712 3.025 4.529 6.335 6.261 7.356 1.733 1.02 5.21 4.508 7.728 7.75 2.517 3.242 4.979 5.894 5.47 5.894.492 0 4.132 3.09 8.09 6.866 15.816 15.092 21.337 19.957 24.425 21.524 1.775.902 5.995 4.108 9.376 7.125 3.381 3.017 6.727 5.485 7.436 5.485.709 0 4.589 2.509 8.624 5.576 4.034 3.067 11.003 7.333 15.486 9.481 4.483 2.148 9.433 4.975 11 6.283 3.335 2.784 8.694 5.66 10.549 5.661 2.031.001 12.764 5.368 18.422 9.212 2.939 1.996 8.054 4.215 12 5.204 3.783.949 10.928 3.89 15.878 6.538 5.907 3.159 11.749 5.399 17 6.518 4.563.972 10.793 3.227 14.5 5.247 8.933 4.868 10.604 5.272 26.077 6.301 9.537.634 15.934 1.635 21.5 3.364 13.378 4.158 15.636 4.683 24.423 5.68 7.681.871 87.677 2.506 154.5 3.158 24.703.24 26.723.117 40.5-2.482 7.975-1.504 27.55-4.315 43.5-6.248 34.848-4.222 50.675-7.296 64-12.43 5.5-2.119 14.5-4.833 20-6.03 14.668-3.195 19.323-4.824 26-9.095 3.3-2.112 10.154-5.195 15.23-6.853 10.693-3.49 13.832-5.001 19.688-9.47 2.344-1.79 7.372-4.547 11.172-6.127 7.973-3.314 11.257-5.359 17.143-10.675 2.329-2.103 6.7-4.914 9.715-6.248 5.741-2.538 7.145-3.782 33.08-29.297 15.137-14.892 28.827-30.154 33.001-36.792 1.029-1.637 3.771-5.057 6.093-7.6 2.322-2.543 4.784-6.498 5.47-8.788.686-2.291 3.421-6.649 6.078-9.685 2.656-3.036 4.83-5.958 4.83-6.493 0-2.083 6.094-16.639 7.75-18.512a475.917 475.917 0 0 0 3.537-4.059c.983-1.143 2.915-6.3 4.293-11.459 1.518-5.682 4.048-11.942 6.42-15.88 3.12-5.181 4.52-9.24 6.9-20 1.642-7.425 4.555-17.174 6.473-21.665 2.868-6.713 3.77-10.622 5.073-22 .872-7.609 2.233-17.885 3.025-22.835 6.153-38.458 6.403-57.473 1.987-151.5-.814-17.325-1.922-43.2-2.463-57.5-.54-14.3-1.436-33.425-1.99-42.5-.555-9.075-1.464-30.9-2.02-48.5-1.287-40.653-3.754-94.898-4.933-108.46-.501-5.754-.671-10.848-.379-11.32.68-1.1-1.435-47.191-2.742-59.744-1.148-11.032-2.423-15.635-7.199-25.976-1.905-4.125-4.727-10.65-6.272-14.5-2.205-5.496-4.168-8.317-9.134-13.127-3.479-3.37-6.326-6.598-6.326-7.174 0-2.198-5.348-7.259-9.709-9.189-2.504-1.107-6.351-3.638-8.549-5.624-5.278-4.768-9.846-6.683-27.465-11.514-27.162-7.448-39.452-7.231-57.615 1.018-3.761 1.708-9.386 3.817-12.5 4.688-3.114.87-8.629 3.571-12.256 6.002-6.899 4.624-9.379 5.166-15.007 3.281-8.52-2.853-10.83-8.555-11.895-29.361-.647-12.622-1.417-17.575-4.863-31.244-4.575-18.152-6.415-22.431-12.462-28.982-2.298-2.49-5.304-6.608-6.68-9.151-1.565-2.895-4.211-5.723-7.076-7.564-2.517-1.618-5.892-4.705-7.5-6.86-2.158-2.893-5.096-4.926-11.227-7.769-4.567-2.118-10.867-5.398-14-7.29-15.502-9.36-77.473-6.872-85.079 3.416-3.756 5.08-18.325 11.944-25.35 11.944-3.821 0-8.302-4.482-9.59-9.592-.541-2.149-1.27-14.708-1.619-27.908-.348-13.2-1.293-38.625-2.1-56.5-3.408-75.564-4.915-111.253-6.987-165.5-1.462-38.285-2.06-52.286-5.017-117.5-1.851-40.818-4.107-53.486-10.61-59.589-1.706-1.601-4.125-5.161-5.375-7.911-5.905-12.988-31.88-37.5-39.738-37.5-.742 0-3.96-1.573-7.152-3.495-3.192-1.922-8.115-4.189-10.941-5.038-7.214-2.167-35.268-2.786-47.638-1.052m9.936 24.097c-10.547 1.44-15.608 3.192-20.077 6.953-1.63 1.371-6.307 4.08-10.395 6.02-9.247 4.388-16.743 11.668-23.212 22.543a7856.327 7856.327 0 0 0-6.901 11.618c-4.688 7.918-5.818 29.773-3.588 69.354.635 11.275 1.639 31.75 2.231 45.5.592 13.75 1.721 38.5 2.509 55 .789 16.5 1.67 37.425 1.958 46.5.289 9.075.979 23.925 1.532 33 .554 9.075 1.468 27.75 2.031 41.5 1.481 36.139 3.763 89.508 4.939 115.5.56 12.375 1.696 38.925 2.525 59 .828 20.075 1.958 42.884 2.509 50.687.552 7.803 1.002 20.178 1 27.5-.001 7.322.447 21.413.998 31.313.55 9.9 1.467 29.7 2.038 44 .57 14.3 1.503 36.93 2.072 50.29 1.007 23.641.98 24.402-1.037 28.5-3.913 7.948-14.419 12.673-17.836 8.021-8.253-11.238-10.2-21.21-10.222-52.357-.005-8-.676-22.175-1.489-31.5-1.387-15.896-2.047-31.788-4.529-108.961-.549-17.053-1.435-35.503-1.969-41-.534-5.496-.983-15.541-.997-22.321-.014-6.78-.467-17.58-1.005-24-.539-6.42-1.659-30.572-2.489-53.672-2.751-76.601-3.648-97.894-4.591-109-.514-6.05-.943-17.3-.954-25-.011-7.7-.429-18.95-.929-25-.5-6.05-1.191-20.9-1.536-33-.688-24.154-1.408-28.632-7.78-48.38-3.909-12.116-4.153-12.551-11.468-20.495-4.11-4.464-10.016-9.87-13.124-12.014-3.107-2.144-7.1-5.159-8.873-6.7-6.867-5.971-29.234-8.333-47.794-5.048-19.864 3.516-24.918 5.435-31.571 11.987-3.156 3.107-7.606 7.191-9.889 9.074-2.284 1.883-4.848 4.808-5.699 6.5-.851 1.692-2.825 4.426-4.385 6.076-3.525 3.727-5.077 7.543-7.727 19-4.655 20.125-5.079 28.86-2.742 56.5.813 9.625 2.385 39.55 3.491 66.5 1.882 45.83 3.72 88.87 6.024 141 .535 12.1 1.223 30.1 1.529 40 .307 9.9.764 19.8 1.016 22 .251 2.2 1.137 18.85 1.968 37s1.952 40.875 2.492 50.5.975 23.391.966 30.59c-.009 7.2.22 13.725.507 14.5.288.776.96 10.635 1.494 21.91s1.63 32.65 2.435 47.5c.805 14.85 1.724 39.375 2.042 54.5 1.154 54.833 1.745 72.112 3.644 106.5 1.063 19.25 2.211 40.85 2.551 48l.619 13-3.702 7.751c-7.675 16.066-20.107 9.216-28.537-15.725-1.623-4.8-4.91-12.17-7.305-16.377-5.255-9.231-6.032-11.143-9.153-22.531-1.408-5.137-4.293-12.094-6.843-16.5-4.21-7.276-5.995-11.937-10.577-27.618-1.124-3.85-3.936-10.132-6.247-13.959-2.552-4.227-5.335-10.902-7.087-17-1.587-5.523-5.302-14.991-8.257-21.041-2.955-6.05-6.784-15.568-8.509-21.151-1.726-5.583-4.854-13.008-6.951-16.5-3.906-6.501-5.98-11.831-10.499-26.988-2.051-6.877-3.477-9.641-6.988-13.547-2.427-2.699-5.716-7.136-7.309-9.86-1.711-2.926-4.756-6.182-7.44-7.954-2.499-1.65-6.524-5.035-8.944-7.522-2.841-2.919-5.972-4.991-8.836-5.846-2.44-.728-8.365-3.335-13.165-5.792-10.274-5.258-17.83-6.683-28.341-5.342-8.84 1.128-19.506 4.386-22.775 6.958-1.371 1.079-6.496 3.87-11.388 6.204-9.78 4.665-14.674 9.087-26.007 23.502-7.609 9.679-8.548 11.753-11.244 24.838-4.305 20.898-4.085 26.359 1.87 46.5 1.545 5.225 3.768 14.675 4.94 21 1.339 7.223 3.453 14.475 5.684 19.5 4.806 10.823 7.942 20.59 10.364 32.277 1.114 5.376 3.847 15.163 6.073 21.749 7.037 20.819 7.871 23.671 10.958 37.474 3.649 16.31 4.03 17.567 9.557 31.544 2.402 6.074 6.171 18.535 8.376 27.692 2.205 9.157 5.303 19.937 6.886 23.956 3.134 7.962 6.416 18.452 8.23 26.308 2.771 11.998 6.395 23.437 9.185 28.996 4.263 8.492 6.348 15.009 9.24 28.881 1.696 8.136 3.8 14.754 6.398 20.123 4.273 8.833 5.874 13.413 9.614 27.5 1.387 5.225 4.755 14.225 7.484 20 2.73 5.775 6.718 16.23 8.864 23.233 2.147 7.003 5.264 14.878 6.928 17.5 3.769 5.94 5.851 10.843 8.337 19.639 2.437 8.622 4.174 12.003 8.981 17.481 2.101 2.394 4.737 6.802 5.857 9.796 3.225 8.62 5.99 13.524 10.247 18.173 2.176 2.377 5.085 6.877 6.465 10s4.627 7.928 7.216 10.678c2.589 2.75 6.769 8.196 9.289 12.102 2.519 3.906 6.321 8.354 8.447 9.886 2.126 1.532 5.337 4.74 7.134 7.13 1.797 2.39 5.637 6.096 8.533 8.235 2.896 2.139 6.514 5.527 8.04 7.528 1.526 2 4.613 4.575 6.859 5.721 2.246 1.146 6.158 4.01 8.692 6.365 4.621 4.294 15.232 11.533 16.904 11.533.491 0 3.413 2.206 6.494 4.902 3.292 2.88 7.694 5.596 10.676 6.587 2.791.927 7.246 3.401 9.899 5.499 5.604 4.429 10.58 7.066 17.779 9.42 2.829.925 7.104 3.206 9.5 5.069s8.631 4.938 13.856 6.834 12.2 5.059 15.5 7.03c3.538 2.113 10.103 4.67 16 6.233 5.5 1.457 13.375 4.401 17.5 6.541 6.42 3.331 9.228 4.119 19.5 5.468 19.457 2.557 44.411 6.284 52.898 7.901 35.455 6.757 179.792 3.272 233.602-5.64 8.37-1.387 15.804-3.375 22.5-6.018 5.5-2.172 16.052-5.303 23.45-6.959 27.284-6.108 29.945-6.951 39.397-12.491 3.255-1.908 10.246-4.837 15.536-6.511 6.216-1.966 12.32-4.798 17.259-8.008 4.202-2.732 10.011-5.867 12.907-6.968 7.727-2.936 11.093-4.779 14.451-7.913 1.65-1.54 7.05-5.488 12-8.772s10.547-7.595 12.439-9.58c1.891-1.985 5.78-5.028 8.643-6.763 3.092-1.874 6.317-4.914 7.944-7.489 1.507-2.384 4.842-5.683 7.411-7.331 2.614-1.678 5.667-4.771 6.935-7.026 1.245-2.216 4.297-5.713 6.782-7.772 2.485-2.059 5.426-5.543 6.535-7.743 1.108-2.2 4.199-6.25 6.868-9 2.669-2.75 5.6-6.8 6.514-9 .914-2.2 4.204-7.376 7.312-11.502 3.706-4.921 6.293-9.625 7.519-13.676 1.03-3.401 3.184-7.612 4.795-9.377 5.425-5.939 7.627-11.068 9.302-21.669.368-2.324 2.38-6.874 4.473-10.112 3.825-5.918 5.832-11.558 8.065-22.664.664-3.3 2.928-11.4 5.032-18 5.05-15.843 5.758-20.657 7.205-49 2.005-39.261 1.296-78.333-2.724-150-.802-14.3-2.166-44-3.032-66-.866-22-2.013-48.325-2.55-58.5-.901-17.053-2.368-50.755-4.921-113-.552-13.475-1.286-35.75-1.63-49.5-1.129-45.05-7.35-60.478-31.791-78.837-10.645-7.996-11.478-8.403-22.126-10.827-14.427-3.284-29.524-3.087-43 .561-15.293 4.14-18.758 6.146-30.622 17.731-11.969 11.687-15.448 16.971-17.941 27.244-.951 3.92-2.251 8.461-2.889 10.089-1.133 2.895-.885 17.474 1.816 106.539.376 12.375.321 24.307-.122 26.516-.924 4.614-7.939 13.484-10.665 13.484-3.604 0-13.802-7.628-14.916-11.159-1.308-4.144-2.81-28.258-4.162-66.841-.569-16.225-1.706-42.55-2.528-58.5-.822-15.95-2.391-49.161-3.485-73.803-2.555-57.513-3.574-62.896-14.65-77.381-11.689-15.289-18.317-21.034-29.23-25.339-1.866-.736-4.566-2.428-6-3.758-5.752-5.341-7.444-5.727-24.606-5.612-18.407.124-26.976 2.265-34.833 8.702-2.336 1.915-7.225 4.831-10.866 6.482-4.172 1.892-7.279 4.056-8.406 5.855-.983 1.57-4.104 5.334-6.935 8.366-2.832 3.032-5.734 7.307-6.449 9.5-.716 2.193-3.374 8.038-5.906 12.988l-4.605 9 .186 26c.173 24.275 2.076 74.701 4.302 114 3.672 64.824 4.289 87.356 2.539 92.753-2.51 7.745-4.775 9.747-11.027 9.747-10.306 0-12.017-5.266-13.478-41.5-1.13-28.025-2.302-52.646-3.975-83.5-.582-10.725-1.74-41.1-2.575-67.5-1.748-55.303-4.07-110.004-5.497-129.5-1.479-20.203-3.815-70.39-4.957-106.5-.557-17.6-1.466-40.55-2.02-51-1.135-21.405-4.174-89.499-6.471-145-4.021-97.173-3.781-95.122-12.425-106.393-1.431-1.866-4.177-6.364-6.102-9.997-2.333-4.402-4.637-7.272-6.91-8.607-1.876-1.102-5.639-4.348-8.363-7.214-3.11-3.271-6.679-5.852-9.59-6.935-2.55-.949-8.087-3.705-12.304-6.126-10.645-6.111-17.102-7.009-33.897-4.716" fill-rule="evenodd"/>
</svg>