<svg class="svg-write-on-text" viewBox="0 0 97.289 19.972">
    <mask id="write-on-mask">
        <g id="write-on-mask-container" transform="translate(-.67849 -148.59)">
                <path class="write-on-path path-Anyone" d="m1.8485 167.5c1.8094-4.3082 3.6189-8.6164 5.5437-11.514 1.9247-2.8979 4.0208-4.4263 4.8824-4.7924 0.8616-0.36611 0.51695 0.40935 0.04303 1.6372-0.47392 1.2279-1.0771 2.9081-1.4433 4.373-0.36619 1.4649-0.49544 2.7143-0.47385 3.7052 0.02159 0.99096 0.19392 1.7234 0.58171 1.9816 0.38778 0.25831 0.99094 0.0429 1.7718-0.9155 0.7809-0.95839 1.5743-2.3664 1.9784-2.7957 0.4041-0.42931 0.1811 0.3726-0.12599 1.2664-0.30709 0.89381-0.65174 1.7124-0.8456 2.2725s-0.23694 0.86171 0.19389 0.30153c0.43084-0.56018 1.3355-1.9819 2.2895-3.0062 0.95395-1.0244 2.0189-1.69 2.5574-1.6252 0.53851 0.0648 0.5816 0.84027 0.47874 1.7462-0.10285 0.90588-0.37113 2.0237-0.48228 2.6705-0.11115 0.64688-0.06109 0.94729 0.40289 0.78142 0.46398-0.16587 1.3886-0.78228 2.121-1.3639 0.73239-0.58161 1.2925-1.1417 1.7233-2.0248 0.43081-0.88313 0.73238-2.0894 0.77557-2.8648 0.0432-0.77544-0.1722-1.1201-0.36416-0.40904s-0.36835 2.5632-0.4545 3.6834c-0.08616 1.1202-0.08616 1.6372-0.08616 2.068 0 0.43083 0 0.81855 0.71088 0.30141s2.1326-1.9388 3.0505-3.0845 1.3654-2.0855 1.3655-2.3656c3.6e-5 -0.2801-0.43078 0.0645-0.88319 1.4218-0.45241 1.3572-0.92631 3.7268-1.4649 5.4716-0.53855 1.7448-1.1417 2.8649-1.7663 3.468-0.62457 0.60311-1.2708 0.68927-1.594 0.32321-0.32324-0.36607-0.32324-1.1846-0.06473-1.8526 0.25851-0.66793 0.77549-1.1849 1.508-1.5942 0.7325-0.40932 1.6803-0.71089 2.7143-1.1848 1.034-0.47392 2.1541-1.1202 2.9942-2.154 0.84005-1.0339 1.4001-2.4556 1.5295-3.1666s-0.17217-0.71094-0.49544 0.30163c-0.32327 1.0126-0.66793 3.0374-0.62469 4.0713 0.04324 1.0339 0.47406 1.077 1.1848 0.71074 0.71075-0.36624 1.7016-1.1417 2.434-2.1326s1.2063-2.1971 1.3572-2.9941c0.15089-0.79693-0.02145-1.1847-0.49224-1.2204-0.4708-0.0357-1.1664 0.25072-1.5326 0.7248-0.36627 0.47407-0.36627 1.1203-0.28007 1.7881 0.08621 0.66782 0.25853 1.3571 0.68945 1.6801 0.43092 0.32296 1.1202 0.27988 1.6803 0.23679 0.56008-0.0431 0.9909-0.0862 1.4862-0.8616 0.49531-0.77542 1.0554-2.2833 1.1632-3.0373 0.10786-0.75401-0.23679-0.75401-0.69364 0.56329s-1.0255 3.9515-0.8963 4.447c0.12925 0.49541 0.95645-1.148 1.8225-2.1637 0.86608-1.0157 1.7708-1.4034 2.5464-1.4679 0.77559-0.0645 1.4218 0.19397 1.5554 0.3989 0.1336 0.20493-0.34921 0.39805-0.56469 0.82903-0.21548 0.43099-0.21548 1.1203-0.17237 1.702 0.04311 0.58164 0.12928 1.0556 0.17233 1.3571 0.04306 0.30157 0.04306 0.51697 0.49546 0.32294 0.4524-0.19403 1.3572-0.75411 2.1221-1.2842 0.76496-0.53012 1.4322-1.0639 2.337-1.5594 0.9048-0.49548 2.068-0.96939 2.7573-1.6371 0.68923-0.66767 0.90464-1.5293 0.47394-1.8956-0.4307-0.36632-1.5077-0.23707-2.3695 0.27997-0.8618 0.51705-1.508 1.4218-1.8958 2.2189s-0.51699 1.4864-0.5385 2.1327c-0.0215 0.6463 0.06467 1.2494 0.23714 1.6372 0.17248 0.3877 0.43095 0.56001 1.0727 0.44103 0.64172-0.11898 1.7708-0.57061 2.7401-1.2168 0.9693-0.64622 1.831-1.5079 2.4341-2.5848s0.9478-2.3694 1.2925-3.6621"/>
                <path class="write-on-path path-Anyone" d="m1.8485 167.5c1.8094-4.3082 3.6189-8.6164 5.5437-11.514 1.9247-2.8979 4.0208-4.4263 4.8824-4.7924 0.8616-0.36611 0.51695 0.40935 0.04303 1.6372-0.47392 1.2279-1.0771 2.9081-1.4433 4.373-0.36619 1.4649-0.49544 2.7143-0.47385 3.7052 0.02159 0.99096 0.19392 1.7234 0.58171 1.9816 0.38778 0.25831 0.99094 0.0429 1.7718-0.9155 0.7809-0.95839 1.5743-2.3664 1.9784-2.7957 0.4041-0.42931 0.1811 0.3726-0.12599 1.2664-0.30709 0.89381-0.65174 1.7124-0.8456 2.2725s-0.23694 0.86171 0.19389 0.30153c0.43084-0.56018 1.3355-1.9819 2.2895-3.0062 0.95395-1.0244 2.0189-1.69 2.5574-1.6252 0.53851 0.0648 0.5816 0.84027 0.47874 1.7462-0.10285 0.90588-0.37113 2.0237-0.48228 2.6705-0.11115 0.64688-0.06109 0.94729 0.40289 0.78142 0.46398-0.16587 1.3886-0.78228 2.121-1.3639 0.73239-0.58161 1.2925-1.1417 1.7233-2.0248 0.43081-0.88313 0.73238-2.0894 0.77557-2.8648 0.0432-0.77544-0.1722-1.1201-0.36416-0.40904s-0.36835 2.5632-0.4545 3.6834c-0.08616 1.1202-0.08616 1.6372-0.08616 2.068 0 0.43083 0 0.81855 0.71088 0.30141s2.1326-1.9388 3.0505-3.0845 1.3654-2.0855 1.3655-2.3656c3.6e-5 -0.2801-0.43078 0.0645-0.88319 1.4218-0.45241 1.3572-0.92631 3.7268-1.4649 5.4716-0.53855 1.7448-1.1417 2.8649-1.7663 3.468-0.62457 0.60311-1.2708 0.68927-1.594 0.32321-0.32324-0.36607-0.32324-1.1846-0.06473-1.8526 0.25851-0.66793 0.77549-1.1849 1.508-1.5942 0.7325-0.40932 1.6803-0.71089 2.7143-1.1848 1.034-0.47392 2.1541-1.1202 2.9942-2.154 0.84005-1.0339 1.4001-2.4556 1.5295-3.1666s-0.17217-0.71094-0.49544 0.30163c-0.32327 1.0126-0.66793 3.0374-0.62469 4.0713 0.04324 1.0339 0.47406 1.077 1.1848 0.71074 0.71075-0.36624 1.7016-1.1417 2.434-2.1326s1.2063-2.1971 1.3572-2.9941c0.15089-0.79693-0.02145-1.1847-0.49224-1.2204-0.4708-0.0357-1.1664 0.25072-1.5326 0.7248-0.36627 0.47407-0.36627 1.1203-0.28007 1.7881 0.08621 0.66782 0.25853 1.3571 0.68945 1.6801 0.43092 0.32296 1.1202 0.27988 1.6803 0.23679 0.56008-0.0431 0.9909-0.0862 1.4862-0.8616 0.49531-0.77542 1.0554-2.2833 1.1632-3.0373 0.10786-0.75401-0.23679-0.75401-0.69364 0.56329s-1.0255 3.9515-0.8963 4.447c0.12925 0.49541 0.95645-1.148 1.8225-2.1637 0.86608-1.0157 1.7708-1.4034 2.5464-1.4679 0.77559-0.0645 1.4218 0.19397 1.5554 0.3989 0.1336 0.20493-0.34921 0.39805-0.56469 0.82903-0.21548 0.43099-0.21548 1.1203-0.17237 1.702 0.04311 0.58164 0.12928 1.0556 0.17233 1.3571 0.04306 0.30157 0.04306 0.51697 0.49546 0.32294 0.4524-0.19403 1.3572-0.75411 2.1221-1.2842 0.76496-0.53012 1.4322-1.0639 2.337-1.5594 0.9048-0.49548 2.068-0.96939 2.7573-1.6371 0.68923-0.66767 0.90464-1.5293 0.47394-1.8956-0.4307-0.36632-1.5077-0.23707-2.3695 0.27997-0.8618 0.51705-1.508 1.4218-1.8958 2.2189s-0.51699 1.4864-0.5385 2.1327c-0.0215 0.6463 0.06467 1.2494 0.23714 1.6372 0.17248 0.3877 0.43095 0.56001 1.0727 0.44103 0.64172-0.11898 1.7708-0.57061 2.7401-1.2168 0.9693-0.64622 1.831-1.5079 2.4341-2.5848s0.9478-2.3694 1.2925-3.6621"/>
                <path class="write-on-path letter-A-edge" d="m0.68527 157.16c1.7235 0.0884 3.3608 0.17235 5.3641 0.47396 2.0034 0.30161 4.3298 0.8186 6.656 1.3355"/>
                <path class="write-on-path letter-A-edge" d="m0.68527 157.16c1.7235 0.0884 3.3608 0.17235 5.3641 0.47396 2.0034 0.30161 4.3298 0.8186 6.656 1.3355"/>
                <path class="write-on-path letter-B-edge" d="m56.779 151.73c1.2547-0.46004 2.5851-0.94788 3.7484-1.1417 1.1633-0.19384 2.1973-0.10767 3.0159 0.23712 0.81858 0.3448 1.4217 0.94794 1.637 1.5295s0.04292 1.1416-0.17249 1.6371c-0.21542 0.49541-0.47391 0.92623-1.1416 1.3355-0.6677 0.40922-1.7448 0.79696-2.7534 1.0763-1.0086 0.27936-1.964 0.45307-1.6408 0.51771 0.32316 0.0646 1.9172 0.0216 3.0805 0.15087 1.1633 0.12932 1.8957 0.4309 2.4002 1.2007 0.50452 0.76983 0.80265 2.1028-0.23132 3.1582-1.034 1.0554-3.3894 1.881-5.1704 2.2522-1.7809 0.37123-3.0732 0.28211-4.3229 0.19592"/>
                <path class="write-on-path letter-B-edge" d="m56.779 151.73c1.2547-0.46004 2.5851-0.94788 3.7484-1.1417 1.1633-0.19384 2.1973-0.10767 3.0159 0.23712 0.81858 0.3448 1.4217 0.94794 1.637 1.5295s0.04292 1.1416-0.17249 1.6371c-0.21542 0.49541-0.47391 0.92623-1.1416 1.3355-0.6677 0.40922-1.7448 0.79696-2.7534 1.0763-1.0086 0.27936-1.964 0.45307-1.6408 0.51771 0.32316 0.0646 1.9172 0.0216 3.0805 0.15087 1.1633 0.12932 1.8957 0.4309 2.4002 1.2007 0.50452 0.76983 0.80265 2.1028-0.23132 3.1582-1.034 1.0554-3.3894 1.881-5.1704 2.2522-1.7809 0.37123-3.0732 0.28211-4.3229 0.19592"/>
                <path class="write-on-path letter-B-line" d="m61.174 148.63c-1.9819 6.161-3.9637 12.322-5.9454 18.483"/>
                <path class="write-on-path letter-B-line" d="m61.174 148.63c-1.9819 6.161-3.9637 12.322-5.9454 18.483"/>
                <path class="write-on-path path-etter" d="m65.239 162.6c1.9052-0.92614 3.8103-1.8522 4.9479-2.6724 1.1377-0.82018 1.5081-1.5346 1.5876-2.0107 0.07953-0.47618-0.13215-0.71432-0.6878-0.78062-0.55566-0.0663-1.4553 0.0395-2.1963 0.76726-0.741 0.72772-1.3231 2.0771-1.5612 3.0165-0.23808 0.93939-0.13225 1.4686 0.1457 1.8919s0.72775 0.74081 1.614 0.55545c0.8863-0.18535 2.2092-0.87326 3.122-1.7199 0.91278-0.84662 1.4155-1.8521 2.336-3.575 0.92052-1.7229 2.2811-4.2039 2.8487-5.3986s0.3057-1.1074-0.41882-2e-3c-0.72452 1.1057-1.9481 3.2602-2.636 5.4035-0.68793 2.1433-0.84668 4.2864-0.37992 5.1239 0.46676 0.83743 1.5972 0.35296 2.5232-0.24236 0.92602-0.59531 1.6669-1.3097 2.773-3.2172s2.5981-5.0512 3.2729-6.6916c0.67486-1.6404 0.54257-1.7991-0.1323-0.5953-0.67487 1.2038-1.892 3.7703-2.699 5.7548-0.80702 1.9845-1.2039 3.3868-1.2943 4.3229s0.12546 1.4059 1.2367 1.0485c1.1113-0.35738 3.1179-1.5415 4.6373-2.385 1.5194-0.84347 2.5512-1.3462 3.2126-2.0472 0.6614-0.70107 0.95245-1.6006 0.55563-1.7992-0.39682-0.19854-1.4816 0.30416-2.3152 0.97894s-1.4156 1.5214-1.7199 2.408c-0.30427 0.88649-0.33074 1.8126-0.1586 2.4344s0.54255 0.93929 1.3967 0.71746 2.2149-0.9956 3.1674-1.5777c0.95252-0.5821 1.5081-0.97899 1.9711-2.1431 0.463-1.1641 0.83342-3.0956 0.91294-4.1672 0.07953-1.0716-0.13214-1.2832-0.30427-1.0187s-0.30443 1.0054 0.01323 1.7596c0.31767 0.75412 1.085 1.5214 1.4288 2.1167 0.34382 0.59531 0.26445 1.0186 0.09245 1.7066-0.17199 0.68795-0.43658 1.6404-0.56885 2.2491-0.13227 0.60861-0.13227 0.87319 0.3573 0.80688 0.48957-0.0663 1.4685-0.46319 2.4675-1.3149 0.99897-0.85166 2.0437-2.191 3.0756-3.514"/>
                <path class="write-on-path path-etter" d="m65.239 162.6c1.9052-0.92614 3.8103-1.8522 4.9479-2.6724 1.1377-0.82018 1.5081-1.5346 1.5876-2.0107 0.07953-0.47618-0.13215-0.71432-0.6878-0.78062-0.55566-0.0663-1.4553 0.0395-2.1963 0.76726-0.741 0.72772-1.3231 2.0771-1.5612 3.0165-0.23808 0.93939-0.13225 1.4686 0.1457 1.8919s0.72775 0.74081 1.614 0.55545c0.8863-0.18535 2.2092-0.87326 3.122-1.7199 0.91278-0.84662 1.4155-1.8521 2.336-3.575 0.92052-1.7229 2.2811-4.2039 2.8487-5.3986s0.3057-1.1074-0.41882-2e-3c-0.72452 1.1057-1.9481 3.2602-2.636 5.4035-0.68793 2.1433-0.84668 4.2864-0.37992 5.1239 0.46676 0.83743 1.5972 0.35296 2.5232-0.24236 0.92602-0.59531 1.6669-1.3097 2.773-3.2172s2.5981-5.0512 3.2729-6.6916c0.67486-1.6404 0.54257-1.7991-0.1323-0.5953-0.67487 1.2038-1.892 3.7703-2.699 5.7548-0.80702 1.9845-1.2039 3.3868-1.2943 4.3229s0.12546 1.4059 1.2367 1.0485c1.1113-0.35738 3.1179-1.5415 4.6373-2.385 1.5194-0.84347 2.5512-1.3462 3.2126-2.0472 0.6614-0.70107 0.95245-1.6006 0.55563-1.7992-0.39682-0.19854-1.4816 0.30416-2.3152 0.97894s-1.4156 1.5214-1.7199 2.408c-0.30427 0.88649-0.33074 1.8126-0.1586 2.4344s0.54255 0.93929 1.3967 0.71746 2.2149-0.9956 3.1674-1.5777c0.95252-0.5821 1.5081-0.97899 1.9711-2.1431 0.463-1.1641 0.83342-3.0956 0.91294-4.1672 0.07953-1.0716-0.13214-1.2832-0.30427-1.0187s-0.30443 1.0054 0.01323 1.7596c0.31767 0.75412 1.085 1.5214 1.4288 2.1167 0.34382 0.59531 0.26445 1.0186 0.09245 1.7066-0.17199 0.68795-0.43658 1.6404-0.56885 2.2491-0.13227 0.60861-0.13227 0.87319 0.3573 0.80688 0.48957-0.0663 1.4685-0.46319 2.4675-1.3149 0.99897-0.85166 2.0437-2.191 3.0756-3.514"/>
                <path class="write-on-path letter-t-horz" d="m72.463 157.6h12.621"/>
                <path class="write-on-path letter-t-horz" d="m72.463 157.6h12.621"/>
        </g>
    </mask>
    <g class="write-on-text" mask="url(#write-on-mask)">
        <text class="write-on-text-container" transform="translate(-.67849 -148.59)" x="3.1745751" y="163.17511" >
                Anyone Better
        </text>
    </g>
</svg>