<svg clip-rule="evenodd" fill-rule="evenodd" height="5.614in" image-rendering="optimizeQuality" shape-rendering="geometricPrecision" text-rendering="geometricPrecision" viewBox="0 0 10.667 5.614" width="10.667in" xmlns="http://www.w3.org/2000/svg"><path d="m10.6668-.00001968v5.61403968h-10.66663465v-5.61403968z" fill="#bf0a30"/><g fill="#fff"><path d="m10.6668 4.75032v.43185h-10.66663465v-.43185z"/><path d="m10.6668.431839v.43185h-10.66663465v-.43185z"/><path d="m10.6668 1.29553v.43186h-10.66663465v-.43186z"/><path d="m10.6668 2.15923v.43184h-10.66663465v-.43184z"/><path d="m10.6668 3.02293v.43185h-10.66663465v-.43185z"/><path d="m10.6668 3.88662v.43186h-10.66663465v-.43186z"/></g><path d="m.00194094 3.02293h4.26525906v-3.02294181h-4.26525906z" fill="#002868" transform="matrix(1.0004163 0 0 1 -.001776 0)"/><g fill="#fff"><path d="m3.81482.38478-.1023-.074319h.12644l.03908-.120252.03907.120252h.12645l-.10229.074319.03906.120279-.10229-.074339-.10228.074339z"/><path d="m3.31668.38478-.10229-.074319h.12644l.03907-.120252.03908.120252h.12645l-.10229.074319.03906.120279-.1023-.074339-.10229.074339z"/><path d="m3.56574.850311-.10228-.074323h.12644l.03907-.120248.03908.120248h.12644l-.10228.074323.03906.12028-.1023-.074343-.10229.074343z"/><path d="m2.81854.38478-.10228-.074319h.12644l.03907-.120252.03908.120252h.12644l-.10229.074319.03906.120279-.10229-.074339-.10229.074339z"/><path d="m3.06761.850311-.10228-.074323h.12644l.03907-.120248.03908.120248h.12644l-.1023.074323.03907.12028-.10229-.074343-.10229.074343z"/><path d="m2.32041.38478-.1023-.074319h.12645l.03908-.120252.03907.120252h.12644l-.10229.074319.03907.120279-.10229-.074339-.1023.074339z"/><path d="m2.56947.850311-.10229-.074323h.12644l.03909-.120248.03907.120248h.12644l-.10229.074323.03906.12028-.10228-.074343-.1023.074343z"/><path d="m1.82228.38478-.1023-.074319h.12644l.03908-.120252.03908.120252h.12644l-.10229.074319.03906.120279-.10229-.074339-.10229.074339z"/><path d="m2.07134.850311-.10229-.074323h.12644l.03907-.120248.03909.120248h.12644l-.10229.074323.03906.12028-.1023-.074343-.10228.074343z"/><path d="m1.32414.38478-.1023-.074319h.12644l.03908-.120252.03907.120252h.12645l-.10229.074319.03906.120279-.10229-.074339-.10228.074339z"/><path d="m1.57321.850311-.1023-.074323h.12644l.03908-.120248.03907.120248h.12644l-.10228.074323.03906.12028-.10229-.074343-.10228.074343z"/><path d="m.825996.38478-.102279-.074319h.126444l.039067-.120252.039071.120252h.126441l-.102279.074319.039059.120279-.102292-.074339-.102291.074339z"/><path d="m1.07506.850311-.10228-.074323h.12644l.03908-.120248.03907.120248h.12644l-.10228.074323.03906.12028-.10229-.074343-.1023.074343z"/><path d="m.327866.38478-.102283-.074319h.126441l.03907-.120252.039075.120252h.126441l-.102295.074319.039063.120279-.102284-.074339-.102291.074339z"/><path d="m.576933.850311-.102283-.074323h.126441l.03907-.120248.039075.120248h.126441l-.102295.074323.039063.12028-.102284-.074343-.102291.074343z"/><path d="m3.81482 2.24692-.1023-.07433h.12644l.03908-.12024.03907.12024h.12645l-.10229.07433.03906.12028-.10229-.07434-.10228.07434z"/><path d="m3.31668 2.24692-.10229-.07433h.12644l.03907-.12024.03908.12024h.12645l-.10229.07433.03906.12028-.1023-.07434-.10229.07434z"/><path d="m3.56574 2.71244-.10228-.07432h.12644l.03907-.12025.03908.12025h.12644l-.10228.07432.03906.12029-.1023-.07434-.10229.07434z"/><path d="m2.81854 2.24692-.10228-.07433h.12644l.03907-.12024.03908.12024h.12644l-.10229.07433.03906.12028-.10229-.07434-.10229.07434z"/><path d="m3.06761 2.71244-.10228-.07432h.12644l.03907-.12025.03908.12025h.12644l-.1023.07432.03907.12029-.10229-.07434-.10229.07434z"/><path d="m2.32041 2.24692-.1023-.07433h.12645l.03908-.12024.03907.12024h.12644l-.10229.07433.03907.12028-.10229-.07434-.1023.07434z"/><path d="m2.56947 2.71244-.10229-.07432h.12644l.03909-.12025.03907.12025h.12644l-.10229.07432.03906.12029-.10228-.07434-.1023.07434z"/><path d="m1.82228 2.24692-.1023-.07433h.12644l.03908-.12024.03908.12024h.12644l-.10229.07433.03906.12028-.10229-.07434-.10229.07434z"/><path d="m2.07134 2.71244-.10229-.07432h.12644l.03907-.12025.03909.12025h.12644l-.10229.07432.03906.12029-.1023-.07434-.10228.07434z"/><path d="m1.32414 2.24692-.1023-.07433h.12644l.03908-.12024.03907.12024h.12645l-.10229.07433.03906.12028-.10229-.07434-.10228.07434z"/><path d="m1.57321 2.71244-.1023-.07432h.12644l.03908-.12025.03907.12025h.12644l-.10228.07432.03906.12029-.10229-.07434-.10228.07434z"/><path d="m.825996 2.24692-.102279-.07433h.126444l.039067-.12024.039071.12024h.126441l-.102279.07433.039059.12028-.102292-.07434-.102291.07434z"/><path d="m1.07506 2.71244-.10228-.07432h.12644l.03908-.12025.03907.12025h.12644l-.10228.07432.03906.12029-.10229-.07434-.1023.07434z"/><path d="m.327866 2.24692-.102283-.07433h.126441l.03907-.12024.039075.12024h.126441l-.102295.07433.039063.12028-.102284-.07434-.102291.07434z"/><path d="m.576933 2.71244-.102283-.07432h.126441l.03907-.12025.039075.12025h.126441l-.102295.07432.039063.12029-.102284-.07434-.102291.07434z"/><path d="m3.81482 1.31583-.1023-.07432h.12644l.03908-.12025.03907.12025h.12645l-.10229.07432.03906.12029-.10229-.07434-.10228.07434z"/><path d="m3.31668 1.31583-.10229-.07432h.12644l.03907-.12025.03908.12025h.12645l-.10229.07432.03906.12029-.1023-.07434-.10229.07434z"/><path d="m3.56574 1.78135-.10228-.07431h.12644l.03907-.12025.03908.12025h.12644l-.10228.07431.03906.1203-.1023-.07434-.10229.07434z"/><path d="m2.81854 1.31583-.10228-.07432h.12644l.03907-.12025.03908.12025h.12644l-.10229.07432.03906.12029-.10229-.07434-.10229.07434z"/><path d="m3.06761 1.78135-.10228-.07431h.12644l.03907-.12025.03908.12025h.12644l-.1023.07431.03907.1203-.10229-.07434-.10229.07434z"/><path d="m2.32041 1.31583-.1023-.07432h.12645l.03908-.12025.03907.12025h.12644l-.10229.07432.03907.12029-.10229-.07434-.1023.07434z"/><path d="m2.56947 1.78135-.10229-.07431h.12644l.03909-.12025.03907.12025h.12644l-.10229.07431.03906.1203-.10228-.07434-.1023.07434z"/><path d="m1.82228 1.31583-.1023-.07432h.12644l.03908-.12025.03908.12025h.12644l-.10229.07432.03906.12029-.10229-.07434-.10229.07434z"/><path d="m2.07134 1.78135-.10229-.07431h.12644l.03907-.12025.03909.12025h.12644l-.10229.07431.03906.1203-.1023-.07434-.10228.07434z"/><path d="m1.32414 1.31583-.1023-.07432h.12644l.03908-.12025.03907.12025h.12645l-.10229.07432.03906.12029-.10229-.07434-.10228.07434z"/><path d="m1.57321 1.78135-.1023-.07431h.12644l.03908-.12025.03907.12025h.12644l-.10228.07431.03906.1203-.10229-.07434-.10228.07434z"/><path d="m.825996 1.31583-.102279-.07432h.126444l.039067-.12025.039071.12025h.126441l-.102279.07432.039059.12029-.102292-.07434-.102291.07434z"/><path d="m1.07506 1.78135-.10228-.07431h.12644l.03908-.12025.03907.12025h.12644l-.10228.07431.03906.1203-.10229-.07434-.1023.07434z"/><path d="m.327866 1.31583-.102283-.07432h.126441l.03907-.12025.039075.12025h.126441l-.102295.07432.039063.12029-.102284-.07434-.102291.07434z"/><path d="m.576933 1.78135-.102283-.07431h.126441l.03907-.12025.039075.12025h.126441l-.102295.07431.039063.1203-.102284-.07434-.102291.07434z"/></g></svg>