<!DOCTYPE svg PUBLIC "-//W3C//DTD SVG 1.1//EN" "http://www.w3.org/Graphics/SVG/1.1/DTD/svg11.dtd">
<svg xmlns="http://www.w3.org/2000/svg" viewBox="0 0 720 370">
<path d="M440.162 29.529c-2.381 1.739-7.792 9.756-9.926 14.705-1.099 2.549-.943 2.893 2.316 5.108 3.757 2.552 3.411 3.697-1.552 5.14-7.421 2.156-8.173 4.574-5.584 17.961C427.027 80.773 429.163 83 435.539 83c4.821 0 6.98 1.565 7.917 5.74 1.113 4.962 4.118 7.968 6.5 6.502C451.8 94.106 452 94.222 452 96.42c0 3.895-2.515 5.58-8.328 5.58-10.312 0-15.684 3.238-20.265 12.217-3.22 6.31-3.202 12.079.048 15.328 4.365 4.365 7.639 2.728 12.584-6.295 1.614-2.945 2.985-4.25 4.464-4.25 6.587 0 25.132 8.319 38.194 17.133 9.063 6.115 11.315 6.476 13.233 2.117 1.502-3.412 3.743-4.265 4.694-1.788.308.804 1.532 1.749 2.718 2.1 1.187.351 3.733 1.701 5.658 3 3.983 2.689 12.581 4.882 25.124 6.409 9.2 1.12 19.192 4.1 21.868 6.521 1.302 1.179 2.224 1.253 4.576.365 6.597-2.49 24.446 4.723 30.94 12.503 1.9 2.277 5.311 6.39 7.58 9.14 9.379 11.367 22.447 23.833 30.278 28.885 8.495 5.481 13.634 10.557 13.634 13.469 0 .936.609 2.589 1.353 3.673.914 1.335 1.554 6.989 1.976 17.473.742 18.464 2.357 25.025 7.308 29.694 3.447 3.251 8.973 5.054 11.968 3.904 2.014-.773 1.541-10.129-1.092-21.598-1.921-8.366-2.433-25.48-1.098-36.659l.855-7.16-7.033-7.431c-9.338-9.865-10.865-13.216-14.395-31.582-1.649-8.578-4.534-20.113-6.412-25.633-4.436-13.034-4.399-13.773.877-17.402 9.548-6.569 13.64-12.866 18.609-28.633 7.325-23.245 11.946-31.401 23.541-41.548 5.61-4.909 6.38-5.263 14.043-6.463 5.594-.876 14.122-4.914 15.393-7.289 3.053-5.704-8.47-6.196-19.335-.826-17.473 8.636-29.942 25.508-37.023 50.096-6.438 22.36-21.014 31.79-36.535 23.637-6.913-3.632-16.939-6.737-27.946-8.657-10.063-1.755-13.323-3.685-32.054-18.972-16.036-13.089-20.25-17.716-22.999-25.254-2.644-7.253-5.967-10.644-11.995-12.242-5.824-1.543-10.978-4.205-16.81-8.683C489.5 33.086 476.894 29.634 453 28.375c-8.906-.47-10.855-.295-12.838 1.154M137.5 121.399c-11.209 2.756-11.566 4.504-1.231 6.027 6.519.96 4.975 2.574-2.462 2.574-3.341 0-7.8.517-9.908 1.148-3.107.931-4.645.855-8.116-.402-7.114-2.575-10.308-2.759-21.738-1.252-21.535 2.84-21.84 3.892-1.873 6.473 4.22.545 9.309 1.772 11.309 2.726 2.92 1.392 3.796 1.477 4.441.433 1.599-2.587 5.599-.914 5.373 2.246-.294 4.127-2.965 6.614-7.2 6.705-1.977.042-5.395.633-7.595 1.313-3.189.985-4.992.98-8.895-.025-2.897-.746-12.69-1.357-24-1.497-27.859-.344-31.095-.253-33.2.93-1.513.851-1.07.96 2.149.531 2.229-.297 8.304.149 13.5.991 5.195.842 16.871 1.798 25.946 2.124 27.529.989 30.835 1.582 32.247 5.788.338 1.007.962.982 3.029-.119 5.273-2.809 20.309 1.564 23.309 6.778l1.501 2.609-.402-3c-.221-1.65-.718-3.735-1.105-4.634-.609-1.414-.092-1.565 3.827-1.124 2.493.281 6.613-.013 9.156-.653 6.55-1.65 10.157-.451 5.4 1.795-5.168 2.44-5.064 4.801.235 5.359 2.367.248 7.561 1.062 11.544 1.807 5.988 1.12 8.323 1.13 13.5.059 3.442-.712 10.534-1.517 15.759-1.789 20.149-1.049 22.124-4.887 3.063-5.955-5.228-.292-10.419-1.057-11.535-1.699-1.593-.916 4.078-1.273 26.472-1.666l28.5-.5-3.5-2.267c-11.067-7.167-44.009-10.308-71.5-6.818-1.65.21-7.95.658-14 .996-6.05.338-16.526 1.12-23.28 1.739-6.753.618-12.522.881-12.819.584-.719-.718 3.226-8.382 4.835-9.393 2.148-1.351 12.545-2.302 29.797-2.725 24.741-.606 35.969-1.947 33.871-4.046-.296-.296-8.158-.821-17.471-1.167-15.867-.589-19.879-1.286-18.036-3.136.42-.422 6.915-.994 14.434-1.271 12.743-.47 13.398-.588 9.669-1.744-2.2-.683-4.549-1.243-5.219-1.246-.671-.003-4.666-1.131-8.878-2.506-8.434-2.753-11.464-2.93-18.903-1.101M11.571 148.885c-.93 1.506 1.972 2.566 7.096 2.593 3.893.021 6.274-.871 5.198-1.946-1.166-1.166-11.633-1.717-12.294-.647m124.748 21.909c-2.393 3.849-3.881 5.174-6.464 5.751l-3.355.749 3.5 1.277c5.472 1.996 8 1.786 8-.667 0-1.152.756-3.375 1.68-4.939 1.236-2.092 1.424-3.416.714-5.008-.903-2.023-1.169-1.838-4.075 2.837m15.955 2.456c-1.483 1.638-1.335 1.75 2.321 1.744 4.42-.006 11.069-1.641 11.857-2.916 1.1-1.781-12.525-.654-14.178 1.172M101 177.417c0 5.752-1.588 5.756-4.472.011-1.929-3.844-1.979-3.87-2.311-1.23-.187 1.484.101 4.293.639 6.242 1.18 4.274.849 4.538-6.632 5.271-12.702 1.246-13.559 3.555-14.045 37.85-.461 32.6.477 41.849 4.622 45.552C82.61 274.517 90.939 276 106.25 276c16.819 0 17.76.833 17.735 15.7-.027 16.093-8.449 22.048-9.958 7.041l-.527-5.241-10-.547c-5.5-.301-14.05-.526-19-.5l-9 .047-.878 8.154c-1.171 10.872-.275 15.827 4.108 22.734l3.666 5.776 32.052-.332 32.052-.332 6.165-2.998c3.39-1.649 6.664-3.799 7.274-4.777 3.604-5.769 4.237-50.756.789-56.018-3.565-5.441-5.469-5.96-23.522-6.421-18.169-.463-21.364-1.142-23.076-4.901-1.771-3.886-1.512-39.535.319-43.917 3.218-7.702 11.539-2.438 11.547 7.305l.004 4.272 18.25-.272 18.25-.273v-12.671c0-18.458-.969-19.224-25.75-20.361-14.599-.669-14.75-.7-14.75-3.013 0-1.285.45-2.615 1-2.955 1.228-.759 1.321-2.5.133-2.5-.477 0-2.075 1.825-3.551 4.055-2.512 3.796-2.952 4.036-6.881 3.75-4.066-.295-4.295-.502-7.332-6.604-4.093-8.226-4.369-8.402-4.369-2.784m80.141 78.548c.338 64.611.473 69.078 2.147 70.75 1.544 1.542 3.68 1.785 15.715 1.785 17.046 0 16.904.092 18.016-11.65 1.036-10.926 2.335-125.826 1.449-128.1-.615-1.579-2.49-1.75-19.185-1.75H180.78l.361 68.965m209.083-68.317c-.964.405-1.15 3.011-.76 10.694.284 5.587.749 36.899 1.034 69.582.284 32.684.776 59.684 1.092 60 .316.317 17.3.684 37.742.816l37.168.24 4.888-4.415c7.171-6.478 8.492-17.707 3.331-28.307-1.67-3.431-1.85-4.674-.937-6.5 4.225-8.455 4.218-8.367 4.218-51.752v-41.749l-3.885-4.378-3.884-4.379-39.366-.194c-21.651-.106-39.939.048-40.641.342M243.5 189.486c-1.65.775-4.012 2.292-5.25 3.371l-2.25 1.964V325.252l17.473-.433c9.611-.238 17.768-.727 18.128-1.087.36-.36.824-15.859 1.03-34.443.884-79.545.913-80.277 3.279-82.644 1.988-1.987 2.317-2.028 4.861-.602 5.478 3.071 5.445 2.723 6.005 63.112l.518 55.845h34.588l.309-58.089.309-58.089 2.422-1.961c3.199-2.589 6.89-2.021 9.479 1.461 2.065 2.777 2.104 3.741 2.415 59.75l.317 56.928h5.105c3.458 0 5.728.564 7.037 1.75 2.443 2.212 18.804 2.564 20.923.451 1.037-1.035 1.361-14.574 1.592-66.5l.289-65.201-3.112-3.75-3.113-3.75-59.677.039c-49.163.032-60.206.287-62.677 1.447m261.291-.517c-1.489.46-4.08 1.813-5.757 3.007l-3.048 2.17.257 65.177.257 65.177 17.133.273 17.134.273.39-13.353c.417-14.263 1.244-16.944 6.234-20.214 1.913-1.253 2.854-1.324 4.938-.375 4.474 2.039 5.671 6.318 5.671 20.278 0 15.04-1.736 13.816 19 13.405l14.5-.287V195.038l-3.268-3.269-3.268-3.269-33.732-.183c-18.553-.101-34.951.193-36.441.652m30.614 18.138c-1.788 1.978-1.905 4.032-1.905 33.396 0 29.366.117 31.418 1.905 33.393 3.36 3.712 8.833 1.792 10.816-3.793 1.461-4.116 1.847-50.921.473-57.409-1.501-7.09-7.325-9.972-11.289-5.587m-105.62 1.143c-1.792 3.137-1.844 59.989-.059 64 1.041 2.339 1.824 2.75 5.23 2.75 5.463 0 5.469-.033 5.509-35.143.033-27.774-.085-29.776-1.87-31.75-2.576-2.85-7.143-2.775-8.81.143m-.052 85.5c-5.334 5.919-.538 18.91 6.192 16.774 3.259-1.034 6.075-5.426 6.075-9.472 0-6.795-8.281-11.725-12.267-7.302" fill-rule="evenodd"/>
</svg>