<?xml version="1.0" encoding="UTF-8"?>
<!DOCTYPE svg PUBLIC "-//W3C//DTD SVG 1.1//EN" "http://www.w3.org/Graphics/SVG/1.1/DTD/svg11.dtd">
<!-- Creator: CorelDRAW 2017 -->
<svg xmlns="http://www.w3.org/2000/svg" xml:space="preserve" width="4.2332mm" height="4.2332mm" version="1.1" style="shape-rendering:geometricPrecision; text-rendering:geometricPrecision; image-rendering:optimizeQuality; fill-rule:evenodd; clip-rule:evenodd"
viewBox="0 0 423.32 423.32"
 xmlns:xlink="http://www.w3.org/1999/xlink"
 xmlns:xodm="http://www.corel.com/coreldraw/odm/2003">
 <defs>
  <style type="text/css">
   <![CDATA[
    .fil0 {fill:black}
    .fil2 {fill:#015C8B}
    .fil1 {fill:#F27A23}
    .fil3 {fill:black;fill-rule:nonzero}
   ]]>
  </style>
 </defs>
 <g id="Capa_x0020_1">
  <metadata id="CorelCorpID_0Corel-Layer"/>
  <g id="_1618591265088">
   <path class="fil0" d="M391.18 243.81c0,-99.14 -80.37,-179.51 -179.51,-179.51 -99.15,0 -179.52,80.37 -179.52,179.51 0,99.14 80.37,179.52 179.52,179.52 99.14,0 179.51,-80.38 179.51,-179.52z"/>
   <path class="fil1" d="M383.98 243.81c0,-95.16 -77.15,-172.31 -172.31,-172.31 -95.17,0 -172.31,77.15 -172.31,172.31 0,95.16 77.14,172.31 172.31,172.31 95.16,0 172.31,-77.15 172.31,-172.31z"/>
   <path class="fil0" d="M371.93 243.81c0,-88.51 -71.75,-160.26 -160.26,-160.26 -88.51,0 -160.26,71.75 -160.26,160.26 0,88.51 71.75,160.26 160.26,160.26 88.51,0 160.26,-71.75 160.26,-160.26z"/>
   <path class="fil2" d="M365.64 243.81c0,-85.04 -68.94,-153.97 -153.97,-153.97 -85.04,0 -153.98,68.93 -153.98,153.97 0,85.04 68.94,153.98 153.98,153.98 85.03,0 153.97,-68.94 153.97,-153.98z"/>
   <g>
    <path class="fil3" d="M217.1 2.65l-11.22 0.94 -0.44 -5.3 11.22 -0.94 2.88 2.65 -2.44 2.65zm-0.44 -5.3c1.46,-0.12 2.75,0.97 2.87,2.43 0.12,1.46 -0.97,2.75 -2.43,2.87l-0.44 -5.3zm-2.54 132.12l0.1 -129.47 5.32 0 -0.1 129.47 -3.62 2.47 -1.7 -2.47zm5.32 0c0,1.46 -1.2,2.66 -2.66,2.66 -1.46,0 -2.66,-1.2 -2.66,-2.66l5.32 0zm-16.59 0.14l5.32 0 -4.06 -2.26 0.39 -0.23 0.38 -0.2 0.38 -0.2 0.42 -0.19 0.4 -0.16 0.43 -0.16 0.39 -0.13 0.4 -0.12 0.45 -0.11 0.41 -0.09 0.43 -0.07 0.45 -0.07 0.42 -0.04 0.39 -0.03 0.46 -0.03 0.43 0 0.43 0 0.46 0.03 0.44 0.04 0.4 0.04 0.44 0.05 0.47 0.07 0.4 0.08 0.44 0.08 0.47 0.11 0.41 0.11 0.45 0.12 0.44 0.13 0.43 0.14 0.46 0.16 0.42 0.15 0.44 0.17 -1.92 4.94 -0.36 -0.13 -0.36 -0.13 -0.34 -0.12 -0.35 -0.1 -0.32 -0.11 -0.33 -0.08 -0.35 -0.09 -0.29 -0.07 -0.32 -0.06 -0.34 -0.06 -0.27 -0.05 -0.3 -0.03 -0.32 -0.04 -0.3 -0.02 -0.24 -0.01 -0.29 0 -0.27 0 -0.24 0.01 -0.31 0.03 -0.26 0.02 -0.23 0.03 -0.25 0.05 -0.25 0.05 -0.21 0.05 -0.24 0.08 -0.25 0.07 -0.21 0.08 -0.24 0.1 -0.2 0.09 -0.24 0.12 -0.22 0.12 -0.21 0.13 -4.06 -2.26zm4.06 2.26c-1.24,0.77 -2.89,0.38 -3.66,-0.86 -0.77,-1.24 -0.38,-2.89 0.86,-3.66l2.8 4.52zm1.41 -130.93l-0.15 128.67 -5.32 0 0.15 -128.67 2.44 -2.65 2.88 2.65zm-5.32 0c0,-1.46 1.2,-2.66 2.66,-2.66 1.46,0 2.66,1.2 2.66,2.66l-5.32 0z"/>
    <path id="1" class="fil0" d="M205.66 0.94l11.22 -0.94 -0.1 129.47c-4.26,-1.66 -8.09,-1.83 -11.27,0.14l0.15 -128.67z"/>
   </g>
   <g>
    <path class="fil3" d="M254.98 274.03l0 -1.8 0.84 1.22 -0.51 1.01 -0.73 1.06 -0.95 1.11 -1.16 1.14 -1.35 1.18 -1.56 1.2 -1.73 1.23 -1.91 1.22 -2.08 1.21 -2.25 1.18 -2.39 1.15 -2.53 1.08 -2.66 1.03 -2.79 0.94 -2.91 0.84 -3.01 0.74 -3.11 0.6 -3.19 0.47 -3.28 0.31 -3.35 0.14 -3.4 -0.03 -3.45 -0.25 -3.49 -0.44 -3.54 -0.68 -3.54 -0.93 -3.56 -1.17 -3.57 -1.45 -3.55 -1.73 -3.53 -2.03 -3.51 -2.34 -3.47 -2.67 -3.43 -3 1.24 -1.32 3.33 2.94 3.37 2.59 3.41 2.28 3.43 1.97 3.45 1.67 3.45 1.41 3.44 1.13 3.44 0.89 3.42 0.66 3.39 0.44 3.35 0.23 3.3 0.03 3.25 -0.14 3.18 -0.29 3.11 -0.47 3.03 -0.58 2.93 -0.72 2.83 -0.82 2.71 -0.92 2.6 -0.99 2.47 -1.06 2.33 -1.11 2.17 -1.16 2.02 -1.17 1.85 -1.18 1.67 -1.17 1.48 -1.16 1.27 -1.1 1.06 -1.06 0.85 -0.97 0.61 -0.88 0.37 -0.73 0.84 1.22zm-0.84 -1.22c0.17,-0.46 0.7,-0.69 1.16,-0.52 0.46,0.17 0.69,0.7 0.52,1.16l-1.68 -0.64zm-20.11 -0.49l20.95 -0.09 0 1.8 -20.95 0.09 -0.04 -1.8 0.04 0zm0 1.8c-0.49,0 -0.9,-0.41 -0.9,-0.9 0,-0.49 0.41,-0.9 0.9,-0.9l0 1.8zm-10.22 0.22l-0.08 -1.8 0 0 0.37 -0.02 0.37 -0.01 0.35 -0.01 0.35 -0.01 0.34 -0.01 0.33 -0.01 0.35 -0.01 0.32 0 0.32 -0.01 0.31 0 0.31 -0.01 0.32 0 0.29 0 0.31 -0.01 0.31 0 0.3 0 0.29 0 0.29 0 0.3 -0.01 0.31 0 0.29 0 0.31 -0.01 0.31 0 0.3 0 0.29 -0.01 0.32 -0.01 0.32 -0.01 0.33 -0.01 0.33 -0.01 0.34 -0.01 0.33 -0.01 0.35 -0.02 0.08 1.8 -0.35 0.02 -0.35 0.01 -0.34 0.01 -0.33 0.01 -0.33 0.01 -0.32 0.01 -0.32 0.01 -0.33 0.01 -0.32 0 -0.29 0 -0.31 0.01 -0.31 0 -0.29 0 -0.3 0.01 -0.31 0 -0.29 0 -0.3 0 -0.29 0 -0.31 0.01 -0.31 0 -0.3 0 -0.31 0.01 -0.31 0 -0.32 0.01 -0.32 0 -0.31 0.01 -0.33 0.01 -0.34 0.01 -0.35 0.01 -0.35 0.01 -0.35 0.01 -0.37 0.02 0 0zm0 0c-0.49,0.02 -0.92,-0.37 -0.94,-0.86 -0.02,-0.49 0.37,-0.92 0.86,-0.94l0.08 1.8zm-42.49 0.55l-0.08 -1.8 -0.01 0 1.14 -0.05 1.17 -0.05 1.2 -0.04 1.24 -0.03 1.25 -0.03 1.28 -0.03 1.32 -0.02 1.33 -0.01 1.34 -0.01 1.37 -0.01 1.39 -0.01 1.39 0 1.41 0 1.41 -0.01 1.42 0.01 1.42 0 1.42 0 1.42 0 1.42 0 1.42 0 1.41 -0.01 1.4 0 1.37 -0.01 1.38 -0.01 1.35 -0.01 1.34 -0.02 1.32 -0.02 1.28 -0.02 1.27 -0.03 1.24 -0.04 1.21 -0.04 1.17 -0.05 0.08 1.8 -1.19 0.05 -1.21 0.04 -1.26 0.04 -1.27 0.03 -1.3 0.02 -1.32 0.02 -1.34 0.02 -1.35 0.01 -1.38 0.01 -1.39 0.01 -1.4 0 -1.41 0.01 -1.42 0 -1.42 0 -1.42 0 -1.42 0 -1.42 0 -1.42 -0.01 -1.41 0.01 -1.41 0 -1.39 0 -1.37 0.01 -1.37 0.01 -1.34 0.01 -1.33 0.01 -1.3 0.02 -1.28 0.03 -1.25 0.03 -1.22 0.03 -1.2 0.04 -1.15 0.05 -1.12 0.05 -0.01 0zm0.01 0c-0.49,0.02 -0.93,-0.36 -0.95,-0.85 -0.02,-0.49 0.36,-0.93 0.85,-0.95l0.1 1.8zm-9.76 -0.64l-1.24 1.32 0.04 -1.35 0.23 -0.16 0.23 -0.15 0.26 -0.12 0.24 -0.1 0.28 -0.1 0.29 -0.07 0.27 -0.07 0.3 -0.06 0.31 -0.05 0.33 -0.04 0.32 -0.04 0.34 -0.03 0.35 -0.02 0.35 -0.02 0.35 -0.01 0.38 -0.02 0.37 0 0.37 -0.01 0.38 0 0.38 -0.01 0.39 0 0.39 0 0.38 0 0.39 0 0.39 0 0.39 0 0.37 0 0.39 -0.01 0.37 0 0.37 -0.01 0.35 -0.01 0.36 -0.02 0.08 1.8 -0.36 0.02 -0.39 0.01 -0.39 0.01 -0.37 0 -0.39 0.01 -0.39 0 -0.39 0 -0.39 0 -0.39 0 -0.38 0 -0.39 0 -0.37 0 -0.38 0.01 -0.38 0 -0.37 0.01 -0.35 0 -0.34 0.02 -0.35 0.01 -0.33 0.02 -0.31 0.02 -0.3 0.03 -0.3 0.02 -0.25 0.04 -0.27 0.05 -0.24 0.04 -0.23 0.05 -0.19 0.05 -0.16 0.06 -0.16 0.06 -0.12 0.06 -0.09 0.05 -0.07 0.06 0.04 -1.35zm-0.04 1.35c-0.38,0.32 -0.95,0.27 -1.27,-0.11 -0.32,-0.38 -0.27,-0.95 0.11,-1.27l1.16 1.38z"/>
    <path id="1" class="fil0" d="M170.95 274.91c35.77,33.52 80.64,7.01 84.03,-1.78l-20.95 0.09c-3.78,0.18 -6.28,0.04 -10.26,0.22 -12.42,0.55 -30.65,-0.05 -42.49,0.55 -3.83,0.19 -8.89,-0.3 -10.33,0.92z"/>
   </g>
   <g>
    <path class="fil3" d="M211.64 346.65l-5.32 -0.04 0 0 0 -1.08 0 -1.07 -0.01 -1.01 -0.02 -1.01 -0.02 -0.99 -0.02 -0.94 -0.02 -0.93 -0.02 -0.89 -0.02 -0.89 0 -0.86 0 -0.81 0.01 -0.81 0.04 -0.79 0.04 -0.76 0.07 -0.72 0.08 -0.72 0.12 -0.71 0.15 -0.68 0.2 -0.69 0.26 -0.66 0.3 -0.63 0.38 -0.63 0.48 -0.6 0.54 -0.53 0.62 -0.46 0.69 -0.39 0.75 -0.29 0.76 -0.18 0.76 -0.11 0.8 -0.03 0.79 0.04 0.82 0.09 -0.76 5.26 -0.48 -0.05 -0.41 -0.02 -0.3 0.01 -0.24 0.03 -0.16 0.04 -0.07 0.03 -0.07 0.03 -0.04 0.04 -0.06 0.05 -0.04 0.06 -0.08 0.13 -0.1 0.21 -0.1 0.26 -0.08 0.29 -0.09 0.4 -0.08 0.45 -0.06 0.5 -0.05 0.58 -0.04 0.62 -0.02 0.67 -0.01 0.71 0 0.77 0 0.8 0.02 0.83 0.02 0.89 0.02 0.93 0.02 0.96 0.02 0.99 0.02 1.03 0.01 1.07 0 1.09 0 1.12 0 0zm0 0c-0.01,1.46 -1.22,2.65 -2.68,2.64 -1.46,-0.01 -2.65,-1.22 -2.64,-2.68l5.32 0.04zm0.54 16.87l4.44 2.94 -1.79 1.15 -0.81 0.11 -0.74 0.07 -0.77 0.03 -0.74 -0.04 -0.7 -0.09 -0.74 -0.18 -0.74 -0.28 -0.64 -0.35 -0.62 -0.46 -0.57 -0.57 -0.42 -0.57 -0.37 -0.63 -0.28 -0.67 -0.21 -0.64 -0.16 -0.67 -0.12 -0.69 -0.08 -0.7 -0.06 -0.73 -0.03 -0.73 -0.03 -0.77 0 -0.83 0.01 -0.84 0.02 -0.89 0.04 -0.91 0.03 -0.96 0.04 -1.01 0.04 -1.06 0.04 -1.09 0.03 -1.14 0.03 -1.18 0.02 -1.24 0.02 -1.29 5.32 0.04 -0.02 1.33 -0.02 1.26 -0.03 1.24 -0.05 1.16 -0.04 1.11 -0.04 1.06 -0.04 0.99 -0.03 0.96 -0.02 0.89 -0.02 0.83 -0.01 0.78 0 0.71 0.01 0.65 0.03 0.61 0.04 0.53 0.06 0.46 0.06 0.37 0.08 0.31 0.07 0.24 0.06 0.13 0.05 0.09 0.04 0.05 -0.03 -0.01 0 -0.02 0.04 0.03 0.04 0.02 0.12 0.02 0.26 0.03 0.3 0.02 0.37 -0.01 0.5 -0.05 0.55 -0.07 -1.79 1.15zm1.79 -1.15c1.44,-0.23 2.82,0.75 3.05,2.19 0.23,1.44 -0.75,2.82 -2.19,3.05l-0.86 -5.24zm-0.68 -15.7l5.32 0.04 0 0.01 0 0.51 0 0.54 0.01 0.55 0.01 0.57 0.02 0.6 0.01 0.62 0.01 0.59 0.02 0.63 0.02 0.64 0.03 0.66 0.01 0.66 0.01 0.64 0.01 0.65 0.01 0.68 -0.01 0.66 0 0.66 -0.03 0.67 -0.02 0.67 -0.04 0.66 -0.04 0.64 -0.06 0.66 -0.07 0.63 -0.08 0.63 -0.11 0.65 -0.13 0.63 -0.13 0.58 -0.17 0.62 -0.2 0.6 -0.2 0.55 -0.25 0.57 -0.3 0.59 -0.32 0.53 -4.44 -2.94 0.14 -0.21 0.12 -0.23 0.11 -0.27 0.14 -0.37 0.12 -0.34 0.09 -0.38 0.11 -0.44 0.09 -0.45 0.07 -0.45 0.06 -0.51 0.07 -0.53 0.04 -0.52 0.04 -0.58 0.04 -0.58 0.02 -0.57 0.01 -0.59 0 -0.62 0.01 -0.62 -0.01 -0.6 -0.01 -0.65 -0.01 -0.64 -0.01 -0.62 -0.01 -0.62 -0.02 -0.64 -0.02 -0.61 -0.03 -0.65 -0.01 -0.6 -0.02 -0.6 -0.01 -0.61 -0.01 -0.61 0 -0.58 0 -0.57 0 0.01zm0 -0.01c0.01,-1.46 1.23,-2.64 2.69,-2.63 1.46,0.01 2.64,1.23 2.63,2.69l-5.32 -0.06zm0.8 -15.53l0.76 -5.26 1.72 1 0.35 0.49 0.34 0.57 0.26 0.57 0.21 0.5 0.22 0.58 0.17 0.6 0.14 0.57 0.13 0.59 0.1 0.63 0.1 0.63 0.06 0.61 0.07 0.63 0.04 0.67 0.03 0.63 0.03 0.67 0.02 0.67 0.01 0.65 0 0.68 -0.01 0.67 -0.01 0.66 -0.01 0.67 -0.03 0.68 -0.02 0.65 -0.02 0.68 -0.03 0.65 -0.02 0.62 -0.02 0.66 -0.03 0.61 0 0.6 -0.02 0.62 -0.01 0.58 -0.01 0.55 -5.32 -0.04 0.01 -0.61 0.01 -0.62 0.02 -0.6 0.02 -0.64 0.03 -0.65 0.02 -0.62 0.02 -0.66 0.03 -0.65 0.02 -0.64 0.02 -0.65 0.01 -0.64 0.01 -0.63 0.01 -0.66 0.01 -0.63 0 -0.6 -0.01 -0.61 0 -0.59 -0.03 -0.57 -0.03 -0.59 -0.04 -0.51 -0.05 -0.53 -0.06 -0.51 -0.06 -0.47 -0.08 -0.43 -0.09 -0.41 -0.1 -0.41 -0.09 -0.32 -0.1 -0.28 -0.13 -0.32 -0.1 -0.21 -0.08 -0.13 -0.11 -0.15 1.72 1zm-1.72 -1c-0.9,-1.15 -0.68,-2.83 0.47,-3.73 1.15,-0.9 2.83,-0.68 3.73,0.47l-4.2 3.26z"/>
    <path id="1" class="fil0" d="M214.47 328.5c-7.2,-1.05 -5.39,6.23 -5.49,18.13 -0.12,14.21 -2.09,19.58 5.42,18.36 2.54,-3.84 1.49,-12.6 1.55,-18.3 0.05,-6.14 1.06,-14.93 -1.48,-18.19z"/>
   </g>
   <g>
    <path class="fil3" d="M273.04 346.85l4.8 2.3 -0.01 0.01 -0.51 0.94 -0.64 0.85 -0.74 0.72 -0.89 0.59 -1.04 0.39 -1.09 0.12 -1.02 -0.13 -0.9 -0.29 -0.8 -0.4 -0.71 -0.47 -0.66 -0.54 -0.62 -0.59 -0.59 -0.63 -0.55 -0.67 -0.53 -0.68 -0.51 -0.73 -0.5 -0.73 -0.48 -0.75 -0.46 -0.75 -0.45 -0.76 -0.43 -0.77 -0.4 -0.73 -0.38 -0.72 -0.36 -0.7 -0.34 -0.66 -0.3 -0.61 -0.27 -0.55 -0.26 -0.51 -0.21 -0.46 -0.17 -0.35 -0.14 -0.26 -0.06 -0.13 4.64 -2.58 0.16 0.29 0.16 0.34 0.19 0.39 0.21 0.42 0.24 0.49 0.27 0.55 0.3 0.59 0.3 0.62 0.34 0.64 0.36 0.68 0.38 0.69 0.37 0.67 0.41 0.68 0.4 0.67 0.42 0.65 0.42 0.63 0.41 0.57 0.43 0.54 0.39 0.49 0.37 0.39 0.36 0.35 0.3 0.24 0.25 0.17 0.14 0.08 0.04 0.01 -0.1 -0.01 -0.19 0.02 -0.16 0.07 -0.05 0.03 0.08 -0.08 0.16 -0.23 0.23 -0.42 -0.01 0.01zm0.01 -0.01c0.64,-1.31 2.24,-1.87 3.55,-1.23 1.31,0.64 1.87,2.24 1.23,3.55l-4.78 -2.32zm-8.36 -15.73l4.64 -2.6 0 0 0.16 0.29 0.2 0.34 0.26 0.43 0.25 0.43 0.31 0.48 0.33 0.57 0.33 0.56 0.36 0.57 0.39 0.65 0.39 0.66 0.4 0.68 0.39 0.68 0.42 0.69 0.42 0.74 0.4 0.73 0.4 0.72 0.39 0.74 0.38 0.73 0.38 0.74 0.35 0.72 0.33 0.71 0.32 0.71 0.29 0.7 0.26 0.69 0.24 0.66 0.21 0.67 0.16 0.67 0.13 0.68 0.06 0.68 0 0.71 -0.11 0.77 -0.29 0.84 -4.8 -2.3 -0.09 0.24 -0.01 0.09 0 -0.09 -0.02 -0.2 -0.05 -0.28 -0.1 -0.37 -0.13 -0.43 -0.18 -0.52 -0.2 -0.53 -0.25 -0.56 -0.26 -0.61 -0.31 -0.63 -0.31 -0.66 -0.34 -0.66 -0.36 -0.69 -0.37 -0.68 -0.38 -0.7 -0.38 -0.69 -0.38 -0.66 -0.4 -0.69 -0.39 -0.68 -0.4 -0.66 -0.37 -0.64 -0.37 -0.59 -0.36 -0.61 -0.35 -0.58 -0.31 -0.51 -0.31 -0.5 -0.29 -0.49 -0.24 -0.41 -0.24 -0.4 -0.2 -0.35 0 0zm0 0c-0.71,-1.28 -0.26,-2.91 1.02,-3.62 1.28,-0.71 2.91,-0.26 3.62,1.02l-4.64 2.6zm-7.65 -12.78l-5.24 -0.88 1.35 -1.89 0.59 -0.31 0.59 -0.29 0.6 -0.25 0.58 -0.21 0.6 -0.17 0.65 -0.13 0.65 -0.05 0.62 0 0.7 0.08 0.66 0.18 0.59 0.23 0.57 0.3 0.57 0.39 0.46 0.39 0.44 0.41 0.43 0.49 0.37 0.47 0.37 0.5 0.37 0.55 0.36 0.57 0.36 0.59 0.38 0.65 0.38 0.68 0.38 0.7 0.41 0.75 0.42 0.78 0.45 0.83 0.47 0.88 0.5 0.91 0.52 0.97 0.55 1 0.59 1.06 -4.64 2.6 -0.59 -1.08 -0.57 -1.02 -0.54 -0.99 -0.5 -0.93 -0.47 -0.88 -0.45 -0.83 -0.42 -0.78 -0.39 -0.73 -0.38 -0.68 -0.34 -0.62 -0.32 -0.55 -0.32 -0.53 -0.28 -0.45 -0.27 -0.39 -0.25 -0.34 -0.23 -0.29 -0.17 -0.19 -0.18 -0.17 -0.14 -0.13 -0.05 -0.03 -0.05 -0.02 -0.07 -0.03 0 0 0.02 0 -0.1 0 -0.11 0.01 -0.13 0.03 -0.24 0.07 -0.3 0.11 -0.32 0.13 -0.39 0.19 -0.45 0.23 1.35 -1.89zm-1.35 1.89c-1.28,0.7 -2.9,0.22 -3.6,-1.06 -0.7,-1.28 -0.22,-2.9 1.06,-3.6l2.54 4.66zm4.67 6.53l-4.56 2.74 0 -0.01 -0.16 -0.28 -0.17 -0.26 -0.18 -0.29 -0.16 -0.26 -0.19 -0.29 -0.2 -0.32 -0.17 -0.28 -0.19 -0.3 -0.2 -0.32 -0.19 -0.32 -0.19 -0.32 -0.18 -0.32 -0.2 -0.35 -0.19 -0.37 -0.16 -0.33 -0.18 -0.35 -0.16 -0.36 -0.17 -0.4 -0.16 -0.42 -0.13 -0.37 -0.13 -0.41 -0.12 -0.44 -0.1 -0.41 -0.09 -0.42 -0.08 -0.46 -0.05 -0.47 -0.04 -0.47 -0.02 -0.46 0.01 -0.52 0.03 -0.47 0.04 -0.48 0.08 -0.51 5.24 0.88 -0.04 0.25 -0.02 0.28 -0.03 0.27 0.01 0.22 0 0.24 0.02 0.25 0.03 0.23 0.04 0.22 0.05 0.26 0.06 0.25 0.06 0.22 0.09 0.25 0.09 0.27 0.08 0.22 0.11 0.24 0.12 0.26 0.12 0.27 0.14 0.27 0.13 0.25 0.14 0.25 0.16 0.28 0.15 0.26 0.17 0.28 0.16 0.26 0.19 0.3 0.19 0.3 0.16 0.26 0.19 0.29 0.2 0.32 0.18 0.29 0.19 0.32 0.18 0.3 0 -0.01zm0 0.01c0.75,1.25 0.33,2.89 -0.92,3.64 -1.25,0.75 -2.89,0.33 -3.64,-0.92l4.56 -2.72zm5.1 8.86l-4.64 2.58 0 0 -0.15 -0.27 -0.16 -0.29 -0.13 -0.25 -0.15 -0.25 -0.17 -0.3 -0.14 -0.26 -0.16 -0.28 -0.17 -0.3 -0.13 -0.25 -0.15 -0.23 -0.17 -0.32 -0.15 -0.27 -0.15 -0.24 -0.16 -0.27 -0.17 -0.32 -0.15 -0.27 -0.16 -0.26 -0.15 -0.26 -0.16 -0.27 -0.16 -0.28 -0.16 -0.27 -0.17 -0.3 -0.13 -0.23 -0.17 -0.27 -0.18 -0.31 -0.16 -0.27 -0.14 -0.25 -0.17 -0.27 -0.18 -0.31 -0.14 -0.24 -0.17 -0.28 -0.16 -0.27 4.56 -2.74 0.16 0.27 0.17 0.28 0.18 0.3 0.14 0.25 0.17 0.27 0.18 0.31 0.16 0.27 0.14 0.25 0.17 0.27 0.19 0.33 0.15 0.26 0.16 0.27 0.16 0.28 0.16 0.27 0.17 0.3 0.16 0.3 0.15 0.27 0.15 0.24 0.16 0.27 0.17 0.32 0.15 0.27 0.15 0.24 0.17 0.31 0.17 0.31 0.13 0.24 0.16 0.28 0.16 0.28 0.13 0.24 0.17 0.29 0.17 0.31 0.14 0.25 0.15 0.27 0 0zm0 0c0.71,1.28 0.25,2.9 -1.03,3.61 -1.28,0.71 -2.9,0.25 -3.61,-1.03l4.64 -2.58z"/>
    <path id="1" class="fil0" d="M263.14 336.91c0.99,1.78 8.42,19.11 12.3,11.09 1.38,-2.88 -6.67,-15.05 -8.43,-18.19 -6.53,-11.63 -6.88,-15.04 -12.59,-11.92 -0.7,4.12 1.82,7.13 3.66,10.23 1.75,2.92 3.46,5.9 5.06,8.79z"/>
   </g>
   <g>
    <path class="fil3" d="M301.74 293.32l2.76 -4.54 0.01 0.01 0.26 0.16 0.31 0.18 0.37 0.21 0.46 0.25 0.5 0.29 0.53 0.29 0.58 0.32 0.61 0.34 0.63 0.35 0.67 0.37 0.69 0.39 0.71 0.4 0.7 0.41 0.72 0.41 0.73 0.42 0.73 0.44 0.71 0.43 0.71 0.43 0.7 0.43 0.7 0.44 0.66 0.44 0.62 0.42 0.64 0.45 0.58 0.43 0.55 0.42 0.52 0.42 0.48 0.43 0.46 0.44 0.43 0.48 0.38 0.52 0.35 0.61 0.29 0.85 -5.2 1.08 0.11 0.33 0.03 0.07 -0.06 -0.08 -0.15 -0.16 -0.24 -0.24 -0.32 -0.27 -0.38 -0.32 -0.45 -0.34 -0.48 -0.37 -0.52 -0.35 -0.6 -0.4 -0.6 -0.4 -0.62 -0.4 -0.66 -0.41 -0.67 -0.41 -0.69 -0.41 -0.71 -0.42 -0.69 -0.4 -0.7 -0.41 -0.7 -0.39 -0.69 -0.4 -0.67 -0.37 -0.65 -0.37 -0.63 -0.35 -0.61 -0.34 -0.58 -0.32 -0.55 -0.31 -0.48 -0.27 -0.46 -0.25 -0.43 -0.25 -0.39 -0.22 -0.32 -0.2 0.01 0.01zm-0.01 -0.01c-1.24,-0.76 -1.63,-2.41 -0.87,-3.65 0.76,-1.24 2.41,-1.63 3.65,-0.87l-2.78 4.52zm-11.47 -6.35l-1.7 -5.04 0.01 0 0.67 -0.17 0.67 -0.06 0.64 0.01 0.57 0.08 0.54 0.1 0.56 0.14 0.54 0.17 0.55 0.19 0.55 0.22 0.54 0.23 0.52 0.24 0.57 0.26 0.56 0.29 0.56 0.3 0.54 0.3 0.54 0.3 0.55 0.31 0.53 0.32 0.53 0.32 0.53 0.32 0.5 0.32 0.49 0.3 0.48 0.31 0.45 0.29 0.45 0.29 0.42 0.27 0.38 0.25 0.4 0.26 0.32 0.21 0.29 0.19 0.26 0.17 0.23 0.13 -2.76 4.54 -0.27 -0.17 -0.3 -0.19 -0.35 -0.21 -0.36 -0.25 -0.34 -0.22 -0.4 -0.25 -0.4 -0.27 -0.43 -0.27 -0.45 -0.29 -0.46 -0.29 -0.47 -0.3 -0.48 -0.3 -0.49 -0.3 -0.49 -0.3 -0.49 -0.28 -0.49 -0.29 -0.5 -0.28 -0.5 -0.28 -0.46 -0.24 -0.46 -0.23 -0.45 -0.22 -0.46 -0.2 -0.42 -0.19 -0.37 -0.14 -0.35 -0.13 -0.32 -0.09 -0.28 -0.08 -0.22 -0.04 -0.17 -0.02 -0.04 -0.01 0.07 0 0.11 -0.03 0.01 0zm-0.01 0c-1.39,0.46 -2.9,-0.29 -3.36,-1.68 -0.46,-1.39 0.29,-2.9 1.68,-3.36l1.68 5.04zm-0.49 1.2l-5.24 0.92 0.01 0.02 -0.05 -0.29 -0.04 -0.33 -0.03 -0.39 0 -0.26 0 -0.26 0.02 -0.33 0.04 -0.33 0.06 -0.35 0.06 -0.25 0.06 -0.24 0.1 -0.32 0.09 -0.26 0.12 -0.28 0.11 -0.24 0.11 -0.2 0.17 -0.31 0.16 -0.22 0.16 -0.23 0.21 -0.25 0.13 -0.16 0.15 -0.15 0.24 -0.25 0.16 -0.13 0.16 -0.14 0.27 -0.21 0.25 -0.16 0.16 -0.1 0.2 -0.12 0.27 -0.13 0.25 -0.12 0.21 -0.08 0.23 -0.09 1.7 5.04 -0.03 0.01 -0.05 0.02 -0.01 0 0.03 -0.01 -0.06 0.04 -0.08 0.04 0.01 0 0.03 -0.03 -0.06 0.06 -0.06 0.05 0.02 -0.03 -0.05 0.07 -0.07 0.06 0.01 -0.01 -0.02 0.03 -0.02 0.04 0.01 -0.03 -0.03 0.08 -0.03 0.04 0 0.02 -0.03 0.06 0 0 -0.02 0.1 -0.02 0.07 0 0.01 0 0.03 0 0.03 0 0.12 0 0.12 -0.01 0.01 0.02 0.07 0.01 0.11 0.01 0.02zm-0.01 -0.02c0.26,1.44 -0.69,2.83 -2.13,3.09 -1.44,0.26 -2.83,-0.69 -3.09,-2.13l5.22 -0.96zm15.49 9.06l-2.72 4.56 0.01 0.01 -0.34 -0.2 -0.38 -0.22 -0.46 -0.26 -0.48 -0.28 -0.54 -0.29 -0.58 -0.33 -0.59 -0.33 -0.63 -0.35 -0.66 -0.38 -0.68 -0.38 -0.67 -0.39 -0.71 -0.39 -0.71 -0.42 -0.71 -0.4 -0.72 -0.44 -0.7 -0.41 -0.69 -0.41 -0.71 -0.42 -0.67 -0.43 -0.67 -0.41 -0.64 -0.42 -0.6 -0.4 -0.59 -0.4 -0.55 -0.39 -0.51 -0.38 -0.51 -0.39 -0.45 -0.39 -0.41 -0.37 -0.41 -0.43 -0.38 -0.47 -0.36 -0.6 -0.3 -0.91 5.24 -0.92 -0.16 -0.51 -0.08 -0.14 0.02 0.03 0.13 0.13 0.23 0.21 0.29 0.25 0.35 0.27 0.43 0.32 0.47 0.33 0.51 0.36 0.56 0.36 0.58 0.38 0.61 0.39 0.65 0.39 0.65 0.4 0.69 0.41 0.68 0.41 0.7 0.4 0.69 0.4 0.69 0.4 0.69 0.39 0.69 0.39 0.66 0.38 0.64 0.36 0.63 0.35 0.61 0.35 0.56 0.31 0.54 0.31 0.5 0.28 0.46 0.26 0.42 0.24 0.38 0.22 0.01 0.01zm-0.01 -0.01c1.26,0.74 1.68,2.38 0.94,3.64 -0.74,1.26 -2.38,1.68 -3.64,0.94l2.7 -4.58zm12.06 5.55l5.2 -1.08 0 0 0.18 1.09 0.05 1.06 -0.09 1.02 -0.27 1.01 -0.5 0.97 -0.78 0.87 -0.89 0.58 -0.93 0.35 -0.93 0.16 -0.89 0.01 -0.83 -0.08 -0.82 -0.15 -0.83 -0.21 -0.81 -0.26 -0.81 -0.29 -0.83 -0.34 -0.81 -0.38 -0.79 -0.37 -0.82 -0.41 -0.77 -0.42 -0.78 -0.42 -0.76 -0.44 -0.73 -0.42 -0.71 -0.43 -0.67 -0.41 -0.62 -0.39 -0.58 -0.37 -0.54 -0.34 -0.46 -0.3 -0.37 -0.23 -0.34 -0.21 -0.24 -0.15 2.72 -4.56 0.3 0.19 0.36 0.21 0.45 0.29 0.46 0.3 0.5 0.32 0.56 0.35 0.6 0.37 0.63 0.39 0.65 0.39 0.69 0.4 0.68 0.4 0.72 0.38 0.71 0.38 0.7 0.35 0.71 0.35 0.67 0.3 0.63 0.26 0.61 0.23 0.57 0.18 0.49 0.13 0.42 0.07 0.33 0.04 0.19 -0.01 0.03 0 -0.09 0.03 -0.17 0.12 -0.18 0.21 -0.08 0.13 0.01 -0.01 0.01 -0.22 -0.01 -0.4 -0.1 -0.59 0 0zm0 0c-0.29,-1.43 0.63,-2.85 2.06,-3.14 1.43,-0.29 2.85,0.63 3.14,2.06l-5.2 1.08z"/>
    <path id="1" class="fil0" d="M319.89 302.2c-0.54,-2.59 -13.99,-9.44 -16.77,-11.15 -2.48,-1.51 -10.93,-7.54 -13.71,-6.61 -1.39,0.47 -2.67,1.98 -2.27,4.18 0.35,2 13.23,8.78 16.74,10.86 2.52,1.5 17.99,12.33 16.01,2.72z"/>
   </g>
   <g>
    <path class="fil3" d="M167.56 318.48l-4.56 -2.7 0.38 -0.51 0.47 -0.44 0.48 -0.38 0.49 -0.35 0.56 -0.32 0.53 -0.23 0.56 -0.2 0.59 -0.13 0.55 -0.08 0.61 -0.03 0.61 0.05 0.52 0.1 0.53 0.13 0.58 0.23 0.48 0.25 0.46 0.29 0.43 0.34 0.42 0.41 0.35 0.42 0.32 0.44 0.29 0.51 0.23 0.5 0.18 0.53 0.14 0.54 0.09 0.55 0.05 0.59 0 0.62 -0.06 0.61 -0.1 0.58 -0.14 0.58 -0.2 0.61 -0.26 0.6 -0.28 0.58 -4.68 -2.52 0.14 -0.28 0.1 -0.24 0.06 -0.21 0.06 -0.22 0.04 -0.22 0.02 -0.15 0 -0.12 -0.01 -0.13 -0.03 -0.13 -0.02 -0.1 -0.04 -0.09 -0.03 -0.08 -0.03 -0.05 -0.04 -0.06 -0.03 -0.04 -0.02 -0.01 -0.03 -0.02 -0.04 -0.03 -0.06 -0.03 0.04 0.01 -0.05 -0.01 -0.08 -0.02 0.01 0.01 -0.03 -0.01 -0.07 0.02 -0.07 0.01 -0.08 0.04 -0.13 0.05 -0.1 0.06 -0.15 0.09 -0.16 0.14 -0.17 0.16 0.38 -0.51zm-0.38 0.51c-1.02,1.04 -2.72,1.06 -3.76,0.04 -1.04,-1.02 -1.06,-2.72 -0.04,-3.76l3.8 3.72zm-19.45 22.54l15.27 -25.75 4.56 2.7 -15.27 25.75 -4.64 -2.58 0.08 -0.12zm4.56 2.7c-0.74,1.25 -2.38,1.67 -3.63,0.93 -1.25,-0.74 -1.67,-2.38 -0.93,-3.63l4.56 2.7zm0.66 1.91l4.56 2.74 -0.32 0.42 -0.42 0.43 -0.47 0.39 -0.45 0.32 -0.5 0.3 -0.53 0.25 -0.52 0.2 -0.54 0.14 -0.52 0.1 -0.56 0.05 -0.57 0 -0.52 -0.05 -0.53 -0.09 -0.51 -0.14 -0.51 -0.19 -0.51 -0.25 -0.48 -0.3 -0.43 -0.33 -0.41 -0.37 -0.38 -0.44 -0.33 -0.47 -0.29 -0.5 -0.25 -0.58 -0.17 -0.59 -0.11 -0.54 -0.07 -0.59 -0.02 -0.62 0.05 -0.66 0.11 -0.61 0.14 -0.6 0.2 -0.65 0.26 -0.63 0.3 -0.63 4.72 2.46 -0.16 0.33 -0.12 0.29 -0.08 0.25 -0.06 0.24 -0.03 0.21 -0.01 0.14 0 0.12 0.01 0.11 0.03 0.12 0.01 0.05 0.01 0 0.01 0.04 0.03 0.03 0 0 0.03 0.03 0.03 0.03 0.04 0.02 0.01 0.01 0.05 0.01 0.05 0.02 0.07 0.01 0.08 0.01 0.05 0 0.06 -0.01 0.1 -0.02 0.08 -0.02 0.1 -0.04 0.09 -0.03 0.08 -0.06 0.13 -0.08 0.09 -0.09 0.12 -0.11 -0.32 0.42zm0.32 -0.42c0.98,-1.08 2.67,-1.15 3.75,-0.17 1.08,0.98 1.15,2.67 0.17,3.75l-3.92 -3.58zm14.68 -14.21l-10.44 17.37 -4.56 -2.74 10.44 -17.37 0.04 -0.05 4.52 2.79zm-4.56 -2.74c0.75,-1.25 2.4,-1.66 3.65,-0.91 1.25,0.75 1.66,2.4 0.91,3.65l-4.56 -2.74zm4.79 -8.12l4.68 2.52 -0.01 0.01 -0.13 0.25 -0.13 0.23 -0.14 0.27 -0.16 0.28 -0.12 0.21 -0.14 0.26 -0.16 0.28 -0.15 0.26 -0.14 0.25 -0.16 0.28 -0.15 0.26 -0.15 0.26 -0.15 0.26 -0.15 0.26 -0.17 0.29 -0.15 0.24 -0.15 0.27 -0.19 0.31 -0.14 0.23 -0.14 0.24 -0.18 0.3 -0.17 0.28 -0.16 0.26 -0.16 0.26 -0.16 0.26 -0.16 0.26 -0.16 0.26 -0.16 0.26 -0.17 0.28 -0.16 0.25 -0.16 0.26 -0.17 0.26 -4.48 -2.84 0.15 -0.24 0.16 -0.26 0.16 -0.25 0.15 -0.24 0.16 -0.26 0.16 -0.26 0.16 -0.26 0.16 -0.26 0.16 -0.26 0.16 -0.26 0.15 -0.24 0.14 -0.24 0.16 -0.28 0.18 -0.29 0.13 -0.21 0.15 -0.27 0.17 -0.28 0.13 -0.23 0.15 -0.26 0.15 -0.26 0.15 -0.26 0.15 -0.26 0.14 -0.24 0.14 -0.25 0.15 -0.26 0.12 -0.22 0.14 -0.26 0.16 -0.29 0.12 -0.2 0.12 -0.23 0.15 -0.27 0.13 -0.23 -0.01 0.01zm0.01 -0.01c0.7,-1.28 2.32,-1.76 3.6,-1.06 1.28,0.7 1.76,2.32 1.06,3.6l-4.66 -2.54z"/>
    <path id="1" class="fil0" d="M170.52 321.91c2.48,-4.59 -1.88,-8.21 -5.24,-4.78l-15.27 25.75c-2.7,5.19 2.44,7.67 5.22,4.63l10.44 -17.37c1.71,-2.69 3.45,-5.65 4.85,-8.23z"/>
   </g>
   <g>
    <path class="fil3" d="M108.65 300.76l-4.96 -1.9 0 0 0.59 -0.98 0.53 -0.54 0.53 -0.46 0.63 -0.48 0.73 -0.54 0.81 -0.55 0.89 -0.59 0.98 -0.63 1.05 -0.65 1.12 -0.69 1.17 -0.71 1.24 -0.73 1.27 -0.74 1.3 -0.75 1.34 -0.76 1.34 -0.74 1.35 -0.75 1.36 -0.74 1.33 -0.71 1.33 -0.71 1.3 -0.66 1.25 -0.64 1.21 -0.61 1.18 -0.57 1.1 -0.51 1.03 -0.47 0.98 -0.42 0.89 -0.36 0.81 -0.3 0.79 -0.24 0.77 -0.17 0.91 -0.06 -0.24 5.3 0.17 0 -0.23 0.05 -0.43 0.14 -0.63 0.24 -0.77 0.3 -0.86 0.38 -0.97 0.43 -1.04 0.49 -1.1 0.53 -1.17 0.59 -1.23 0.62 -1.26 0.66 -1.29 0.67 -1.31 0.71 -1.32 0.72 -1.33 0.73 -1.32 0.74 -1.3 0.74 -1.28 0.73 -1.25 0.72 -1.18 0.71 -1.15 0.69 -1.08 0.67 -1.01 0.63 -0.92 0.59 -0.83 0.55 -0.73 0.49 -0.59 0.42 -0.45 0.36 -0.31 0.26 -0.05 0.04 0.31 -0.54 0 0zm0 0c-0.52,1.36 -2.07,2.05 -3.43,1.53 -1.36,-0.52 -2.05,-2.07 -1.53,-3.43l4.96 1.9zm0.22 1.05l-1.3 5.16 -0.01 -0.01 -0.33 -0.09 -0.26 -0.09 -0.31 -0.13 -0.32 -0.15 -0.24 -0.13 -0.24 -0.14 -0.32 -0.22 -0.3 -0.25 -0.16 -0.14 -0.17 -0.15 -0.27 -0.29 -0.24 -0.3 -0.17 -0.23 -0.16 -0.25 -0.14 -0.24 -0.17 -0.34 -0.13 -0.32 -0.08 -0.23 -0.08 -0.25 -0.1 -0.35 -0.06 -0.32 -0.05 -0.32 -0.02 -0.33 -0.02 -0.26 0 -0.33 0.02 -0.33 0.04 -0.38 0.07 -0.33 0.05 -0.26 0.08 -0.3 0.09 -0.32 0.12 -0.33 4.96 1.9 -0.02 0.07 -0.03 0.08 -0.02 0.1 -0.03 0.12 -0.01 0.07 0 0 0 0.05 0 0.05 0 0.1 0 0.03 0.01 0.02 0 0.04 0 -0.01 0.02 0.07 0.04 0.09 -0.01 0 -0.01 -0.04 0.02 0.04 0.02 0.03 0.03 0.05 -0.04 -0.04 -0.03 -0.05 0.07 0.07 0.08 0.08 -0.04 -0.03 -0.04 -0.04 0.06 0.04 0.06 0.03 0 0.01 0.01 -0.01 0.08 0.03 0.01 0.01 -0.01 -0.01zm0.01 0.01c1.41,0.36 2.27,1.82 1.91,3.23 -0.36,1.41 -1.82,2.27 -3.23,1.91l1.32 -5.14zm16.18 -8.66l2.56 4.66 0 0 -0.26 0.14 -0.35 0.21 -0.42 0.23 -0.43 0.26 -0.5 0.3 -0.54 0.3 -0.56 0.34 -0.6 0.35 -0.63 0.37 -0.68 0.4 -0.67 0.37 -0.69 0.4 -0.71 0.41 -0.72 0.41 -0.73 0.4 -0.73 0.41 -0.74 0.4 -0.73 0.39 -0.72 0.38 -0.73 0.37 -0.71 0.35 -0.68 0.33 -0.68 0.31 -0.65 0.29 -0.65 0.27 -0.63 0.24 -0.59 0.2 -0.59 0.17 -0.62 0.15 -0.61 0.08 -0.67 0.03 -0.83 -0.11 1.3 -5.16 -0.29 -0.03 -0.03 -0.01 0.15 -0.02 0.22 -0.05 0.35 -0.11 0.41 -0.14 0.47 -0.18 0.51 -0.21 0.57 -0.25 0.58 -0.27 0.64 -0.31 0.65 -0.31 0.65 -0.35 0.7 -0.36 0.69 -0.37 0.7 -0.38 0.71 -0.39 0.71 -0.4 0.7 -0.39 0.69 -0.39 0.69 -0.4 0.67 -0.39 0.64 -0.36 0.61 -0.37 0.6 -0.35 0.58 -0.34 0.54 -0.32 0.48 -0.28 0.49 -0.28 0.4 -0.23 0.35 -0.21 0.36 -0.2 0 0zm0 0c1.28,-0.7 2.91,-0.23 3.61,1.05 0.7,1.28 0.23,2.91 -1.05,3.61l-2.56 -4.66zm11.5 -7.46l0.24 -5.3 1.75 0.76 0.5 0.51 0.47 0.51 0.43 0.5 0.41 0.53 0.35 0.53 0.3 0.52 0.29 0.63 0.2 0.67 0.12 0.7 0.01 0.73 -0.1 0.73 -0.22 0.69 -0.29 0.62 -0.37 0.57 -0.4 0.51 -0.44 0.46 -0.48 0.44 -0.51 0.39 -0.51 0.37 -0.56 0.39 -0.62 0.4 -0.65 0.39 -0.67 0.39 -0.73 0.42 -0.77 0.42 -0.8 0.44 -0.88 0.48 -0.9 0.48 -0.96 0.52 -0.99 0.53 -1.05 0.58 -1.11 0.61 -2.56 -4.66 1.11 -0.61 1.07 -0.58 1.01 -0.55 0.96 -0.52 0.9 -0.48 0.84 -0.46 0.8 -0.44 0.73 -0.4 0.67 -0.38 0.63 -0.37 0.55 -0.33 0.48 -0.3 0.42 -0.29 0.39 -0.29 0.29 -0.23 0.2 -0.18 0.16 -0.16 0.08 -0.09 0.03 -0.05 -0.01 0.02 -0.02 0.07 -0.02 0.11 0.01 0.11 0 0.04 0 -0.01 -0.03 -0.05 -0.12 -0.2 -0.15 -0.23 -0.21 -0.27 -0.27 -0.32 -0.35 -0.37 -0.4 -0.41 1.75 0.76zm-1.75 -0.76c-1.04,-1.03 -1.05,-2.72 -0.02,-3.76 1.03,-1.04 2.72,-1.05 3.76,-0.02l-3.74 3.78z"/>
    <path id="1" class="fil0" d="M136.68 283.05c-3.22,-0.14 -29.76,14.79 -30.51,16.76 -0.82,2.15 0.17,4.1 2.05,4.58 2.55,0.64 15.15,-7.27 18.12,-8.9 12.1,-6.68 15.45,-7.4 10.34,-12.44z"/>
   </g>
   <g>
    <path class="fil3" d="M211.5 166.77l0.02 1.8 0 0 -1.68 0.03 -1.58 0.03 -1.46 0.03 -1.36 0.04 -1.26 0.05 -1.18 0.05 -1.09 0.06 -1.02 0.06 -0.95 0.07 -0.9 0.07 -0.84 0.07 -0.79 0.07 -0.76 0.09 -0.73 0.09 -0.71 0.1 -0.7 0.1 -0.68 0.11 -0.69 0.11 -0.69 0.12 -0.72 0.12 -0.73 0.13 -0.76 0.13 -0.79 0.14 -0.84 0.14 -0.88 0.15 -0.95 0.15 -1.01 0.16 -1.08 0.16 -1.16 0.17 -1.25 0.17 -1.33 0.18 -1.44 0.18 -0.22 -1.78 1.42 -0.18 1.33 -0.18 1.23 -0.17 1.16 -0.17 1.06 -0.16 1.01 -0.16 0.93 -0.15 0.88 -0.15 0.84 -0.14 0.79 -0.14 0.76 -0.13 0.73 -0.13 0.72 -0.12 0.69 -0.12 0.71 -0.11 0.7 -0.11 0.7 -0.1 0.73 -0.1 0.75 -0.09 0.78 -0.09 0.83 -0.09 0.86 -0.07 0.9 -0.07 0.97 -0.07 1.04 -0.06 1.11 -0.06 1.18 -0.05 1.28 -0.05 1.38 -0.04 1.46 -0.03 1.58 -0.03 1.7 -0.03 0 0zm0 0c0.49,0 0.91,0.4 0.91,0.89 0,0.49 -0.4,0.91 -0.89,0.91l-0.02 -1.8zm31.02 3.32l1.8 -0.02 -0.98 0.91 -1.07 -0.1 -1.03 -0.1 -1.03 -0.1 -1.01 -0.11 -1 -0.1 -1 -0.11 -0.99 -0.11 -0.97 -0.1 -0.96 -0.11 -0.96 -0.11 -0.96 -0.1 -0.95 -0.11 -0.94 -0.1 -0.94 -0.1 -0.95 -0.1 -0.94 -0.08 -0.95 -0.09 -0.95 -0.09 -0.94 -0.08 -0.97 -0.08 -0.96 -0.07 -0.97 -0.07 -0.98 -0.06 -0.99 -0.06 -1 -0.05 -1.01 -0.04 -1.03 -0.03 -1.04 -0.03 -1.05 -0.02 -1.07 -0.01 -1.1 0 -1.11 0.01 -0.02 -1.8 1.13 -0.01 1.1 0 1.09 0.01 1.07 0.02 1.06 0.03 1.03 0.03 1.03 0.04 1.02 0.05 0.99 0.06 1 0.06 0.97 0.07 0.98 0.07 0.97 0.08 0.96 0.08 0.95 0.09 0.95 0.09 0.96 0.1 0.95 0.1 0.94 0.1 0.96 0.1 0.95 0.11 0.96 0.1 0.96 0.11 0.96 0.11 0.97 0.1 0.99 0.11 0.98 0.11 1 0.1 1.01 0.09 1.03 0.1 1.03 0.1 1.05 0.1 -0.98 0.91zm0.98 -0.91c0.49,0.04 0.86,0.49 0.82,0.98 -0.04,0.49 -0.49,0.86 -0.98,0.82l0.16 -1.8zm-8.22 -28.46l1.42 -1.12 0 0 0.66 0.87 0.62 0.85 0.6 0.85 0.54 0.84 0.51 0.83 0.49 0.83 0.44 0.84 0.41 0.82 0.38 0.84 0.35 0.84 0.32 0.83 0.3 0.85 0.26 0.86 0.25 0.85 0.22 0.88 0.19 0.88 0.17 0.89 0.15 0.91 0.13 0.92 0.12 0.95 0.1 0.96 0.09 0.98 0.07 1 0.06 1.03 0.04 1.06 0.04 1.07 0.03 1.11 0.03 1.13 0.01 1.18 0.02 1.2 0.01 1.24 0.01 1.28 -1.8 0.02 -0.01 -1.28 -0.01 -1.24 -0.02 -1.2 -0.01 -1.16 -0.03 -1.13 -0.03 -1.09 -0.04 -1.07 -0.04 -1.04 -0.06 -0.99 -0.07 -0.98 -0.09 -0.96 -0.08 -0.92 -0.12 -0.91 -0.13 -0.88 -0.15 -0.87 -0.15 -0.85 -0.19 -0.84 -0.2 -0.82 -0.23 -0.81 -0.24 -0.8 -0.28 -0.79 -0.3 -0.79 -0.33 -0.78 -0.36 -0.78 -0.39 -0.78 -0.42 -0.78 -0.45 -0.79 -0.49 -0.79 -0.52 -0.8 -0.56 -0.81 -0.6 -0.81 -0.64 -0.83 0 0zm0 0c-0.3,-0.39 -0.24,-0.97 0.15,-1.27 0.39,-0.3 0.97,-0.24 1.27,0.15l-1.42 1.12zm-24.3 -11.13l-0.02 -1.8 0 0 1.07 0 1.06 0.04 1.05 0.07 1.04 0.12 1.02 0.13 1 0.18 1 0.19 0.97 0.23 0.97 0.24 0.95 0.28 0.93 0.31 0.91 0.33 0.89 0.35 0.88 0.37 0.85 0.38 0.84 0.41 0.82 0.43 0.8 0.44 0.77 0.46 0.75 0.47 0.74 0.49 0.7 0.49 0.69 0.52 0.65 0.51 0.64 0.52 0.62 0.54 0.59 0.55 0.56 0.54 0.53 0.55 0.51 0.56 0.48 0.55 0.46 0.56 -1.42 1.12 -0.42 -0.52 -0.44 -0.51 -0.47 -0.52 -0.51 -0.51 -0.52 -0.52 -0.55 -0.51 -0.58 -0.5 -0.6 -0.5 -0.63 -0.49 -0.65 -0.48 -0.66 -0.47 -0.7 -0.45 -0.71 -0.45 -0.73 -0.44 -0.76 -0.42 -0.76 -0.41 -0.8 -0.37 -0.81 -0.38 -0.84 -0.35 -0.85 -0.33 -0.85 -0.31 -0.89 -0.29 -0.89 -0.26 -0.91 -0.24 -0.93 -0.21 -0.94 -0.19 -0.96 -0.16 -0.96 -0.13 -0.98 -0.1 -0.99 -0.07 -1 -0.04 -1.01 0 0 0zm0 0c-0.49,0 -0.91,-0.4 -0.91,-0.89 0,-0.49 0.4,-0.91 0.89,-0.91l0.02 1.8zm-24.11 11.7l-1.4 -1.12 0 0 0.49 -0.61 0.53 -0.6 0.53 -0.59 0.56 -0.59 0.57 -0.57 0.61 -0.58 0.61 -0.56 0.64 -0.55 0.66 -0.54 0.68 -0.53 0.69 -0.51 0.71 -0.49 0.73 -0.5 0.77 -0.46 0.77 -0.45 0.79 -0.43 0.81 -0.43 0.83 -0.39 0.85 -0.38 0.86 -0.35 0.88 -0.34 0.91 -0.31 0.93 -0.28 0.93 -0.26 0.96 -0.24 0.98 -0.2 0.99 -0.19 1.01 -0.14 1.03 -0.12 1.04 -0.1 1.06 -0.06 1.08 -0.03 0.02 1.8 -1.02 0.03 -1 0.06 -1 0.08 -0.97 0.12 -0.95 0.14 -0.95 0.17 -0.92 0.2 -0.9 0.22 -0.89 0.24 -0.87 0.28 -0.85 0.29 -0.84 0.32 -0.82 0.33 -0.79 0.36 -0.79 0.37 -0.77 0.39 -0.75 0.41 -0.73 0.43 -0.71 0.44 -0.69 0.46 -0.69 0.47 -0.65 0.49 -0.64 0.49 -0.62 0.52 -0.6 0.51 -0.59 0.54 -0.57 0.54 -0.55 0.55 -0.52 0.55 -0.51 0.57 -0.49 0.56 -0.47 0.57 0 0zm0 0c-0.3,0.38 -0.88,0.44 -1.26,0.14 -0.38,-0.3 -0.44,-0.88 -0.14,-1.26l1.4 1.12zm-7.58 28.83l0.22 1.78 -1.01 -0.87 -0.03 -1.23 -0.02 -1.22 -0.01 -1.19 -0.01 -1.16 0 -1.14 0.01 -1.13 0.03 -1.09 0.03 -1.08 0.05 -1.06 0.06 -1.04 0.07 -1.02 0.09 -1.01 0.11 -0.99 0.13 -0.97 0.14 -0.95 0.17 -0.94 0.18 -0.94 0.2 -0.91 0.23 -0.9 0.26 -0.9 0.28 -0.88 0.31 -0.87 0.33 -0.86 0.36 -0.85 0.39 -0.84 0.41 -0.84 0.46 -0.82 0.47 -0.82 0.52 -0.81 0.54 -0.81 0.59 -0.8 0.62 -0.79 1.4 1.12 -0.58 0.75 -0.55 0.76 -0.52 0.75 -0.48 0.77 -0.45 0.76 -0.42 0.78 -0.39 0.78 -0.37 0.8 -0.34 0.79 -0.31 0.8 -0.29 0.83 -0.26 0.82 -0.24 0.84 -0.21 0.86 -0.2 0.87 -0.18 0.88 -0.15 0.9 -0.14 0.93 -0.13 0.93 -0.09 0.95 -0.09 0.97 -0.07 1 -0.06 1.02 -0.05 1.02 -0.03 1.06 -0.03 1.09 -0.01 1.09 0 1.14 0.01 1.14 0.01 1.19 0.02 1.2 0.03 1.23 -1.01 -0.87zm1.01 0.87c0.01,0.49 -0.39,0.91 -0.88,0.92 -0.49,0.01 -0.91,-0.39 -0.92,-0.88l1.8 -0.04z"/>
    <path id="1" class="fil0" d="M179.4 171.01c15.82,-1.98 13.42,-3.09 32.11,-3.34 12.03,-0.15 20.57,1.4 31.91,2.41 -0.1,-13.84 -0.26,-20.83 -7.43,-29.92 -4.5,-5.73 -13.84,-11.61 -25.02,-11.47 -11.29,0.13 -19.75,5.74 -24.8,12.04 -6.59,8.24 -7.08,16.97 -6.77,30.28z"/>
   </g>
   <g>
    <path class="fil3" d="M169.8 189.83l-1.14 -1.38 0 0 0.74 -0.6 0.72 -0.57 0.69 -0.53 0.67 -0.49 0.64 -0.46 0.63 -0.44 0.59 -0.39 0.57 -0.37 0.56 -0.36 0.53 -0.33 0.5 -0.3 0.49 -0.29 0.46 -0.26 0.44 -0.25 0.42 -0.24 0.39 -0.21 0.37 -0.21 0.35 -0.2 0.31 -0.19 0.31 -0.19 0.28 -0.16 0.25 -0.18 0.23 -0.16 0.21 -0.16 0.19 -0.17 0.18 -0.16 0.14 -0.15 0.12 -0.16 0.12 -0.18 0.11 -0.17 0.08 -0.17 0.08 -0.22 1.7 0.6 -0.12 0.32 -0.16 0.33 -0.17 0.29 -0.18 0.26 -0.22 0.28 -0.24 0.25 -0.24 0.22 -0.25 0.21 -0.27 0.22 -0.29 0.2 -0.29 0.2 -0.32 0.2 -0.31 0.19 -0.35 0.21 -0.37 0.2 -0.37 0.21 -0.39 0.23 -0.42 0.22 -0.42 0.25 -0.46 0.26 -0.47 0.27 -0.48 0.3 -0.51 0.31 -0.54 0.34 -0.55 0.37 -0.59 0.39 -0.59 0.4 -0.62 0.46 -0.65 0.47 -0.67 0.51 -0.7 0.55 -0.72 0.58 0 0zm0 0c-0.38,0.31 -0.95,0.26 -1.26,-0.12 -0.31,-0.38 -0.26,-0.95 0.12,-1.26l1.14 1.38zm-20.88 23.23l-1.5 -1 0 0 0.57 -0.84 0.57 -0.83 0.59 -0.82 0.58 -0.82 0.59 -0.81 0.6 -0.81 0.61 -0.8 0.61 -0.79 0.62 -0.79 0.62 -0.77 0.62 -0.78 0.64 -0.77 0.64 -0.76 0.65 -0.76 0.65 -0.75 0.66 -0.74 0.67 -0.74 0.67 -0.73 0.68 -0.73 0.68 -0.72 0.7 -0.7 0.69 -0.7 0.7 -0.7 0.72 -0.69 0.71 -0.68 0.73 -0.68 0.72 -0.67 0.74 -0.66 0.74 -0.66 0.76 -0.64 0.74 -0.64 0.77 -0.63 1.14 1.38 -0.75 0.63 -0.74 0.62 -0.74 0.64 -0.72 0.64 -0.72 0.66 -0.72 0.65 -0.71 0.66 -0.71 0.68 -0.7 0.67 -0.68 0.68 -0.69 0.7 -0.68 0.7 -0.68 0.7 -0.66 0.71 -0.67 0.73 -0.65 0.72 -0.64 0.72 -0.65 0.75 -0.63 0.74 -0.64 0.76 -0.62 0.75 -0.62 0.76 -0.62 0.77 -0.6 0.77 -0.61 0.79 -0.59 0.78 -0.58 0.79 -0.59 0.81 -0.58 0.8 -0.57 0.82 -0.57 0.81 -0.55 0.82 0 0zm0 0c-0.27,0.41 -0.84,0.52 -1.25,0.25 -0.41,-0.27 -0.52,-0.84 -0.25,-1.25l1.5 1zm-21.15 47.41l-0.32 1.78 -0.74 -0.96 0.13 -1.16 0.18 -1.22 0.24 -1.29 0.29 -1.36 0.36 -1.42 0.39 -1.45 0.45 -1.52 0.48 -1.57 0.54 -1.6 0.56 -1.63 0.61 -1.67 0.63 -1.7 0.67 -1.71 0.7 -1.73 0.72 -1.75 0.74 -1.74 0.78 -1.76 0.78 -1.73 0.8 -1.74 0.82 -1.73 0.82 -1.7 0.84 -1.67 0.83 -1.65 0.84 -1.62 0.84 -1.58 0.84 -1.54 0.83 -1.47 0.82 -1.43 0.82 -1.38 0.81 -1.31 0.78 -1.24 0.77 -1.16 1.5 1 -0.75 1.14 -0.78 1.22 -0.79 1.29 -0.8 1.34 -0.82 1.41 -0.81 1.47 -0.84 1.52 -0.82 1.56 -0.84 1.6 -0.83 1.63 -0.82 1.67 -0.82 1.68 -0.8 1.71 -0.8 1.72 -0.78 1.73 -0.76 1.74 -0.74 1.72 -0.72 1.73 -0.68 1.71 -0.67 1.69 -0.63 1.68 -0.59 1.65 -0.56 1.61 -0.52 1.58 -0.48 1.53 -0.43 1.48 -0.39 1.43 -0.34 1.38 -0.29 1.3 -0.22 1.23 -0.18 1.16 -0.11 1.06 -0.74 -0.96zm0.74 0.96c-0.03,0.49 -0.48,0.86 -0.97,0.83 -0.49,-0.03 -0.86,-0.48 -0.83,-0.97l1.8 0.14zm20.72 -1.03l-0.06 1.8 0 0 -0.59 -0.02 -0.62 0 -0.64 0 -0.64 0 -0.66 0.01 -0.68 0.02 -0.69 0.02 -0.69 0.03 -0.71 0.03 -0.71 0.03 -0.72 0.04 -0.73 0.03 -0.73 0.04 -0.73 0.03 -0.73 0.04 -0.73 0.03 -0.72 0.03 -0.74 0.03 -0.72 0.02 -0.71 0.02 -0.72 0.02 -0.7 0 -0.7 0.01 -0.69 -0.01 -0.68 -0.01 -0.66 -0.03 -0.65 -0.03 -0.64 -0.04 -0.62 -0.05 -0.61 -0.07 -0.6 -0.08 -0.56 -0.09 0.32 -1.78 0.52 0.09 0.54 0.08 0.55 0.05 0.6 0.05 0.6 0.04 0.63 0.03 0.64 0.03 0.64 0.01 0.67 0.01 0.68 -0.01 0.7 0 0.68 -0.02 0.71 -0.02 0.72 -0.02 0.72 -0.03 0.72 -0.03 0.73 -0.03 0.73 -0.04 0.73 -0.03 0.73 -0.04 0.73 -0.03 0.72 -0.04 0.71 -0.03 0.71 -0.03 0.71 -0.03 0.69 -0.02 0.7 -0.02 0.68 -0.01 0.66 0 0.64 0 0.64 0 0.63 0.02 0 0zm0 0c0.49,0.01 0.88,0.44 0.87,0.93 -0.01,0.49 -0.44,0.88 -0.93,0.87l0.06 -1.8zm10.69 -0.13l0.04 1.8 -0.05 0 -0.34 -0.01 -0.34 -0.01 -0.32 -0.01 -0.32 0 -0.34 0 -0.34 0 -0.32 0 -0.34 0.01 -0.33 0 -0.32 0.01 -0.33 0.01 -0.33 0.01 -0.34 0.01 -0.33 0.01 -0.33 0.01 -0.33 0.01 -0.33 0.02 -0.34 0.01 -0.34 0.01 -0.33 0.01 -0.33 0.01 -0.34 0.01 -0.33 0.01 -0.36 0.01 -0.33 0 -0.34 0.01 -0.34 0 -0.34 0 -0.34 0 -0.35 0 -0.36 -0.01 -0.34 -0.01 0.06 -1.8 0.34 0.01 0.32 0.01 0.33 0 0.34 0 0.34 0 0.32 0 0.34 -0.01 0.33 0 0.32 -0.01 0.33 -0.01 0.34 -0.01 0.33 -0.01 0.33 -0.01 0.34 -0.01 0.32 -0.01 0.33 -0.02 0.35 -0.01 0.33 -0.01 0.33 -0.01 0.34 -0.01 0.33 -0.01 0.33 -0.01 0.36 -0.01 0.33 0 0.34 -0.01 0.34 0 0.34 0 0.34 0 0.34 0 0.36 0.01 0.34 0.01 0.34 0.01 -0.05 0zm0.05 0c0.49,0.01 0.88,0.44 0.87,0.93 -0.01,0.49 -0.44,0.88 -0.93,0.87l0.06 -1.8zm128.37 -0.44l-128.38 2.24 -0.04 -1.8 128.38 -2.24 0.06 0 -0.02 1.8zm-0.04 -1.8c0.49,-0.01 0.91,0.39 0.92,0.88 0.01,0.49 -0.39,0.91 -0.88,0.92l-0.04 -1.8zm9.13 0.81l1.72 -0.5 -0.78 1.15 -0.31 0.03 -0.31 0.02 -0.3 0.03 -0.32 0.02 -0.29 0.02 -0.31 0.03 -0.32 0.02 -0.31 0.02 -0.3 0.02 -0.31 0.02 -0.32 0.02 -0.33 0.02 -0.31 0.01 -0.31 0.02 -0.31 0.01 -0.32 0.02 -0.32 0.01 -0.31 0.01 -0.32 0.01 -0.33 0.01 -0.32 0 -0.31 0.01 -0.32 0 -0.31 0.01 -0.34 0 -0.31 -0.01 -0.31 0 -0.32 0 -0.34 -0.01 -0.31 -0.01 -0.32 -0.01 -0.32 -0.01 0.08 -1.8 0.3 0.01 0.32 0.01 0.31 0.01 0.3 0.01 0.3 0 0.33 0 0.31 0.01 0.3 0 0.31 -0.01 0.32 0 0.31 -0.01 0.32 0 0.29 -0.01 0.32 -0.01 0.31 -0.01 0.3 -0.01 0.32 -0.02 0.31 -0.01 0.31 -0.02 0.31 -0.01 0.29 -0.02 0.32 -0.02 0.31 -0.02 0.3 -0.02 0.31 -0.02 0.3 -0.02 0.31 -0.03 0.31 -0.02 0.3 -0.02 0.3 -0.03 0.31 -0.02 0.29 -0.03 -0.78 1.15zm0.78 -1.15c0.49,-0.04 0.94,0.33 0.98,0.82 0.04,0.49 -0.33,0.94 -0.82,0.98l-0.16 -1.8zm-57.62 -77.31l1.32 -1.22 -0.22 -0.17 3.17 1.85 3.04 1.93 2.94 1.97 2.83 2.05 2.73 2.09 2.62 2.15 2.52 2.2 2.43 2.25 2.33 2.3 2.24 2.35 2.14 2.38 2.06 2.43 1.97 2.46 1.9 2.5 1.8 2.54 1.73 2.56 1.65 2.59 1.58 2.62 1.51 2.64 1.44 2.66 1.37 2.69 1.31 2.7 1.25 2.71 1.2 2.73 1.12 2.73 1.09 2.76 1.02 2.74 0.99 2.76 0.93 2.76 0.9 2.75 0.84 2.75 0.81 2.75 -1.72 0.5 -0.81 -2.73 -0.84 -2.73 -0.88 -2.73 -0.93 -2.72 -0.97 -2.74 -1.02 -2.72 -1.07 -2.72 -1.12 -2.71 -1.18 -2.69 -1.23 -2.69 -1.29 -2.66 -1.37 -2.65 -1.42 -2.62 -1.49 -2.62 -1.54 -2.58 -1.63 -2.55 -1.71 -2.52 -1.78 -2.5 -1.86 -2.46 -1.93 -2.42 -2.04 -2.39 -2.1 -2.34 -2.2 -2.31 -2.29 -2.26 -2.39 -2.21 -2.48 -2.16 -2.58 -2.13 -2.69 -2.05 -2.77 -2.01 -2.9 -1.95 -3 -1.89 -3.11 -1.83 -0.22 -0.17zm0.22 0.17c-0.43,-0.24 -0.58,-0.79 -0.34,-1.22 0.24,-0.43 0.79,-0.58 1.22,-0.34l-0.88 1.56zm-0.1 -0.87l0.2 -1.78 0.77 0.68 0.01 0.03 0 0.01 0.01 0.03 0.02 0.07 0 0.01 0.01 0.03 0.01 0.04 0.01 0.03 0.01 0.04 -0.02 -0.07 0.02 0.04 0.03 0.1 0.01 0.03 -0.01 -0.04 0.02 0.04 0.03 0.1 -0.04 -0.09 0.02 0.03 0.06 0.15 -0.04 -0.09 -0.08 -0.13 0.09 0.12 0.04 0.09 -0.01 -0.03 0.01 0.02 -0.05 -0.07 0.09 0.12 0.01 0.03 -0.05 -0.08 0.02 0.03 -0.04 -0.06 0.04 0.05 -1.32 1.22 0 0.01 -0.08 -0.1 -0.02 -0.03 -0.09 -0.12 -0.01 -0.03 0.05 0.08 -0.09 -0.13 -0.01 -0.02 -0.05 -0.09 0.02 0.03 0.05 0.08 -0.12 -0.19 -0.06 -0.15 0.04 0.09 -0.02 -0.03 -0.06 -0.15 0.01 0.04 -0.02 -0.04 -0.03 -0.1 -0.01 -0.03 0.01 0.04 -0.02 -0.04 -0.04 -0.13 -0.01 -0.04 -0.01 -0.03 -0.01 -0.04 -0.01 -0.03 -0.02 -0.07 0 -0.01 -0.01 -0.03 -0.02 -0.07 -0.01 -0.05 0.77 0.68zm-0.77 -0.68c-0.11,-0.48 0.18,-0.97 0.66,-1.08 0.48,-0.11 0.97,0.18 1.08,0.66l-1.74 0.42zm-57.21 1.13l-1.7 -0.6 0.71 -0.59 2.03 -0.31 1.99 -0.29 1.97 -0.27 1.93 -0.26 1.91 -0.23 1.87 -0.21 1.85 -0.2 1.84 -0.19 1.81 -0.15 1.79 -0.14 1.78 -0.13 1.77 -0.1 1.77 -0.09 1.75 -0.06 1.75 -0.06 1.75 -0.03 1.74 -0.02 1.76 0 1.75 0.02 1.76 0.03 1.78 0.05 1.78 0.07 1.79 0.08 1.82 0.1 1.84 0.11 1.86 0.13 1.88 0.15 1.91 0.16 1.94 0.17 1.96 0.21 2 0.2 2.04 0.22 -0.2 1.78 -2.02 -0.22 -2 -0.2 -1.96 -0.19 -1.92 -0.17 -1.89 -0.16 -1.88 -0.15 -1.84 -0.13 -1.82 -0.11 -1.8 -0.1 -1.79 -0.08 -1.76 -0.07 -1.76 -0.05 -1.74 -0.03 -1.75 -0.02 -1.72 0 -1.74 0.02 -1.73 0.03 -1.73 0.06 -1.73 0.06 -1.75 0.09 -1.75 0.1 -1.76 0.13 -1.79 0.14 -1.79 0.15 -1.82 0.17 -1.83 0.2 -1.87 0.21 -1.89 0.23 -1.91 0.26 -1.95 0.27 -1.99 0.29 -2.01 0.31 0.71 -0.59zm-0.71 0.59c-0.49,0.07 -0.96,-0.26 -1.03,-0.75 -0.07,-0.49 0.26,-0.96 0.75,-1.03l0.28 1.78z"/>
    <path id="1" class="fil0" d="M181.88 179.83c-1.03,2.93 -4.73,2.79 -12.65,9.31 -8.09,6.65 -15.07,14.55 -21.06,23.42 -8.02,11.88 -19.62,37.36 -20.56,48.8 5.69,1.02 15.18,-0.28 21.59,-0.06 3.64,0.11 7.11,-0.27 10.74,-0.13l128.38 -2.24c3.35,0.14 6.75,-0.06 9.97,-0.34 -8.42,-29.15 -22.98,-59.51 -57.04,-78.82 -0.21,-0.23 -0.34,-0.57 -0.44,-0.98 -21.89,-2.42 -37.13,-2.38 -58.93,1.04z"/>
   </g>
  </g>
 </g>
</svg>
