<!DOCTYPE svg PUBLIC "-//W3C//DTD SVG 1.1//EN" "http://www.w3.org/Graphics/SVG/1.1/DTD/svg11.dtd">
<svg xmlns="http://www.w3.org/2000/svg" viewBox="0 0 643 464">
<path fill="#79888f" stroke="#79888f" d="M.015 24.25c.012 19.874.237 23.819 1.25 21.862 4.01-7.752 5.24 6.83 1.282 15.198L0 66.693v397.31l321.75-.251 321.75-.252.189-231.75.19-231.75h-50.917l.657 2.75c.361 1.513.999 3.2 1.417 3.75.418.55 1.454 3.25 2.302 6 .847 2.75 3.143 9.224 5.102 14.386 1.958 5.162 3.56 10.585 3.56 12.05 0 1.465.526 3.19 1.168 3.832 1.207 1.207 3.362 6.494 4.781 11.732.447 1.65 1.815 5.25 3.04 8s2.591 6.125 3.035 7.5c.444 1.375 2.87 8.343 5.392 15.484C625.937 92.625 628 99.138 628 99.956c0 2.952-3.753-2.339-5.288-7.456-.826-2.75-3.15-9.644-5.166-15.32-2.016-5.677-3.49-10.848-3.276-11.491.215-.644-.155-1.717-.822-2.384-.668-.668-2.893-6.297-4.945-12.509-2.053-6.213-4.309-11.971-5.014-12.796-.706-.825-2.853-6.675-4.773-13-1.919-6.325-3.979-12.85-4.579-14.5-.599-1.65-1.346-4.687-1.659-6.75L591.909 0 469.205.032c-96.639.025-122.377.29-121.16 1.25C350.809 3.46 360 17.583 360 19.65c0 1.123 1.105 2.604 2.5 3.35 1.552.831 2.5 2.208 2.5 3.634 0 1.263.866 2.759 1.924 3.325 2.57 1.376 5.076 6.593 5.076 10.569 0 4.601 2.674 11.555 5.095 13.251 1.837 1.287 2.042 2.352 1.843 9.584-.123 4.476.123 9.407.546 10.96.48 1.762.346 3.247-.357 3.95-.62.62-1.127 2.585-1.127 4.368 0 1.783-.352 3.458-.781 3.724-.43.266-.895 1.96-1.032 3.765-.138 1.805-.87 3.977-1.628 4.826-.758.849-2.134 4.019-3.058 7.044-2.124 6.953-3.476 9.981-5.582 12.5-.92 1.1-1.962 3.63-2.317 5.621-.716 4.022-3.474 7.781-5.26 7.17-.637-.218-1.452.077-1.809.656-.932 1.508-2.137 1.305-4.144-.697-.965-.962-2.398-1.753-3.185-1.756-.787-.004-3.217-3.379-5.399-7.5-5.154-9.733-6.071-10.657-11.365-11.451-4.703-.705-6.211-3.267-2.496-4.239 1.069-.279 2.081-1.437 2.25-2.572.258-1.741 4.373-4.918 9.509-7.342 3.951-1.865 7.418-10.196 6.74-16.193-.665-5.878-.637-5.97 2.442-7.788 1.713-1.012 3.167-2.306 3.23-2.875.064-.569.176-1.702.25-2.517.074-.816 1.485-2.123 3.135-2.905 3.216-1.523 4.644-3.07 3.918-4.245-.248-.401.007-1.011.566-1.357 1.424-.88 1.265-3.56-.324-5.431-.737-.869-2.356-4.504-3.598-8.079-1.241-3.575-2.662-7.4-3.157-8.5-.496-1.1-1.346-5.233-1.89-9.185-.76-5.52-1.597-7.836-3.613-10C346.288 9.974 345 6.936 345 2.935V0H0l.015 24.25m.416.25c.001 13.2.143 18.462.316 11.693.174-6.769.173-17.569-.001-24C.572 5.762.431 11.3.431 24.5M272.423 5.895c-5.777 2.624-8.545 7.937-10.998 21.105-.358 1.925-1.555 5.507-2.659 7.96-3.727 8.281-.714 25.995 5.592 32.877 4.539 4.953 23.713 10.265 30.575 8.47 3.71-.97 2.183-2.035-3.903-2.724-3.283-.372-6.234-1.105-6.559-1.629-.324-.525-1.635-.954-2.914-.954-2.978 0-9.557-7.145-9.557-10.38 0-4.819 2.192-5.223 13.323-2.462 19.178 4.757 34.069 3.436 37.395-3.317 2.382-4.838 6.457-25.093 5.784-28.751-1.914-10.409-5.407-13.903-17.502-17.509-16.528-4.929-31.363-5.962-38.577-2.686m7.534 9.198c-3.636 1.338-6.038 6.045-8.089 15.851-2.412 11.533-2.389 14.017.132 14.206 1.1.082 2.543.195 3.206.25.755.063 2.019-3.967 3.378-10.765 2.241-11.211 3.067-12.594 7.544-12.62 4.366-.025 5.212 2.045 4.443 10.865l-.686 7.865 2.802.535c3.82.731 3.981.532 4.785-5.901 1.097-8.785 5.709-12.482 10.615-8.509l2.31 1.87-2.04 11.222c-2.137 11.757-2.135 11.766 2.545 12.276 4.564.498 8.022-24.522 4.082-29.531-3.879-4.932-11.819-5.757-15.565-1.617-2.424 2.677-3.98 2.383-5.39-1.02-1.989-4.802-8.392-7.066-14.072-4.977m-57.878 3.49c.048 1.165.285 1.402.604.605.289-.722.253-1.585-.079-1.917-.332-.332-.568.258-.525 1.312m-214 8c.048 1.165.285 1.402.604.605.289-.722.253-1.585-.079-1.917-.332-.332-.568.258-.525 1.312M5 37.167c0 3.641.437 3.509 1.378-.417.392-1.633.246-2.75-.359-2.75C5.459 34 5 35.425 5 37.167m201 8.777c-1.375.403-2.392 1.244-2.259 1.868.159.748-.778.931-2.75.536-3.191-.638-4.532 2.123-1.581 3.256.775.297 1.684 1.633 2.019 2.968.335 1.336 1.276 2.428 2.09 2.428.815 0 1.481.675 1.481 1.5s.413 1.5.918 1.5c.505 0 1.63.273 2.5.607 1.165.447 1.586-.015 1.597-1.75.016-2.471 1.259-5.088 2.347-4.942 3.26.436 4.792-.071 4.276-1.415-.412-1.075.101-1.5 1.812-1.5 5.495 0 7.802-3.397 3.107-4.575-2.965-.744-4.405.044-5.542 3.035-.474 1.247-1.796 2.511-2.938 2.81-2.086.545-2.263.216-2.52-4.694-.118-2.263-1.149-2.632-4.557-1.632m14.306 8.7c-.656.267-.924 1.187-.595 2.044.347.905-.097 1.949-1.057 2.485-2.747 1.538-1.87 3.564 1.846 4.261 1.925.361 3.5 1.139 3.5 1.728 0 .603-1.092.862-2.5.593-2.096-.4-2.5-.096-2.5 1.884 0 1.777.556 2.365 2.25 2.376 1.238.009 2.866.406 3.618.882 1.836 1.164 6.632-.2 6.632-1.886 0-.74-1.028-1.421-2.285-1.514-3.135-.231-4.971-2.141-3.487-3.625.833-.833.836-1.597.01-2.919-.841-1.348-.802-2.17.158-3.328 2.29-2.759-1.355-4.704-5.59-2.981M206 62.059c0 .582.45.781 1 .441s1-.816 1-1.059-.45-.441-1-.441-1 .477-1 1.059M.49 264.5c0 110 .117 154.852.26 99.67.143-55.181.143-145.181 0-200C.607 109.352.49 154.5.49 264.5M207.472 69.031c-1.857 2.052-3.724 11.695-2.421 12.501.388.239.549 4.098.357 8.574-.214 5.005.104 8.957.826 10.266.646 1.17 1.42 4.153 1.72 6.628.47 3.877.892 4.541 3.046 4.799 1.375.165 3.175.573 4 .908.825.335 2.028.526 2.674.424.646-.101 1.464.728 1.818 1.843.353 1.114 1.024 2.026 1.491 2.026.466 0 2.097 1.323 3.623 2.941 1.527 1.617 3.19 2.685 3.697 2.372.506-.313 1.289.027 1.739.755.883 1.429 4.858-2.394 4.925-4.736.123-4.334 5.175-11.136 8.772-11.811 2.06-.386 4.137-.944 4.616-1.24.947-.585-10.239-11.239-11.828-11.265-.534-.009.038-.723 1.272-1.588l2.245-1.572-2.206-1.786-2.206-1.787 2.184-2.776c1.201-1.527 2.184-3.589 2.184-4.583 0-.993.472-2.098 1.049-2.454.729-.451.726-1.037-.013-1.926-1.204-1.451.247-3.087 3.267-3.686.991-.197 1.755-.808 1.696-1.358-.155-1.456-6.057-.692-8.863 1.147-1.622 1.062-4.729 1.577-9.522 1.578-13.577.002-13.319.059-14.464-3.225-1.22-3.498-3.099-3.819-5.678-.969m19.181 12.814c-1.654.671-1.684.884-.291 2.041 1.859 1.542 7.94.529 7.364-1.227-.456-1.391-4.502-1.856-7.073-.814m53.535 16.894c.502 2.606 3.812 2.897 3.812.334 0-1.431-.642-2.073-2.073-2.073s-1.97.539-1.739 1.739m348.823 10.511c.015 3.222 2.758 11.825 4.36 13.677.748.865 1.674 2.887 2.057 4.494.941 3.95 4.57 8.68 4.576 5.964.004-2.291-6.956-23.383-8.294-25.135-1.48-1.937-2.711-1.481-2.699 1m-356.86 11.068c-1.574 1.897 1.405 5.891 4.093 5.489 2.542-.38 4.283-2.992 3.447-5.171-.764-1.99-5.97-2.209-7.54-.318M252 126.941c0 .518.45 1.219 1 1.559.55.34 1-.084 1-.941s-.45-1.559-1-1.559-1 .423-1 .941m-8 5.012c0 2.8 2.502 6.047 4.661 6.047 3.13 0 2.989-2.344-.296-4.927-2.848-2.241-4.365-2.63-4.365-1.12m-5.812 4.786c.502 2.606 3.812 2.897 3.812.334 0-1.431-.642-2.073-2.073-2.073s-1.97.539-1.739 1.739m13.463 3.729c-.706 1.838 1.169 3.112 2.549 1.732 1.067-1.067.3-3.2-1.152-3.2-.459 0-1.088.661-1.397 1.468m1.599 8.194c-1.718.694-1.577 5.822.202 7.298 3.856 3.2 8.098-2.41 4.524-5.984-2.031-2.031-2.574-2.182-4.726-1.314M228 155.941c0 .518.45 1.219 1 1.559.55.34 1-.084 1-.941s-.45-1.559-1-1.559-1 .423-1 .941m-1.457 24.99c-.317.512-.111 1.218.457 1.569.568.351.77 1.063.449 1.582-.589.954 2.028 19.302 3.227 22.621 2.2 6.087 8.65 10.809 13.156 9.631 2.134-.558 2.132-.574-.332-2.512-4.687-3.688-12.959-22.881-12.353-28.664.439-4.181-2.797-7.152-4.604-4.227M353 183.5c0 1.375.173 2.5.383 2.5.211 0 .599-1.125.862-2.5s.09-2.5-.384-2.5c-.473 0-.861 1.125-.861 2.5m-101 29.441c0 1.068.403 2.19.895 2.494 1.075.664 2.348-2.233 1.549-3.525-.985-1.594-2.444-.979-2.444 1.031m196.533 7.722c-2.731.838-6.162 2.494-7.624 3.68-1.461 1.187-4.068 2.926-5.792 3.866-6.504 3.545-6.358 10.621.368 17.853 5.75 6.182 5.95 6.654 8.921 21.076 1.432 6.95 3.276 14.544 4.099 16.875 2.264 6.418 1.904 7.861-3.345 13.411-4.193 4.434-5.061 6.099-6.5 12.469-2.178 9.645-2.254 23.675-.136 24.861.919.514 2.13 4.008 3.049 8.799 2.747 14.329 5.671 25.878 7.565 29.885 1.024 2.166 1.862 4.528 1.862 5.25 0 3.111 1.969.475 9.5-12.725 15.092-26.451 13.797-25.279 19.498-17.646 1.924 2.575 4.287 4.683 5.25 4.683.964 0 1.752.45 1.752 1s-.477 1-1.059 1-.736.523-.34 1.163c1.295 2.095 5.543-8.388 6.549-16.163 1.041-8.039 1.201-42.763.23-49.683-.323-2.3-1.215-4.424-1.983-4.718-1.86-.714-1.785-4.282.112-5.344 2.089-1.169 2.15-12.412.1-18.255-1.968-5.607-2.019-7.371-.192-6.67 2.078.797 2.31-.836 1.549-10.949-.797-10.592-1.222-11.606-4.527-10.776-3.596.902-6.699-.181-10.256-3.58-1.741-1.664-3.844-3.025-4.674-3.025-1.705 0-2.024-1.564-.509-2.5 1.603-.991 1.154-2.499-.75-2.515-.962-.008-3.55-.664-5.75-1.456-5.101-1.838-10.683-1.794-16.967.134M131 221.5c0 1.658 2.068 2.006 3.55.597.522-.497 1.85-1.119 2.95-1.384 1.1-.265.088-.533-2.25-.597-3.163-.086-4.25.268-4.25 1.384m15.322.826c-1.748.646-3.511 1.512-3.917 1.924-.406.412-1.987.75-3.513.75-3.697 0-4.416 1.476-1.928 3.964 2.072 2.072 7.907 2.713 12.786 1.406 2.825-.757 2.945-2.37.177-2.37-3.33 0-1.898-3.251 1.86-4.225 1.806-.468 3.017-1.284 2.69-1.813-.777-1.256-4.18-1.104-8.155.364M467 224c0 .55.675 1 1.5 1s1.5-.45 1.5-1-.675-1-1.5-1-1.5.45-1.5 1m-356.109 3.355c-6.132 1.946-6.891 3.122-6.891 10.684 0 4.504.416 6.933 1.235 7.206.981.327.981 1.646 0 6.394-2.055 9.949-1.636 11.939 1.848 8.786 1.641-1.485 1.71-1.232 1.2 4.388-.394 4.352-.107 6.834 1.066 9.184 1.207 2.42 1.343 3.711.547 5.197-1.459 2.726-.821 3.067 6.076 3.244 7.794.201 9.3 1.613 4.733 4.435-2.278 1.408-5.092 2.128-8.323 2.129l-4.882.001.128 22.749c.122 21.738.404 24.745 3.934 41.998.366 1.788 1.015 3.25 1.443 3.25.428 0 1.071 1.166 1.428 2.591.41 1.63 1.155 2.397 2.01 2.069.807-.309 1.583.331 1.908 1.574.954 3.65 5.359-2.226 14.419-19.234 1.611-3.025 3.414-5.5 4.007-5.5.96 0 7.223 7.767 7.223 8.957 0 1.181 6.188 10.068 7.535 10.823.829.463 1.203 1.335.832 1.936-.436.705-.206.803.648.274.996-.615 1.144-.343.596 1.096-.571 1.499-.466 1.653.486.707 1.196-1.186 3.077-33.51 3.305-56.793.098-9.96.088-10.001-2.402-10.263-4.234-.445-10-2.272-10-3.169 0-1.365 5.185-2.283 6.345-1.123 1.18 1.18 4.655 1.443 4.655.353 0-.387-1.386-2.133-3.08-3.881-2.895-2.986-3.015-3.411-2.006-7.047.591-2.129 1.077-9.773 1.08-16.987l.006-13.117 3.885-2.571c6.888-4.559 8.773-15.819 2.765-16.517-1.524-.177-3.443.235-4.264.916-1.339 1.112-4.279 1.861-13.886 3.542-2.341.409-3.534-.043-5.425-2.056-1.333-1.419-3.366-2.58-4.517-2.58-1.152 0-3.749-1.125-5.773-2.5-3.986-2.708-7.94-3.034-13.894-1.145m183.321 7.833c-.666.666-1.212 1.845-1.212 2.618 0 .773-1.125 2.742-2.5 4.376-2.907 3.456-3.026 4.137-1.011 5.809 1.813 1.505 1.068 3.009-1.491 3.009-2.4 0-5.37 4.028-3.989 5.409.545.545.991 1.761.991 2.702 0 1.994 5.451 6.889 7.672 6.889 6.553 0 10.17-10.21 5.053-14.263-2.069-1.638-2.105-1.855-.517-3.079 1.439-1.11 1.597-2.315 1-7.656-.718-6.428-1.803-8.007-3.996-5.814m28.788.371c0 .857.45 1.281 1 .941.55-.34 1-1.041 1-1.559s-.45-.941-1-.941-1 .702-1 1.559m-71.573 15.111c.352.919.128 1.987-.5 2.375-2.689 1.662-.894 12.355 2.314 13.785 1.143.51 4.093 7.169 3.458 7.805-.831.831 2.98 7.714 5.67 10.242 2.507 2.355 6.851 3.259 24.814 5.164 6.33.671 13.462.814 17.5.352 3.75-.43 7.176-.687 7.614-.571 1.118.294 9.703-5.725 9.703-6.804 0-.487 1.365-3.081 3.034-5.766 3.163-5.088 6.114-19.39 4.986-24.166-.481-2.04-1.168-1.555-7.027 4.958-14.862 16.523-16.686 17.484-31.703 16.712-10.91-.561-10.341-.246-26.935-14.884-12.563-11.082-14.058-12.146-12.928-9.202M313.5 283c-1.908.82-1.897.863.25.93 1.238.038 2.25-.38 2.25-.93s-.113-.968-.25-.93c-.137.039-1.15.457-2.25.93m103.5 6.059c0 .582.45.781 1 .441s1-.816 1-1.059-.45-.441-1-.441-1 .477-1 1.059m-9.488 6.926c-8.182 10.633-11.664 18.94-10.504 25.059.539 2.838.716 6.206.395 7.486-.907 3.615.911 6.204 2.288 3.258 3.007-6.433 7.837-20.813 7.454-22.196-.138-.5.285-1.239.939-1.644.654-.404 1.415-3.145 1.692-6.091.276-2.947.82-5.582 1.209-5.857.831-.588 2.267-6 1.592-6-.253 0-2.532 2.693-5.065 5.985M177 296.768c0 .651.898 2.657 1.996 4.458 1.098 1.801 2.014 4.849 2.035 6.774.077 6.912 5.189 24.527 7.936 27.346.923.947 1.676-3.241 2.577-14.346.582-7.16.473-7.704-2.408-12-3.544-5.286-12.136-13.946-12.136-12.232m115.511 8.215c-1.172 1.895.713 7.902 4.085 13.023 5.683 8.629 4.365 21.557-1.35 13.244-2.525-3.672-5.246-9.686-5.246-11.592 0-.847-.45-1.818-1-2.158-1.499-.926-1.205-4.762.557-7.277 2.283-3.26 1.189-2.723-3.189 1.565-2.128 2.083-5.511 5.121-7.519 6.75-3.153 2.558-3.721 3.671-4.157 8.156-.633 6.508-1.358 7.828-3.378 6.152-1.232-1.022-1.682-.94-2.46.451-.525.937-1.628 1.703-2.452 1.703-2.973 0-6.253 5.128-5.205 8.136.629 1.805.588 3.398-.124 4.727-.59 1.103-1.073 3.391-1.073 5.085 0 1.693-.55 3.961-1.223 5.038-1.597 2.557 2.411 14.69 6.582 19.925 5.173 6.494 10.338 20.089 7.633 20.089-.546 0-.992.617-.992 1.371 0 1.48 11.153 3.27 13.054 2.096.566-.35 13.722-.648 29.237-.662 28.149-.026 30.696-.531 14.262-2.829-8.698-1.215-9.194-1.74-5.686-6.013 1.563-1.905 3.874-6.388 5.135-9.963 1.262-3.575 2.83-7.4 3.486-8.5.655-1.1 1.995-4.7 2.977-8 2.738-9.203 3.963-11.057 7.051-10.668 2.624.33 2.629.319.925-2.282-2.911-4.443-.813-3.978 4.509 1 7.625 7.132 7.023 4.808-.942-3.635-15.559-16.494-18.457-19.256-26.299-25.071-4.495-3.332-11.732-9.386-16.083-13.451-7.694-7.191-9.861-8.44-11.115-6.41m221.872 9.462c-.695 1.811 3.361 15.284 5.308 17.634.72.868 1.309 2.036 1.309 2.596 0 2.151 3.253 7.407 4.348 7.026 1.514-.525.962-10.586-.943-17.201-1.669-5.792-8.881-13.028-10.022-10.055M533 336.815c0 2.401.774 4.899 2 6.458 1.1 1.398 2.014 3.146 2.031 3.885.017.738 1.138 3.592 2.491 6.342 1.353 2.75 2.464 5.303 2.469 5.673.005.37 1.311 2.105 2.903 3.856 4.846 5.329 7.411 8.885 8.994 12.471 1.35 3.059 5.309 6.273 5.844 4.744.241-.691.812-1.026 1.267-.745 1.408.871 9.501-3.933 9.501-5.639 0-1.762-6.041-8.852-23.202-27.23C533.637 331.999 533 331.562 533 336.815m-141.376-1.276c-.965 2.514-.681 3.163.498 1.136.584-1.004.851-2.036.593-2.293-.257-.258-.749.263-1.091 1.157M389.5 341c-.34.55-.141 1 .441 1s1.059-.45 1.059-1-.198-1-.441-1-.719.45-1.059 1m-322.271 4.188c.618 1.854 2.771 2.161 2.771.395 0-.871-.713-1.583-1.583-1.583-.871 0-1.406.534-1.188 1.188m-3.665 1.519c-.542 1.425-.428 1.54.56.56.684-.679.991-1.486.683-1.793-.308-.308-.867.247-1.243 1.233m-4.593 5.477c-.809 1.202-3.168 3.841-5.242 5.865-2.518 2.458-3.562 4.223-3.143 5.316.346.899.182 1.635-.362 1.635-.545 0-1.226.9-1.514 2-.287 1.1-1.24 2-2.116 2-1.954 0-1.954-.029-.021 3.846 2.378 4.766 5.272 4.204 9.193-1.786 1.779-2.717 3.234-5.419 3.234-6.004 0-1.551 3.349-7.547 5.311-9.51.929-.929 1.689-2.557 1.689-3.617 0-2.805-5.093-2.62-7.029.255M353.5 360c.34.55.816 1 1.059 1s.441-.45.441-1-.477-1-1.059-1-.781.45-.441 1m161.241 11.25c-.235.688.562 2.825 1.77 4.75 2.833 4.512 4.646 16.13 2.788 17.865-3.051 2.85-.302 4.1 9.068 4.121 5.598.013 5.839-.089 5.263-2.236-.331-1.238-.609-2.771-.616-3.408-.008-.637-2.954-4.912-6.548-9.5a7149.694 7149.694 0 0 1-8.25-10.546c-1.977-2.539-2.874-2.809-3.475-1.046M50.51 378.016c.346.559 1.047.758 1.559.441 1.387-.857 1.129-1.457-.628-1.457-.857 0-1.276.457-.931 1.016M567.5 381c-.34.55.084 1 .941 1s1.559-.45 1.559-1-.423-1-.941-1-1.219.45-1.559 1" fill-rule="evenodd"/>
<path fill="#3e464d" stroke="#3e464d" d="M.079 15.25C.122 23.637.388 29.825.669 29c.28-.825 1.112-2.85 1.848-4.5C4.441 20.187 11 1.925 11 .881 11 .396 8.525 0 5.5 0H0l.079 15.25M40.297 2.534c-.988 1.394-3.034 4.156-4.547 6.138-1.513 1.982-2.75 4.161-2.75 4.843 0 .682-.653 1.782-1.451 2.444-.798.663-1.755 3.305-2.126 5.873-.371 2.567-.991 5.118-1.377 5.668-1.561 2.224-4.153 10.518-3.578 11.449.339.548-.486 3.404-1.832 6.348-1.347 2.943-2.764 7.881-3.15 10.972-.585 4.681-1.055 5.671-2.811 5.926-2.096.303-5.519 11.033-5.634 17.661C11.018 81.152 9.65 83.917 8 86s-3 4.108-3 4.5c0 .391-1.125 2.048-2.5 3.682L0 97.153v124.27c0 130.932-.075 128.559 4.125 131.154.549.34 1.409 1.699 1.912 3.02.502 1.322 1.547 2.403 2.322 2.403.774 0 1.696.788 2.049 1.75 1.269 3.462 3.556 6.827 7.646 11.25 2.288 2.475 5.423 7.2 6.966 10.5 1.543 3.3 5.592 9.15 8.998 13 3.406 3.85 6.708 8.125 7.337 9.5.63 1.375 2.23 3.735 3.555 5.244 1.326 1.51 3.126 3.82 4 5.134C57.273 426.949 60.187 431 60.866 431c.848 0 7.145 9.209 8.352 12.213.395.983 1.182 1.787 1.75 1.787.567 0 1.032.873 1.032 1.941s.45 2.219 1 2.559c.55.34 1 1.436 1 2.437 0 1 .64 2.349 1.422 2.998.782.649 1.722 2.955 2.088 5.124l.666 3.944 282.662-.251L643.5 463.5l.305-135.5c.168-74.525.001-178.812-.372-231.75L642.756 0H595.239l7.233 21.25c3.978 11.688 12.024 34.378 17.881 50.424C626.209 87.719 631 101.276 631 101.799c0 .524 1.061 3.371 2.357 6.327 1.297 2.956 4.006 10.171 6.02 16.033l3.663 10.659-.27 21.841-.27 21.841-2.115-7c-1.164-3.85-3.33-11.5-4.815-17-1.485-5.5-3.759-12.7-5.053-16-1.295-3.3-2.677-6.9-3.072-8-9.293-25.909-11.239-31.262-14.721-40.5-.311-.825-1.999-5.55-3.752-10.5-1.753-4.95-4.016-11.25-5.029-14-1.014-2.75-2.595-8.104-3.514-11.899-1.439-5.944-3.682-12.018-7.422-20.101C591.3 29.811 587 18.663 587 17.928c0-.401-1.62-4.598-3.6-9.328L579.8 0h-40.921l5.713 11.25c3.143 6.188 6.091 11.925 6.553 12.75C555.18 31.21 558 37.227 558 38.626c0 2.935-3.958-1.447-6.918-7.659-1.45-3.043-3.565-6.868-4.7-8.5-1.135-1.632-4.252-7.354-6.927-12.717L534.591 0h-10.385l-.121 31.147c-.14 36.168-.455 38.727-4.208 34.205-1.943-2.341-.791-42.947 1.72-60.602l.675-4.75H401.75l.702 3.25c1.624 7.511 1.725 10.898.455 15.2-.739 2.503-1.695 4.55-2.125 4.55-.43 0-.782 1.35-.782 3 0 1.69-.894 3.894-2.048 5.048-2.054 2.054-2.621 10.907-.86 13.452 2.611 3.775 4.605 34.075 2.638 40.08-.645 1.971-.675 4.491-.083 6.997.958 4.05-1.235 19.564-2.863 20.256-.431.184-.798 1.309-.814 2.5-.025 1.775-.195 1.886-.939.616-1.935-3.306-13.031-1.928-13.031 1.618 0 .822-.675 1.755-1.5 2.071-.907.348-1.5 1.859-1.5 3.82 0 1.784-1.069 5.254-2.374 7.71-1.306 2.456-2.718 5.561-3.138 6.899-1.337 4.262-7.813 11.844-10.156 11.89-1.193.024-2.798.285-3.568.58-1.219.468-6.764-8.351-6.764-10.757 0-.381-1.417-3.074-3.149-5.986s-4.499-7.994-6.149-11.294c-6.238-12.478-6.908-13.175-13.387-13.935-10.838-1.271-13.932-3.781-8.542-6.931C332.947 94.105 345 79.039 345 71.601c0-1.599 1.057-3.218 3.012-4.609 1.656-1.18 2.756-2.558 2.444-3.063-.312-.504.696-2.572 2.239-4.595 4.472-5.864 4.085-18.149-.877-27.834-3.694-7.208-9.392-19.951-12.073-27l-1.522-4-41.112-.261C257.265-.014 256 .036 256 1.882c0 1.047-.675 2.163-1.5 2.48-.825.316-1.5 1.298-1.5 2.182 0 1.15-.782 1.532-2.75 1.344-6.889-.66-13.123 3.444-15.359 10.112-.646 1.925-1.785 3.86-2.532 4.3-.748.44-1.359 1.882-1.359 3.204 0 1.323-1.125 3.53-2.5 4.905-1.375 1.375-2.5 3.239-2.5 4.141 0 .903-.902 2.907-2.003 4.455-2.213 3.107-1.808 5.491 1.208 7.105 1.426.763 1.809 1.7 1.384 3.39-.445 1.776.063 2.808 2.125 4.31 2.35 1.712 2.53 2.191 1.355 3.606-.744.898-1.177 1.758-.962 1.911C231.942 61.338 235.21 63 236.33 63c.77 0 2.593.938 4.051 2.085 1.458 1.147 4.218 2.518 6.135 3.047 3.579.988 4.373 2.579 2.313 4.639-.895.895-.541 1.668 1.503 3.276 2.482 1.952 2.567 2.26 1.172 4.251-2.249 3.21-1.897 4.784 2.634 11.795 7.917 12.249 7.709 13.369-2.764 14.854-3.897.553-7.775 1.27-8.618 1.593-1.937.744-4.876 8.342-5.553 14.359-1.057 9.389-16.02 25.424-17.035 18.256-.26-1.839-.789-2.226-2.448-1.792-1.164.304-2.589.183-3.168-.27-.579-.453-2.952-1.064-5.275-1.359-2.322-.295-4.942-1.256-5.821-2.135-.879-.88-2.446-1.599-3.48-1.599-4.183 0-16.976-9.947-16.976-13.198 0-.48-.644-1.869-1.431-3.087-.787-1.218-3.051-8.454-5.031-16.079-2.115-8.147-5.03-16.559-7.069-20.4-3.581-6.748-4.176-10.247-2.494-14.671.634-1.667.634-2.565 0-2.565-.536 0-.975-2.025-.975-4.5s.45-4.5 1-4.5 1-.612 1-1.36c0-.749 1.174-3.09 2.608-5.204 2.144-3.159 2.506-4.588 2.034-8.029-.633-4.617.81-15.43 2.18-16.333 1.443-.952 2.277-5.895 1.117-6.612-.72-.445-.595-1.199.385-2.311.799-.908 1.765-3.117 2.146-4.91.381-1.792 1.107-3.002 1.613-2.69.507.313 1.359-.583 1.894-1.991.847-2.226 1.564-2.56 5.498-2.56 2.489 0 4.525.45 4.525 1 0 1.543 7.377 1.182 9.559-.468 1.067-.808 4.078-1.483 6.691-1.5C210.863 2.014 213 1.55 213 1c0-.659-29.151-1-85.453-1H42.093l-1.796 2.534m234.645 1.414C268.059 6.037 264.187 11.139 262 21c-.67 3.025-2.098 8.099-3.173 11.276-4.035 11.931-1.734 28.64 4.964 36.046C267.659 72.601 280.947 77 289.999 77c8.523 0 11.065-2.355 3.751-3.475C281.979 71.722 273 66.27 273 60.926c0-4.439 1.841-5.077 8.59-2.976 18.58 5.782 34.498 5.157 40.584-1.594 5.371-5.958 8.188-32.812 4.128-39.356-5.252-8.466-38.57-16.933-51.36-13.052M76.25 10.079c-2.349.894-2.473 1.213-2.706 6.921-.393 9.656-.603 11.082-1.544 10.5-.55-.34-1-2.421-1-4.625C71 18.325 69.563 15 67.596 15c-1.384 0-3.518 51.699-2.221 53.798 1.288 2.084 5.622-.011 6.548-3.165.865-2.949.96-3.001 1.614-.883 1.55 5.011 9.405 2.374 9.533-3.2.097-4.193 1.758-8.204 1.86-4.491.038 1.407.745 3.432 1.57 4.5 2.123 2.748 4.857-.628 4.097-5.059-.283-1.65-.823-12.112-1.201-23.248-.696-20.541-1.539-24.509-4.562-21.486-1.371 1.371-1.879 19.235-.845 29.699.433 4.381.46 8.849.061 9.93-1.108 2.993-2.05-8.45-2.05-24.887 0-15.684-.907-18.274-5.75-16.429m433.921-.185c-1.809 1.118-3.161 10.396-3.28 22.492-.059 6.113-.398 13.814-.753 17.114-.902 8.392.524 14.377 3.609 15.151 3.938.989 4.204-.302 4.781-23.188.716-28.446-.08-34.212-4.357-31.569M108 19.559c0 .857.45 1.281 1 .941.55-.34 1-1.041 1-1.559s-.45-.941-1-.941-1 .702-1 1.559M52.078 38.854c-.652 1.218-.713 2.254-.153 2.6.512.316 1.229-.365 1.594-1.515.901-2.838-.1-3.591-1.441-1.085m508.633 8.415c.573 2.996 1.817 4.303 2.715 2.851.31-.501-.293-1.969-1.34-3.262l-1.903-2.35.528 2.761M41.786 76.116c-.314.816.04 2.587.787 3.934.755 1.365 1.372 1.808 1.392 1 .026-1.072.328-1.157 1.157-.328 1.431 1.431 3.878.525 3.878-1.437 0-1.078-.665-1.335-2.355-.911-1.785.448-2.589.067-3.322-1.576-.754-1.69-1.093-1.84-1.537-.682m464.464 3.523c-1.499.633-1.706 8.961-.246 9.864.553.341 2.69-.252 4.75-1.319s5.052-2.466 6.648-3.11c3.424-1.38 2.546-2.798-2.53-4.084-1.854-.47-4.272-1.085-5.372-1.367-1.1-.281-2.562-.274-3.25.016M73.5 81.74c-6.043.459-6.508.857-6.691 5.725C66.652 91.646 68.715 94 72.537 94c1.186 0 3.592.717 5.348 1.592 5.062 2.526 6.013 1.516 5.445-5.777-.63-8.096-.897-8.852-3.049-8.635-.979.099-4.031.351-6.781.56m205.164 13.969c-4.135 1.061.026 8.503 4.279 7.652 1.937-.387 2.945-.095 3.355.973.44 1.146-.05 1.482-1.965 1.346-5.29-.374-5.688 6.366-.423 7.147 4.007.594 6.888-2.209 6.172-6.005-.675-3.579-4.757-10.822-6.099-10.822-.451 0-1.419-.172-2.151-.381-.733-.21-2.158-.169-3.168.09M.485 222c0 69.025.119 97.262.265 62.75.146-34.513.146-90.988 0-125.5C.604 124.737.485 152.975.485 222M73.48 112.39c-2.332 3.559-1.134 6.822 2.356 6.418 2.388-.276 2.664-.721 2.664-4.294 0-4.87-2.521-5.937-5.02-2.124m439.876 3.302c-2.882.564-3.518 4.454-1.218 7.445 1 1.3 1.828 1.97 1.84 1.491.012-.48.657-.346 1.433.298 1.639 1.36 2.012.902 3.403-4.183.928-3.391-.771-6.568-2.998-5.607-.174.075-1.281.325-2.46.556m-242.435 3.903c-1.972 2.376.752 6.802 4.449 7.23 4.845.561 8.493-4.562 5.43-7.625-1.754-1.754-8.313-1.491-9.879.395M251 126.458c0 2.901 2.5 4.442 4.295 2.647 1.431-1.431-.19-4.444-2.652-4.928-1.186-.234-1.643.401-1.643 2.281m-10.458 3.854c.454 1.807.021 2.566-1.981 3.478-5.48 2.497-1.929 6.587 5.783 6.661 4.591.044 5.192.299 5.48 2.333.27 1.905.851 2.237 3.5 2 3.901-.349 5.261 1.591 1.426 2.032-3.527.406-5.056 3.222-3.989 7.343 1.01 3.896 3.11 5.341 6.518 4.486 2.789-.7 3.258-1.666 4.262-8.788l.654-4.643-6.848-6.898c-9.943-10.017-16.153-13.374-14.805-8.004M595 138c0 .55.45 1 1 1s1-.45 1-1-.45-1-1-1-1 .45-1 1m-91.257 13.313c-1.35 3.787.839 19.715 3.007 21.882l2.25 2.249.013-2.972c.049-10.994-3.63-25.763-5.27-21.159m-275.591 2.593c-1.818 1.124-1.055 4.489 1.113 4.906.957.185 2.026-.407 2.375-1.316.818-2.132-1.683-4.706-3.488-3.59m283.358.078c-1.229 1.988 2.81 26.203 4.473 26.825.835.312 1.991 1.198 2.57 1.969.877 1.169 1.235 1.179 2.151.062 1.401-1.708 2.464-21.657 1.273-23.882-1.795-3.355-9.272-6.907-10.467-4.974m98.178 1.662c-1.374 1.374-.662 3.496 1.062 3.164.962-.186 1.75-.969 1.75-1.74 0-1.579-1.764-2.472-2.812-1.424m-532.44 11.581c-5.155 3.17-5.248 3.313-5.248 8.032 0 5.903 1.565 6.791 6.548 3.712 4.063-2.512 5.452-5.323 5.452-11.036 0-4.755-.146-4.77-6.752-.708m146.422 13.191c-.554 1.444 2.148 14.861 4.896 24.306 2.578 8.862 7.943 13.659 16.419 14.681 2.368.285 5.252 1.384 6.41 2.442 2.459 2.247 6.605 3.714 6.605 2.337 0-.523-.958-1.201-2.128-1.507-1.766-.462-2.011-1.035-1.439-3.367 1.787-7.294 1.803-8.282.142-8.92-.92-.353-2.442.084-3.441.989-4.685 4.239-7.487 2.298-13.015-9.014-6.526-13.354-6.482-17.974.149-15.453 9.195 3.496 40.316 7.341 39.496 4.88-.458-1.373-2.226-1.774-18.764-4.253-12.886-1.932-23.561-4.742-26.525-6.983-2.536-1.916-8.089-2.004-8.805-.138m128.729-.254c-.396.64-1.362 5.027-2.148 9.75-2.611 15.694-2.631 16.086-.825 16.086 1.823 0 1.858-.082 3.592-8.5.68-3.3 1.781-8.25 2.446-11 .665-2.75 1.02-5.562.789-6.25-.528-1.574-2.902-1.627-3.854-.086M553.5 184c.34.55.816 1 1.059 1s.441-.45.441-1-.477-1-1.059-1-.781.45-.441 1M329 188c-.825.533-1.05.969-.5.969s1.675-.436 2.5-.969c.825-.533 1.05-.969.5-.969s-1.675.436-2.5.969m-14.5 2c-.735 1.189 6.787 1.189 10.5 0 1.863-.597.924-.826-3.691-.9-3.405-.055-6.469.35-6.809.9m-20.833 1.667c-1.082 1.081-.761 10.333.358 10.333 1.355 0 2.975-4.391 2.975-8.065 0-2.76-1.691-3.911-3.333-2.268m38.726 18.752c-.67 1.744.051 5.252 1.557 7.573 1.823 2.812 3.547-.417 2.481-4.647-1.006-3.991-3.059-5.478-4.038-2.926m-206.119 5.576c-8.421.928-21.927 7.189-24.034 11.141-.911 1.708-1.188 7.402-1 20.532.248 17.329.369 18.315 2.625 21.365 1.709 2.31 2.366 4.521 2.366 7.96 0 6.08.702 7.122 5.415 8.032l3.854.745-4.559.115c-8.164.206-7.827-1.109-8.119 31.615-.284 31.811.372 36.772 7.054 53.389 3.32 8.257 4.588 8.301 9.227.323 2.01-3.458 4.326-7.058 5.145-8 .82-.941 3.841-6.325 6.714-11.962s5.547-10.25 5.943-10.25c1.926 0 13.662 20.636 16.066 28.25.651 2.063 1.527 3.75 1.946 3.75 1.448 0 3.219-16.584 3.685-34.506.257-9.897.615-23.308.795-29.802.372-13.359-.882-18.874-5.08-22.344-2.514-2.078-2.562-2.318-1.391-6.97.688-2.729 1.109-9.695.972-16.067l-.242-11.249 4.585-4.281c7.366-6.876 7.789-14.795 1.011-18.872-2.064-1.241-3.896-2.359-4.071-2.485-.176-.126.274-1.2 1-2.388 1.459-2.387-.774-5.036-4.246-5.036-.926 0-3.503-.642-5.726-1.426-5.75-2.029-11.625-2.494-19.935-1.579M446 220.123c-3.025 1.036-5.95 2.488-6.5 3.227-.55.738-2.455 2.094-4.233 3.013-8.355 4.318-8.341 13.094.036 22.089 4.693 5.039 6.241 9.366 8.605 24.048.532 3.3 1.665 8.25 2.519 11 2.281 7.352 2.01 8.687-2.79 13.696-6.148 6.416-7.667 13.595-7.547 35.677.068 12.449.33 15.748 1.043 13.127 1.813-6.657 2.116-6.461 3.889 2.5 1.998 10.099 6.377 26.127 8.579 31.397 2.044 4.891 2.398 4.421 19.685-26.147 2.721-4.812 5.301-8.75 5.732-8.75.767 0 14.982 21.4 14.982 22.555 0 .321 1.437 2.674 3.194 5.227l3.194 4.643 1.287-4.963c.853-3.288 1.293-12.261 1.306-26.605.023-26.531.996-27.716 10.648-12.973 8.502 12.985 18.288 25.285 19.515 24.527.471-.291.856-1.717.856-3.17 0-4.116 1.594-1.387 2.779 4.759.865 4.487 1.995 6.513 6.135 11 2.79 3.025 5.076 5.885 5.08 6.356.007 1.018 5.291 7.945 9.217 12.084 1.534 1.617 2.789 3.304 2.789 3.75 0 1.838 4.824.626 7.076-1.777 1.935-2.065 3.076-2.482 5.653-2.066 3.923.632 7.855-3.343 6.735-6.809-.362-1.121-.952-3.69-1.311-5.709-.518-2.911-3.863-7.232-16.153-20.867-8.525-9.458-16.609-18.606-17.963-20.329-1.355-1.723-4.843-5.457-7.75-8.297-2.908-2.84-5.287-5.476-5.287-5.857 0-.381-2.138-2.782-4.75-5.336-2.612-2.554-8.474-8.58-13.026-13.393-4.552-4.812-8.684-8.75-9.183-8.75-.498 0-1.213-1.012-1.589-2.25-.375-1.238-1.554-3.204-2.62-4.371-1.568-1.715-1.849-3.148-1.474-7.5.256-2.958.511-8.754.569-12.879.134-9.714 1.086-11.357 4.465-7.711 1.382 1.491 2.826 2.711 3.209 2.711s2.227 1.575 4.096 3.5c1.87 1.925 3.715 3.501 4.101 3.502.386.001 1.981 2.026 3.544 4.5 4.555 7.21 6.01 6.15 5.148-3.752-.394-4.538-1.229-9.445-1.854-10.905-1.038-2.426-9.632-9.845-11.404-9.845-.413 0-1.331-.929-2.041-2.065-.887-1.422-2.116-1.967-3.941-1.75-2.429.288-2.829-.198-4.754-5.777-3.922-11.363-6.49-13.425-21.697-17.424-12.92-3.398-19.771-3.61-27.799-.861M243 222c-1.282.828-1.246.972.25.985.963.008 1.75-.435 1.75-.985 0-1.22-.113-1.22-2 0m310.748-.415c-.734.734.093 5.505 1.193 6.884.815 1.022 1.635 5.055 2.71 13.326.533 4.11.456 4.271-1.797 3.74-3.413-.805-5.627.828-3.917 2.889.719.867 1.815 1.589 2.435 1.605.621.017 4.95 3.629 9.621 8.027 9.448 8.895 11.311 9.447 11.622 3.439.113-2.197.565-7.37 1.003-11.495 1.653-15.581 1.594-15.842-4.618-20.23-9.471-6.691-16.565-9.872-18.252-8.185M262.3 227.017c2.163 1.368 12.785 4.348 21.594 6.058 5.828 1.132 6.226 1.365 4.5 2.639-1.042.769-1.749 2.102-1.573 2.962.177.861-.215 2.861-.871 4.445-.912 2.202-.918 3.213-.023 4.291.869 1.047.878 1.591.034 2.112-1.426.881-3.434-1.047-3.449-3.312-.01-1.376-.994-1.727-5.012-1.788-8.033-.122-9.5-.359-9.5-1.53 0-1.79-6.042-8.894-7.565-8.894-.768 0-1.668 1.08-1.999 2.401-1.273 5.071 18.729 28.56 24.385 28.634 1.473.02 3.804.679 5.179 1.465 2.913 1.665 8.6 1.956 9.509.486 1.028-1.663 8.229-4.986 10.805-4.986 2.988 0 7.686-4.229 7.686-6.917 0-1.108 1.27-3.492 2.821-5.298 6.62-7.708 9.798-16.226 6.523-17.483-1.944-.746-5.344 2.935-5.344 5.786 0 3.896-4.439 12.909-6.358 12.911-1.469.001-1.731-.508-1.25-2.427.839-3.343-1.858-5.929-5.438-5.213-1.495.299-2.966.296-3.269-.007-.942-.942 1.507-5.24 3.204-5.623.886-.199-.302-.71-2.639-1.134-6.69-1.213-5.226-3.085 3.471-4.437 13.066-2.031 10.087-2.735-10.488-2.478-15.167.19-21.121-.109-25.733-1.294-9.622-2.473-11.352-2.73-9.2-1.369m72.059 4.477c.353.918.641 1.858.641 2.088 0 .23.933.418 2.073.418 2.946 0 2.081-3.404-.974-3.838-1.877-.267-2.245.015-1.74 1.332m-87.898 2.569c-.678 1.097 2.195 4.937 3.694 4.937 1.27 0 1.016-3.429-.355-4.8-1.481-1.481-2.483-1.522-3.339-.137m1.181 10.707c-.261.423-.787 3.934-1.168 7.801-.686 6.957-.643 7.133 4.003 16.382 10.329 20.568 15.58 23.9 38.523 24.444 5.225.124 12.213.589 15.53 1.034 5.549.744 6.336.6 9.879-1.805 9.072-6.156 14.66-15.815 16.997-29.376 3.184-18.478 2.337-19.172-8.562-7.013-15.46 17.246-18.76 18.895-34.444 17.215-7.637-.818-10.106-2.503-28.018-19.131-11.261-10.454-11.89-10.926-12.74-9.551M271 247.031c0 .533.675.969 1.5.969s1.5-.177 1.5-.393c0-.216-.675-.652-1.5-.969-.825-.316-1.5-.139-1.5.393m30.936 1.546c-1.154 1.391-.911 1.539 2.05 1.25 1.848-.18 3.545-.889 3.77-1.577.604-1.839-4.249-1.566-5.82.327M84 258c-1.333.862-1.333.973 0 .999.865.018.474.554-.921 1.266-2.988 1.524-4.28 4.41-1.496 3.341 1.021-.391 1.535-.391 1.143.001-.392.393.184 1.342 1.28 2.11 2.574 1.803 6.458-.37 4.943-2.765-.505-.799-.925-2.464-.934-3.702-.016-2.381-1.533-2.854-4.015-1.25m472.51 2.016c.346.559 1.047.758 1.559.441 1.387-.857 1.129-1.457-.628-1.457-.857 0-1.276.457-.931 1.016m-32.081 12.525c.3 10.423.517 10.811 13.731 24.553 3.487 3.627 9.002 9.371 12.256 12.764 3.5 3.651 7.174 6.494 9 6.962 2.542.653 3.26 1.502 4.084 4.838 1.252 5.067 3.324 7.621 5.68 7.005 1.001-.262 1.849.045 1.883.681.261 4.748 1.939-5.229 2.043-12.147.194-12.86-3.416-17.539-26.987-34.977-3.509-2.596-7.744-6.182-9.411-7.97-1.666-1.788-3.535-3.25-4.153-3.25-.618 0-1.889-1.296-2.825-2.88-3.732-6.318-5.566-4.788-5.301 4.421m-451.1-2.766c-.644.41-1.488 2.011-1.876 3.558-.402 1.6-1.693 3.188-2.994 3.683-1.258.478-2.582 1.795-2.941 2.927-.359 1.131-1.072 2.057-1.585 2.057-.513 0-.933.702-.933 1.559s-.443 1.285-.985.95c-.918-.567-6.704 4.931-20.015 19.015-8.466 8.957-10.092 11.436-8.93 13.607.697 1.302.511 3.504-.626 7.414-1.349 4.639-1.42 6.386-.431 10.509 1.201 5.008 2.987 6.705 2.987 2.839 0-1.481.455-1.932 1.53-1.52 2.293.88 4.247-3.898 2.645-6.464-1.099-1.76 1.309-3.909 4.379-3.909 1.613 0 15.258-16.272 19.946-23.788.55-.881 1.819-2.527 2.82-3.657s3.449-4.755 5.439-8.055c1.99-3.3 3.91-6.225 4.266-6.5.868-.67 3.007-7 2.366-7-.277 0 .196-1 1.052-2.223 2.025-2.89 1.965-3.437-.443-4.067-1.1-.287-2-.115-2 .384 0 .498-.436.906-.969.906-.532 0-.709-.675-.393-1.5.618-1.61-.41-1.932-2.309-.725m342.17 17.148c-8.73 3.984-19.467 20.982-21.593 34.183-1.894 11.76-12.677 36.309-22.241 50.637-2.774 4.156-3.687 4.079-6.319-.531-6.184-10.834-30.722-36.874-44.701-47.436-4.48-3.385-11.457-9.223-15.506-12.974-10.106-9.364-10.97-9.468-18.004-2.184-6.015 6.23-14.017 13.19-22.444 19.522C252.219 337.512 220 371.635 220 375.473c0 1.009 4.411-1.955 6.285-4.223 1.023-1.238 2.333-2.25 2.91-2.25.639 0 .555.596-.215 1.524-1.817 2.19-.892 2.567 3.394 1.383 4.001-1.105 6.626-.029 6.626 2.715 0 .758.563 1.387 1.25 1.398.688.011 2.581 2.261 4.207 5s3.428 4.98 4.006 4.98c1.055 0 4.159 5.903 3.781 7.189-.112.379.687.972 1.776 1.317 1.089.346 1.98 1.111 1.98 1.701 0 .59.788 1.67 1.75 2.401 1.608 1.22 1.547 1.341-.75 1.478-9.596.573 11.328 2.024 28 1.942 60.605-.301 66.123-.643 68.979-4.274 2.235-2.842 2.921-6.422.719-3.754-1.818 2.203-5.525 4.089-6.126 3.117-.286-.463-2.16-.712-4.163-.553-3.36.266-3.489.181-1.665-1.097 1.088-.762 3.615-1.496 5.617-1.631 3.162-.213 5.443-1.836 2.58-1.836-.582 0-.776-.457-.431-1.016a1.198 1.198 0 0 1 1.643-.389c.559.345 2.315-.885 3.902-2.734 2.216-2.58 3.093-3.051 3.777-2.027.716 1.073 1.013 1.014 1.517-.302.413-1.077.237-1.394-.515-.929-.71.438-.869.262-.419-.465.398-.644 1.175-.891 1.727-.55.553.341 2.162-.776 3.576-2.484 1.466-1.769 3.528-3.104 4.794-3.104 2.126 0 4.062-2.385 14.105-17.375 1.165-1.738 2.853-3.77 3.75-4.515.898-.745 1.633-1.905 1.633-2.577 0-.673.855-1.997 1.901-2.943 1.046-.947 2.188-3.253 2.54-5.126.351-1.873 1.705-4.673 3.009-6.223 2.257-2.682 12.802-26.26 15.537-34.741.71-2.2 2.097-5.151 3.083-6.558 2.792-3.984 5.309-10.963 4.314-11.958-.515-.515-2.563-.121-4.885.939M168 289.975c0 .536 1.534 3.815 3.408 7.287 1.875 3.472 4.81 10.462 6.523 15.534C182.218 325.489 189.227 341 190.676 341c.658 0 1.36-1.462 1.559-3.25.305-2.737.485-2.934 1.136-1.25.425 1.1 1.192 2.675 1.704 3.5.511.825 1.386 2.625 1.945 4 .558 1.375 1.855 4.075 2.883 6 1.027 1.925 2.207 4.625 2.621 6 .415 1.375 3.166 6.208 6.115 10.741 2.948 4.532 5.361 8.893 5.361 9.691 0 .797.52 1.771 1.156 2.164 2.118 1.309-.011-5.695-3.279-10.788-3.524-5.492-9.635-17.827-11.051-22.308-2.512-7.948-4.107-14.756-5.344-22.813-1.771-11.532-11.302-26.339-20.636-32.06-2.935-1.799-6.846-2.171-6.846-.652m-80.63 15.446a641.394 641.394 0 0 0-9.724 13.25A7255.135 7255.135 0 0 1 67.07 333.5C50.048 357.296 42 369.172 42 370.494 42 372.129 54.317 385 55.882 385 56.775 385 76 356.901 76 355.596c0-.561 4.397-7.703 10.63-17.265 1.854-2.844 3.37-5.431 3.37-5.75 0-.32.815-1.396 1.811-2.392 2.789-2.789 4.767-21.004 3.305-30.439-.351-2.266-3.445-.001-7.746 5.671M11 331.5c0 .825.45 1.5 1 1.5s1-.675 1-1.5-.45-1.5-1-1.5-1 .675-1 1.5m422.964 22.227c-1.229 4.102-.847 7.273.877 7.273 1.327 0 2.354-7.83 1.279-9.751-.74-1.321-1.164-.834-2.156 2.478m68.705-1.989c-.878 1.442 2.523 29.765 3.934 32.762.777 1.65 2.559 4.575 3.959 6.5 5.542 7.616 5.578 7.637 14.293 8.309 9.971.769 11.149.381 11.13-3.666-.019-4.07-.583-4.993-12.724-20.807-17.73-23.095-19.432-25.004-20.592-23.098m-413.741 6.544c-.865.67-3.115 3.783-5 6.919a4343.95 4343.95 0 0 1-10.626 17.5c-9.625 15.779-9.388 14.436-3.577 20.308 5.11 5.165 10.707 6.799 10.052 2.935-.15-.889 1.653-4.113 4.008-7.166 3.41-4.419 4.405-6.643 4.887-10.914.332-2.95.965-6.072 1.406-6.937.442-.865 1.102-5.59 1.468-10.5.366-4.91 1.133-9.219 1.705-9.576 1.354-.845.193-3.86-1.47-3.819-.704.017-1.988.58-2.853 1.25m141.092 8.194c-.789.95-.865 1.524-.201 1.524 1.208 0 2.617-1.897 1.924-2.591-.252-.251-1.027.229-1.723 1.067M1.04 416.75 1 464h31.5c17.325 0 31.5-.225 31.5-.5s-.9-1.4-2-2.5-2-2.738-2-3.641-1.958-3.544-4.35-5.869c-2.393-2.326-7.667-9.575-11.72-16.109-4.053-6.535-7.613-12.106-7.913-12.381C34.82 421.9 28 411.431 28 410.692c0-.434-1.752-3.355-3.893-6.491-2.141-3.135-6.056-9.076-8.7-13.201-2.644-4.125-6.224-9.3-7.955-11.5-1.731-2.2-3.873-5.35-4.76-7-1.503-2.797-1.615.203-1.652 44.25m153.643-35.1c-.375.376-.69 1.621-.698 2.767-.008 1.146-1.133 5.683-2.5 10.083S149 402.638 149 402.807c0 .17 1.912.17 4.25 0l4.25-.307-.339-10c-.322-9.535-.968-12.36-2.478-10.85m199.824 2.339c-.35.566.051.734.941.393 1.732-.665 2.049-1.382.611-1.382-.518 0-1.216.445-1.552.989m-244.912 4.439c-1.427 2.436-2.595 4.763-2.595 5.171 0 .409-.641 1.454-1.425 2.322-.784.869-1.571 2.929-1.75 4.579l-.325 3 9.5.633c5.38.358 9.928.234 10.487-.287 1.185-1.105-8.383-19.818-10.142-19.835-.635-.006-2.323 1.982-3.75 4.417m337.85 3.101C444.149 398.981 444.158 399 451 399c6.924 0 7.006-.181 3.471-7.654-3.17-6.7-3.992-6.679-7.026.183m46.933.237c-1.033 2.598-2.028 5.064-2.211 5.479-.184.415.999.755 2.627.755 3.525 0 5.503-1.917 4.164-4.034-.51-.806-.934-2.452-.943-3.657-.028-4.01-1.736-3.326-3.637 1.457m-156.565 4.917c.721.289 1.584.253 1.916-.079.332-.332-.258-.568-1.312-.525-1.165.048-1.402.285-.604.604m61.187.199c0 .55.45 1.278 1 1.618.55.34 1 .168 1-.382s-.45-1.278-1-1.618c-.55-.34-1-.168-1 .382M63.813 455.683c.721.289 1.584.253 1.916-.079.332-.332-.258-.568-1.312-.525-1.165.048-1.402.285-.604.604" fill-rule="evenodd"/>
<path fill="#18191e" stroke="#18191e" d="m.103 7.75.102 7.75 1.669-5c.918-2.75 2.222-5.983 2.898-7.184C6.501.241 6.372 0 3 0H0l.103 7.75m64.924-5.5c-.8 1.238-2.391 4.5-3.536 7.25s-3.669 7.7-5.608 11c-1.94 3.3-4.356 8.25-5.37 11-1.014 2.75-2.219 5.428-2.678 5.95-.459.523-.811 2.323-.782 4 .05 2.912.163 2.827 2.5-1.886 1.346-2.715 2.461-5.415 2.478-6 .033-1.091 1.542-4.155 11.242-22.814C66.346 4.837 68.325 0 67.671 0c-.655 0-1.844 1.012-2.644 2.25M150.5 1c.34.55.816 1 1.059 1s.441-.45.441-1-.477-1-1.059-1-.781.45-.441 1m136.5.362c0 .898 1.789 1.574 5.25 1.983 30.368 3.589 40.64 13.16 36.25 33.776-2.018 9.478-3.649 22.541-3.511 28.129.077 3.138-.241 3.75-1.948 3.75-1.783 0-2.041-.633-2.041-5.013v-5.014l-3.622 1.514c-6.889 2.878-23.687 1.87-36.056-2.163-5.434-1.773-8.322-.976-8.322 2.296 0 1.864 6.997 9.5 8.088 8.825.479-.295 1.892.013 3.141.686s4.934 1.707 8.189 2.296c12.314 2.232 6.12 6.464-6.835 4.671-9.388-1.3-8.491-1.891-9.236 6.086-.677 7.258.549 10.816 3.728 10.816 3.026 0 9.925 3.837 9.925 5.52 0 .814.45 1.48 1 1.48s1-.684 1-1.519c0-1.09.656-1.354 2.324-.936 1.475.371 2.799.012 3.623-.981 1.686-2.031 2.998-1.946 6.041.392l2.489 1.912-2.641 1.004c-1.453.553-2.955 1.512-3.338 2.131-.486.787-1.259.618-2.56-.559-4.136-3.743-6.533.712-2.881 5.355l2.056 2.615-2.306.944c-1.269.519-2.827.988-3.463 1.043-2.235.191-5.167 5.073-4.655 7.75.396 2.076-.163 3.044-2.848 4.93-1.837 1.291-3.471 2.639-3.629 2.997-.4.903-5.872.175-8.249-1.098-1.554-.832-1.963-.731-1.963.485 0 3.038-4.238.702-6.317-3.482-.678-1.366-2.234-2.627-3.458-2.803-1.224-.175-2.225-.745-2.225-1.266 0-.52-1.591-1.705-3.534-2.632-4.659-2.221-4.244-4.675.862-5.097 2.096-.173 4.343.104 4.992.614 1.831 1.44 9.474 2.343 10.179 1.203.34-.551 1.155-.988 1.81-.97.655.017.377.649-.619 1.404-2.451 1.858-.953 2.543 4.085 1.867 4.169-.559 4.18-.572 2.771-3.182-.778-1.442-1.75-3.971-2.161-5.621-.665-2.675-.788-2.756-1.135-.75-.463 2.676-1.346 2.773-5.841.64-3.441-1.633-4.068-1.608-15.909.641-11.982 2.276-10.989 1.89-8.873 3.449 1.813 1.336 1.801 1.447-.377 3.489-2.279 2.136-3.041 3.638-1.3 2.562.522-.323 1.421.294 1.998 1.372 1.058 1.977-.79 5.097-3.019 5.097-.511 0-.929.45-.929 1s.612 1 1.359 1c.748 0 3.335 1.571 5.75 3.49 2.415 1.92 4.954 3.495 5.641 3.5.688.006 1.25.591 1.25 1.302 0 .71 2.019 3.273 4.487 5.695s5.001 6.003 5.629 7.958c.628 1.955 1.848 4.779 2.71 6.274 1.856 3.217.655 5.159-1.428 2.311-1.411-1.929-1.483-1.918-3.842.626-5.681 6.127-13.075 4.179-13.874-3.656l-.409-4-4.056.328c-6.126.496-8.038-.997-8.819-6.885-.83-6.258-2.535-5.983-3.947.638-.843 3.95-1.494 4.983-3.304 5.246-2.973.43-3.951 3.304-4.673 13.729-.777 11.221-.095 14.275 3.356 15.029 1.468.32 6.133 1.936 10.365 3.589s10.532 3.378 14 3.833c3.468.454 11.03 1.604 16.805 2.555 5.775.951 11.625 1.815 13 1.92 1.375.105 3.307.545 4.293.978.986.433 2.058.522 2.382.199.323-.324 1.384-.163 2.357.358 1.285.688 1.923.542 2.337-.535.642-1.674 4.189-2.007 5.131-.482.93 1.505 9.98 1.201 13.716-.46 2.776-1.235 14.406-3.21 31.156-5.292 5.113-.636 4.527 1.558-.928 3.477-6.885 2.423-12.704 3.503-30.444 5.651-1.375.166-3.175.583-4 .925-.825.342-3.04.752-4.923.91-4.184.353-5.188 2.472-1.598 3.373 3.494.877 2.904 3.742-.909 4.408-3.788.662-4.427 2.755-1.097 3.59 3.009.756 2.881 2.474-.291 3.907-2.673 1.207-2.317 2.895.704 3.338 3.99.586 1.589 2.673-3.09 2.686-2.485.007-5.256.624-6.158 1.372-1.447 1.201-1.638 1.054-1.638-1.263 0-1.664.548-2.622 1.5-2.622.825 0 1.5-.375 1.5-.833 0-1.622-1.286-2.084-3.097-1.115-1.452.777-2.159.486-3.392-1.394-2.38-3.633-1.025-5.845 3.105-5.07 2.708.508 3.384.313 3.384-.977 0-1.123-.908-1.611-3-1.611-2.949 0-3.58-1.002-3.052-4.85.102-.743-.234-1.091-.747-.774-.514.317-1.684-.252-2.601-1.265-1.295-1.432-3.83-2-11.383-2.554-8.333-.61-22.2-2.816-32.631-5.19-2.484-.565-2.816-.408-2.25 1.067.365.951.671 2.48.679 3.398.014 1.442.147 1.465.985.168.755-1.168.973-.888.985 1.264.008 1.52.436 3.545.951 4.5.515.955 2.143 4.324 3.618 7.486 2.81 6.026 4.384 6.868 7.887 4.218 4.792-3.625 7.946-.865 6.691 5.855-1.055 5.645.025 6.592 11.048 9.685 22.388 6.283 67.08 1.247 64.325-7.249-2.747-8.473-1.02-12.788 3.753-9.376 1.233.882 3.218 2.312 4.411 3.178 2.142 1.556 2.201 1.468 4.871-7.243 1.486-4.85 3.152-11.743 3.703-15.318 1.597-10.36 2.554-12.257 5.935-11.761 1.573.231 3.31-.122 3.859-.784 1.474-1.775-.791-20.024-3.118-25.132-1.055-2.317-1.919-4.823-1.919-5.568 0-.745-.396-1.782-.879-2.305-.484-.522-1.43-2.75-2.104-4.95-.673-2.2-2.92-6.925-4.993-10.5-2.073-3.575-4.103-7.58-4.511-8.899-2.498-8.074-5.581-10.952-12.471-11.639-7.064-.704-20.36-6.007-19.739-7.874.199-.598 1.45-1.336 2.779-1.639 5.069-1.155 9.844-4.051 15.258-9.252 6.032-5.796 6.277-6.809 3.75-15.447-.994-3.4-.808-3.587 2.335-2.355 1.302.51 2.517.163 3.75-1.07 1.004-1.004 2.542-1.825 3.417-1.825 1.964 0 5.767-3.028 6.309-5.024 1.019-3.749 4.953-14.835 5.878-16.562 1.387-2.593-.445-11.827-3.258-16.414-2.771-4.52-8.085-15.783-8.964-19-.375-1.375-1.095-3.4-1.599-4.5s-1.365-3.237-1.913-4.75L336.05 0h-24.525C291.493 0 287 .25 287 1.362M474.914 8.25c-.593 57.128-1.116 65.667-4.947 80.75-.629 2.475-.919 6.788-.644 9.585.274 2.797.096 5.722-.397 6.5-.732 1.158-.898 1.107-.911-.276-.008-.93-.532-2.01-1.164-2.401-.84-.519-.965.674-.465 4.441.601 4.537.025 6.169-1.732 4.901-.191-.138-1.038.324-1.883 1.025-.845.701-2.826 1.202-4.403 1.114-4.351-.244-8.368 1.728-8.368 4.108 0 2.073-2.071 3.345-7.25 4.453-2.749.588-2.75.591-2.75 9.461 0 8.456-.109 8.9-2.329 9.457-2.427.609-5.136 5.071-4.098 6.751.33.533.055 1.624-.609 2.425-.946 1.14-.941 1.779.026 2.944 1.69 2.036-.377 2.706-4.99 1.618-3.493-.824-3.357-1.057 1.5-2.575 1.073-.335 1.48-1.83 1.43-5.25-.08-5.405-1.048-8.584-2.469-8.105-.529.178-1.383-1.386-1.899-3.475-.889-3.599-1.127-3.783-4.5-3.5-1.959.164-3.337.567-3.062.895.275.328-.07 1.284-.767 2.124-.697.839-.98 2.275-.629 3.19.351.916.015 2.435-.746 3.377-1.237 1.53-1.481 3.194-1.006 6.855.081.627 1.243 1.416 2.581 1.752 2.715.681 4.462 4.435 2.6 5.585-2.507 1.55 2.107 6.793 5.728 6.508 1.781-.14 3.239.143 3.239.629s-1.125.884-2.5.884c-1.896 0-2.524.543-2.6 2.25-.095 2.159-.132 2.148-.9-.25l-.801-2.5-.252 2.5c-.138 1.375-.3 3.081-.358 3.792-.059.71-.765 1.699-1.57 2.196-1.576.974-.284 1.857 3.541 2.418.944.139 2.329 1.09 3.078 2.114.749 1.024 1.362 1.326 1.362.671s.45-1.191 1-1.191c.564 0 1 2.833 1 6.5 0 7.323-.238 7.483-6.748 4.528-4.909-2.229-11.006-.686-11.978 3.031-.39 1.494-1.387 1.941-4.332 1.941-2.103 0-4.117.474-4.475 1.053-.358.58-3.117 2.144-6.132 3.478-3.015 1.333-5.22 2.846-4.901 3.362.319.517.11 2.175-.464 3.686-.721 1.897-.723 3.068-.007 3.784.57.57 1.037 2.348 1.037 3.95 0 2.669-.252 2.877-3 2.474-1.65-.242-3-.069-3 .386s-.45.827-1 .827-1-1.87-1-4.156c0-2.794-.761-5.169-2.324-7.25-1.278-1.702-2.613-3.881-2.968-4.844-.355-.962-1.222-1.807-1.927-1.878-4.272-.425-5.66-.763-9.103-2.217-2.102-.887-3.595-1.981-3.317-2.43.438-.708-1.555-.824-6.111-.354-.69.071-1.25 1.458-1.25 3.099 0 1.633-.827 4.445-1.838 6.25-1.011 1.804-2.083 5.118-2.383 7.364-1.189 8.924-7.915 15.762-15.67 15.932-2.945.064-6.966 1.233-11.137 3.237-3.59 1.725-8.463 3.572-10.828 4.103-2.365.532-4.565 1.231-4.889 1.555-1.279 1.279 7.692.497 10.381-.905 3.671-1.914 6.364-1.917 6.364-.006 0 .825.45 1.5 1 1.5 2.506 0 .995 7.63-2.092 10.563-1.7 1.615-3.926 4.559-4.946 6.542-3.569 6.936-13.61 15.706-20.375 17.795-7.692 2.376-18.143 1.019-23.67-3.074-4.793-3.549-8.351-4.606-4.417-1.312 8.854 7.415 10.118 7.92 19.867 7.931 13.007.016 13.044-.004 25.706-13.678 15.617-16.866 17.74-16.567 14.46 2.035-2.72 15.427-9.416 27.999-17.837 33.487-3.539 2.307-17.965 4.095-27.696 3.434-20.167-1.371-27.52-6.861-38.518-28.76l-4.715-9.386.867-8.03c1.157-10.727 1.923-10.719 13.86.147 9.252 8.422 12.506 10.624 12.506 8.463 0-.545-.353-1.14-.784-1.324-.431-.183-2.981-3.258-5.666-6.833-2.686-3.575-6.162-7.715-7.724-9.2l-2.841-2.701 1.723-3.614c1.908-4.001 2.968-4.083 17.149-1.336 7.081 1.371 9.131-.377 2.448-2.089-9.433-2.414-14.881-4.251-20.082-6.767-4.871-2.358-5.413-2.431-7.051-.949-1.752 1.586-6.767 1.019-9.709-1.098-2.786-2.004-11.801-16.021-13.085-20.345-.801-2.696-1.915-4.901-2.476-4.901-.561 0-.773.399-.472.887.302.488-.234.825-1.191.75-1.198-.094-1.714.563-1.66 2.113.086 2.434-1.482 2.947-3.337 1.092-.771-.771-1.589-.831-2.45-.18-.71.538-3.183 1.574-5.494 2.302s-4.118 1.597-4.015 1.93c.103.333-1.381 2.181-3.298 4.106-1.917 1.925-3.485 4.4-3.485 5.5 0 1.1-.637 2-1.417 2-2.43 0-2.264-2.118.363-4.61 3.156-2.994 3.162-3.521.054-4.301-1.375-.345-2.5-1.278-2.5-2.073 0-.795-.9-1.927-2-2.516s-2-1.73-2-2.535c0-.933-1.089-1.51-3-1.59-1.65-.069-3.45-.238-4-.375a22.188 22.188 0 0 0-1.906-.375c-.499-.069-.788-.912-.644-1.875.145-.963.07-1.187-.167-.5-.236.688-1.127 1.25-1.979 1.25-1.274 0-1.325.27-.284 1.524 1.454 1.752 1.563 1.634-2.968 3.234-4.344 1.534-5.016.653-5.037-6.607-.008-2.942-.664-6.767-1.457-8.5-.793-1.733-1.581-4.276-1.75-5.651-.233-1.889-.98-2.577-3.058-2.816-1.512-.174-2.75-.906-2.75-1.625 0-.745-1.127-1.309-2.614-1.309-1.437 0-2.9-.419-3.25-.93-.696-1.017-3.636 1.554-3.636 3.18 0 .809-4.112 9.797-5.228 11.427-.161.235-.994-.44-1.85-1.5-1.49-1.842-1.533-1.809-.988.755.439 2.064.129 2.822-1.343 3.289-1.052.334-3.088 2.147-4.523 4.029-2.245 2.943-6.749 4.221-5.021 1.423.77-1.245-2.517-5.923-4.162-5.923-.762 0-1.385-.45-1.385-1s-1.023-1-2.273-1c-4.584 0-8.588-13.614-4.709-16.011 1.254-.775 1.191-1.116-.426-2.298-2.023-1.479-1.436-3.691.981-3.691.8 0 2.407-.562 3.571-1.25 1.694-1 2.208-1 2.57 0 .641 1.771 2.045 1.558 5.382-.818 1.597-1.138 2.904-1.588 2.904-1 0 .587 1.35 1.068 3 1.068s3-.398 3-.883c0-.486.925-1.126 2.055-1.421 1.798-.47 2.017-1.196 1.75-5.808-.29-5.014-.463-5.31-3.555-6.108-1.787-.46-3.25-1.274-3.25-1.809 0-.534-.675-.971-1.5-.971s-1.5-.568-1.5-1.263c0-.694-.999-1.707-2.221-2.25-2.098-.932-2.204-1.499-1.917-10.237.29-8.804.204-9.25-1.779-9.25-1.635 0-2.083-.628-2.083-2.917 0-1.604-.562-3.12-1.25-3.369-1-.362-1-.876 0-2.57 1.997-3.382 1.503-4.144-2.691-4.144-3.68 0-5.507-1.149-5.544-3.486-.008-.543-.802-1.138-1.765-1.324-2.628-.506-2.387 4.41.25 5.1 2.055.537 2.787 2.612 1 2.835-.55.069-1.558.181-2.239.25-.682.069-1.865 3.047-2.631 6.625-.765 3.575-1.843 6.789-2.396 7.143-1.522.973.068 5.857 1.907 5.857 1.149 0 1.321.355.606 1.25-1.135 1.423-1.05 4.642.176 6.625.626 1.013.327 1.18-1.23.686-1.831-.581-2.037-.264-1.875 2.889.1 1.947.569 3.543 1.043 3.546.473.002-.09.791-1.253 1.754-1.908 1.58-2.153 3.013-2.525 14.75-.659 20.767-1.62 35.689-2.576 40-2.741 12.352-2.111 13.913 4.146 10.278 9.125-5.302 25.835-8.063 32.343-5.344 2.062.861 4.546 1.566 5.522 1.566 3.445 0 13.827 5.404 13.697 7.129-.069.914-.702 1.429-1.42 1.154-.712-.273-1.295-.024-1.295.553 0 1.499 4.09 4.164 6.389 4.164 1.069 0 1.685.259 1.368.577-.317.317.316 2.594 1.406 5.059l1.983 4.483-2.573 3.374c-1.415 1.855-2.573 3.839-2.573 4.409 0 .569-.675.776-1.5.46-.95-.365-1.5.013-1.5 1.031 0 .884-.337 1.554-.75 1.489-3.176-.502-3.845 3.059-1.243 6.618 1.099 1.505-.885 26.806-2.164 27.597-1.638 1.012-.042 2.901 2.466 2.918 1.321.01 1.732.308 1.034.752-.871.554-.851 1.622.079 4.328.679 1.976 1.104 5.8.944 8.499-.16 2.698-.516 15.931-.792 29.406-.462 22.596-1.606 38.373-3.129 43.173-1.054 3.32-3.678 1.556-5.465-3.673-3.276-9.583-12.18-24.418-12.781-21.295-.178.926-.859 1.497-1.512 1.268-2.969-1.042-4.919 2.349-5.305 9.224-.816 14.529-2.443 18.377-5.585 13.21l-1.913-3.146-2.505 2.352c-1.377 1.294-3.412 3.823-4.523 5.62-2.312 3.741-5.265 4.241-6.909 1.168-4.673-8.731-12.233-37.772-11.038-42.401.142-.55-.117-.625-.576-.167-.458.458-.882 4.807-.941 9.665-.13 10.553-1.952 28.624-3.933 39.002-1.814 9.504-1.995 10.777-2.923 20.584l-.765 8.083 3.654.138c2.01.075 4.637.825 5.837 1.666 2.946 2.063 4.478 1.923 5.24-.479.728-2.293 13.212-2.014 14.733.329.547.843.979.867 1.515.083 1.282-1.873 5.036-2.263 28.65-2.971l22.9-.687-.556 2.126c-.306 1.169-.115 2.399.425 2.733 1.518.938-2.945 5.1-6.159 5.743-1.703.341-3.117 1.415-3.516 2.671-.542 1.706-1.2 1.985-3.496 1.48-3.035-.666-6.998 1.144-6.998 3.196 0 .668-1.55 1.505-3.444 1.86-2.505.47-3.527 1.232-3.75 2.796-.168 1.182-.756 2.186-1.306 2.231-3.137.255-6.5 1.822-6.5 3.026 0 .834-1.047 1.392-2.609 1.392-2.431 0-3.75.885-10.061 6.75-1.331 1.237-3.006 2.25-3.722 2.25-2.24 0-7.102 2.833-9.402 5.478-2.541 2.923-2.803 3.965-.804 3.198.771-.296 1.635-.305 1.92-.021.803.803 59.756.417 61.04-.399.626-.397 12.992-.805 27.48-.906 18.091-.126 27.266-.566 29.292-1.406 2.331-.965 4.788-.958 11.697.032 6.564.941 19.588 1.085 52.208.579 124.138-1.927 129.701-1.946 141.12-.503 5.489.693 24.71.976 52.5.771 24.113-.178 45.944.06 48.515.529 4.629.844 4.677.825 5-2 .25-2.188.792-2.791 2.326-2.591 1.473.191 3.036-1.324 5.931-5.75 2.162-3.306 4.223-6.011 4.58-6.011.356 0 .612-.954.568-2.119-.085-2.274 2.829-4.806 4.085-3.55.418.418.138 1.752-.622 2.964-.76 1.213-2.768 4.848-4.462 8.077a845.847 845.847 0 0 1-4.784 9c-.937 1.721-1.523 3.667-1.301 4.327.222.659-.547 1.5-1.709 1.869-1.924.61-1.958.756-.388 1.635 2.247 1.258 4.966.187 4.251-1.675-.763-1.99 5.658-3.165 8.992-1.646 1.861.848 2.329 1.636 1.856 3.126-.624 1.967-.121 1.992 40.436 1.992H643l.001-22.75c.001-12.512.159-85.3.351-161.75.193-76.45.171-128.875-.049-116.5l-.398 22.5-2.501-7c-1.375-3.85-3.615-11.275-4.978-16.5-3.151-12.079-7.1-23.211-8.691-24.5-.679-.55-1.388-2.125-1.575-3.5-.533-3.923-3.318-9.153-4.61-8.658-.795.305-1.196-1.183-1.248-4.626-.064-4.274-.489-5.377-2.689-6.979-1.445-1.053-2.613-2.885-2.613-4.098 0-1.207-.9-2.965-2-3.907-1.1-.942-2.052-2.729-2.115-3.972-.355-6.942-3.932-12.513-5.119-7.973-.655 2.503.891 6.213 2.588 6.213 1.568 0 2.843 5.761 1.463 6.613-1.372.848.128 2.387 2.325 2.387 2.568 0 1.952 2.051-.937 3.12-2.911 1.077-7.201-4.694-17.934-24.12-14.734-26.669-16.741-31.539-14.655-35.561C579.255 49.28 579.366 48 578 48c-.55 0-1 .916-1 2.035 0 5.477-8.517-6.03-13.348-18.035-.996-2.475-2.513-5.85-3.37-7.5-4.926-9.483-6.353-12.602-8.345-18.25L549.732 0h-4.433c-4.508 0-5.208 1.682-2.29 5.5 2.42 3.166 26.42 50.875 32.447 64.5a1225.587 1225.587 0 0 0 6.224 13.841c3.05 6.61 2.541 8.635-1.942 7.726-7.805-1.582-16.539-2.708-20.195-2.602-5.479.158-13.66-2.088-14.328-3.934-.306-.842-1.379-2.604-2.385-3.916-1.007-1.312-1.83-3.224-1.83-4.25 0-2.121-.335-2.235-2.764-.938-.955.51-2.524 1.171-3.486 1.469-.962.298-1.75 1.488-1.75 2.646 0 1.455-.533 2.002-1.727 1.772-1.88-.362-2.688-6.069-1.248-8.825 1.09-2.086.02-6.989-1.525-6.989-3.017 0-2.432 14.937.66 16.868 1.556.972 2.316.982 3.443.047.795-.66 1.547-1.023 1.671-.808l1.364 2.393c.627 1.1 1.864 1.937 2.75 1.861.901-.078 1.612.606 1.612 1.55 0 .929.522 2.211 1.16 2.849.88.88.579 1.644-1.25 3.167-3.606 3.002-6.511 2.655-7.76-.927-.738-2.118-1.723-3.023-3.348-3.077-1.266-.042-2.977-.243-3.802-.448-5.866-1.454-9-1.643-9-.543 0 .657.788 1.073 1.75.926.962-.147 2.703.259 3.869.902 1.165.643 2.426.862 2.802.485.377-.376.36.162-.037 1.196-.604 1.574-.359 1.786 1.504 1.298 1.869-.488 2.031-.346 1.009.885-.67.807-1.82 1.236-2.557.953-1.968-.755-1.634 1.152.41 2.343 1.496.871 1.351 1.024-1 1.05-3.433.038-3.575 1.766-.25 3.03 2.5.95 3.583 5.213 1.631 6.419-.477.295-1.165 2.459-1.527 4.809-.362 2.35-1.809 7.76-3.214 12.022-2.516 7.634-2.605 7.75-5.934 7.75h-3.381l.608 6.75c.334 3.713.974 7.744 1.422 8.959.869 2.357 7.925 6.572 11.625 6.944 2.702.272 7.024 3.273 7.743 5.378.907 2.657 10.616 10.383 15.819 12.587 3.009 1.275 4.443 2.339 3.603 2.671-.839.333-.498.585.855.632 1.237.043 2.25.571 2.25 1.171 0 .601.934 2.28 2.075 3.73l2.075 2.638-2.193 1.776c-2.149 1.74-1.812 3.397 1.174 5.764 1.66 1.317 2.103 19 .475 19-.883 0-1.762-.113-1.952-.25-.615-.444-3.654 2.462-3.654 3.495 0 .57.627.48 1.459-.211 1.678-1.393 7.541-.472 7.541 1.185 0 .583-.72 1.587-1.601 2.231-1.365.998-.356 2.008 6.833 6.841 14.963 10.059 14.534 9.254 12.638 23.709-.612 4.675-1.397 10.975-1.742 14-.709 6.212-3.7 7.882-7.643 4.267-5.149-4.723-8.397-6.384-10.393-5.316-4.432 2.372-7.676-1.37-3.342-3.855 1.6-.917 1.536-1.155-.75-2.774-7.422-5.258-8.685-7.374-11.387-19.067-3.656-15.825-4.533-25.822-2.185-24.921 3.586 1.376 9.572 1.924 9.572.877 0-.574-.556-1.23-1.235-1.456-.981-.327-.981-1.646 0-6.394 1.566-7.584 1.644-12.668.155-10.111-1.419 2.435-2.398 2.191-3.832-.957-.679-1.489-2.101-3.314-3.161-4.057-1.06-.742-1.927-2.188-1.927-3.213 0-1.241-.963-2.076-2.88-2.497-1.878-.412-2.835-1.223-2.75-2.329.099-1.291-.69-1.697-3.295-1.697-3.893 0-5.549-3.239-4.688-9.164.319-2.198-.082-3.655-1.312-4.768-1.68-1.521-1.802-1.082-2.392 8.598-.702 11.514-1.714 13.533-5.974 11.913-3.719-1.413-3.968-.468-2.809 10.668.559 5.364 1.28 14.478 1.604 20.253.324 5.775.987 12.075 1.474 14 .486 1.925 1.181 6.425 1.543 10 1.478 14.575 2.047 16.122 7.717 21 2.877 2.475 7.061 6.3 9.298 8.5 8.599 8.457 18.409 15.748 20.467 15.209 1.48-.387 1.997-.028 1.997 1.385 0 1.048.563 1.92 1.25 1.938 1.794.045 6.75 4.621 6.75 6.232 0 .748 1.31 2.328 2.91 3.512 4.548 3.362 5.413 7.616 4.866 23.934-.301 9.006-.918 14.832-1.647 15.561-2.1 2.1-6.576-1.061-21.879-15.448-2.888-2.715-5.25-5.212-5.25-5.548 0-1.114-16.329-16.275-17.529-16.275-2.217 0 .862 19.081 3.388 21 .363.275 1.756 2.139 3.096 4.143 1.376 2.057 3.005 3.426 3.741 3.143.862-.331 1.304.366 1.304 2.057 0 1.407.565 2.917 1.256 3.357.691.44 2.589 2.6 4.218 4.8 1.629 2.2 6.013 7.072 9.744 10.826 3.73 3.754 6.782 7.173 6.782 7.597 0 1.451 7.131 8.114 8.066 7.536.514-.317.934.166.934 1.074s.9 2.796 2 4.194c1.1 1.399 2 3.607 2 4.908 0 2.891 1.1 3.036 2.768.365 1.652-2.645 6.335-2.76 5.937-.146-.156 1.019-1.053 3.029-1.994 4.465-.941 1.436-1.711 3.076-1.711 3.646 0 .569-.406 1.035-.901 1.035-.496 0-2.952 2.08-5.458 4.622-5.644 5.725-9.638 8.083-8.898 5.253.661-2.527-1.911-2.452-4.243.125-.995 1.1-2.572 2-3.503 2-1.553 0-9.22-8.892-17.246-20l-3.251-4.5-.308 5.424c-.174 3.062.37 7.497 1.25 10.188 3.906 11.942 2.306 13.619-12.336 12.927-11.215-.531-11.427-.585-13.5-3.486-1.158-1.621-3.114-3.919-4.347-5.106-3.475-3.349-5.177-8.55-5.934-18.141l-.696-8.806-1.314 6.397c-2.21 10.757-3.489 11.113-8.39 2.332C486.323 363.191 475.86 347 474.976 347c-.469 0-1.162 2.061-1.54 4.58-.378 2.518-1.305 4.816-2.061 5.107-.756.29-1.375 1.154-1.375 1.92s-.389 1.393-.864 1.393-2.161 1.913-3.747 4.25c-1.586 2.337-3.146 4.475-3.467 4.75-.321.275-1.613 2.584-2.871 5.132-1.258 2.547-3.258 5.849-4.444 7.337l-2.157 2.705 3.311 6.951c1.821 3.823 3.043 7.383 2.716 7.913-1.039 1.68-14.477 1.208-14.477-.509 0-2.14 4.574-12.148 5.937-12.99.744-.46.823-1.134.22-1.878-2.291-2.83-10.157-31.557-10.157-37.092 0-6.631-1.904-.613-2.193 6.931-.283 7.387-.477 8.024-2.522 8.315-3.125.444-3.736-2.985-1.834-10.288 1.058-4.063 1.549-10.598 1.549-20.63 0-20.909 1.78-29.007 7.611-34.63 5.054-4.875 4.869-4.086 2.763-11.807-1.729-6.338-2.516-10.064-4.321-20.46-1.56-8.982-1.521-8.897-6.638-14.5-5.248-5.747-6.416-8.173-6.411-13.315.004-4.24 3.23-10.185 5.527-10.185.858 0 2.715-1.155 4.127-2.567 3.019-3.019 14.135-6.737 19.842-6.637 11.526.202 33.354 7.475 36.307 12.097 1.865 2.92 20.284 21.046 21.424 21.083 1.774.058 1.892-6.104.385-20.107-.891-8.28-1.391-15.425-1.111-15.878.28-.453.011-2.098-.597-3.657-1.183-3.03-2.771-13.48-3.36-22.109-.296-4.349-.972-5.952-3.85-9.137-1.919-2.125-3.801-5.282-4.182-7.015-.528-2.404-1.106-3.02-2.437-2.598-1.907.605-4.017-2.831-4.158-6.772-.043-1.212-.306-1.64-.583-.953-.881 2.182-2.156 1.355-2.861-1.855-1.023-4.659.511-25.307 1.786-24.032.569.569 1.079 2.294 1.135 3.835.083 2.279.559 2.802 2.552 2.802 1.782 0 2.618.682 3.068 2.5.682 2.763 6.478 3.433 8.026.928.989-1.599.11-3.93-1.375-3.646-.717.137-1.359-2.254-1.727-6.436-.685-7.773-2.213-10.48-8.437-14.95-5.042-3.621-6.088-6.064-4.989-11.653 1.77-8.997 1.483-24.614-.491-26.733-2.279-2.445-.276-9.204 2.421-8.169 1.934.742 3.087-2.994 1.51-4.894-.665-.802-1.167-3.554-1.116-6.116.067-3.31-.403-5.037-1.623-5.963-1.595-1.211-1.574-1.312.283-1.406l2-.103-2-.793c-1.115-.442-2.269-.375-2.609.151-.335.519-.901-.515-1.257-2.299-.448-2.236-.181-3.761.858-4.91.929-1.026 1.508-3.625 1.508-6.769 0-4.226.344-5.213 2-5.739 1.873-.595 2-1.513 2-14.511 0-12.935.142-13.975 2.087-15.337l2.087-1.462-2.14-.679c-1.712-.544-1.905-.962-.964-2.095C498.072.209 496.533 0 486.622 0H475l-.086 8.25m33.336-6.81c-2.337.519-4.25 1.308-4.25 1.752 0 .444 1.913.84 4.25.878 3.292.055 3.799.264 2.25.93-1.946.836-1.942.861.142.93 1.48.048 2.335-.702 2.769-2.43.719-2.868 3.22-3.349 3.9-.75.341 1.308.486 1.178.573-.516.128-2.505-1.369-2.629-9.634-.794m19.518 12.31c-.282 16.744.312 49.572.908 50.221 1.307 1.423 2.355-3.408 2.163-9.971-.123-4.194.286-8.428.928-9.604.631-1.158 1.279-7.569 1.44-14.249.215-8.892.628-12.145 1.543-12.146.688 0 1.287-1.013 1.331-2.251.072-1.996.23-1.912 1.402.749.879 1.995 1.007 3.585.384 4.75-.628 1.172-.576 1.751.157 1.751.602 0 .841.409.532.91-.944 1.527.52 3.998 2.027 3.42.86-.33 1.417.087 1.417 1.063 0 .884-.675 1.607-1.5 1.607s-1.5.45-1.5 1 .623 1 1.383 1c.761 0 1.635.961 1.942 2.137.623 2.379-2.918 6.122-5.075 5.365-.687-.242-1.25-.003-1.25.529 0 .856 5.317 1.489 8.75 1.044.688-.09 1.25.361 1.25 1.001 0 .805-1.854 1.03-6 .73-3.994-.289-6-.062-6 .678 0 1.104 9.535 1.067 16.75-.065 4.085-.641 4.268-2.419.25-2.419-1.65 0-3-.408-3-.906 0-.499.9-.671 2-.384 2.844.744 2.519-1.022-1.785-9.71-2.963-5.982-4.12-7.441-5.715-7.208-1.528.223-1.672.07-.609-.646C544.259 20.549 533.606 0 530.41 0H528l-.232 13.75m31.439-8.265c.25 3.016 1.149 6.278 1.997 7.25.849.971 1.862 3.542 2.252 5.714.39 2.172 1.347 4.859 2.127 5.972.779 1.113 1.417 2.838 1.417 3.833 0 .995.675 2.068 1.5 2.384.83.319 1.5 1.804 1.5 3.323 0 1.544 1.095 3.928 2.5 5.444 1.375 1.484 2.5 3.852 2.5 5.263 0 2.172.345 2.473 2.25 1.962 1.237-.331 2.587-.609 3-.616 1.666-.031.592-3.57-1.86-6.129-1.447-1.51-2.719-4.106-2.854-5.825-.134-1.706-.504-3.361-.821-3.678-.317-.318-.335-1.209-.039-1.98.324-.844-.101-1.402-1.069-1.402-1.74 0-1.89-.574-1.627-6.25.098-2.118-.295-3.75-.904-3.75-.592 0-1.076-.873-1.076-1.941s-.45-2.219-1-2.559c-1.691-1.045-1.109-2.5 1-2.5 2.504 0 2.74-3.738.347-5.488-.909-.665-1.331-1.729-.938-2.366.473-.765 1.863.06 4.105 2.438 3.378 3.581 5.515 3.819 5.454.607C578.889 1 576.682 0 567.516 0h-8.764l.455 5.485M597 .372c0 .43 3.17 10.007 8.98 27.128 3.848 11.341 8.25 23.564 10.083 28 .455 1.1 2.445 6.5 4.424 12 1.978 5.5 4.008 10.9 4.51 12 .503 1.1 3.14 8.525 5.862 16.5 2.721 7.975 6.341 18.282 8.044 22.904 1.704 4.622 3.097 8.65 3.097 8.95 0 .3.337.119.75-.404.413-.522.631-29.412.485-64.2L642.971 0h-22.986C607.343 0 597 .168 597 .372m-63.9 8.319c.055.995.46 2.934.9 4.309.719 2.246.811 2.124.9-1.191.055-2.03-.35-3.969-.9-4.309-.55-.34-.955.196-.9 1.191m43.143 4.249c-.564 2.224-.738 3.865-.385 3.646.353-.219.489 1.773.301 4.426-.357 5.057 2.627 10.988 5.529 10.988.722 0 1.312.9 1.312 2s.436 2 .969 2c.532 0 .709.675.393 1.5-.317.825-.051 1.5.59 1.5s.907.419.591.931a1.104 1.104 0 0 0 .369 1.514c.519.321 1.234-.329 1.588-1.445.354-1.116 1.101-1.747 1.659-1.402.677.418.653.99-.072 1.715-1.968 1.968-1.326 4.983.936 4.391 1.573-.411 2.33.204 3.398 2.761.756 1.81 1.983 3.657 2.727 4.105 1.131.681 1.134.545.016-.834-.735-.907-1.046-2.117-.692-2.69.354-.574-.057-2.043-.914-3.267-.857-1.223-1.558-3.044-1.558-4.047 0-1.003-1.105-2.927-2.455-4.277S588.52 34 589.045 34c1.684 0 1.048-2.557-3.394-13.645-5.047-12.597-7.585-14.597-9.408-7.415m-40.164 16.643c.048 1.165.285 1.402.604.605.289-.722.253-1.585-.079-1.917-.332-.332-.568.258-.525 1.312m-.884 4.917c.02 1.65.244 2.204.498 1.231.254-.973.237-2.323-.037-3-.274-.677-.481.119-.461 1.769m1.884.083c.048 1.165.285 1.402.604.605.289-.722.253-1.585-.079-1.917-.332-.332-.568.258-.525 1.312M547.5 37c.34.55.816 1 1.059 1s.441-.45.441-1-.477-1-1.059-1-.781.45-.441 1m-294.601 2.997c-.881.515-2.382 2.979-3.335 5.476-.954 2.497-2.153 4.281-2.665 3.964-.513-.316-.699-.952-.414-1.413.285-.461-.383-.602-1.484-.314-1.119.293-2.001.031-2.001-.593 0-.615-1.125-1.117-2.5-1.117s-2.5.45-2.5 1c0 1.62-2.988 1.142-3.125-.5-.069-.825-.181-2.062-.25-2.75-.165-1.654-5.663-1.814-6.289-.183-.268.699.244 2.388 1.138 3.752 1.242 1.897 1.327 2.581.36 2.903-.792.264.029 1.597 2.201 3.57 1.906 1.732 2.903 3.163 2.215 3.179-3.258.076.479 4.93 3.847 4.997.878.018 2.649.944 3.934 2.059 1.286 1.115 3.492 2.301 4.903 2.635 3.915.926 6.119 3.278 5.475 5.843-.371 1.48-.031 2.426 1.017 2.828 1.082.415 1.574.027 1.574-1.242 0-2.722 2.821-4.588 6.372-4.216 3.057.321 3.084.287 1.321-1.662-3.055-3.376-5.53-11.495-6.265-20.552-.727-8.954-.853-9.229-3.529-7.664M43.681 47.372c-2.3 5.299-2.084 6.811.415 2.908 1.134-1.771 1.883-4.021 1.664-5-.287-1.282-.869-.696-2.079 2.092M554.5 46c.34.55.816 1 1.059 1s.441-.45.441-1-.477-1-1.059-1-.781.45-.441 1M39.51 56.016c.346.559 1.047.758 1.559.441C42.456 55.6 42.198 55 40.441 55c-.857 0-1.276.457-.931 1.016m557.171 1.691c-.328.531-.246 2.272.181 3.871.772 2.886.783 2.889 1.41.49.672-2.57-.579-5.998-1.591-4.361m-558.599 2.62c-.78 1.468-1.11 2.978-.734 3.355 1.172 1.171 2.838-1.335 2.487-3.738-.331-2.262-.35-2.258-1.753.383m250.483 3.568c-.305.493.183 1.178 1.084 1.524 1.947.747 2.809.131 1.892-1.352-.804-1.301-2.228-1.383-2.976-.172M97.557 70.223c-.856 1.222-1.589 4.259-1.627 6.75-.041 2.634-.355 3.826-.75 2.851-.582-1.432-.944-1.482-2.499-.339-1.731 1.272-1.713 1.37.36 2.028 2.184.693 2.483 7.679.646 15.117-1.629 6.595-1.055 12.198 1.605 15.686 4.34 5.69 5.436 11.532 3.385 18.039-1.89 5.998-6.155 10.17-7.312 7.154-.37-.964-1.031-1.236-1.732-.711-1.909 1.432-9.192 1.443-10.327.016-.575-.723-1.597-3.114-2.272-5.314-2.787-9.092-4.881-11.5-9.999-11.5-6.247 0-7.095-4.415-1.035-5.384 2.2-.352 4.014-1.197 4.032-1.878.098-3.826 2.961-5.233 11.679-5.738 9.408-.545 11.08-1.681 6.045-4.108C67.947 93.34 62.938 92.55 58.224 98.23c-.795.958-4.191 1.431-11.427 1.593-8.427.189-10.789.589-13.007 2.204-3.381 2.462-3.859 2.455-8.233-.126-3.643-2.15-4.319-3.312-2.557-4.401 1.436-.888 1.235-4.501-.25-4.494-1.406.007-4.812 5.197-5.902 8.994-1.819 6.332-4.164 12-4.967 12-.484 0-.881.684-.881 1.52s-1.055 3.198-2.345 5.25c-1.289 2.051-3.427 6.43-4.75 9.73l-2.405 6-.26 93.885c-.199 71.696.022 94.226.936 95.327.94 1.132.888 1.638-.24 2.363-.942.605-.263.697 1.969.268 2.452-.472 3.206-.331 2.691.501-.393.636-1.587 1.156-2.655 1.156-1.068 0-1.941.45-1.941 1s.563 1.008 1.25 1.017c2.939.041 5.756 4.53 4.218 6.725-1.509 2.155.385 4.085 2.641 2.691 1.46-.903 3.866 5.746 2.8 7.737-1.295 2.42-1.233 2.515 2.091 3.18 1.785.357 3 1.228 3 2.15 0 .852 1.125 1.977 2.5 2.5 1.375.523 2.5 1.431 2.5 2.019 0 .588.563.996 1.25.906 3.244-.421 4.603.306 5.75 3.075 1.193 2.88 3 4.084 3 2 0-1.609 1.916-1.156 4.23 1 3.296 3.071 2.779 3.592 17.045-17.179 4.277-6.227 10.317-14.921 13.422-19.321 3.106-4.4 9.44-13.625 14.076-20.5 4.636-6.875 8.773-12.725 9.193-13 .924-.604 1.863-3.474 2.458-7.512 1.822-12.349 1.848-11.704-.423-10.489-1.149.615-3.686 3.342-5.639 6.06-1.952 2.717-3.957 4.941-4.456 4.941-.498 0-.906.689-.906 1.531 0 .843-.654 1.783-1.454 2.09-.8.307-2.364 1.98-3.477 3.718l-3.296 5.146c-.7 1.091-1.948 2.509-2.773 3.151-.825.641-2.386 2.836-3.468 4.877-1.082 2.041-3.468 5.348-5.303 7.349-1.834 2.001-4.317 5.604-5.519 8.007-1.201 2.403-3.764 6.011-5.697 8.018-1.932 2.007-5.765 6.192-8.517 9.3-4.913 5.548-9.658 8.051-11.593 6.116-2.275-2.275-3.727-21.688-2.278-30.45.551-3.333 12.037-18.07 19.76-25.353 1.167-1.1 5.999-6.5 10.739-12 4.739-5.5 9.8-11.261 11.247-12.802 1.446-1.54 2.629-3.17 2.629-3.62 0-.451 5.082-6.006 11.292-12.345 10.922-11.146 11.303-11.683 11.588-16.326.162-2.641 1.112-6.625 2.11-8.854 1.886-4.215 2.971-15.403 5.091-52.508.58-10.151 1.283-18.825 1.562-19.276.278-.451.484-5.871.456-12.045-.046-10.059.909-22.357 2.444-31.474.365-2.163 1.118-3.26 2.252-3.28 1.543-.028 1.533-.131-.106-1.084-1.042-.606-1.7-1.973-1.55-3.22.143-1.191-.344-3.268-1.082-4.615-.938-1.715-1.286-5.937-1.158-14.079.1-6.396-.275-12.831-.834-14.301-1.289-3.39-5.281-3.628-7.508-.448m500.475-.442c-.018 1.255.615 2.53 1.405 2.833a1.534 1.534 0 0 1 .893 1.969c-.299.779-.076 1.417.496 1.417 1.561 0 2.533-4.041 1.273-5.301-.604-.604-1.099-.698-1.099-.208s-.661.018-1.468-1.05c-1.43-1.89-1.469-1.881-1.5.34m-565.62 1.876C30.346 74.469 30.23 77 32.167 77c.55 0 .81-.562.579-1.25-.232-.687.229-1.73 1.025-2.316.796-.586 1.285-1.866 1.088-2.843-.301-1.488-.697-1.316-2.447 1.066m68.254 1.961c-.304 1.035-.827 4.132-1.164 6.882-.336 2.75-.82 6.013-1.076 7.25-.255 1.237-.006 2.25.555 2.25.56 0 1.019-.93 1.019-2.066 0-1.136.457-2.92 1.016-3.964 1.352-2.526 1.967-9.379.985-10.968-.575-.93-.929-.767-1.335.616M506 75.551c0 .96 6.832 3.449 9.468 3.449 1.393 0 2.532-.45 2.532-1s-1.323-1-2.941-1c-1.618 0-3.219-.45-3.559-1-.638-1.032-5.5-1.429-5.5-.449M27.667 79.667c-.965.965-.819 4.121.221 4.764.488.302 1.085-.797 1.327-2.441.422-2.877-.144-3.727-1.548-2.323m-2.588 9.916c.048 1.165.285 1.402.604.605.289-.722.253-1.585-.079-1.917-.332-.332-.568.258-.525 1.312M535 92c0 .55.675 1 1.5 1s1.5-.45 1.5-1-.675-1-1.5-1-1.5.45-1.5 1m-17.708 4.639c1.236.361 1.602 1.119 1.182 2.442-.356 1.124-.138 1.919.528 1.919 2.052 0 .619-4.467-1.502-4.682-1.635-.166-1.673-.108-.208.321M496.5 98c-.923 1.494.361 3 2.559 3 2.212 0 2.49-1.051.741-2.8-1.462-1.462-2.482-1.524-3.3-.2m14.973.044c-.904 1.462 1.397 3.956 3.649 3.956 2.381 0 2.36-.518-.122-3-2.295-2.295-2.642-2.389-3.527-.956m-359.249 5.415c-2.287 1.043-2.639 4.258-.415 3.791 1.619-.34 1.505 1.245-.19 2.652-2.068 1.715-4.038 15.906-2.696 19.413.592 1.548 1.077 4.33 1.077 6.182 0 2.6.684 3.854 3 5.503 3.635 2.588 3.836 4.732.561 5.977-3.561 1.354-4.368 3.823-2.95 9.023.705 2.583 1.262 3.542 1.309 2.25.044-1.238.527-2.25 1.074-2.25.546 0 .805 1.012.574 2.25-.231 1.238-.488 3.15-.573 4.25-.099 1.293-.345 1.518-.695.637-.434-1.092-.699-1.109-1.334-.082-.828 1.34 1.395 5.584 3.967 7.575 1.127.873 2.218.645 4.784-1 3.436-2.202 5.531-6.714 3.441-7.411-1.794-.598-1.365-2.217.592-2.234 1.384-.012 1.462-.198.372-.889-.758-.48-1.067-1.376-.687-1.991.381-.616.038-1.37-.761-1.677-1.743-.668-1.033-4.428.836-4.428 1.436 0 2.49-2.18 2.49-5.149 0-1.502-.467-1.838-1.916-1.378-1.054.335-2.173.191-2.489-.319-.315-.509.322-1.161 1.416-1.447 1.463-.382 1.989-1.367 1.989-3.72 0-2.358.375-3.057 1.424-2.655 1.231.473 1.231.087 0-2.861-1.811-4.333-1.793-5.471.084-5.471 1.127 0 1.272-.443.573-1.75-.514-.963-1.165-2.503-1.447-3.422-.281-.92-1.535-1.82-2.786-2-2.152-.31-3.736-3.778-4.033-8.828-.048-.825-.589-2.136-1.201-2.913-.831-1.053-.796-1.519.136-1.833 1.873-.63 1.515-1.859-1-3.428-1.673-1.045-2.833-1.139-4.526-.367m439.122 8.291c.344 3.162.909 6.987 1.256 8.5.53 2.311.304 2.75-1.418 2.75-2.504 0-4.042 3.845-2.041 5.102.746.469 2.103.62 3.015.337 1.138-.354 2.156.484 3.25 2.677 1.954 3.917 1.997 3.545-.487 4.194-3.588.939-2.161 5.119 1.879 5.507 3.395.326 5.743 3.604 4.641 6.477-.578 1.505 2.025 8.258 3.544 9.197.558.345 1.015 2.175 1.015 4.068 0 1.893.414 3.441.921 3.441.506 0 1.236 1.463 1.623 3.25.937 4.333 3.738 10.75 4.692 10.75.42 0 .764.805.764 1.788 0 2.444 3.042 10.64 6.243 16.818 3.069 5.925 2.773 9.394-.801 9.394-1.278 0-2.633.5-3.011 1.112-.971 1.57 1.615 3.014 4.506 2.515 3.27-.565 5.063.234 5.063 2.257 0 .919.618 2.559 1.372 3.643.755 1.085 1.691 3.436 2.08 5.223s1.065 3.25 1.502 3.25c.438 0 1.073 1.386 1.412 3.08.339 1.694 1.228 4.506 1.976 6.25.747 1.743 2.366 5.87 3.596 9.17 4.613 12.374 4.541 12.553 4.831-12.012.278-23.562-.481-29.205-4.481-33.309-.708-.727-1.288-2.1-1.288-3.05 0-.951-.422-2.156-.939-2.679-1.442-1.46-17.748-34.066-18.466-36.926-.348-1.388-1.075-2.524-1.614-2.524-.54 0-.981-.507-.981-1.126 0-1.447-15.09-31.758-17.684-35.521-1.082-1.569-2.55-4.316-3.263-6.103-2.076-5.207-3.409-3.975-2.707 2.5m-559.881-.638c-1.022 3.219 1.954 5.898 4.133 3.719 1.272-1.273 1.367-2.028.464-3.714-1.452-2.714-3.737-2.717-4.597-.005m111.57 4.346c-.704.848-1.941 1.542-2.75 1.542-.808 0-2.666.97-4.127 2.156-1.498 1.216-1.894 1.884-.908 1.532 1.423-.508 1.769-.024 1.85 2.593.055 1.771.417 4.344.806 5.719.677 2.393.731 2.409 1.275.374.426-1.597 1.224-2.055 3.204-1.837 3.314.364 4.501-1.695 4.214-7.308-.259-5.075-1.705-7.011-3.564-4.771m122.119 5.094c.191.98.951 1.984 1.692 2.23.86.287 1.22-.194 1-1.334-.191-.98-.951-1.984-1.692-2.23-.86-.287-1.22.194-1 1.334m-17.57 1.312c-1.356 2.194 3.478 9.264 6.118 8.947 4.719-.566 5.296-3.543 1.336-6.888-3.432-2.897-6.425-3.724-7.454-2.059M506 127c0 .55.477 1 1.059 1s.781-.45.441-1-.816-1-1.059-1-.441.45-.441 1m63.595.137c-1.972 6.276-1.417 8.499 1.815 7.259 2.023-.776 2.092-5.735.102-7.386-1.191-.989-1.574-.963-1.917.127M274 135c1.036 1.935 4 2.824 4 1.2 0-1.259-2.265-3.2-3.735-3.2-1.025 0-1.087.464-.265 2m-263.827 2.659c.195 1.013 1.023 1.841 1.841 1.841 2.143 0 1.834-2.906-.355-3.327-1.336-.257-1.743.15-1.486 1.486m225.859 4.163c.191 4.082 7.565 6.386 10.402 3.251 1.038-1.147 1.681-2.291 1.429-2.543-.769-.769-11.865-1.432-11.831-.708m166.047 1.761c.048 1.165.285 1.402.604.605.289-.722.253-1.585-.079-1.917-.332-.332-.568.258-.525 1.312m93.173 7.917c.011 2.2.216 2.982.455 1.738.239-1.244.23-3.044-.02-4s-.446.062-.435 2.262M117 153.924c0 .474.675 1.121 1.5 1.438.825.316 1.5.187 1.5-.286 0-.474-.675-1.121-1.5-1.438-.825-.316-1.5-.187-1.5.286m109.015 1.326c.025 3.684 1.461 5.098 4.42 4.356 5.242-1.316 3.994-6.606-1.557-6.606-2.322 0-2.875.434-2.863 2.25M88 160.494c0 1.173-.557 1.464-1.955 1.02-1.288-.409-5.034 1.018-10.982 4.183-8.64 4.597-10.712 6.303-7.657 6.303.945 0 1.625 1.722 2.072 5.25 1.296 10.207 1.971 10.595 9.747 5.605 3.514-2.254 5.495-4.447 7.003-7.75 1.156-2.533 2.677-5.288 3.381-6.122 2.127-2.522 2.226-9.375.141-9.785-1.096-.216-1.75.269-1.75 1.296m183.651 1.262c-1.332 2.156 2.349 5.318 4.658 4.002 2.621-1.494 2.393-1.457 11.191-1.801l7-.274-8.5-.679c-4.675-.374-9.688-1.014-11.141-1.423-1.452-.409-2.896-.33-3.208.175m328.032 8.275c-.62 5.232-.122 7.969 1.449 7.969 1.64 0 2.885-5.039 2.241-9.068-.893-5.588-2.972-4.969-3.69 1.099M277 171.959c0 .645.509 2.124 1.132 3.287 1.071 2.001 1.201 2.019 2.433.334.805-1.1 1.794-1.476 2.591-.984.708.438 3.024.671 5.146.518 2.506-.181 4.498.3 5.683 1.372 2.012 1.821 6.015.339 6.015-2.227 0-1.416-.371-1.469-11.5-1.638-4.4-.066-8.788-.507-9.75-.978-1.159-.568-1.75-.461-1.75.316m-42.771 3.229c.618 1.854 2.771 2.161 2.771.395 0-.87-.713-1.583-1.583-1.583-.871 0-1.406.534-1.188 1.188m4.039 3.115c.677 2.032 19.098 5.538 22.413 4.266 3.439-1.32-.759-3.024-7.96-3.232-3.973-.115-7.898-.423-8.722-.684-4.131-1.309-6.091-1.429-5.731-.35M606.5 178c-.34.55-.141 1 .441 1s1.059-.45 1.059-1-.198-1-.441-1-.719.45-1.059 1M280 181.87c0 3.738 1.736 5.342 4.298 3.97 1.195-.639 4.284-.806 7.722-.417 5.574.63 10.98-.642 10.98-2.584 0-.963-1.065-1.104-10-1.325-3.575-.088-7.962-.659-9.75-1.267-3.143-1.071-3.25-1.018-3.25 1.623m93.667-.203c-1.251 1.25-.668 2.135 2.729 4.139 2.628 1.551 3.544 2.878 4.049 5.87 1.004 5.938 9.555 8.413 9.555 2.765 0-1.343.481-2.441 1.068-2.441.588 0 .138-1.307-1-2.904-1.137-1.598-2.068-3.583-2.068-4.412 0-1.04-.827-1.417-2.664-1.215-1.465.16-4.151-.329-5.968-1.089-3.708-1.549-4.737-1.678-5.701-.713M343 194.5c0 1.375.45 2.5 1 2.5s1-1.125 1-2.5-.45-2.5-1-2.5-1 1.125-1 2.5m-56.383 1.056c-.707 1.841 2.079 3.148 3.558 1.669.72-.72.422-1.37-.968-2.114-1.571-.841-2.134-.744-2.59.445M147 202.5c0 .825.45 1.5 1 1.5s1-.675 1-1.5-.45-1.5-1-1.5-1 .675-1 1.5m-30 8.5c0 .55.477 1 1.059 1s.781-.45.441-1-.816-1-1.059-1-.441.45-.441 1m215.446 19.087c-.369.598-.171 1.588.441 2.2.612.612 1.113 1.923 1.113 2.913 0 2.228.451 2.237 4.096.084 4.614-2.725 4.027-6.284-1.037-6.284-2.168 0-4.243.489-4.613 1.087M243 231.929c0 2.432 6.48 9.409 8.209 8.84 3.976-1.31 1.528-7.017-4.002-9.327-4.325-1.807-4.207-1.821-4.207.487m145.633 6.584c-.351.917-.43 2.006-.175 2.419.418.677 1.981 8.536 2.997 15.068.763 4.906 3.726 11.548 6.469 14.5 1.533 1.65 3.063 3.788 3.4 4.75.337.962 1.372 1.75 2.3 1.75 1.57 0 1.572-.126.031-1.829-.91-1.006-1.655-2.3-1.655-2.877s-.675-1.609-1.5-2.294-1.5-2.315-1.5-3.622c0-1.308-.45-2.378-1-2.378s-1-.726-1-1.614c0-.888-1.164-6.4-2.586-12.25-2.669-10.976-4.565-14.79-5.781-11.623m109.23 30.958c-.82.82-.027 13.807.881 14.431.478.329 1.466 2.072 2.195 3.874.729 1.802 3.516 5.246 6.193 7.653 2.677 2.407 4.868 4.835 4.868 5.394 0 .56 1.301 1.304 2.892 1.653 2.246.494 2.778 1.069 2.383 2.58-.349 1.333 0 1.944 1.108 1.944.89 0 1.617.675 1.617 1.5s.45 1.5 1 1.5c1.436 0 1.185-15.039-.295-17.702-1.862-3.35-20.488-23.298-21.753-23.298-.34 0-.83.212-1.089.471m-396.784 8.112c.048 1.165.285 1.402.604.605.289-.722.253-1.585-.079-1.917-.332-.332-.568.258-.525 1.312m467.382 1.48c-.803 1.3 2.475 5.125 3.966 4.628 2.376-.792.663-5.691-1.99-5.691-.726 0-1.615.478-1.976 1.063m-153.009 6.343c-8.26 3.598-20.538 22.8-22.439 35.094-1.742 11.259-9.818 30.445-19.68 46.75-3.852 6.369-5.422 7.044-7.218 3.103-1.894-4.157-14.573-19.725-23.359-28.682-2.066-2.106-3.756-4.244-3.756-4.75 0-.507-.788-.957-1.75-1-1.056-.048-1.252-.28-.494-.585 1.618-.653.596-2.336-1.418-2.336-1.776 0-11.838-8.739-11.838-10.282 0-.565-.743-1.136-1.651-1.27-2.36-.346-7.869-4.606-7.251-5.607.286-.463-.337-.841-1.384-.841-2.055 0-5.214-2.925-5.214-4.829 0-.644-.567-1.171-1.26-1.171-.693 0-2.403-1.012-3.8-2.25-6.902-6.117-9.529-6.107-15.097.059-2.389 2.644-10.193 9.476-17.343 15.181-13.413 10.702-40.686 37.42-47.847 46.872l-4.063 5.362-2.326-2.862c-2.8-3.443-3.548-4.751-9.015-15.764-5.914-11.912-9.155-22.152-9.908-31.3-1.382-16.802-18.088-37.25-30.469-37.292-3.246-.012-4.377 2.826-2.102 5.273 2.53 2.722 8.577 14.848 14.573 29.221 5.427 13.01 10.07 20.988 12.407 21.32 1.418.201 2.25 1.011 2.25 2.191 0 1.029.45 2.149 1 2.489.55.34 1 1.422 1 2.404s.859 2.563 1.909 3.513c1.978 1.791 3.49 5.077 4.536 9.863.334 1.528 1.674 3.706 2.976 4.839 1.303 1.132 2.928 4.056 3.611 6.496.683 2.44 1.613 4.666 2.067 4.946.454.28.392 1.648-.137 3.04-2.508 6.595-.493 7.025 3.876.826 3.927-5.571 4.705-5.38 9.155 2.246 1.929 3.306 4.776 7.544 6.326 9.419a765.549 765.549 0 0 1 4.125 5.023c1.681 2.08 20.046 3.183 48.056 2.886 11-.117 31.025-.278 44.5-.357 24.755-.145 29-.753 29-4.149 0-.563 2.253-3.808 5.006-7.211 2.754-3.403 5.443-7.334 5.976-8.736 1.416-3.724 3.212-3.155 7.604 2.412 2.153 2.728 4.207 4.978 4.566 5 .692.042 2.885-5.556 2.399-6.125-1.67-1.959-1.371-7.649.427-8.119 1.367-.358 2.022-1.36 2.022-3.098 0-1.663 1.235-3.693 3.5-5.754 1.925-1.752 3.5-3.64 3.5-4.196 0-.556.731-1.818 1.625-2.806.893-.987 2.414-5.661 3.38-10.387 1.112-5.442 2.515-9.4 3.828-10.797 1.139-1.213 2.815-3.999 3.723-6.192a339.345 339.345 0 0 1 3.548-8.181c1.043-2.307 1.911-4.557 1.93-5 .019-.443.903-2.605 1.966-4.805 1.063-2.2 1.947-4.569 1.966-5.264.019-.695.455-2.045.97-3 .514-.955 1.698-3.311 2.63-5.236a656.442 656.442 0 0 1 3.702-7.487c3.792-7.531 3.984-9.519.912-9.474-1.474.022-4.052.637-5.728 1.367M29.25 291.72c-1.44.514-1.719 4.28-.317 4.28.914 0 2.579-3.873 1.908-4.438-.187-.159-.903-.087-1.591.158m-7.643 7.862c-1.145 2.983-.605 3.726 1.393 1.918 1.1-.995 2-2.19 2-2.655 0-1.498-2.766-.897-3.393.737m557.842 6.168c.397 2.613 1.09 7.45 1.54 10.75.801 5.871 3.51 18.707 4.499 21.313 1.147 3.024 2.512-.373 2.512-6.25 0-4.306-.463-6.702-1.453-7.524-.799-.663-1.475-2.406-1.502-3.873-.074-4.052-1.049-14.381-1.597-16.916-.318-1.472-1.218-2.25-2.603-2.25-1.96 0-2.063.352-1.396 4.75m11.566 4c.02 2.271 1.063 3.74 3.218 4.535 1.058.39 1.501 1.244 1.138 2.19-.327.853-.154 2.107.385 2.788.539.68 1.288 5.962 1.665 11.737.887 13.58 1.265 15 3.987 15 2.184 0 4.592-1.679 4.592-3.2 0-.44-.666-.8-1.481-.8-.814 0-1.775-1.238-2.134-2.75-.36-1.512-1.225-3.425-1.923-4.25-.698-.825-1.542-4.289-1.877-7.699-.335-3.409-.844-6.814-1.133-7.565-.289-.752.164-2.688 1.006-4.302 2.093-4.015 1.947-4.928-1.005-6.273-3.747-1.708-6.456-1.46-6.438.589m-579.42 11.983c-4.059 4.034-4.018 12.662.07 14.524 3.406 1.552 4.045.172 3.339-7.211-.567-5.938-1.905-8.807-3.409-7.313m491.622 17.034.401 9.266 4.191 3.651c2.305 2.008 4.191 4.196 4.191 4.861 0 .666.753 1.828 1.673 2.583 1.495 1.225 1.61 1.123 1.073-.957-.464-1.802-.259-2.198.909-1.75.83.318 1.868.579 2.307.579 1.016 0 10.038 13.27 10.038 14.764 0 .615.5 1.427 1.111 1.805 2.545 1.572-.328-9.871-3.76-14.981-4.848-7.219-14.611-20.006-19.916-26.088l-2.618-3 .4 9.267M88.473 342.5c-1.085 2.2-2.647 4.526-3.471 5.168-1.659 1.293-.887 2.574 1.798 2.984 2.268.346 4.446-4.491 3.989-8.862l-.343-3.29-1.973 4m-.942 10.793c-.428.986-.497 2.074-.155 2.417 1.016 1.015 1.835-.411 1.367-2.382-.414-1.747-.468-1.748-1.212-.035M24.5 357c.34.55 1.041 1 1.559 1s.941-.45.941-1-.702-1-1.559-1-1.281.45-.941 1m58.5.059c0 .582.45.781 1 .441s1-.816 1-1.059-.45-.441-1-.441-1 .477-1 1.059m-2.225 5.455c-2.457 2.888-2.714 4.486-.722 4.486.776 0 4.337-6.99 3.782-7.426-.184-.144-1.561 1.178-3.06 2.94m507.494 2.793c.566 1.702 3.731 2.108 3.731.479 0-.748-.929-1.43-2.064-1.516-1.202-.09-1.899.343-1.667 1.037m5.889 1.693c0 1.375.227 1.938.504 1.25.278-.687.278-1.812 0-2.5-.277-.687-.504-.125-.504 1.25m7.274-.184c-1.234.868-3.432 5.819-3.432 7.731 0 2.529 1.934 1.569 2.615-1.297.36-1.512 1.297-3.493 2.084-4.401 1.466-1.69.484-3.265-1.267-2.033M35 370c0 1.867.267 2.133 1.2 1.2.933-.933.933-1.467 0-2.4-.933-.933-1.2-.667-1.2 1.2m42.667-1.333c-.367.366-.653 1.379-.637 2.25.025 1.3.221 1.257 1.092-.242 1.077-1.852.765-3.228-.455-2.008m356.985 11.989c-.962 15.721-.883 17.344.848 17.344 1.262 0 1.5-2.222 1.5-14 0-16.52-1.418-18.54-2.348-3.344M34 374.75c0 .688 1.125 1.25 2.5 1.25 1.921 0 2.504.521 2.515 2.25.013 1.865.198 1.994 1.081.75.828-1.165.938-.911.495 1.136-.619 2.855 2.298 6.661 3.154 4.116.271-.806 1.367-1.026 3.088-.621 4.021.946 4.746 2.072 2.751 4.276-1.7 1.878-1.692 1.934.211 1.436 1.089-.284 2.282-.028 2.651.57.398.644-.142 1.087-1.328 1.087-1.1 0-2.308.498-2.684 1.107-.466.753.075.892 1.691.435 1.626-.461 1.947-.376 1.018.268-1.984 1.375-.654 4.443 3.901 8.999 2.176 2.176 3.956 4.459 3.956 5.073 0 .615.646 1.118 1.435 1.118.79 0 2.009 1.587 2.711 3.526.734 2.031 1.791 3.328 2.491 3.06.669-.257 1.755.181 2.412.973 1.575 1.898 2.971 1.775 5.701-.503 3.245-2.706 2.84-4.105-1-3.459-2.983.502-3.101.425-1.443-.927 1.7-1.387 1.507-1.78-3.25-6.612-5.554-5.642-5.945-6.967-3.22-10.904 2.975-4.298 3.246-5.899 1.094-6.462C63.909 386.164 63.065 381 65 381c.55 0 .983-.562.962-1.25-.022-.687-1.934.838-4.25 3.391-3.925 4.324-9.712 7.231-9.712 4.878 0-.56.498-1.019 1.106-1.019.608 0-2.024-3.038-5.848-6.75-6.843-6.642-13.258-9.303-13.258-5.5m38.367 1c-.369 1.512-2.004 4.041-3.635 5.619-2.252 2.181-2.647 3.065-1.646 3.684 1.558.963 2.914.318 2.914-1.384 0-.667 1.379-2.887 3.065-4.932 1.686-2.045 2.784-4.172 2.441-4.727-1.118-1.809-2.454-1.068-3.139 1.74M129.5 377c.34.55.816 1 1.059 1s.441-.45.441-1-.477-1-1.059-1-.781.45-.441 1m24.961 2.064c-1.021 1.651-5.74 20.132-5.857 22.936-.097 2.334.189 2.486 4.309 2.295 7.571-.353 7.461-.178 6.721-10.705-.874-12.427-2.92-18.172-5.173-14.526m-42.654 4.218c-3.55 2.908-12.77 20.088-11.475 21.383.947.947 18.127 1.659 22.091.915 4.605-.863 4.535-1.548-1.278-12.604-5.173-9.839-6.931-11.665-9.338-9.694m383.376 2.468c-2.789 5.498-4.568 12.394-3.385 13.125 1.526.943 10.936-.183 12.105-1.449.486-.526-.369-3.627-1.977-7.176-2.877-6.345-5.066-7.806-6.743-4.5m-99.783 4.016c-1.601 1.068-3.4 4.799-3.4 7.052 0 2.122 2.486 3.146 7.691 3.168 4.489.02 4.855-1.373 1.621-6.165-2.992-4.435-4.151-5.229-5.912-4.055m-334.941 1.479c-.978 2.551-.132 4.271 1.27 2.581.719-.866.82-1.938.268-2.832-.75-1.213-.991-1.174-1.538.251m3.62 16.338c.048 1.165.285 1.402.604.605.289-.722.253-1.585-.079-1.917-.332-.332-.568.258-.525 1.312M539.088 424.5c.015 2.75.4 6.8.855 9l.827 4 .212-3.5c.347-5.73-.109-11.399-1.044-13-.584-.999-.868.171-.85 3.5m-365.338 7.24c3.438.196 9.063.196 12.5 0 3.438-.195.625-.355-6.25-.355s-9.687.16-6.25.355m60.063-.057c.721.289 1.584.253 1.916-.079.332-.332-.258-.568-1.312-.525-1.165.048-1.402.285-.604.604M175.195 442.5c.02 1.65.244 2.204.498 1.231.254-.973.237-2.323-.037-3-.274-.677-.481.119-.461 1.769m365.381 1.25c.683 3.841 1.962 6.045 2.94 5.067 1.134-1.134-.774-8.817-2.189-8.817-1.09 0-1.264.867-.751 3.75M180 449c0 .55.45 1 1 1s1-.45 1-1-.45-1-1-1-1 .45-1 1" fill-rule="evenodd"/>
</svg>