<!DOCTYPE svg PUBLIC "-//W3C//DTD SVG 1.1//EN" "http://www.w3.org/Graphics/SVG/1.1/DTD/svg11.dtd">
<svg xmlns="http://www.w3.org/2000/svg" viewBox="0 0 540 295">
<path fill="#85715b" d="M210.849 5.285c-9.908 7.556-13.173 18.446-8.435 28.13C206.17 41.09 210.882 45 216.378 45c4.341 0 15.231-3.209 17.045-5.023 1.949-1.949 2.288-.792 2.947 10.07.369 6.076 1.08 13.163 1.579 15.75 2.268 11.755 2.196 13.95-.48 14.621-2.797.702-18.23 15.154-17.24 16.144.355.355 3.261-1.922 6.458-5.06 6.862-6.734 12.843-10.898 16.313-11.354 1.375-.181 8.575-2.037 16-4.126 67.128-18.878 117.54-21.983 170.611-10.509 13.988 3.024 21.224 4.352 27.364 5.02 14.623 1.591 52.869 12.388 72.983 20.604C540.724 95.534 540 95.332 540 93.945c0-3.252-37.163-15.465-70-23.004-69.005-15.843-106.341-18.195-156.5-9.858-13.819 2.297-52.606 11.712-63.467 15.406-4.054 1.379-7.585 2.292-7.847 2.03-.658-.658-2.068-12.503-3.354-28.173l-1.08-13.154 2.849-3.736c4.531-5.94 4.688-15.425.353-21.253-7.356-9.889-21.844-13.219-30.105-6.918m4.603-.926c-3.997 1.803-11.045 9.877-12.519 14.344C199.593 28.825 207.474 43 216.442 43c8.404 0 20.825-6.749 24.109-13.099 2.429-4.696.914-19.889-1.581-15.853-.409.662-1.516-.308-2.761-2.418-3.669-6.219-14.597-10.047-20.757-7.271M360 20.094c0 .737 1.628.87 5 .406 5.707-.785 6.075-.329 2.333 2.89-3.108 2.673-2.639 5.627.886 5.578 2.096-.029 2.141-.138.552-1.345-1.611-1.223-1.559-1.473.75-3.642C373.592 20.156 372.775 19 366 19c-3.676 0-6 .424-6 1.094m-88.25 22.068c-1.512.553-2.75 1.465-2.75 2.028 0 .566.782.721 1.75.347 4.994-1.932 7.609-1.911 6.789.054-1.3 3.117-1.826 6.409-1.024 6.409 1.709 0 7.748-4.412 6.575-4.803-.696-.232-1.766.079-2.378.691-1.789 1.789-2.872 1.28-1.747-.822 2.572-4.807-.376-6.402-7.215-3.904M212.123 52c-.413 18.147 3.676 110.132 4.955 111.45 1.153 1.188 1.149.046-.05-14.45-.523-6.325-1.452-28.825-2.064-50-.612-21.175-1.468-41.875-1.903-46l-.789-7.5-.149 6.5M361 71.724c0 .549 2.736 1.246 6.079 1.549 7.433.674 8.204 1.317 4.669 3.892-3.039 2.214-3.615 5.289-1.166 6.228C373.181 84.39 383 84.08 383 83c0-.556-2.667-1-6-1-7.019 0-7.246-.454-2.299-4.607l3.701-3.108-2.377-1.272C372.99 71.389 361 70.36 361 71.724m65.466 9.221c.358.58 2.425 1.055 4.593 1.055 4.723 0 4.94.885.941 3.842-1.65 1.22-3 2.871-3 3.669 0 1.868 4.787 3.102 6.273 1.616.836-.836.559-1.127-1.073-1.127-2.935 0-2.783-1.572.35-3.625 4.525-2.965 2.959-5.817-3.393-6.18-3.562-.204-5.126.046-4.691.75M276 100.935c-3.978 1.215-11.248 5.151-10.638 5.76.305.305 2.486-.229 4.847-1.187 5.474-2.224 9.791-3.501 9.791-2.898 0 .258-.927 2.286-2.059 4.507-2.721 5.332-2.276 8.287 1.309 8.699 1.512.174 2.75-.163 2.75-.75 0-.586-.9-1.066-2-1.066-2.602 0-2.523-1.034.536-7.071 3.373-6.657 2.297-8.08-4.536-5.994m173.75 8.245c-4.664 1.267-5.103 3.357-.5 2.381 11.268-2.391 11.835-2.003 5.75 3.939-2.2 2.148-4 4.474-4 5.168 0 2.441 8.127 4.84 12.598 3.718 4.389-1.102 2.484-2.386-3.539-2.386-7.587 0-8.144-1.078-3.007-5.822 6.966-6.432 3.353-9.894-7.302-6.998M355 111.723c0 .549 2.539 1.259 5.642 1.58 7.416.765 8.305 1.782 4.998 5.713-3.667 4.358-3.487 7.493.509 8.886 5.268 1.836 13.62 1.152 12.286-1.007-.304-.492-3.451-.895-6.994-.895-7.555 0-7.872-.66-3.3-6.877 2.821-3.836 2.985-4.426 1.607-5.803-1.782-1.783-14.748-3.187-14.748-1.597M249.101 135.04c-5.785 2.625-4.596 3.617 1.792 1.495 2.763-.917 6.453-1.526 8.201-1.351l3.178.316-4.136 5.221c-4.439 5.603-5.06 7.71-2.554 8.672 2.5.96 8.238.707 8.918-.393.367-.594-.803-1-2.882-1-4.88 0-5.002-.887-.924-6.738 2.114-3.033 3.327-5.765 2.971-6.694-.87-2.266-9.119-1.999-14.564.472m81.399 7.962c-12.352 1.857-17.9 5.479-22.196 14.486l-1.621 3.4-3.091-1.634c-4.76-2.515-36.387-3.02-51.594-.824-17.332 2.503-39.143 9.24-42.998 13.281-1.743 1.828-2.297 1.992 8.548-2.526 16.707-6.96 33.869-9.685 60.997-9.685 24.452 0 28.474.871 26.818 5.806-.404 1.207-1.696 5.462-2.869 9.457-1.174 3.995-2.409 6.989-2.744 6.654-.63-.631-8.591 4.392-12.434 7.845l-2.183 1.962-.662-3.527c-2.183-11.635-14.379-8.735-20.017 4.758-1.968 4.711-1.84 6.101.796 8.602 5.687 5.397 10.111 4.369 16.874-3.922 2.407-2.951 6.539-6.951 9.183-8.888l4.807-3.523-3.64 6.622c-4.389 7.985-4.287 8.838 2.607 21.807 2.729 5.133 4.499 9.487 3.934 9.675-1.994.665.141 2.172 3.076 2.172 1.635 0 4.646.76 6.691 1.689l3.718 1.69-6.168.56c-9.245.841-8.807 2.057.751 2.089l8.417.029 3.5 5.696c4.667 7.594 4.656 7.538 1.368 6.912-1.577-.3-6.268-.828-10.424-1.172l-7.556-.627-1.944-4.141c-1.069-2.278-2.446-4.29-3.06-4.472-.614-.182-.093 1.824 1.159 4.458 1.252 2.634 2.573 6.139 2.937 7.789l.661 3-3.821-3.632c-5.001-4.754-7.852-6.18-10.07-5.036-3.523 1.816-15.592 3.412-22.22 2.938-9.129-.653-20.098-5.996-26.437-12.878-4.927-5.348-5.578-5.456-13.497-2.246-1.871.759-3.578 1.205-3.792.992-.682-.682 6.064-5.87 8.933-6.87 2.861-.998 4.03-5.867 1.747-7.278-.559-.346-.789-.996-.511-1.446.793-1.283-1.769-2.924-6.051-3.875l-3.922-.872 3.846-.778c2.384-.482 5.369-.322 7.848.421 5.089 1.525 5.648.922 2.154-2.318l-2.783-2.581 3.782 1.044c3.752 1.036 3.84.993 11.15-5.549 6.203-5.553 7.354-7.075 7.281-9.632-.154-5.419-7.427-9.539-19.056-10.795-8.073-.873-8.167-.728-8.13 12.482.019 6.466.457 8.827 2.182 11.75l2.159 3.659-3.217-.007c-4.847-.01-18.716 2.254-18.716 3.055 0 .385 3.713.897 8.25 1.135 11.504.606 14.038 2.317 3.43 2.317-4.721 0-9.568.585-11.462 1.385-4.829 2.037-3.336 2.353 3.539.749 7.205-1.681 14.536-1.072 16.766 1.392 1.801 1.989 1.577 2.305-4.43 6.241-3.947 2.586-9.738 9.421-8.788 10.371.356.356 1.269.13 2.03-.501 1.802-1.496 12.844-5.292 13.496-4.64.276.277.047.503-.509.503-.557 0-3.894 1.897-7.417 4.215-7.236 4.762-11.009 5.787-32.03 8.696-23.499 3.253-32.153 5.876-42.504 12.883-3.87 2.619-9.961 5.27-17.871 7.777-8.458 2.681-19.124 7.424-36.131 16.066C70.646 291.216 64.252 295 68.032 295c1.271 0 3.021-.626 3.889-1.391 4.277-3.768 52.351-26.647 63.084-30.022 6.328-1.99 12.68-4.399 14.116-5.353a2515.01 2515.01 0 0 0 6.526-4.359c6.851-4.591 17.376-7.648 35.509-10.314 9.539-1.402 18.889-2.995 20.778-3.538 1.888-.544 3.545-.878 3.681-.742.926.927-12.166 12.719-14.122 12.719-2.593 0-7.493 5.151-7.493 7.877 0 2.234 1.924 4.123 4.2 4.123 1.388 0 1.8.795 1.8 3.477 0 6.888 10.033 9.009 10.813 2.286.279-2.402.529-2.567 2.254-1.489 3.439 2.148 5.424-.177 5.491-6.43.074-6.859 3.275-11.789 13.598-20.943l7.344-6.512 5.5 3.343c8.342 5.072 17.782 7.624 26.019 7.035l6.822-.489-4.67 5.64c-2.569 3.102-6.444 8.23-8.611 11.395-2.299 3.359-4.474 5.55-5.223 5.263-1.932-.741-7.337 4.277-7.337 6.813 0 3.838 5.672 6.569 7.5 3.611 1.244-2.013 2.291-.917 2.147 2.25-.129 2.863.188 3.288 2.668 3.573 3.22.369 7.685-2.156 7.685-4.346 0-.812.685-1.477 1.521-1.477 2.293 0 4.144-4.705 2.738-6.957-1.307-2.092 2.058-8.376 11.182-20.883l5.355-7.339 4.043 3.653c2.224 2.009 4.807 5.65 5.738 8.09.932 2.44 2.092 4.436 2.578 4.436.862 0 .654-1.474-1.321-9.351-.531-2.118-.764-4.052-.518-4.298.985-.985 19.616 1.601 23.273 3.23 7.608 3.39 10.954 4.389 14.744 4.404 10.825.042 43.056 11.304 46.546 16.263 2.103 2.986 12.81 7.618 19.316 8.354 3.193.361 5.805 1.034 5.805 1.496 0 5.624 12.333-13.213 15.94-24.348.865-2.669 1.788-3.75 3.203-3.75 2.393 0 5.857-1.734 5.857-2.933 0-.474-1.34-.796-2.978-.714l-2.979.147-.324-12.5c-.187-7.227-.831-13.425-1.526-14.693l-1.202-2.193-5.746 2.53c-3.16 1.392-6.467 3.177-7.35 3.967-2.688 2.406-4.438.664-5.758-5.729-1.542-7.462-4.04-12.882-5.938-12.882-.787 0-4.318 2.268-7.845 5.04-3.528 2.773-6.793 4.806-7.257 4.52-.464-.287-1.846 2.283-3.072 5.709-1.227 3.427-2.885 7.268-3.686 8.535-.801 1.268-2.286 6.668-3.299 12-1.013 5.333-1.919 8.346-2.012 6.696-.144-2.568-.285-2.712-.975-1-2.11 5.229-2.413-10.621-.373-19.5 2.496-10.862 16.687-26.28 27.085-29.429 5.568-1.686 7.86-1.727 16.534-.297 3.493.576 10.373 4.074 14.256 7.247l2.945 2.407-5.309.036c-5.405.037-6.644 1.946-1.382 2.13 1.48.052-.361.701-4.091 1.443-8.899 1.77-10.718 2.387-10.718 3.637 0 .586.765.74 1.75.352 6.331-2.487 21.557-4.424 23.589-3.001 2.369 1.659 8.129 2.041 7.161.475-.34-.55-1.728-1-3.084-1-1.672 0-2.755-.761-3.364-2.364-1.056-2.777-7.626-8.467-10.677-9.247-1.168-.298-2.621-1.633-3.228-2.966-.607-1.333-1.619-2.423-2.248-2.423-.814 0-.784.433.101 1.5 1.561 1.881 1.088 1.872-5.742-.113-3.27-.951-7.521-1.424-10.351-1.152l-4.801.461 1.431-2.768c1.599-3.091 7.451-8.122 14.909-12.815 6.935-4.365 12.182-4.201 27.607.864 38.666 12.697 68.425 36.565 74.455 59.716 3.195 12.266.732 36.923-4.977 49.834-1.971 4.456-2.142 5.473-.921 5.473 4.269 0 9.443-20.385 9.505-37.445.047-13.131-1.706-21.096-6.724-30.555l-3.448-6.5 2.123-1.737c3.122-2.554 9.46-3.969 16.093-3.594 3.599.204 5.712-.053 5.499-.669-.82-2.37-17.25-1.11-21.082 1.617l-3.616 2.573-8.73-8.715c-15.831-15.802-47.345-32.278-68.024-35.563-3.293-.523-4.622-1.315-5.699-3.398-1.701-3.29-8.037-9.014-9.977-9.014-.77 0 1.159 2.571 4.285 5.714l5.685 5.713-5.015 1.037c-9.27 1.915-24.485 14.284-24.485 19.904 0 2.978-2.739 1.688-3.396-1.599-.43-2.149-2.486-4.943-6.132-8.337-6.32-5.881-6.217-6.054 5.061-8.47 3.282-.703 6.417-1.71 6.967-2.237 1.543-1.479-8.125.163-14.079 2.391l-5.158 1.929-7.287-4.493c-13.492-8.318-30.103-11.329-38.737-7.021-2.947 1.47-3.191 1.426-5.614-.997-1.394-1.394-3.305-2.534-4.246-2.534-1.969 0-1.362.821 1.774 2.399 2.472 1.243 3.647 3.601 1.796 3.601-2.437 0-19.507 8.775-21.603 11.105-2.606 2.897-4.304 8.663-3.352 11.379.556 1.584.842 1.202 1.424-1.897 1.093-5.829 3.027-8.048 10.384-11.913 19.019-9.992 29.761-12.454 40.335-9.245 5.465 1.659 13.022 5.479 10.863 5.491-.825.005-2.625-.634-4-1.42-1.375-.786-4.075-1.41-6-1.386l-3.5.044 4.25 1.504c2.337.828 4.25 1.917 4.25 2.421 0 .505 1.125.917 2.5.917 3.107 0 3.345 1.971.25 2.076-1.77.06-1.515.342 1.19 1.319 2.962 1.07 5.48 3.605 3.581 3.605-3.846 0-10.621-3.51-10.162-5.264.473-1.808.126-1.938-3.95-1.479-3.973.448-4.404.303-3.893-1.308 1.802-5.678-24.427-1.382-33.016 5.407-1.789 1.414-1.815 1.584-.25 1.612 2.203.04 2.243 1.378.095 3.16-1.439 1.193-4.345 6.783-4.345 8.359 0 .303 1.176.256 2.613-.105l2.612-.655-1.727 2.636c-.951 1.45-1.335 2.637-.854 2.637s1.434-.895 2.116-1.988c1.652-2.645 14.145-8.704 16.99-8.24 3.018.492 2.836 1.591-.5 3.017l-2.75 1.176 3.133-.434c1.724-.239 4.424-.709 6-1.046 2.386-.509 2.57-.423 1.096.513-2.529 1.606-1.19 3.002 2.88 3.002 4.379 0 10.28 2.833 8.365 4.016-.926.572-.158 1.298 2.591 2.447 4.161 1.738 7.992 4.874 9.6 7.858.936 1.736.862 1.743-1.592.135-1.468-.962-2.573-1.222-2.573-.606 0 .594.821 1.519 1.824 2.056 1.003.537 2.371 2.803 3.04 5.035S373.56 219 374.147 219s.817-.652.511-1.449c-.372-.969-.076-1.265.893-.893.797.306 1.447.62 1.445.699-.003.079-1.118 3.293-2.479 7.143-1.361 3.85-2.484 8.673-2.496 10.719-.022 3.817-2.871 4.656-3.139.924-.065-.904-.404-.31-.754 1.319-1.566 7.307-19.303 12.719-34.002 10.375-3.871-.617-15.34-16.832-16.579-23.44-.853-4.547-2.547-3.372-2.547 1.768v4.047l-2.901-3.106c-1.596-1.708-3.846-3.106-5-3.106-2.935 0-2.633-1.09 1.382-4.982 3.779-3.663 5.491-7.659 5.704-13.317.077-2.04.557-3.36 1.1-3.025 1.053.651.422 12.636-.826 15.69-.663 1.625-.501 1.727 1.252.789 3.162-1.692 4.57-6.398 4.104-13.713-.432-6.797-2.753-10.661-3.815-6.354-.453 1.836-.672 1.738-2.307-1.03-1.839-3.114-4.382-4.296-3.327-1.546.518 1.349.266 1.349-2.343 0-1.664-.861-5.531-1.512-8.973-1.512-7.022 0-6.966.13-2.967-6.843 3.462-6.038 4.343-6.285 2.826-.791-.57 2.064-.835 4.289-.589 4.944.565 1.504.657 1.24 5.044-14.49 7.922-28.406 13.092-32.82 38.439-32.82 25.819 0 69.51 9.144 83.875 17.554 4.631 2.711 5.322 2.901 5.322 1.46 0-.542-2.769-2.383-6.154-4.092-21.719-10.963-72.91-20.144-94.346-16.92m109.14-.229c-.843 1.364 1.629 2.212 6.692 2.297 7.402.125 8.22 1.14 3.107 3.853-6.738 3.575-4.975 8.157 3.561 9.255 4.24.546 3.35-1.542-1.125-2.641-5.713-1.402-5.825-2.87-.415-5.413 7.562-3.555 5.385-6.42-5.887-7.744-3.206-.377-5.553-.222-5.933.393M96.116 145.58c-1.164 1.479-2.116 3.529-2.116 4.555 0 1.026-.486 1.865-1.079 1.865-2.141 0-14.522 5.3-19.093 8.172-9.568 6.013-19.437 30.09-18.658 45.516.355 7.035.262 7.416-1.945 7.97-1.275.32-2.469.416-2.653.212-1.495-1.652-6.575-13.29-6.587-15.091-.033-4.857-1-5.203-15.179-5.435-7.318-.119-16.131-.508-19.584-.863-3.452-.355-6.175-.271-6.051.186.124.458-.134 1.891-.572 3.184-.453 1.334-.382 2.766.164 3.312.616.616 1.193-.194 1.605-2.251l.642-3.213 9.745.645c5.36.355 12.699.648 16.309.651l6.564.005-.437 6.036c-.322 4.454-.04 6.484 1.077 7.75.833.943 3.776 6.245 6.541 11.782l5.027 10.068-13.049-2.792c-18.508-3.961-18.514-3.964-9.696-5.473 7.957-1.362 13.53-3.084 12.692-3.921-.272-.272-3.371.184-6.888 1.013-11.873 2.799-13.044 2.468-15.724-4.444-1.276-3.289-3.224-7.002-4.329-8.25-2.337-2.639-2.16-2.012 2.505 8.866 2.894 6.747 3.194 8.058 1.76 7.683-.953-.249-2.203-2.108-2.784-4.135-.579-2.026-2.234-6.271-3.676-9.433L8.025 204l2.238.001c1.23.001 6.062.676 10.737 1.499 9.97 1.756 10.289 1.776 9.565.605-.519-.839-11.951-3.138-22.922-4.608-3.36-.451-4.651-.32-4.191.426.366.592 1.314 1.077 2.107 1.077.793 0 1.441.787 1.442 1.75 0 .963 1.297 4.49 2.882 7.84 4.516 9.546 4.782 10.817 2.119 10.121-2.047-.535-2.173-.325-1.56 2.603 1.628 7.785 4.557 29.767 5.074 38.077.887 14.284 2.636 28.965 3.645 30.609 2.244 3.656-4.717-60.929-7.316-67.871-.795-2.123-.65-2.315 1.384-1.843l18.271 4.238c8.8 2.04 17.625 4.108 19.612 4.594 3.601.882 3.614.905 4.295 7.554 1.064 10.378 2.531 35.874 2.637 45.828.065 6.032.383 8.34.965 7 .901-2.076.812-5.121-1.166-39.889-1.074-18.863-1.367-20.935-3.025-21.369-3.423-.895-13.15-20.676-12.312-25.038l.712-3.704 5.415 11c5.678 11.536 7.975 15.225 8.904 14.297.306-.307-1.052-3.484-3.017-7.06l-3.574-6.502 3.138-.461c2.338-.343 3.719.12 5.412 1.813 4.51 4.51 23.138 6.395 44.407 4.494 6.821-.61 12.533-.978 12.693-.819.16.16-11.047 2.262-24.903 4.672-25.731 4.474-35.793 6.773-30.494 6.967 1.485.055 7.335-.779 13-1.853 5.666-1.073 19.624-3.548 31.018-5.499C139.503 218.677 190 206.344 190 203.841c0-1.227-1.036-1.065-7.559 1.179-7.807 2.686-50.949 13.137-53.394 12.935-.301-.025 5.149-2.208 12.111-4.851 14.038-5.33 20.739-8.886 23.603-12.527 1.864-2.37 2.086-2.402 9.823-1.433 4.354.545 10.509.848 13.679.674 4.242-.234 5.638.006 5.29.909-2.812 7.298-2.85 28.233-.063 34.904 2.041 4.885 3.547 4.142 1.786-.881-1.16-3.307-1.37-7.246-.944-17.75.618-15.272 2.103-21.789 7.687-33.75 2.118-4.537 3.493-8.25 3.055-8.25-1.129 0-6.87 11.039-8.978 17.262-1.496 4.417-2.201 5.289-4.494 5.56-2.642.313-2.7.213-2.019-3.5 2.556-13.945 5.258-22.445 7.918-24.91 1.916-1.776 2.57-2.039 2.114-.851-2.709 7.058-7.67 29.827-6.173 28.33.781-.781 7.367-27.214 8.07-32.391l.68-5-3.346 4.99c-1.84 2.745-4.133 5.14-5.096 5.324-2.991.569-2.008-2.965 1.953-7.022 2.037-2.086 3.177-3.792 2.533-3.792-1.421 0-8.236 6.669-8.236 8.059 0 .546-1.324.307-2.943-.53s-3.173-1.15-3.455-.695c-.69 1.117-26.226-3.03-27.674-4.494-1.28-1.294 1.406-6.871 3.742-7.767.701-.269 7.25.428 14.552 1.548 14.276 2.19 32.316 3.614 23.778 1.876-2.475-.504-11.25-1.862-19.5-3.019-8.25-1.156-15.791-2.331-16.757-2.61-4.221-1.219-10.389 9.879-6.743 12.132 1.069.66 1.407 4.5.397 4.5-.332 0-2.739-1.921-5.35-4.268-8.875-7.979-23.899-13.696-36.191-13.771-6.053-.036-6.452-.191-8.37-3.25-2.702-4.31-6.508-4.77-9.37-1.131m2.384-.385c-3.627 2.056-3.671 5.655-.1 8.04 4.063 2.713 7.952-2.522 5.104-6.87-1.746-2.664-2.187-2.767-5.004-1.17m7.746 7.782c-1.791 2.869-5.603 3.516-8.976 1.523-2.762-1.631-3.119-1.583-11.097 1.494-15.037 5.799-22.138 14.82-27.179 34.531-6.231 24.363-1.707 28.954 28.506 28.925 23.541-.022 33.698-1.516 50.532-7.431 25.899-9.102 28.168-11.474 24.49-25.594-5.027-19.303-23.51-32.572-48.53-34.841-5.769-.523-6.648-.365-7.746 1.393m51.361 13.605c-.98 2.554-.713 4.326 1.059 7.031l1.666 2.542 1.796-4.734c.989-2.603 1.562-5.113 1.276-5.577-.902-1.459-5.162-.917-5.797.738m7.102 2.598c-2.144 5.168-2.755 9.622-1.657 12.075.552 1.235 1.592 5.17 2.31 8.745l1.307 6.5 4.915.662c12.038 1.623 16.416 1.113 16.417-1.912.001-1.512 1.126-7.391 2.5-13.064 2.944-12.15 2.851-11.186 1.082-11.186-.779 0-1.566-.445-1.75-.989-.183-.543-2.583-1.207-5.333-1.474-5.497-.533-11.526-1.363-15.707-2.161-2.328-.444-2.9-.051-4.084 2.804m98.807 5.912c-2.442 2.251-4.682 4.951-4.978 6L257.433 185c-.312 1.1-.159 2 .341 2s1.427-1.727 2.059-3.837c.632-2.111 1.991-4.599 3.019-5.529 1.819-1.646 1.833-1.548.509 3.555-1.568 6.045-1.725 8.811-.5 8.811.473 0 1.132-2.296 1.465-5.102.332-2.807 1.764-7.082 3.181-9.5 3.224-5.501 1.766-5.613-3.991-.306m-17.016.564c2.75 1.409 6.238 3.722 7.75 5.14 3.099 2.905 3.83 1.284.791-1.755-2.524-2.524-9.445-6.054-11.751-5.994-.985.025.46 1.199 3.21 2.609m2.933 8.235c.713 1.154 4.567 3.483 4.567 2.759 0-.231-1.18-1.193-2.623-2.139-1.443-.945-2.318-1.224-1.944-.62m23.98-.126c-1.576 1.066-6.071 9.281-6.799 12.425-1.397 6.039 7.241 7.872 11.564 2.454 6.35-7.959 2.551-19.825-4.765-14.879M372 185.384c0 .827 1.35 2.3 3 3.275 1.65.975 3 2.195 3 2.712 0 .516-.867.155-1.926-.804-1.059-.958-2.746-1.575-3.75-1.37-1.567.32-1.444.625.877 2.17 5.328 3.548 9.184-.255 4.049-3.993-4.603-3.351-5.25-3.596-5.25-1.99m-130.314 6.363c-1.183 2.044.803 4.112 2.647 2.758 1.763-1.296 1.756-1.387-.19-2.428-1.112-.595-2.218-.744-2.457-.33m-202.019 4.92c-.991.99-.808 9.128.219 9.763 1.078.666 2.082-2.768 2.1-7.18.013-3.087-.852-4.051-2.319-2.583M268 198c.825.533 1.95.969 2.5.969s.325-.436-.5-.969c-.825-.533-1.95-.969-2.5-.969s-.325.436.5.969m35.75 8.689c-.962.252-1.75 1.325-1.75 2.384 0 2.698 1.463 2.4 2.818-.573.627-1.375 1.036-2.448.911-2.384-.126.064-1.017.322-1.979.573m21.25 2.254c0 4.36 7.323 6.567 10.423 3.142 1.686-1.863 1.623-1.901-2.261-1.38-3.323.446-4.217.18-5.319-1.585-1.653-2.646-2.843-2.72-2.843-.177m73.401 1.842c-6.607 5.234-7.22 6.101-8.913 12.6-.805 3.092-2.659 7.428-4.119 9.634-2.442 3.69-2.61 4.593-2.086 11.247 1.595 20.276 8.314 27.66 26.728 29.372l6.578.611 3.093-5.875c6.18-11.733 7.814-17.809 5.884-21.876-1.634-3.444-1.374-7.498.482-7.498.503 0 1.233 1.238 1.623 2.75l.71 2.75.814-3.5c.76-3.266.111-18.604-.856-20.232-.24-.403-2.188.427-4.329 1.844-2.142 1.418-4.302 2.326-4.799 2.018-2.972-1.836-11.151 11.043-11.189 17.62-.026 4.349-1.203 4.843-2.861 1.203-2.187-4.798-.946-11.951 3.073-17.721 1.926-2.765 1.925-2.777-.834-10-3.647-9.551-3.375-9.401-8.999-4.947M243 210.309c0 5.475 6.143 7.793 11.446 4.319 2.911-1.908 3.529-4.271.804-3.073-4.89 2.148-9.139 1.735-9.814-.954-.809-3.222-2.436-3.417-2.436-.292M299.086 209c-.031.825.381 2.175.914 3 1.181 1.828 1.181.249 0-2.5-.567-1.319-.878-1.489-.914-.5m5.581 2.667c-.367.366-.667 1.131-.667 1.7 0 .626.466.567 1.183-.15.651-.651.951-1.416.667-1.7-.284-.285-.817-.217-1.183.15M352 216.974c0 4.914 11.721 8.803 13.393 4.444.897-2.337.894-2.339-2.873-1.728-2.98.484-3.899.116-6.401-2.562-3.618-3.874-4.119-3.893-4.119-.154m-81 .352c0 5.731 8.301 9.12 13.863 5.659 3.984-2.48 3.726-3.411-.503-1.815-4.173 1.576-8.176.317-10.177-3.2-2.025-3.559-3.183-3.794-3.183-.644m179-1.549c0 .428.689 1.762 1.531 2.964 3.328 4.751 6.469 15.247 6.445 21.532-.044 11.179-5.02 28.413-8.596 29.773-1.202.457-2.509 1.353-2.904 1.992-.992 1.606-12.503 8.962-14.023 8.962-1.944 0 1.617-6.197 5.612-9.766 1.888-1.688 3.09-3.413 2.669-3.833-.42-.42-2.22.626-3.999 2.325-4.563 4.357-14.92 9.497-19.842 9.847-2.29.163-4.591.725-5.115 1.249-1.869 1.869.955 2.104 6.462.538 6.252-1.779 4.278-2.524 23.366 8.822 4.459 2.65 9.184 4.813 10.5 4.806 1.675-.008-.714-1.862-7.959-6.175l-10.354-6.164 3.854-1.94c2.119-1.067 4.753-2.745 5.853-3.729 1.1-.984 3.575-2.636 5.5-3.671 3.85-2.07 8.396-9.969 9.531-16.559.923-5.368 2.389-4.832 11.992 4.388 8.88 8.525 11.334 9.389 4.449 1.567-3.071-3.489-10.792-9.902-14.729-12.233-.141-.084.021-1.544.362-3.245.683-3.417 4.779-5.418 25.895-12.65 5.5-1.884 9.013-3.459 7.807-3.501-2.714-.094-18.706 5.196-26.878 8.891l-6.072 2.746-1.087-6.347c-1.463-8.538-10.27-26.194-10.27-20.589m-230.25 2.789c-4.152 2.161-6.889 4.585-3.5 3.1.688-.301 3.95-1.689 7.25-3.083 4.122-1.742 5.217-2.528 3.5-2.513-1.375.013-4.637 1.136-7.25 2.496m-99.937 1.117c.721.289 1.584.253 1.916-.079.332-.332-.258-.568-1.312-.525-1.165.048-1.402.285-.604.604m125.222 4.251c-2.279 4.259.219 10.875 2.89 7.656 2.311-2.784 8.477-2.044 11.737 1.41 1.557 1.65 3.353 3 3.991 3 .667 0 .938.849.637 2-.765 2.926.756 2.464 5.5-1.668 4.016-3.498 5.426-6.332 3.151-6.332-.582 0-.8.419-.483.932.745 1.206-3.341 4.068-5.809 4.068-1.049 0-3.65-1.575-5.781-3.5-3.451-3.118-4.482-3.5-9.45-3.5h-5.577l.659-3c.751-3.418.062-3.919-1.465-1.066m163.054 5.382c-1.149 2.373-2.085 5.411-2.079 6.75.007 1.836.596 1.175 2.397-2.693 1.313-2.821 2.891-5.439 3.507-5.82 1.185-.732.555-2.553-.884-2.553-.468 0-1.792 1.942-2.941 4.316m-14.548-1.139c-.384.923-.551 2.723-.37 4 .457 3.224 8.088 3.508 8.662.323.292-1.618.113-1.761-.936-.75-2.143 2.065-3.814 1.432-5.274-2-1.11-2.609-1.521-2.919-2.082-1.573m-377.112 3.395c1.43 5.698 3.504 22.561 4.051 32.928.795 15.095 2.583 29.421 3.763 30.15.62.383.755-1.277.368-4.522-1.991-16.699-1.994-15.403.032-14.321 3.038 1.623 23.433 7.334 24.691 6.915 2.268-.756-10.22-5.066-23.456-8.096-2.964-.678-3.865-3.452-3.898-12.001-.019-5.2-2.287-24.019-3.454-28.666l-.638-2.54 15.806 5.159 15.806 5.16.682 3.881c.375 2.135 1.008 14.119 1.407 26.631.822 25.791 2.411 30.637 2.411 7.356C54 256.59 52.106 239 49.629 239c-.733 0-8.397-2.25-17.03-5-18.417-5.866-16.979-5.65-16.17-2.428m211.828 1.416c-3.285 2.193-10.041 7.818-15.015 12.5-4.973 4.681-9.909 8.512-10.968 8.512-2.644 0-6.689 4.475-5.901 6.529.472 1.23 1.359 1.469 3.618.973l2.992-.657-.614 4.477c-.527 3.845-.324 4.632 1.436 5.574 2.81 1.503 5.195.37 5.195-2.468 0-2.942 3.716-5.331 4.622-2.971 1.492 3.888 3.663 1.598 3.088-3.257-.949-8.014 3.537-14.913 16.782-25.806 4.397-3.616 4.83-4.302 3.628-5.75-1.863-2.244-2.079-2.187-8.863 2.344m104.811.062c-.126 4.739 4.152 6.574 7.277 3.121 2.478-2.738 1.995-3.839-.61-1.391-2.506 2.353-3.719 1.956-5.445-1.78l-1.155-2.5-.067 2.55m-46.562 9.085c-4.945 1.158-8.94 4.989-18.006 17.27-5.107 6.918-7.602 9.497-9.227 9.539-2.429.061-5.838 4.332-4.8 6.012.821 1.329 4.214 1.359 5.027.044.34-.55 1.542-1 2.67-1 1.804 0 1.973.424 1.396 3.5-.599 3.192-.45 3.5 1.689 3.5 2.772 0 4.745-1.718 4.745-4.13 0-1.031.906-1.86 2.24-2.05 2.592-.37 3.625-3.49 1.32-3.986-1.997-.429 3.617-11.757 9.774-19.723a5983.42 5983.42 0 0 1 5.999-7.75c1.009-1.299 1.684-2.316 1.5-2.261-.183.056-2.13.521-4.327 1.035m72.648 6.958c-5.199 2.547-5.268 2.634-2.5 3.193 1.565.316 3.522.836 4.348 1.156 1.075.416 1.834-.483 2.676-3.171.646-2.064 1.095-3.762.998-3.774-.097-.013-2.582 1.156-5.522 2.596m20.026 5.288c.242 4.421.795 6.188 2.26 7.214 2.83 1.983 2.89 1.322.519-5.728-2.795-8.313-3.164-8.51-2.779-1.486M445.5 250c-.34.55.323 1 1.472 1 3.111 0 3.499 2.502 1.012 6.526-2.733 4.422-6.333 6.878-9.043 6.169-1.307-.342-1.913-.111-1.665.634 1.96 5.887 14.724-3.024 14.724-10.279 0-4.129-4.657-7.031-6.5-4.05m-222.324 1.87c-.762.483 6.239 1.126 16.5 1.516 9.803.373 19.737.936 22.074 1.251 2.484.335 4.25.168 4.25-.401 0-2.386-39.362-4.561-42.824-2.366m-53.553 2.733c-13.084 2.479-18.726 4.306-13.483 4.367 1.452.016 6.942-.855 12.2-1.937 5.257-1.082 12.52-2.27 16.138-2.641 3.618-.371 6.817-1.061 7.109-1.533.944-1.527-8.768-.756-21.964 1.744m228.127-1.032c-1.156 1.175-.888 4.891.45 6.229 1.894 1.894 5.616 1.413 6.846-.886 1.374-2.566.697-3.515-1.026-1.438-2.217 2.671-4.858 1.874-5.207-1.572-.172-1.702-.65-2.752-1.063-2.333m42.693 2.847c-1.067.78-1.614 1.744-1.216 2.143.399.398 1.523.105 2.499-.651 1.486-1.152 1.464-1.012-.137.863-2.701 3.166-1.429 3.734 1.754.785 4.342-4.024 1.91-6.657-2.9-3.14M284 257.885c.825.454 4.875 1.358 9 2.009 9.179 1.45 47.365 10.09 62.837 14.218 16.164 4.313 32.922 10.258 45.084 15.995 5.78 2.726 11.2 4.786 12.044 4.576 4.185-1.037-31.428-15.672-51.565-21.191-35.13-9.628-84.71-19.625-77.4-15.607m-250.44 7.049c-3.816.937-7.132 2.282-7.368 2.99-.282.845.211 1.11 1.44.773 1.027-.282 5.131-1.278 9.118-2.213s7.25-2.101 7.25-2.592c0-1.2-2.207-.98-10.44 1.042m395.169 12.158c-.974.567-1.51 1.453-1.191 1.969.934 1.511 2.312 1.089 3.462-1.061 1.176-2.198.446-2.49-2.271-.908" fill-rule="evenodd"/>
</svg>