<?xml version="1.0" encoding="UTF-8"?>
<!DOCTYPE svg PUBLIC "-//W3C//DTD SVG 1.1//EN" "http://www.w3.org/Graphics/SVG/1.1/DTD/svg11.dtd">
<!-- Creator: CorelDRAW 2017 -->
<svg xmlns="http://www.w3.org/2000/svg" xml:space="preserve" width="22.86mm" height="8.3818mm" version="1.1" style="shape-rendering:geometricPrecision; text-rendering:geometricPrecision; image-rendering:optimizeQuality; fill-rule:evenodd; clip-rule:evenodd"
viewBox="0 0 2286 838.18"
 xmlns:xlink="http://www.w3.org/1999/xlink">
 <defs>
  <style type="text/css">
   <![CDATA[
    .fil1 {fill:#115290}
    .fil3 {fill:#1E366C}
    .fil5 {fill:#3267B1}
    .fil0 {fill:#7D8468}
    .fil2 {fill:#C7A008}
    .fil4 {fill:#FECA05}
   ]]>
  </style>
 </defs>
 <g id="Capa_x0020_1">
  <metadata id="CorelCorpID_0Corel-Layer"/>
  <path class="fil0" d="M379.67 374.33c11.9,0.32 18.22,4.58 23.73,12.02 7.08,9.54 4.77,18.89 5.38,33.9l-0.89 5.15c0.6,-0.47 5.64,-2.51 6.52,-2.94 4.07,-11.64 13.94,-30.24 4.16,-46.69 -7.78,-13.1 -24.12,-16.19 -43.42,-14.57l4.52 13.13z"/>
  <path class="fil0" d="M1171.12 335.3c17.61,-4.67 19.46,-3.85 38.44,-1.58 5.34,-3.51 2.24,-0.81 6.47,-5.92 1.8,-2.17 2.25,-3.34 4.04,-5.45 -18.22,-8.96 -43.06,0.88 -48.95,12.95z"/>
  <path class="fil1" d="M103.29 482.22c7.27,-2.41 12.63,-4.33 19.86,-7.68 6.9,-3.2 10.5,-5.37 19.15,-6.09 1.42,6.1 14.76,36.9 18.36,42.24l38.59 -6.73c0.24,-0.11 0.87,-0.37 1.11,-0.47 2.19,-0.92 -0.07,-0.58 3.71,-1.37 -2.03,-10.96 -26.66,-63.61 -31.94,-69.85 -9.52,4.21 -29.43,12.94 -38.27,18.6 -8.13,5.22 -21.08,21.97 -30.57,31.35z"/>
  <path class="fil1" d="M47.78 385.81c-0.85,6.25 -0.88,2.27 1.61,7.91l30.54 50.34c4.28,4.07 -2.29,-0.84 4.98,3.73l17.41 -11.6c0.18,-0.08 0.78,-0.27 0.95,-0.35l13.19 -13.3 -34.09 -58.56c-3.32,1.09 -4.81,2.5 -4.92,2.55 -3.92,2.09 1.81,-0.08 -4.33,2.37 -9.18,3.66 -12.39,-0.52 -19.88,6.55l-1.52 1.81c-0.22,0.2 -0.74,0.74 -0.94,0.93 -0.22,0.21 -0.92,0.79 -1.12,0.96l-1.88 6.66z"/>
  <path class="fil1" d="M1829.26 319.23c-3.98,-1.58 -0.9,-2.8 -9.27,-2.35 -16.63,0.89 -3.98,-2.08 -9.1,4.64 17.57,-0.32 20.72,-6.1 39.2,-1.8l18.04 -12.31 0.74 -61c-13.58,-4.88 -31.5,7.26 -35.5,-2.01l-2.96 72.59c-0.17,-0.32 -0.57,1.63 -1.15,2.24z"/>
  <path class="fil1" d="M656.4 293.98c-3.67,9.51 -2.28,17.03 -2.28,27.92l2.7 0 0.13 -10.09 35.12 -3.06c0.63,-12.55 3.78,-50.85 -2.07,-59.32l-1.01 9.22c-14.28,0.33 -23.72,4.49 -35.12,2.57l2.53 32.76z"/>
  <path class="fil1" d="M1161.36 101.13l6.3 -1.95 5.17 8.93 25 -25.54c7.98,-9.38 16.87,-17.84 23.14,-28.26 -5.68,-5.7 -0.53,-7.04 -11.41,-8.27 -6.05,0.38 -31.02,31.66 -35.76,37.7 -3.17,4.03 -3.28,4 -6.15,7.47 -5.64,6.82 -2.54,0.71 -6.29,9.92z"/>
  <path class="fil2" d="M1586.29 212.85c12.58,-3.99 41.24,-3 54.76,-1.11l28.85 180.24c2.69,21.27 -12.88,17.24 -30.57,58.62 -29.8,69.77 -14.07,146.39 47.78,187.57 7.2,4.79 17.59,7.44 22.35,14.85l21.57 3.2c-3.65,-38.69 -3.66,-17.17 -36.24,-44.08 -68.08,-56.22 -66.51,-150.93 -11.9,-221.26 9.35,-12.05 5.96,-12.18 3.18,-29.68 -5.56,-34.99 -20.11,-151.72 -26.65,-167.93 -75.72,-0.95 -69.63,-7.85 -73.13,19.58z"/>
  <path class="fil2" d="M91.64 296.01c19.56,-8.85 39.46,-20.64 61.83,-29.87 74.06,-30.55 158.11,-47.44 238.9,-29.45 66.75,14.86 130.51,77.13 113.45,159.09 -6.51,31.27 -17.21,43.21 -27.66,67.33 13.55,-6.56 31.87,-44.41 38.84,-62.98 10.18,-27.14 13.75,-58.84 4.14,-87.86 -14.69,-44.39 -60.15,-82.51 -110.51,-94.07 -99.33,-22.82 -199.91,8.15 -286.96,52.5 -10.88,5.54 -24.67,15.03 -34.55,18.78l2.52 6.53z"/>
  <path class="fil2" d="M1165.54 631.59l17.64 8.99c1.83,-107.17 5.79,-82.28 -29.71,-90.88 -33.26,-8.05 -59.66,-23.61 -79.2,-42.3 -54.36,-51.98 -5.11,-31.52 -66.12,-55.59 -24.74,-9.76 -63.84,-28.27 -87.12,-34.04 -5.09,4.61 -13.51,11.87 -16.95,18.47 28.98,8.9 72.15,28.7 103.84,41.03 26.93,10.47 10.76,10.73 41.95,42.99 17.13,17.72 39.77,33.63 71.03,43.74 9.82,3.19 41.39,5.97 43.83,13.06 1.54,4.46 -0.06,44.95 0.81,54.53z"/>
  <path class="fil2" d="M1904.58 277.98l1.5 -15.5 115.54 25.61c4.61,6.39 42.64,191.21 46.01,213.38 8.7,-3.93 16.22,-10.48 21.08,-21.68 -7.7,-6.01 -11.09,-38.18 -13.78,-50.52 -5.47,-25.06 -30.53,-154.29 -35.02,-159.46l-65.44 -15.66c-22.61,-4.55 -46.44,-10.27 -69.43,-13.51 -0.52,11.32 -4.2,28.5 -0.46,37.34z"/>
  <path class="fil2" d="M2128.04 313.79c15.73,-3.5 69.22,14.29 89.82,16.88 -2.86,15.82 -107.51,327.29 -120.99,368.68 -2.96,9.06 -5.61,17.06 -8.55,25.9 -6.07,18.31 -3.41,19.34 -11.16,23.1l14.18 4.72 144.8 -440.48 -102.53 -21.9 -5.57 23.1z"/>
  <path class="fil2" d="M567.61 428.75c28.54,-14.6 46.01,-27.72 86.51,-27.78 66.01,-0.11 113.48,47.25 113.34,113.39 -0.09,41.06 -13.6,57.36 -27.73,86.49 34.36,-19.36 74.89,-126.31 14.53,-186.64 -59.95,-59.92 -167.27,-21.1 -186.65,14.54z"/>
  <path class="fil2" d="M1725.65 398.05c28.97,-12.54 41.13,-26.41 82.94,-26.93 62.07,-0.79 109.91,42.98 110.21,106.51 0.18,40.01 -13.34,54.58 -26.62,82.53 7.47,-4.22 10.35,-8.44 15.56,-15.48 5.52,-7.45 8.02,-11.81 12.32,-19.86 48.2,-90.34 -10.94,-184.48 -110.86,-170.56 -25.94,3.62 -72.71,24.69 -83.55,43.79z"/>
  <path class="fil2" d="M428.44 741.76l22.1 -6.11 -51.68 -201.55c-0.46,0.37 -1.05,0.92 -1.34,1.17 -0.29,0.25 -0.99,0.85 -1.34,1.15l-18.03 12.31 50.29 193.03z"/>
  <path class="fil2" d="M1435.85 232.29l82.96 0.08c5.36,24.6 17.88,119.75 25.84,132.67l19.19 -20.02 -5.26 -14.37c-1.03,-5.74 -1.95,-11.39 -3.09,-17.52l-18.27 -98.99 -98.35 -0.25 -3.02 18.4z"/>
  <path class="fil2" d="M1101.67 285.99c38.23,-17.42 63.51,-37.23 122.55,-31.85 20.99,1.92 44.4,8.89 59.89,18.09 20.95,12.47 19.03,12.79 32.19,25.21 0.85,0.79 4.51,4.22 4.72,4.5 3.49,4.75 2.83,1.19 2.88,7.74 6.29,-5.39 15.08,-12.99 19.55,-20.29 -47.5,-74.94 -185.91,-63.97 -236.23,-10.62 -4.48,4.73 -2.15,1.11 -5.55,7.22z"/>
  <path class="fil2" d="M728.87 245.44l107.63 -31.33 8.43 135.81c7.64,-6.1 8.91,-12.35 15.34,-19.37l6.18 -5.89c-7.75,-9.2 -9.74,-115.11 -11.33,-128.4l-126.41 37.05 0.16 12.13z"/>
  <path class="fil2" d="M710.07 523.43c-13.65,5.93 -26.41,15.14 -46.79,14.91 -31.39,-0.36 -59.61,-20.63 -65.41,-52.37 -3.87,-21.1 3.97,-32.84 9.84,-47.35 -12.25,6.3 -27.84,30.05 -29.19,50.6 -1.64,25 12.03,43.78 24.6,53.19 39.33,29.42 85.1,10.68 106.95,-18.98z"/>
  <path class="fil2" d="M1856.92 492.55c-33.99,15.15 -56.98,19.7 -87.07,-3.71 -8.79,-6.83 -18.07,-20.51 -21.07,-36.24 -3.89,-20.42 1.62,-28.03 7.96,-44.08 -16.13,7.58 -49.3,61.2 -4.32,100.02 12.36,10.66 34.88,18.72 57.72,14.08 15.04,-3.05 41.39,-14.84 46.78,-30.07z"/>
  <path class="fil2" d="M940.75 218.14c14.4,7.31 32.04,28.16 44.81,40.43 7.4,7.09 14.36,12.55 22.05,19.34 9.62,8.5 12.18,15.32 23.66,21.45l16.35 -16.35c-5.25,-9.04 -80.82,-77.22 -90.53,-86.7 -6.29,4.68 -12.58,15.14 -16.34,21.83z"/>
  <path class="fil2" d="M859.86 650.73l17.68 -2.24 0.74 -160.33 -4.02 3.22c-12.65,11.63 -14.56,13.22 -15.04,25.09l0.64 134.26z"/>
  <path class="fil2" d="M1961.41 667.14c4.32,3.51 8.29,2.98 15.15,3.81 3.14,-30.01 19.02,-110.61 25.86,-148.37 1.62,-8.93 3.18,-16.87 4.66,-25.7l6.7 -24.4c-1.7,-7.9 3.06,-1.46 -3.2,-4.79 -16.75,21.94 -14.77,5.92 -21.2,43.79 -2.99,17.6 -6.17,34.8 -9.25,52.65 -4.72,27.35 -11.07,79.4 -18.72,103.01z"/>
  <path class="fil2" d="M385.68 488.66c-6.69,-2.37 -1.38,4.48 -6.2,-7.21l-32.25 -105.45c-5.69,-20.56 -11.54,-27.7 -6.51,-35.8 -6.47,-1.91 -4.25,-2.21 -8.85,3.24 -10.36,12.22 -6.22,15.76 -2.74,27.7 6.67,22.82 34.54,119.54 40.39,128.96 5.81,-2.31 11.9,-5.52 16.16,-11.44z"/>
  <path class="fil2" d="M1291.41 400.98c12.52,3.47 24.36,18.73 34.1,27.19 11.08,9.63 22.49,20.42 33.55,29.2 5.65,-2.72 15.36,-13.21 18.44,-19.22 -16.38,-9.51 -51.36,-48.4 -67.18,-56.99 -4.97,8.56 -11.82,13.5 -18.91,19.82z"/>
  <path class="fil2" d="M1461.19 573.82l14.59 4.06c6.73,-7.22 22.25,-124.73 25.55,-145.23l-12.21 10.14c-10.33,10.65 -10,32.4 -13.7,55.24 -2.34,14.34 -7.74,67.32 -14.23,75.79z"/>
  <path class="fil2" d="M1245.81 78.07c8.36,13.03 32.65,40.19 37.1,53.25l24.49 -12.31 -45.05 -60.26 -16.54 19.32z"/>
  <path class="fil2" d="M1161.25 424.87c-13.34,-13.46 -26.77,-26.71 -28.75,-53.16 -2.46,-32.98 10.71,-41.84 22.58,-58.65 -15.27,-4.83 -33.12,38.84 -34.57,52.46 -3.24,30.45 9.84,51.95 24.78,65.99 8.38,-3.12 5.75,-5.77 15.96,-6.64z"/>
  <path class="fil2" d="M1218.58 422.31l-17.76 20.79c15.41,1.62 35.47,-3.74 48.05,-8.87 12.21,-4.97 29.05,-14.75 34.4,-26.19 -18.43,8.03 -24.05,12.89 -46.8,16.16 -1.94,0.28 -6.8,0.87 -8.56,0.79 -6.24,-0.31 1.26,0.65 -4.09,-0.5 -5.59,-1.21 -1.94,0.2 -5.24,-2.18z"/>
  <path class="fil2" d="M1554.26 541.92l5.47 14.05 38.13 -95.56c-6.83,3.34 -3.31,1.01 -9.13,6.34 -15.5,14.19 -24.73,67.56 -34.47,75.17z"/>
  <path class="fil2" d="M700.04 481.7c11.56,-4.31 16.6,-8.48 20.46,-22.42 2.39,-8.62 -0.21,-6.41 5.87,-12.55 -2.11,-4.96 3.73,-1.61 -4.04,-5.21 -9.2,3.31 -12.64,11.68 -19.35,17.75 0.79,11.4 2.21,11.77 -2.94,22.43z"/>
  <path class="fil2" d="M1854.14 448.41c15.08,-7.19 18.43,-15.89 20.22,-36.81 -9.7,4.3 -9.48,8.3 -19.6,15.45l-0.62 21.36z"/>
  <path class="fil2" d="M1796.35 402.18c11.14,-1.4 14.83,-1.26 21.28,-7.37 7.72,-7.32 10.43,-9.88 10.66,-14.9 -10.2,-4.41 -17.91,-5.46 -27,1.12l19.85 -1.14c-0.52,0.88 -1.34,0.83 -1.64,1.75 -0.3,0.88 -1.21,1 -1.62,1.26l-10.62 6.16c-5.36,3.72 -7.44,6.08 -10.91,13.12z"/>
  <path class="fil2" d="M643.2 438.6c9.25,-7.34 11.47,-3.4 19.07,-10.15 2.58,-2.3 4.46,-4.38 7.01,-6.95 12.68,-12.67 4.59,-7.21 3.31,-8.73 -0.47,0.38 -1.17,0.36 -1.43,1.1 -0.25,0.76 -1.13,0.85 -1.48,1.03 -11.86,6.16 -20.01,5.25 -26.48,23.7z"/>
  <path class="fil3" d="M1219.76 700.92c2.84,-1.53 3.48,4.48 3.84,-11.79l-0.27 -112.78c29.41,-2.45 60.81,-19.38 84.92,-32.14 -18.64,80.03 -10.12,70.34 3.5,72.25 28.05,3.94 146.28,26.98 157.07,21.96 6.66,-3.08 15.19,-10.97 27.63,-13.86 2.8,10.47 15.57,26.25 18.36,36.73 10.26,-5.43 19.98,-10.85 29.84,-16.07 12.69,54.48 -7.92,46.51 31.84,53.1l144.27 25.58c17.32,3.1 15.5,6.29 31.28,-2.08 6.6,-3.5 23.33,-12.41 26.73,-16.54l-188.57 -32.48 -9.44 -82.11c-10.4,14.12 -14.51,36.87 -26.93,47.2l-41.87 -75.85 -10.12 56.45 -164.74 -24.82 11.64 -78.81c-17.54,5.41 -36.03,17.69 -56.6,24.52 -22.45,7.48 -43.03,8.81 -63.95,14.59 -9.16,2.54 -6.64,5.09 -7.29,31.56 -0.59,24.71 2.1,102.34 -1.14,115.39z"/>
  <path class="fil3" d="M160.66 510.69c1.48,5.14 5.07,13.46 7.65,18.97l117.26 266.1c4.22,10.17 16.61,32.84 17.39,42.29 10.42,-0.23 125.26,-38.29 150.67,-46.72 10.18,-3.38 37.43,-18.42 42.13,-28.91l-150.67 48.74c-8.79,-11.26 -27.2,-59.14 -35.1,-76.34 -12.23,-26.65 -23.44,-50.89 -34.94,-77.51l-70.98 -155.19c-3.78,0.79 -1.52,0.45 -3.71,1.37 -0.24,0.1 -0.87,0.36 -1.11,0.47l-38.59 6.73z"/>
  <path class="fil3" d="M470.51 647.54c8.57,6.2 41.31,67.63 114.73,71.16 32.76,1.58 56.4,-3.4 78.75,-13.12 10.56,-4.61 20.77,-9.65 30.11,-15.79 9.39,-6.17 22.44,-17.6 28.88,-19.32 0,21.83 4.23,38.79 4.59,55.1l98.02 -14.45c32.03,-5.33 47.28,-3.75 76,-20.23 0.38,-0.22 3.31,-2.03 4.28,-2.89 4.72,-4.07 1.59,-0.12 5.31,-6.04l-144.13 21.61 -5.99 -66.45c-7.89,1.8 -30.78,29.43 -76.74,44.86 -67.5,22.66 -138.02,2.7 -178.72,-55.69 -19.33,-27.74 -26.27,-58.19 -26.13,-99.94 -7.72,5.84 -25.38,20.07 -32.19,27.04 0.56,8.38 19.63,89.51 23.23,94.15z"/>
  <path class="fil3" d="M1770.06 661.29c8.89,-2.94 20.06,-2.85 30.68,-5.57 10,-2.57 16.66,-5.98 26.22,-8.21 -1.61,19.36 -6.89,44.57 -6.89,64.28l123.95 18.36 2.29 50.51 130.7 41.12 33.77 -16.73c4.4,-3.27 2.19,-0.95 5.37,-5.37 -15.35,1.7 -106.97,-33.26 -131.4,-38.4l-0.9 -50.55c-10.46,-4.85 -106.77,-16.89 -125.25,-18.91l7.14 -67.09c-34.56,14.24 -55.94,20.27 -96.78,17.52l1.1 19.04z"/>
  <path class="fil3" d="M912.24 681.95c4.09,-4.18 3.96,0.47 3.6,-20.62l-0.07 -68.92c9.73,2.28 27.47,12.59 37.49,17.61 33.97,16.98 84.01,43.76 115.35,56.8l56.66 28.26c62.62,27.9 45.7,37.03 86.79,14.65 3.93,-2.14 6.63,-4.37 7.7,-8.81l-305.5 -150.49 -2.02 131.52z"/>
  <path class="fil3" d="M47.78 385.81l1.88 -6.66c0.2,-0.17 0.9,-0.75 1.12,-0.96 0.2,-0.19 0.72,-0.73 0.94,-0.93l1.52 -1.81c7.49,-7.07 10.7,-2.89 19.88,-6.55 6.14,-2.45 0.41,-0.28 4.33,-2.37 0.11,-0.05 1.6,-1.46 4.92,-2.55 -6.82,-13.85 -15.61,-28.01 -24.18,-43.2 -4.11,-7.29 -8.28,-14.59 -12.56,-21.75 -4.9,-8.22 -11.38,-14.15 -9.11,-23.41 -10.19,4.28 -9.91,6.65 -19.88,16.64 -6.19,6.19 -12,10.86 -16.64,17.79l24.89 42.04c5.7,10.25 13.56,27.34 22.89,33.72z"/>
  <path class="fil3" d="M1351.87 241.18c4.6,5.41 6.24,2.79 18.94,17.83 4.17,4.94 11.41,14.39 15.47,17.59l16.71 -99.7c-8.26,3.42 -9.58,3.68 -17.46,8.43 -24.54,14.81 -19.89,6.58 -23.85,31.24 -1.58,9.83 -2.94,13.96 -2.94,24.61l-6.87 0z"/>
  <path class="fil3" d="M656.82 321.9l-2.7 0 0 15.7c6.48,-0.14 32.32,-7.07 36.73,-9.18 0.22,10.11 2.29,10.73 2.29,22.95l-5.1 0 47.57 13.17 -5.05 -57.17c-33.42,6.57 -46.2,13.09 -72.96,28.64l-0.78 -14.11z"/>
  <path class="fil3" d="M1829.26 319.23c0.58,-0.61 0.98,-2.56 1.15,-2.24l2.96 -72.59c4,9.27 21.92,-2.87 35.5,2.01l-0.03 -48.21c1.35,-6.8 -1.13,-0.64 1.73,-4.58 -3.3,-5.06 -1.68,-3.5 -11.12,1.7l-30.19 16.02 0 107.89z"/>
  <path class="fil3" d="M656.4 293.98l-2.53 -32.76c11.4,1.92 20.84,-2.24 35.12,-2.57l1.01 -9.22 -0.43 -44.98c-11.3,4.01 -27.4,13.98 -40.03,20.66 0,7.01 -0.17,10.93 0.91,17.74l1.09 5.84c0.09,0.74 0.18,1.26 0.24,2.01 0.22,2.35 0.17,6.31 0.16,8.75 -0.04,6.15 -0.34,12.5 -0.37,18.59 -0.09,16.71 1.55,13.76 4.83,15.94z"/>
  <path class="fil3" d="M1076.44 196.91c-1.93,3.99 -1.46,-0.42 -0.58,4.3 1.86,9.94 20.01,19.18 23.53,33.49 12.41,-5.27 22.88,-15.01 40.38,-20.38 -3.51,-9.15 -19.2,-27.29 -26.61,-34.06l-36.72 16.65z"/>
  <path class="fil3" d="M895.13 160.83l0 2.3c5.69,1.73 6.35,0.17 1.22,2.29l-0.64 54.51 24.78 -40.71c5.83,-10.92 17.45,-32.04 21.75,-43.64 -11.09,2.06 -15.59,7.11 -24.16,11.49 -3.48,1.77 -6.79,2.95 -10.36,5.58 -11.98,8.83 0.92,4.98 -12.59,8.18z"/>
  <path class="fil3" d="M1343.92 355.19l27.84 21.32 9.5 -61.41c-10.56,3.86 -8.59,4.24 -20.19,17.92 -6.23,7.35 -12.3,12.34 -17.15,22.17z"/>
  <path class="fil3" d="M1209.56 46.04c10.88,1.23 5.73,2.57 11.41,8.27l48.25 -54.17c-22.99,7.65 -50.2,22.63 -59.66,45.9z"/>
  <path class="fil3" d="M2078.68 254.96l13.08 57.4 17.49 -66.58c-10.54,3.51 -21.03,12.87 -30.57,9.18z"/>
  <path class="fil3" d="M1850.09 319.72c19.56,3.54 31.94,9.24 49.03,15.08l1.77 -20.48 -32.76 -6.91 -18.04 12.31z"/>
  <path class="fil3" d="M1068.14 245.78c0.52,0.5 1.27,0.56 1.54,1.5l6.76 4.96c12.75,-6.59 16.18,-12.29 16.69,-12.86l2.36 -2.79c-12.98,2.64 -12.93,8.23 -27.35,9.19z"/>
  <path class="fil3" d="M406.24 433.91c6.25,-3.38 1.48,1.39 6.27,-5.74 2.05,-3.06 1.05,-3.47 1.9,-5.71 -0.88,0.43 -5.92,2.47 -6.52,2.94l0.89 -5.15c-1.41,1.93 -2.02,-2.74 -3.64,5.88 -1.43,7.56 -1.61,1.6 1.1,7.78z"/>
  <path class="fil4" d="M340.72 340.2c26.72,-6.68 39.77,-17.81 73.15,-5.62 20.25,7.39 35.6,24.05 38.63,48.89 7.12,58.46 -36.83,81.1 -66.82,105.19 -4.26,5.92 -10.35,9.13 -16.16,11.44 -5.85,-9.42 -33.72,-106.14 -40.39,-128.96 -3.48,-11.94 -7.62,-15.48 2.74,-27.7 4.6,-5.45 2.38,-5.15 8.85,-3.24zm-249.08 -44.19c6.5,18.72 50.04,79.61 57.03,100.25 16.58,-3.23 29.14,-15.24 44.12,-19.1 10.76,13.21 163.08,371.12 174.43,384.32l61.22 -19.72 -50.29 -193.03 18.03 -12.31c0.35,-0.3 1.05,-0.9 1.34,-1.15 0.29,-0.25 0.88,-0.8 1.34,-1.17 20.63,-7.97 74.16,-55.03 79.3,-70.99 10.45,-24.12 21.15,-36.06 27.66,-67.33 17.06,-81.96 -46.7,-144.23 -113.45,-159.09 -80.79,-17.99 -164.84,-1.1 -238.9,29.45 -22.37,9.23 -42.27,21.02 -61.83,29.87z"/>
  <path class="fil4" d="M1904.58 277.98l27.84 7.33c-2.01,101.27 -19.75,43.08 15.16,94.62 39.49,58.31 25.71,131.19 -14.49,187.77 -27.38,38.51 -32.21,8.59 -35.3,91.18 20.67,2.6 43.36,9.64 63.62,8.26 7.65,-23.61 14,-75.66 18.72,-103.01 3.08,-17.85 6.26,-35.05 9.25,-52.65 6.43,-37.87 4.45,-21.85 21.2,-43.79 6.26,3.33 1.5,-3.11 3.2,4.79l5.2 260.22 58.18 15.65c7.75,-3.76 5.09,-4.79 11.16,-23.1 2.94,-8.84 5.59,-16.84 8.55,-25.9 13.48,-41.39 118.13,-352.86 120.99,-368.68 -20.6,-2.59 -74.09,-20.38 -89.82,-16.88l-39.33 166c-4.86,11.2 -12.38,17.75 -21.08,21.68 -3.37,-22.17 -41.4,-206.99 -46.01,-213.38l-115.54 -25.61 -1.5 15.5z"/>
  <path class="fil4" d="M728.87 245.44l0.96 21.66c11.38,-1.95 25.1,-7.89 35.8,-7.21 2.62,36.9 6.26,73.78 9.21,110.51 3.8,47.37 21.06,25.6 38.59,83.39 23,75.82 -19.84,127.87 -19.25,147.64 0.55,17.89 3.55,39.04 4.88,57.36l60.8 -8.06 -0.64 -134.26c0.48,-11.87 2.39,-13.46 15.04,-25.09l4.02 -3.22 287.26 143.43c-0.87,-9.58 0.73,-50.07 -0.81,-54.53 -2.44,-7.09 -34.01,-9.87 -43.83,-13.06 -31.26,-10.11 -53.9,-26.02 -71.03,-43.74 -31.19,-32.26 -15.02,-32.52 -41.95,-42.99 -31.69,-12.33 -74.86,-32.13 -103.84,-41.03 3.44,-6.6 11.86,-13.86 16.95,-18.47 4.63,-8.15 70.35,-74.72 82.78,-88.52 9.77,-10.83 16.72,-18.78 27.46,-29.89 -11.48,-6.13 -14.04,-12.95 -23.66,-21.45 -7.69,-6.79 -14.65,-12.25 -22.05,-19.34 -12.77,-12.27 -30.41,-33.12 -44.81,-40.43 -6.16,6.64 -13.05,17.7 -18.26,25.2 -7.2,10.39 -11.96,17.05 -19.19,26.69 -7.02,9.36 -34.69,46.68 -36.85,54.63l-6.18 5.89c-6.43,7.02 -7.7,13.27 -15.34,19.37l-8.43 -135.81 -107.63 31.33z"/>
  <path class="fil4" d="M1563.84 345.02l-19.19 20.02c-7.96,-12.92 -20.48,-108.07 -25.84,-132.67l-82.96 -0.08 -29.85 176.34c6.14,4.83 9.34,9.21 14.83,13.74 8.09,6.68 9.74,5.76 14.74,13.94 -4.93,9.29 -37.91,34.11 -41.84,46.48 -3.23,10.15 -11.99,66.35 -12.3,77.49 8.57,3.93 70.36,14.58 79.76,13.54 6.49,-8.47 11.89,-61.45 14.23,-75.79 3.7,-22.84 3.37,-44.59 13.7,-55.24l12.21 -10.14 52.93 109.27c9.74,-7.61 18.97,-60.98 34.47,-75.17 5.82,-5.33 2.3,-3 9.13,-6.34 4.26,0.48 26.93,160.82 29.62,180.07l81.98 12.54c-4.76,-7.41 -15.15,-10.06 -22.35,-14.85 -61.85,-41.18 -77.58,-117.8 -47.78,-187.57 17.69,-41.38 33.26,-37.35 30.57,-58.62l-28.85 -180.24c-13.52,-1.89 -42.18,-2.88 -54.76,1.11 -4.87,21.03 -23.26,115.91 -22.45,132.17z"/>
  <path class="fil4" d="M1161.25 424.87c-10.21,0.87 -7.58,3.52 -15.96,6.64 -14.94,-14.04 -28.02,-35.54 -24.78,-65.99 1.45,-13.62 19.3,-57.29 34.57,-52.46 35.32,-28.4 78.6,-25.81 102.96,3.87 -2.47,4.95 0,0.54 -2.82,4.29l-9.39 11.35c-4.66,5.96 -6.77,7.38 -12.06,13.12 -13.68,14.85 -61.02,73.84 -72.52,79.18zm-59.58 -138.88c-11.7,6.02 -25.16,27.45 -31.94,44.93 -24.43,63.09 -4.2,128.79 53.22,164.47 72.14,44.81 197.59,5.08 236.11,-38.02 -11.06,-8.78 -22.47,-19.57 -33.55,-29.2 -9.74,-8.46 -21.58,-23.72 -34.1,-27.19 -2.6,2.23 -6.29,5.61 -8.14,7.06 -5.35,11.44 -22.19,21.22 -34.4,26.19 -12.58,5.13 -32.64,10.49 -48.05,8.87l17.76 -20.79c22.58,-24.59 91.74,-93.02 105.32,-112.63 -0.05,-6.55 0.61,-2.99 -2.88,-7.74 -0.21,-0.28 -3.87,-3.71 -4.72,-4.5 -13.16,-12.42 -11.24,-12.74 -32.19,-25.21 -15.49,-9.2 -38.9,-16.17 -59.89,-18.09 -59.04,-5.38 -84.32,14.43 -122.55,31.85z"/>
  <path class="fil4" d="M643.2 438.6c-19.16,27.94 33.87,64.78 56.84,43.1 5.15,-10.66 3.73,-11.03 2.94,-22.43 6.71,-6.07 10.15,-14.44 19.35,-17.75 7.77,3.6 1.93,0.25 4.04,5.21 1.37,13.69 7.87,27.59 3.22,44.24 -4.19,15.05 -13.11,24.4 -19.52,32.46 -21.85,29.66 -67.62,48.4 -106.95,18.98 -12.57,-9.41 -26.24,-28.19 -24.6,-53.19 1.35,-20.55 16.94,-44.3 29.19,-50.6 7.97,-4.79 12.33,-12.48 25.47,-18.62 13.37,-6.24 23.68,-6 39.41,-7.23 1.28,1.52 9.37,-3.94 -3.31,8.73 -2.55,2.57 -4.43,4.65 -7.01,6.95 -7.6,6.75 -9.82,2.81 -19.07,10.15zm-75.59 -9.85c-34.79,17.28 -85.44,125.93 -20.46,192.61 61.99,63.62 173.5,17.45 192.58,-20.51 14.13,-29.13 27.64,-45.43 27.73,-86.49 0.14,-66.14 -47.33,-113.5 -113.34,-113.39 -40.5,0.06 -57.97,13.18 -86.51,27.78z"/>
  <path class="fil4" d="M1796.35 402.18c-21.7,31.52 29.37,67.3 57.79,46.23l0.62 -21.36c10.12,-7.15 9.9,-11.15 19.6,-15.45 4.09,17.52 13.53,21.65 5.5,47.85 -5.49,17.92 -14.03,24.4 -22.94,33.1 -5.39,15.23 -31.74,27.02 -46.78,30.07 -22.84,4.64 -45.36,-3.42 -57.72,-14.08 -44.98,-38.82 -11.81,-92.44 4.32,-100.02 9.23,-11.63 23.86,-24.08 44.55,-27.49 9.09,-6.58 16.8,-5.53 27,-1.12 -0.23,5.02 -2.94,7.58 -10.66,14.9 -6.45,6.11 -10.14,5.97 -21.28,7.37zm-70.7 -4.13c-8.49,4.77 -22,22.52 -28.67,34.49 -8,14.39 -14.6,30.83 -17.68,49.31 -7.16,42.93 9.41,75.43 30.56,96.85 64.31,65.11 169.71,8.7 182.32,-18.54 13.28,-27.95 26.8,-42.52 26.62,-82.53 -0.3,-63.53 -48.14,-107.3 -110.21,-106.51 -41.81,0.52 -53.97,14.39 -82.94,26.93z"/>
  <path class="fil4" d="M1282.91 131.32c-4.45,-13.06 -28.74,-40.22 -37.1,-53.25l-58.53 69.67c-6.75,8.58 -13.31,14.55 -18.15,23.85l8.06 11.81 105.72 -52.08z"/>
  <path class="fil5" d="M739.73 600.85c-19.08,37.96 -130.59,84.13 -192.58,20.51 -64.98,-66.68 -14.33,-175.33 20.46,-192.61 19.38,-35.64 126.7,-74.46 186.65,-14.54 60.36,60.33 19.83,167.28 -14.53,186.64zm1546.27 -313.76l0 0.01 -47.22 147.9c-1.7,4.78 -1.22,1.97 -3.49,7.99l-12.07 38.43c-6.5,22.06 -13.44,41.57 -20.92,64.01 -7.39,22.17 -14.26,43.36 -22.16,65.07 -3.61,9.95 -7.74,22.58 -10.92,32.7 -1.77,5.64 -3.01,10.75 -4.87,15.79 -1.86,5.05 -3.39,8.92 -5.47,15.2l-42.73 125.49c-15.35,1.7 -106.97,-33.26 -131.4,-38.4l-0.9 -50.55c-10.46,-4.85 -106.77,-16.89 -125.25,-18.91l7.14 -67.09c-34.56,14.24 -55.94,20.27 -96.78,17.52l1.1 19.04c6.99,7.48 2.26,-0.26 4.65,11.07 0.64,3.01 0.95,6.55 1.4,9.96 1.29,9.83 2.66,13.25 2.66,22.96l-188.57 -32.48 -9.44 -82.11c-10.4,14.12 -14.51,36.87 -26.93,47.2l-41.87 -75.85 -10.12 56.45 -164.74 -24.82 11.64 -78.81c-17.54,5.41 -36.03,17.69 -56.6,24.52 -22.45,7.48 -43.03,8.81 -63.95,14.59 -9.16,2.54 -6.64,5.09 -7.29,31.56 -0.59,24.71 2.1,102.34 -1.14,115.39l-305.5 -150.49 -2.02 131.52 -1.06 0.01 -144.13 21.61 -5.99 -66.45c-7.89,1.8 -30.78,29.43 -76.74,44.86 -67.5,22.66 -138.02,2.7 -178.72,-55.69 -19.33,-27.74 -26.27,-58.19 -26.13,-99.94 -7.72,5.84 -25.38,20.07 -32.19,27.04 0.56,8.38 19.63,89.51 23.23,94.15l29.84 114.76c-2.21,2.63 1.67,3.36 -4.59,0.12l-150.67 48.74c-8.79,-11.26 -27.2,-59.14 -35.1,-76.34 -12.23,-26.65 -23.44,-50.89 -34.94,-77.51l-70.98 -155.19c-2.03,-10.96 -26.66,-63.61 -31.94,-69.85 -9.52,4.21 -29.43,12.94 -38.27,18.6 -8.13,5.22 -21.08,21.97 -30.57,31.35 -5.25,-2.74 -7.36,-10.48 -11.04,-16.52 -1.94,-3.17 -3.71,-5.2 -5.39,-8.54 -3.92,-7.82 -3.67,-1.65 -1.95,-9.37l17.41 -11.6c0.18,-0.08 0.78,-0.27 0.95,-0.35l13.19 -13.3 -34.09 -58.56c-6.82,-13.85 -15.61,-28.01 -24.18,-43.2 -4.11,-7.29 -8.28,-14.59 -12.56,-21.75 -4.9,-8.22 -11.38,-14.15 -9.11,-23.41 10.2,-11.78 80.3,-48.85 101.95,-58.93 12.87,-6 23.79,-10.09 37.27,-15.53 96.96,-39.12 256.59,-55.18 340.1,29.11 5.04,5.08 9,8.6 13.81,13.74l22.23 32.87c25.09,54.98 15.77,70.04 12.73,106.64 51.49,-27.26 60.4,-32.15 123.43,-32.15l47.57 13.17 -5.05 -57.17c-33.42,6.57 -46.2,13.09 -72.96,28.64l-0.78 -14.11 0.13 -10.09 35.12 -3.06c0.63,-12.55 3.78,-50.85 -2.07,-59.32l-0.43 -44.98 104.56 -34.44c18.21,-4.97 33.38,-11.33 52.31,-16.55 12.91,-3.56 39.91,-15.29 53.27,-15.58 0,14.67 1.09,11.63 -4.58,22.95l0 2.3 1.22 2.29 -0.64 54.51 24.78 -40.71c5.83,-10.92 17.45,-32.04 21.75,-43.64 2.15,-2.72 -5.88,-2.3 3.38,-2.3 8.83,13.22 115.93,102.17 122.52,112.5 0.52,0.5 1.27,0.56 1.54,1.5l6.76 4.96c12.75,-6.59 16.18,-12.29 16.69,-12.86l2.36 -2.79c0.85,-2.78 -3.98,-2.76 3.9,-1.89 12.41,-5.27 22.88,-15.01 40.38,-20.38 -3.51,-9.15 -19.2,-27.29 -26.61,-34.06l-36.72 16.65c6.45,-10.14 12.59,-15.28 20.31,-24.94 3.87,-4.83 7.09,-6.99 11.14,-11.82l36.86 -43.34c9.12,-9.38 12.08,-15.39 16.61,-15.68l6.3 -1.95 5.17 8.93 25 -25.54c7.98,-9.38 16.87,-17.84 23.14,-28.26l48.25 -54.17 87.23 128.55c-18.26,12.24 -41.12,21.21 -61,33.11l-60.64 33.47c30.57,0 58.92,8.76 82.95,20.32 7.04,3.39 6.01,3.66 12.74,7.93 7.04,4.46 17.94,11.19 21.37,17.66 4.6,5.41 6.24,2.79 18.94,17.83 4.17,4.94 11.41,14.39 15.47,17.59l16.71 -99.7c22.74,0 45.48,0 68.21,0 10.29,0 24.88,0.9 34.58,0.15 6.13,-0.47 2.81,0.37 7.54,-1.64l36.87 -20.51c8.39,-2.48 87.49,-0.95 100.04,-0.95 50.58,0 41.45,-4.87 45.91,22.95l18.7 116.75c2.79,16.73 7.43,40.82 8.84,57.72 7.49,-5.02 9.13,-6.97 18.34,-11.5 15.48,-7.62 50.09,-25.61 68.87,-18.35 17.57,-0.32 20.72,-6.1 39.2,-1.8 19.56,3.54 31.94,9.24 49.03,15.08l1.77 -20.48 -32.76 -6.91 0.74 -61 -0.03 -48.21c1.35,-6.8 -1.13,-0.64 1.73,-4.58 10.8,-1.19 41.55,7.16 53.77,9.86l101.74 22.19c13.75,2.94 36.34,9.69 51.06,10.92 0.74,8.93 2.89,7.81 1.54,18.37l13.08 57.4 17.49 -66.58c11.09,0 73.21,16.56 87.7,20.19l89.05 21.12zm-393.82 273.07c-12.61,27.24 -118.01,83.65 -182.32,18.54 -21.15,-21.42 -37.72,-53.92 -30.56,-96.85 3.08,-18.48 9.68,-34.92 17.68,-49.31 6.67,-11.97 20.18,-29.72 28.67,-34.49 10.84,-19.1 57.61,-40.17 83.55,-43.79 99.92,-13.92 159.06,80.22 110.86,170.56 -4.3,8.05 -6.8,12.41 -12.32,19.86 -5.21,7.04 -8.09,11.26 -15.56,15.48zm-182.72 92.86l-81.98 -12.54c-2.69,-19.25 -25.36,-179.59 -29.62,-180.07l-38.13 95.56 -5.47 -14.05 -52.93 -109.27c-3.3,20.5 -18.82,138.01 -25.55,145.23l-14.59 -4.06c-9.4,1.04 -71.19,-9.61 -79.76,-13.54 0.31,-11.14 9.07,-67.34 12.3,-77.49 3.93,-12.37 36.91,-37.19 41.84,-46.48 -5,-8.18 -6.65,-7.26 -14.74,-13.94 -5.49,-4.53 -8.69,-8.91 -14.83,-13.74l29.85 -176.34 3.02 -18.4 98.35 0.25 18.27 98.99c1.14,6.13 2.06,11.78 3.09,17.52l5.26 14.37c-0.81,-16.26 17.58,-111.14 22.45,-132.17 3.5,-27.43 -2.59,-20.53 73.13,-19.58 6.54,16.21 21.09,132.94 26.65,167.93 2.78,17.5 6.17,17.63 -3.18,29.68 -54.61,70.33 -56.18,165.04 11.9,221.26 32.58,26.91 32.59,5.39 36.24,44.08l-21.57 -3.2zm-685.81 -235.08c-12.83,-2.98 -24.3,-10.34 -39.02,-13.77l36.17 -37.28c0.26,13.84 -1.99,10.03 -0.19,24.09 1.17,9.06 2.46,19.99 3.04,26.96zm320.27 -62.75c4.85,-9.83 10.92,-14.82 17.15,-22.17 11.6,-13.68 9.63,-14.06 20.19,-17.92l-9.5 61.41 -27.84 -21.32zm-865.76 107.92c-5.14,15.96 -58.67,63.02 -79.3,70.99l51.68 201.55 -22.1 6.11 -61.22 19.72c-11.35,-13.2 -163.67,-371.11 -174.43,-384.32 -14.98,3.86 -27.54,15.87 -44.12,19.1 -6.99,-20.64 -50.53,-81.53 -57.03,-100.25l-2.52 -6.53c9.88,-3.75 23.67,-13.24 34.55,-18.78 87.05,-44.35 187.63,-75.32 286.96,-52.5 50.36,11.56 95.82,49.68 110.51,94.07 9.61,29.02 6.04,60.72 -4.14,87.86 -6.97,18.57 -25.29,56.42 -38.84,62.98zm845.74 -153.43c-13.58,19.61 -82.74,88.04 -105.32,112.63 3.3,2.38 -0.35,0.97 5.24,2.18 5.35,1.15 -2.15,0.19 4.09,0.5 1.76,0.08 6.62,-0.51 8.56,-0.79 22.75,-3.27 28.37,-8.13 46.8,-16.16 1.85,-1.45 5.54,-4.83 8.14,-7.06 7.09,-6.32 13.94,-11.26 18.91,-19.82 15.82,8.59 50.8,47.48 67.18,56.99 -3.08,6.01 -12.79,16.5 -18.44,19.22 -38.52,43.1 -163.97,82.83 -236.11,38.02 -57.42,-35.68 -77.65,-101.38 -53.22,-164.47 6.78,-17.48 20.24,-38.91 31.94,-44.93 3.4,-6.11 1.07,-2.49 5.55,-7.22 50.32,-53.35 188.73,-64.32 236.23,10.62 -4.47,7.3 -13.26,14.9 -19.55,20.29zm764.81 170.11l39.33 -166 5.57 -23.1 102.53 21.9 -144.8 440.48 -14.18 -4.72 -58.18 -15.65 -5.2 -260.22 -6.7 24.4c-1.48,8.83 -3.04,16.77 -4.66,25.7 -6.84,37.76 -22.72,118.36 -25.86,148.37 -6.86,-0.83 -10.83,-0.3 -15.15,-3.81 -20.26,1.38 -42.95,-5.66 -63.62,-8.26 3.09,-82.59 7.92,-52.67 35.3,-91.18 40.2,-56.58 53.98,-129.46 14.49,-187.77 -34.91,-51.54 -17.17,6.65 -15.16,-94.62l-27.84 -7.33c-3.74,-8.84 -0.06,-26.02 0.46,-37.34 22.99,3.24 46.82,8.96 69.43,13.51l65.44 15.66c4.49,5.17 29.55,134.4 35.02,159.46 2.69,12.34 6.08,44.51 13.78,50.52zm-1359.84 -234.35l-0.16 -12.13 126.41 -37.05c1.59,13.29 3.58,119.2 11.33,128.4 2.16,-7.95 29.83,-45.27 36.85,-54.63 7.23,-9.64 11.99,-16.3 19.19,-26.69 5.21,-7.5 12.1,-18.56 18.26,-25.2 3.76,-6.69 10.05,-17.15 16.34,-21.83 9.71,9.48 85.28,77.66 90.53,86.7l-16.35 16.35c-10.74,11.11 -17.69,19.06 -27.46,29.89 -12.43,13.8 -78.15,80.37 -82.78,88.52 23.28,5.77 62.38,24.28 87.12,34.04 61.01,24.07 11.76,3.61 66.12,55.59 19.54,18.69 45.94,34.25 79.2,42.3 35.5,8.6 31.54,-16.29 29.71,90.88l-17.64 -8.99 -287.26 -143.43 -0.74 160.33 -17.68 2.24 -60.8 8.06c-1.33,-18.32 -4.33,-39.47 -4.88,-57.36 -0.59,-19.77 42.25,-71.82 19.25,-147.64 -17.53,-57.79 -34.79,-36.02 -38.59,-83.39 -2.95,-36.73 -6.59,-73.61 -9.21,-110.51 -10.7,-0.68 -24.42,5.26 -35.8,7.21l-0.96 -21.66zm554.04 -114.12l-105.72 52.08 -8.06 -11.81c4.84,-9.3 11.4,-15.27 18.15,-23.85l58.53 -69.67 16.54 -19.32 45.05 60.26 -24.49 12.31z"/>
  <path class="fil5" d="M414.41 422.46c-0.85,2.24 0.15,2.65 -1.9,5.71 -4.79,7.13 -0.02,2.36 -6.27,5.74 -8.75,1.55 -6.1,5.18 -10.17,-5.55 -2.3,-6.05 -4.06,-12.66 -5.62,-17.58 -3.72,-11.74 -8.41,-26.45 -10.78,-36.45l-4.52 -13.13c19.3,-1.62 35.64,1.47 43.42,14.57 9.78,16.45 -0.09,35.05 -4.16,46.69zm-73.69 -82.26c-5.03,8.1 0.82,15.24 6.51,35.8l32.25 105.45c4.82,11.69 -0.49,4.84 6.2,7.21 29.99,-24.09 73.94,-46.73 66.82,-105.19 -3.03,-24.84 -18.38,-41.5 -38.63,-48.89 -33.38,-12.19 -46.43,-1.06 -73.15,5.62z"/>
  <path class="fil5" d="M1756.74 408.52c-6.34,16.05 -11.85,23.66 -7.96,44.08 3,15.73 12.28,29.41 21.07,36.24 30.09,23.41 53.08,18.86 87.07,3.71 8.91,-8.7 17.45,-15.18 22.94,-33.1 8.03,-26.2 -1.41,-30.33 -5.5,-47.85 -1.79,20.92 -5.14,29.62 -20.22,36.81 -28.42,21.07 -79.49,-14.71 -57.79,-46.23 3.47,-7.04 5.55,-9.4 10.91,-13.12l10.62 -6.16c0.41,-0.26 1.32,-0.38 1.62,-1.26 0.3,-0.92 1.12,-0.87 1.64,-1.75l-19.85 1.14c-20.69,3.41 -35.32,15.86 -44.55,27.49z"/>
  <path class="fil5" d="M607.71 438.62c-5.87,14.51 -13.71,26.25 -9.84,47.35 5.8,31.74 34.02,52.01 65.41,52.37 20.38,0.23 33.14,-8.98 46.79,-14.91 6.41,-8.06 15.33,-17.41 19.52,-32.46 4.65,-16.65 -1.85,-30.55 -3.22,-44.24 -6.08,6.14 -3.48,3.93 -5.87,12.55 -3.86,13.94 -8.9,18.11 -20.46,22.42 -22.97,21.68 -76,-15.16 -56.84,-43.1 6.47,-18.45 14.62,-17.54 26.48,-23.7 0.35,-0.18 1.23,-0.27 1.48,-1.03 0.26,-0.74 0.96,-0.72 1.43,-1.1 -15.73,1.23 -26.04,0.99 -39.41,7.23 -13.14,6.14 -17.5,13.83 -25.47,18.62z"/>
  <path class="fil5" d="M1209.56 333.72l-45.91 52.09c-9.78,-20.39 -5.41,-35.07 7.47,-50.51 5.89,-12.07 30.73,-21.91 48.95,-12.95 -1.79,2.11 -2.24,3.28 -4.04,5.45 -4.23,5.11 -1.13,2.41 -6.47,5.92zm-54.48 -20.66c-11.87,16.81 -25.04,25.67 -22.58,58.65 1.98,26.45 15.41,39.7 28.75,53.16 11.5,-5.34 58.84,-64.33 72.52,-79.18 5.29,-5.74 7.4,-7.16 12.06,-13.12l9.39 -11.35c2.82,-3.75 0.35,0.66 2.82,-4.29 -24.36,-29.68 -67.64,-32.27 -102.96,-3.87z"/>
 </g>
</svg>
