<?xml version="1.0" encoding="UTF-8"?>
<!DOCTYPE svg PUBLIC "-//W3C//DTD SVG 1.1//EN" "http://www.w3.org/Graphics/SVG/1.1/DTD/svg11.dtd">
<!-- Creator: CorelDRAW 2017 by @luisangelmaciel -->
<svg xmlns="http://www.w3.org/2000/svg" title="Pokebola" xml:space="preserve" width="18.7958mm" height="18.7958mm" version="1.1" style="shape-rendering:geometricPrecision; text-rendering:geometricPrecision; image-rendering:optimizeQuality; fill-rule:evenodd; clip-rule:evenodd"
viewBox="0 0 1879.58 1879.58"
 xmlns:xlink="http://www.w3.org/1999/xlink">
 <defs>
  <style type="text/css">
   <![CDATA[
    .fil0 {fill:#0D090A}
    .fil1 {fill:#1D1A1B}
    .fil6 {fill:#353535}
    .fil5 {fill:#58585A}
    .fil4 {fill:#A19E9E}
    .fil3 {fill:#EF4036}
    .fil2 {fill:#FEFEFE}
   ]]>
  </style>
 </defs>
 <g id="pokebola">
  <metadata id="CorelCorpID_0Corel-Layer"/>
  <g id="_1558955614144">
   <g>
    <path class="fil0" d="M1095.56 639.46c261.97,-96.58 383.77,295.47 142.69,382.42 -185.68,66.97 -344.46,-130.53 -253.55,-290.79 31.36,-55.28 46.45,-67.89 110.86,-91.63zm-153.15 215.8c32.69,295.37 470.12,244.16 444.84,-47.45 -2.98,-34.27 -12.99,-64.45 -27.63,-89.9 -113.38,-197.24 -445.33,-116.77 -417.21,137.35z"/>
    <path class="fil0" d="M1043.68 921.64c28.5,62.1 110.35,80.9 178.31,56.17 42.27,-15.39 39.29,-19.64 51.69,-43.05 -169.55,87.37 -162.73,9.5 -230,-13.12z"/>
   </g>
   <g>
    <path class="fil1" d="M337.82 1037.95c188.25,-39.89 319.23,-67.47 519.71,-77.5 19.87,35.66 14.29,35.41 44.78,72.7 56.48,69.04 123.85,116.8 225.07,126.97 93.17,9.36 198.71,-32.13 258.73,-93.56 24.66,-25.25 17.22,-33.12 51.87,-55.78 80.21,14.3 343.58,84.33 392.66,126.44 -12.27,75.65 -70.77,249.26 -123.79,282 -11.55,37.71 -41.48,79.47 -66.47,108.51 -17.99,20.9 -47.08,33.38 -89.13,89.24 -26.08,34.66 -170.16,121.99 -207.68,140.27 -277.49,135.24 -572.33,120.88 -843.24,-20.8 -59.11,-30.92 -137.93,-77.62 -174.65,-126 -26.31,-34.64 -44.55,-44.09 -68.26,-63.3 -18.86,-15.29 -20.61,-28.29 -37,-47.85 -68.43,-81.67 -159.75,-257.45 -172.6,-366.13l290 -95.21zm1541.89 -170.73l0 135.45c-8.78,123.39 -41.44,245.58 -97.14,356.95 -56.65,113.27 -98.22,165.62 -182.46,249.87 -41.23,41.23 -67.68,68.09 -115,101.18 -201.31,140.79 -353.2,169.03 -592.25,169.03 -248.71,0 -545.3,-160.1 -672.99,-332.65 -20.61,-27.86 -30.34,-35.97 -48.88,-63.91 -30.98,-46.73 -58.05,-88.87 -83.41,-142.16 -68.48,-143.83 -87.59,-262.34 -87.59,-429.33 0,-88.7 26.72,-212.47 55.04,-292.71 27.74,-78.6 43.18,-93.97 73.49,-152.08 16.15,-30.96 22.88,-43.25 43.18,-69.6 220.29,-285.88 451.77,-397.28 824.55,-397.28 263.95,0 565.03,175.26 712.46,396.58 16.04,24.08 29.72,42.38 45.17,67.62 14.67,23.96 22.07,42.68 35.01,68.37 52.45,104.09 82.48,218.35 90.82,334.67zm-1663.51 182.57l-178.47 68.12c-15.93,-69.86 -19.3,-121.43 -15.98,-190.24l74.07 -22.47c94.6,-57.8 430.2,-136.59 560.94,-156.29 64.19,-9.68 155.27,-2.59 213.6,-20.15 54.26,-86.45 33.44,-93.73 116.57,-145.85 82.91,-51.97 211.97,-71.12 302.35,-20.06 71.37,40.31 48.13,29.15 73.37,57.69 23.64,26.74 79.37,60.6 91.68,162.18 121.34,25.15 303.14,86.92 402.47,142.39 12.18,48.19 7.85,136.41 -13.62,184.27 -33.82,6.33 -348.23,-141.91 -426.9,-113.14l-23.36 30.55c-12.96,13.18 -12.43,2.93 -31.08,24.83 -20.84,24.49 5.34,9 -25.93,29.94 -56.47,37.83 -147.23,72.65 -217.95,58.31 -56.05,-11.37 -81.86,-24.87 -122.24,-49.57 -65.18,-39.88 -20.42,-20.51 -59.31,-52.59 -60.74,-50.13 -44.51,-78.24 -68.9,-92.03 -81.59,-14.72 -259.63,14.71 -341.49,30.13l-309.82 73.98zm39.12 -706.07c29.61,-41.46 97.79,-109.84 146.94,-135.33 94.48,-101.9 326.07,-165.35 452.79,-177.94 202.05,-20.08 352.38,25.77 515.81,102.52 31.39,14.73 74.48,44.63 99.06,60.83 55.6,36.66 163.21,142.72 198.65,196.19 9.93,15 21.7,27.88 31.89,43.01 78.45,116.49 154.24,293.64 152.19,467.36 -62.05,-16.72 -124,-53.16 -185.59,-76.99 -51.73,-20 -151.56,-36.01 -189.16,-64.35 -45.14,-57.28 -37.49,-114.88 -105.41,-167.2 -222.29,-171.19 -461.83,-40.11 -514.29,122.94 -153.68,5.38 -308.68,24.29 -453.9,66.08l-373.96 126.17c-9.57,-153.15 79.74,-389.84 178.12,-510.54 24.3,-29.8 17.42,-34.75 46.86,-52.75z"/>
    <path class="fil1" d="M1043.68 921.64c-10.88,-57.92 -49.24,-99.95 -0.87,-170.61 63.05,-92.07 202.95,-86.9 252.86,20.66 31.82,68.58 -0.34,110.93 -23.6,164.08 29.86,-16.53 5.04,3.91 23.53,-15.77 56.68,-60.34 29.62,-240.21 -120.46,-249.25 -161.74,-9.75 -199.23,173.82 -148.94,239.18 14.2,18.47 1.27,3.48 17.48,11.71z"/>
   </g>
   <g>
    <path class="fil2" d="M337.82 1037.95c14.37,65.44 45.32,140.51 79.54,199.57 56.57,97.67 44.69,64.68 80.32,116.28 78.99,114.43 239.32,212.51 370.29,259.29 273.27,97.58 578.67,32.03 794.85,-157.24 22.75,-19.92 18.46,-6.93 44.03,-36.63 53.02,-32.74 111.52,-206.35 123.79,-282 -49.08,-42.11 -312.45,-112.14 -392.66,-126.44 -34.65,22.66 -27.21,30.53 -51.87,55.78 -60.02,61.43 -165.56,102.92 -258.73,93.56 -101.22,-10.17 -168.59,-57.93 -225.07,-126.97 -30.49,-37.29 -24.91,-37.04 -44.78,-72.7 -200.48,10.03 -331.46,37.61 -519.71,77.5z"/>
    <path class="fil2" d="M402.26 208.39c-49.15,25.49 -117.33,93.87 -146.94,135.33 -121.12,311.51 184.64,308.72 342.04,168.85 49.32,-43.82 123.86,-160.16 74.93,-264.27 -43.89,-93.4 -166.81,-77.49 -270.03,-39.91z"/>
    <path class="fil2" d="M1043.68 921.64c67.27,22.62 60.45,100.49 230,13.12 -12.4,23.41 -9.42,27.66 -51.69,43.05 -67.96,24.73 -149.81,5.93 -178.31,-56.17zm0 0c-16.21,-8.23 -3.28,6.76 -17.48,-11.71 -50.29,-65.36 -12.8,-248.93 148.94,-239.18 150.08,9.04 177.14,188.91 120.46,249.25 -18.49,19.68 6.33,-0.76 -23.53,15.77 23.26,-53.15 55.42,-95.5 23.6,-164.08 -49.91,-107.56 -189.81,-112.73 -252.86,-20.66 -48.37,70.66 -10.01,112.69 0.87,170.61zm51.88 -282.18c-64.41,23.74 -79.5,36.35 -110.86,91.63 -90.91,160.26 67.87,357.76 253.55,290.79 241.08,-86.95 119.28,-479 -142.69,-382.42z"/>
   </g>
   <path class="fil3" d="M402.26 208.39c103.22,-37.58 226.14,-53.49 270.03,39.91 48.93,104.11 -25.61,220.45 -74.93,264.27 -157.4,139.87 -463.16,142.66 -342.04,-168.85 -29.44,18 -22.56,22.95 -46.86,52.75 -98.38,120.7 -187.69,357.39 -178.12,510.54l373.96 -126.17c145.22,-41.79 300.22,-60.7 453.9,-66.08 52.46,-163.05 292,-294.13 514.29,-122.94 67.92,52.32 60.27,109.92 105.41,167.2 37.6,28.34 137.43,44.35 189.16,64.35 61.59,23.83 123.54,60.27 185.59,76.99 2.05,-173.72 -73.74,-350.87 -152.19,-467.36 -10.19,-15.13 -21.96,-28.01 -31.89,-43.01 -35.44,-53.47 -143.05,-159.53 -198.65,-196.19 -24.58,-16.2 -67.67,-46.1 -99.06,-60.83 -163.43,-76.75 -313.76,-122.6 -515.81,-102.52 -126.72,12.59 -358.31,76.04 -452.79,177.94z"/>
   <path class="fil4" d="M1706.85 1419.22c-25.57,29.7 -21.28,16.71 -44.03,36.63 -216.18,189.27 -521.58,254.82 -794.85,157.24 -130.97,-46.78 -291.3,-144.86 -370.29,-259.29 -35.63,-51.6 -23.75,-18.61 -80.32,-116.28 -34.22,-59.06 -65.17,-134.13 -79.54,-199.57l-290 95.21c12.85,108.68 104.17,284.46 172.6,366.13 16.39,19.56 18.14,32.56 37,47.85 23.71,19.21 41.95,28.66 68.26,63.3 36.72,48.38 115.54,95.08 174.65,126 270.91,141.68 565.75,156.04 843.24,20.8 37.52,-18.28 181.6,-105.61 207.68,-140.27 42.05,-55.86 71.14,-68.34 89.13,-89.24 24.99,-29.04 54.92,-70.8 66.47,-108.51z"/>
   <path class="fil5" d="M942.41 855.26c-28.12,-254.12 303.83,-334.59 417.21,-137.35 14.64,25.45 24.65,55.63 27.63,89.9 25.28,291.61 -412.15,342.82 -444.84,47.45zm-846.59 49.94c1.03,41.77 14.12,71.89 39.02,96.95 17.93,18.05 44.34,41.36 81.36,47.64l309.82 -73.98c81.86,-15.42 259.9,-44.85 341.49,-30.13 24.39,13.79 8.16,41.9 68.9,92.03 38.89,32.08 -5.87,12.71 59.31,52.59 40.38,24.7 66.19,38.2 122.24,49.57 70.72,14.34 161.48,-20.48 217.95,-58.31 31.27,-20.94 5.09,-5.45 25.93,-29.94 18.65,-21.9 18.12,-11.65 31.08,-24.83l23.36 -30.55c78.67,-28.77 393.08,119.47 426.9,113.14 21.47,-47.86 25.8,-136.08 13.62,-184.27 -99.33,-55.47 -281.13,-117.24 -402.47,-142.39 -12.31,-101.58 -68.04,-135.44 -91.68,-162.18 -25.24,-28.54 -2,-17.38 -73.37,-57.69 -90.38,-51.06 -219.44,-31.91 -302.35,20.06 -83.13,52.12 -62.31,59.4 -116.57,145.85 -58.33,17.56 -149.41,10.47 -213.6,20.15 -130.74,19.7 -466.34,98.49 -560.94,156.29z"/>
   <path class="fil6" d="M216.2 1049.79c-37.02,-6.28 -63.43,-29.59 -81.36,-47.64 -24.9,-25.06 -37.99,-55.18 -39.02,-96.95l-74.07 22.47c-3.32,68.81 0.05,120.38 15.98,190.24l178.47 -68.12z"/>
  </g>
 </g>
</svg>
