<?xml version="1.0" encoding="UTF-8"?>
<!DOCTYPE svg PUBLIC "-//W3C//DTD SVG 1.1//EN" "http://www.w3.org/Graphics/SVG/1.1/DTD/svg11.dtd">
<!-- Creator: CorelDRAW 2017 -->
<svg xmlns="http://www.w3.org/2000/svg" xml:space="preserve" width="46.3972mm" height="29.5486mm" version="1.1" style="shape-rendering:geometricPrecision; text-rendering:geometricPrecision; image-rendering:optimizeQuality; fill-rule:evenodd; clip-rule:evenodd"
viewBox="0 0 4639.72 2954.86"
 xmlns:xlink="http://www.w3.org/1999/xlink">
 <defs>
  <style type="text/css">
   <![CDATA[
    .str1 {stroke:#0153B5;stroke-width:157.66;stroke-linecap:round;stroke-linejoin:round;stroke-miterlimit:22.9256}
    .str0 {stroke:#2D2D2D;stroke-width:157.66;stroke-linecap:round;stroke-linejoin:round;stroke-miterlimit:22.9256}
    .fil42 {fill:none;fill-rule:nonzero}
    .fil2 {fill:#0153B5}
    .fil33 {fill:#0153B5}
    .fil14 {fill:#0155B6}
    .fil47 {fill:#01645B}
    .fil15 {fill:#022229}
    .fil27 {fill:#080B0D}
    .fil48 {fill:#127168}
    .fil9 {fill:#2D2D2D}
    .fil0 {fill:#2D2D2D}
    .fil16 {fill:#36A339}
    .fil32 {fill:#36A43A}
    .fil46 {fill:#66B018}
    .fil45 {fill:#7ABEB3}
    .fil1 {fill:#87B2DF}
    .fil23 {fill:#8D4C20}
    .fil12 {fill:#A9CDEE}
    .fil20 {fill:#AB0101}
    .fil4 {fill:#ABD9D6}
    .fil13 {fill:#ADA399}
    .fil7 {fill:#ADD9D5}
    .fil19 {fill:#AFF984}
    .fil26 {fill:#CA6414}
    .fil28 {fill:#CE4B0F}
    .fil21 {fill:#CEC8B1}
    .fil11 {fill:#D1D1D1}
    .fil10 {fill:#D20E00}
    .fil25 {fill:#D6F1B1}
    .fil24 {fill:#D9DAD6}
    .fil38 {fill:#E35313}
    .fil29 {fill:#E9F6F1}
    .fil18 {fill:#ECF8E6}
    .fil36 {fill:#EF7800}
    .fil17 {fill:#F1FEE9}
    .fil22 {fill:#F2DC05}
    .fil37 {fill:#F5E072}
    .fil39 {fill:#F5E173}
    .fil6 {fill:#F6FDFD}
    .fil41 {fill:#F8BC98}
    .fil31 {fill:#FA2C0D}
    .fil35 {fill:#FBFBEA}
    .fil5 {fill:#FDE2C5}
    .fil8 {fill:#FDF379}
    .fil30 {fill:#FDFEFE}
    .fil40 {fill:#FED525}
    .fil3 {fill:#FFD824}
    .fil34 {fill:white}
    .fil44 {fill:#F2DC05;fill-rule:nonzero}
    .fil43 {fill:#FFCB08;fill-rule:nonzero}
   ]]>
  </style>
 </defs>
 <g id="Capa_x0020_1">
  <metadata id="CorelCorpID_0Corel-Layer"/>
  <path class="fil0" d="M3005.7 1445.86l1.79 28.41c-17.04,30.78 -3.34,29.68 -63.66,53.26 -28.53,11.15 -56.05,25.93 -80.95,41.65 -206.63,130.52 -282.04,396.31 -291.08,639.96 -0.54,14.52 -4.48,99.29 -2.8,105.73 7.85,30.15 99.17,39.6 94.43,143.72 -3.56,77.91 -60.1,134.59 -132.81,162.5 -11.32,4.34 -39.91,12.02 -47.16,16.2 5.93,16.8 40.21,53.03 42.73,88.15 8.36,116.88 -46.13,189.75 -174.14,210.02 -74.16,11.74 -144.11,-31.21 -178.83,-71.92 -19.18,-22.48 -34.16,-54.68 -41.69,-89.91 -13.41,-62.81 13.3,-93.45 12.07,-107.45 -74.85,-0.72 -152.04,3.8 -227.1,3.88 -74.08,0.07 -147.11,-5.85 -221.64,-4.92 6.73,16.36 37.6,46.44 43.23,98.1 14.35,131.66 -170.49,247.3 -310.74,158.34 -27.62,-17.53 -44.96,-34.91 -66.26,-68.41 -33.08,-52.04 -37.9,-126.6 -1.41,-180.53 3.02,-4.46 4.64,-6.35 7.37,-10.11l6.15 -10.99c-14.96,-5.17 -60.12,-3.05 -79.88,-5.79 -32.69,-4.54 -34.08,-21.8 -49.25,-44.98l-1.58 -25.15c19.94,-37.13 17.68,-40.99 74.18,-38.14 306.07,15.46 662.63,39.45 964.33,10.62 66.94,-6.4 151.07,-14.89 214.27,-29.91 9.51,-2.26 29.61,-15.1 35.97,-20.25 9.22,-7.46 17.49,-21.94 19.11,-38.33 9.05,-91.89 -231.76,-42.46 -280.33,-39.42 -284.94,17.86 -584.02,17.32 -857.02,-14.27 -121.16,-14.01 -140.37,3.51 -148.96,-75.79 -7.9,-73 -13.85,-147.51 -21.09,-221.28 -7.31,-74.51 -17.36,-145.37 -24.8,-218.1 -3.67,-35.88 -8.6,-72.86 -14.08,-107.69 -4.91,-31.27 -13.23,-73.84 -14.89,-104.52 1.97,-45.55 40.51,-51.43 83.54,-51.54 282.93,-0.74 610.73,-12.45 890.07,-26.07l388.55 -18.48c25.1,-1.31 102.68,0.6 117.41,-13.58 42.06,-40.51 99.21,-77.16 157.23,-109.45 28.49,-15.86 114.73,-61.38 147.27,-47.4 14.62,6.28 17.86,14.13 24.91,24.58l5.82 7.45c0.22,-0.5 1.11,1.25 1.72,1.81z"/>
  <path class="fil1" d="M3858.79 1642.05l-44.74 92.73c11.4,26.62 29.53,64.15 8.56,101.41 -11.05,19.63 -48.53,41.71 -79.06,53.99 -8.11,35.21 -32.47,69.52 -51.82,97.34 -23.83,34.23 -30.64,58.75 -45.24,103.01 -11.38,33.33 -38.01,90.87 -58.94,110.9 -9.63,22.14 -36.91,55.11 -54.28,74.96 -21.7,24.8 -48.34,39.95 -57.26,72.65 26.47,4.73 73.12,31.1 94.96,42.58 23.13,12.17 38.55,29.3 57.38,46.46l24.32 18.51c50.61,-25.2 -8.93,-9.97 51.38,-88.91 43.97,-57.53 78.32,-102.87 107.85,-174.1 14.2,-34.3 21.07,-88.01 35.81,-111.19 21.38,-33.61 39.29,-34.45 56.21,-84.55 13.78,-40.84 30.4,-58.81 51.07,-90.31l82.22 -132.2c27.36,-48.76 14.17,-34.97 35.23,-39.99 25.87,44.75 0.13,294.07 -15.69,353.96 -13.36,50.57 4.44,65.51 -2.57,112.06 -10.84,72.03 -28.85,143.88 -36.73,216.41 -15.13,139.19 -72.2,119.69 -68.16,190.56l180.69 45.89c16.35,-21.85 13.89,-12.74 18.76,-50.49 2.85,-22.13 6.82,-39.84 12.79,-60.07 52.44,-177.75 63.13,-156.87 75.76,-371.55 6.7,-113.87 85.41,-279.89 98.36,-502.59 0.31,-14.07 1.4,-29.93 0.68,-43.76 -0.98,-18.89 4.02,-31.24 -10.39,-28.13 -28.86,6.11 -59.14,36.57 -82.44,52.84 -33.52,23.44 -42.71,42.07 -68.79,61.33l-3.93 -18.24c-20.26,-19.28 -48.32,-73.26 -67.66,-99.92 -42.53,-3.44 -76.45,6.14 -114.02,-8.68l-87.29 -17.45c-22.03,4.79 -21.99,14.15 -28.93,31.03 -7.67,18.65 -6.32,26.26 -14.09,43.51z"/>
  <path class="fil2" d="M4232.72 1392.51l17 -16.15c43.32,21.68 85.81,50.04 109.28,90.96 -9.58,13.06 -5.04,11.94 -23.02,17.97 -24.67,-28.55 -15.81,-30.34 -47.57,-50.1 -20.32,-12.63 -41.79,-25.09 -55.69,-42.68zm-235.24 -390.47c-8.99,-37.86 32.12,-42.79 23.57,-1.52l-23.57 1.52zm13.35 -66.19c-5.86,13.37 -4.33,10.52 -18.1,23.36 -12.79,11.94 -10.38,12.88 -18.93,12.29 -18.12,-18.08 -49.01,-52.5 -85.22,-60.94 -28.48,35.77 -56.3,215.43 -61.69,273.74 -7.78,36.05 -15.54,17.66 -26.76,47.24 -12.35,32.57 1.51,26.3 -21.23,58.55 -21.62,30.65 -45.53,57.32 -67.23,85.38 22.41,-6.62 16.68,-8.53 30.6,-0.09 -6.12,17.9 -14.98,14.64 -61.64,39.32 -7.76,7.1 -21.74,18.14 -33.74,31.45 -8.93,9.9 -18.79,24.51 -28.26,37.03 20.52,25.32 12.88,6 57.68,18.55 88.37,24.73 85.27,110.3 110.5,128.28l15.91 3.28c5.82,-70.75 9.88,-149.37 26.65,-218.54 8.03,-33.09 46.29,-171.3 58.53,-191.16l44.35 -187.84 17.92 25.74 19.38 -35.62c0.72,-1.3 1.96,-3.4 2.55,-4.46 0.6,-1.07 1.66,-3.04 2.62,-4.49 5.23,193.92 1.51,322.23 84.23,490.82l44.17 85.9c19.34,26.66 47.4,80.64 67.66,99.92 23.86,-25.83 33.41,-28.24 57.68,-51.78 12.68,-12.29 47.45,-37.59 67.58,-49.03 60.72,-34.55 102.78,-50.08 183.79,-43.6 23.04,3.16 3.59,2.57 10.91,-8.28 -4.36,-18.66 -9.5,-36.01 -11.75,-49.62 -17.31,-14.07 -55.1,-61.99 -100.71,-103.12 -14.33,-12.93 -21.54,-24.24 -35.96,-37.36 -48.55,-44.16 -18.76,-34.45 -44.31,-59.89 -16.16,-16.09 -6.31,6.45 -16.48,-20.43 -9.99,-26.38 -20.36,-81.92 -29.74,-113.43 -36.87,-37.56 -68.38,-83.03 -88.88,-135.64 -32.47,-83.38 -43.96,-81.54 7.52,-160.07l-38.91 1.18c-24.23,7.58 -39.37,19.7 -61.97,31.94 -28.88,15.66 -37.74,29.87 -58.72,41.42z"/>
  <path class="fil3" d="M3915.05 429.62c-15.32,-26.04 -2.7,-48.32 27.35,-43.19l-27.35 43.19zm40.4 -181.94c5.62,-11.88 8.8,-15.02 15,-27.2 24.59,13.72 27.14,14.57 34.58,43.92l-49.58 -16.72zm34.01 -49.03c12.56,-30.13 9.84,-22.2 23.47,-31.32 10.71,16.63 30.99,34.27 27.54,65.32l-51.01 -34zm-55.01 -56.68l-12.51 33.83 -51.31 -12.29 -35.64 21.67 72.23 4.62 -6.8 25.95 -91.2 -11.15 -89.5 32.72c-1.45,-50.45 -28.98,-126.41 -58.62,-152.71 -19.01,16.82 -30.71,33.44 -38.7,62.07 10.62,72.09 23.77,82.63 48,136.05 12.66,27.88 0.7,45.15 5.42,80.04 3.6,26.6 12.36,42.88 13.66,72.35 48.24,-4.76 58.91,5.13 39.03,50.9 -20.7,-3.59 -21.25,-11.6 -35.94,-23.78 1.97,30.2 11.61,41.09 25.47,54.62 18.29,8.05 37.46,17.55 62.91,15.35 3.51,-19.53 1.78,-15.07 -6.38,-31.93l53.82 -5.35 13.84 -1.71c28.7,-9.46 44.5,-21.5 65.84,-31.26l-2.59 32.38 31.77 1.45c90.72,-26.39 71.43,-125.16 128.63,-115.81l3.57 -8.28 57.15 26.17 4.68 51.82c38.24,-4.84 5.01,-3.77 30.77,-24.41 -2.06,-10.18 3.31,-54.81 3.58,-73.38 0.51,-34.52 -5.52,-57.1 -7.99,-88.56l-13.73 -34.13c-19.29,-21.91 -18.25,-40.12 -43.22,-58.73 -22.92,-17.09 -46.83,-20.49 -76.07,-33.12l14.88 -40.63c-28.06,-14.45 -12.43,-26.67 -51.09,-27.51 -22.88,17.72 -33.82,47.9 -53.96,72.75z"/>
  <path class="fil4" d="M3482.14 1784.21c-31.79,-1.81 -55.6,9.33 -67.9,39.2 -0.66,19.95 3.46,31.93 15.33,53.75 13.99,25.7 22.32,22.97 34.13,44.22 14.44,6.88 25.24,12.97 44.08,19.52l9.61 36.82 -5.21 -35.84 25.16 3.15c29.44,-14.02 45.64,-19.33 47.98,-55.97 2.69,-42.18 -22.04,-50.44 -36.08,-68.43 83.48,10.16 115.38,6.82 178.97,-25.66 0.43,57.41 -3.58,42.63 15.34,95.21 30.53,-12.28 68.01,-34.36 79.06,-53.98 20.97,-37.27 2.84,-74.8 -8.56,-101.41l-35.28 -2.16c8.36,-20.61 20.47,-22.64 10.69,-49.45 -3.17,-8.67 -9.74,-16.77 -10.49,-27.24 -2.26,-31.31 -8.78,-14.63 7.84,-25.92 -25.23,-17.99 -22.13,-103.56 -110.5,-128.29 -44.8,-12.54 -37.16,6.77 -57.68,-18.55 -34.52,29.09 -96.23,21.57 -134.91,69.58 -77.56,96.28 8.07,232 -1.58,231.45z"/>
  <path class="fil5" d="M3964.63 616.85l-51.54 102.63c-2.52,-2.48 -8.24,3.8 -14.16,-34.36 -2.16,-13.86 -3.17,-27.39 -4.24,-41.37 -9.16,16.84 -5.61,16.57 -9.15,36.64l-1.95 -47.32 -95.94 31.76c11.38,33.06 6.19,38.56 25.46,68.9 12.15,19.12 25.99,42.2 31.59,66.67 5.39,7.41 8.7,13.79 14.92,21.55 9.99,12.48 7.52,5.98 16.44,19 36.23,5.31 97.26,14.2 113.4,42.9 5.2,22.4 -13.33,56.34 -15.66,87.65 8.55,0.59 6.14,-0.35 18.93,-12.29 13.77,-12.84 12.24,-9.99 18.1,-23.36 5.89,-31.62 28.46,-51.48 39.24,-85.76 10.49,-33.38 10.67,-80.49 11.25,-117.75 26.86,9.37 18.42,16.53 43.4,31.13 18.94,-36.3 13.67,-21.62 52.68,-37.51l18.7 -26.22c11.85,-64.64 -20.61,-80.56 -62.59,-38.25 -12.35,-22.13 -22.39,-52.47 -34.52,-65.27l-114.36 20.63z"/>
  <path class="fil5" d="M4305.71 1145.3c27.25,10.65 42.19,43.08 63.52,62.02 33.96,30.16 33.02,31.07 43.08,85.75 9.91,53.91 46.81,146.28 66.68,198.18 2.25,13.61 7.39,30.96 11.75,49.62 -7.32,10.85 12.13,11.44 -10.91,8.28l9.41 1.96 5.5 17.36 0.01 2.89 41.48 -13.11c22.7,-12.19 21.55,-7.96 49.54,-2.34 -16.27,-126.61 -28.29,-320.26 -104.53,-399.44 -17.98,-18.67 -22.28,-17.12 -39.58,-39.99 -14.27,-18.87 -30.35,-25.82 -35.44,-46.46l-33.46 -30.2c-41.59,6.95 -83.19,46.17 -99.21,74.36 6.56,4.07 11.07,6.1 17.32,11.89 12.4,11.46 1.11,0.46 9.28,10.59 0.71,0.89 2.3,5.28 2.81,4.25 0.51,-1.06 1.93,2.87 2.75,4.39z"/>
  <path class="fil5" d="M3737.11 1153.78l53.44 -28.38c-18.73,-50.56 -57.19,-52.38 -77.34,-87.72l-27.82 11.23c-19.97,13.94 -47.78,27.33 -76.54,35.29 2.56,-33.98 2,-67.38 4.13,-101.29 0.95,-15.13 2.16,-30.33 4.18,-45.34 6.06,-44.95 7.43,-30.23 -2.5,-40.98l-72.76 -9.23c-11.38,5.87 -36.28,132.84 -42.29,153.95 -16.09,56.47 -37.37,124.55 -14.47,179.47 68.48,20.56 187.08,-50.85 251.97,-67z"/>
  <path class="fil6" d="M4170.43 861.31c-51.48,78.53 -39.99,76.69 -7.52,160.07 20.5,52.61 52.01,98.08 88.88,135.64l53.92 -11.72c-0.82,-1.52 -2.24,-5.45 -2.75,-4.39 -0.51,1.03 -2.1,-3.36 -2.81,-4.25 -8.17,-10.13 3.12,0.87 -9.28,-10.59 -6.25,-5.79 -10.76,-7.82 -17.32,-11.89 16.02,-28.19 57.62,-67.41 99.21,-74.36l33.46 30.2 23.43 -37.17c-25.71,-41.74 -59.77,-55.17 -91.49,-76.37 -23.98,-16.01 -12.11,-12.76 -26.48,-28.74 -15.95,-17.72 -17.08,-8.85 -34.21,-20.9 -11.39,-8.02 -16.58,-20.16 -24.66,-30.49 -27.24,-34.85 -49.81,-29.52 -82.38,-15.04z"/>
  <path class="fil3" d="M4228.41 277.55c15.92,13.78 8.24,20.24 17.16,29.72 13.45,14.27 25.36,7.24 38.86,13.96l-8.43 253.25c64.26,-12.44 119.99,-45.05 165.7,-66.73 -1.02,-65.7 -16.56,-189.03 -45.74,-240.46 -40.32,-3.85 -79.16,13.19 -118.08,19.8l-13.21 -44.98 -52.78 2.9c8.45,10.15 3.58,5.69 7.6,14.31 4.23,9.05 -0.88,4.33 8.92,18.23z"/>
  <path class="fil7" d="M3587.55 2201.43c20.93,-20.03 47.56,-77.57 58.94,-110.9 -29.65,-16.39 -31.25,-45.62 -91.38,-30.6 -31.05,7.75 -8.59,9.73 -22.24,1.37 -2.58,1.14 -13.56,4.5 -20.25,6.3l2.32 -34.52c-5.99,8.72 -8.08,8.15 -15.77,14.82 -10.06,-28.93 -24.74,-41.39 -34.17,-84.18 -29.2,-19.59 -55.35,-71.05 -118.08,-45.34 -75.14,30.8 -90.3,193.08 44.26,160.91 27.52,-6.59 36.15,3.55 64.41,10.4 36.61,8.87 46.16,5.67 81.74,2.38 -3.43,61.61 14.02,90.44 50.22,109.36z"/>
  <path class="fil8" d="M3537.34 1945.03c1.8,66.03 15.26,42.33 -4.47,116.27 13.65,8.36 -8.81,6.38 22.24,-1.37 60.13,-15.02 61.73,14.21 91.38,30.6 14.6,-44.26 21.41,-68.78 45.24,-103.01 19.35,-27.82 43.71,-62.13 51.82,-97.34 -18.92,-52.58 -14.91,-37.81 -15.34,-95.21 -63.59,32.48 -95.49,35.81 -178.97,25.65 14.04,17.99 38.77,26.25 36.08,68.44 -2.34,36.64 -18.54,41.95 -47.98,55.97z"/>
  <path class="fil9" d="M3887.9 1223.59c24.13,48.57 59.36,145.07 46.72,200.67 -5.81,32.08 -13.8,32.32 -14.86,69.03 19.92,4.46 45.21,14.86 71.35,15.68l67.84 -1.23c-82.72,-168.59 -79,-296.9 -84.23,-490.82 -0.96,1.45 -2.02,3.42 -2.62,4.49 -0.59,1.06 -1.83,3.16 -2.55,4.46l-19.38 35.62 -17.92 -25.74 -44.35 187.84z"/>
  <path class="fil10" d="M4065.88 379.98c21.83,56.2 36.96,88.9 42.16,159.4 -200.09,-8.07 -213.35,-1.79 -353.5,83.62l-9.27 5.89c18.91,21.78 11.81,-2.1 18.35,21.26 -26.77,17.12 -22.55,-1.13 -35.24,25.72 -4.62,9.77 -11.34,31.19 -15.43,41.11 13.21,-4.06 37.1,-25.58 53.55,-35.66 9.93,-9.15 9.23,-7.7 21.15,-16.49l95.94 -31.76c22.03,-2.58 52.66,-13.33 81.04,-16.22l114.36 -20.63c3.87,-8.83 26.75,-37.81 36.35,-46.4 33.67,-6.13 47.51,-0.79 79.57,3.41l-32.86 -127.95c-25.76,20.64 7.47,19.57 -30.77,24.41l-4.68 -51.82 -57.15 -26.17 -3.57 8.28z"/>
  <path class="fil6" d="M3685.39 1048.91l27.82 -11.23c20.15,35.34 58.61,37.16 77.34,87.72l-53.44 28.38c7.09,10.95 24.97,31.65 38.86,40.73 23.4,15.27 37.65,1.7 50.92,-10.21 5.39,-58.31 33.21,-237.97 61.69,-273.74 36.21,8.44 67.1,42.86 85.22,60.94 2.33,-31.31 20.86,-65.25 15.66,-87.65 -16.14,-28.7 -77.17,-37.59 -113.4,-42.9 -20.65,11.59 -70.36,61.72 -79.28,80.73l54.82 -10.49c-50.36,64.94 -88.81,80.22 -167.19,113.42l0.98 24.3z"/>
  <path class="fil6" d="M3937.25 495.79l-115.01 37.4 6.15 -38.26 -53.82 5.35c8.16,16.86 9.89,12.4 6.38,31.93 -25.45,2.2 -44.62,-7.3 -62.91,-15.35 -8.01,13.41 10.08,66.95 15.74,81.62 10.98,28.53 3.4,18.21 20.76,24.52 140.15,-85.41 153.41,-91.69 353.5,-83.62 -5.2,-70.5 -20.33,-103.2 -42.16,-159.4 -57.2,-9.35 -37.91,89.42 -128.63,115.81z"/>
  <path class="fil11" d="M3526.66 2668.79l-16.49 -20.27c-15.43,-25.34 -12.34,-44.4 -22.99,-56.4l-3.08 27.16c-3.63,-21.1 -81.14,-59.59 -91.91,-60.9l51.09 -3.15c-23.51,-21.2 -42.49,12.49 -73.09,-24.05 -10.44,-12.47 -29.82,-45.66 -34.88,-68.32 -11.73,-5.31 -29.52,-23.57 -35.96,-32.33l-18.64 -38.2c-0.77,-1.69 -4.37,-7.06 -4.84,-10.12 -0.46,-2.92 -1.78,-3.46 -2.63,-5.2 -39.53,0.34 -35.98,-3.97 -65.43,13.67 2.77,85.5 117.47,163.34 175.86,218.98 15.63,14.9 22.33,26.83 37.85,41.83 6.74,6.52 32.52,28.97 46.83,34.03 17.5,6.18 24.33,8.33 45.53,-5.5 1.58,-1.03 7.64,-4.55 8.53,-7.29 0.84,-2.59 2.84,-2.63 4.25,-3.94z"/>
  <path class="fil12" d="M3914.09 2703.27c11.42,7.87 19.81,14.62 34.63,21.81 20.15,9.79 26.61,7 34.65,22.99 21.02,-4.31 11.01,-7.85 14.78,8.46l2.02 5.06c0.79,-1.01 9.04,-11.42 9.47,-12.04l48.18 7.54c40.3,1.85 45.74,-5.18 58.77,-38.33 9.88,-25.12 17.78,-38.73 13.39,-64.54l-180.69 -45.89c-29.46,21.71 -30.94,53.32 -35.2,94.94z"/>
  <path class="fil13" d="M3802.72 1633.29c14.69,-11.24 -5.09,-8.87 23.94,-1.38 9.6,2.48 19.05,6.98 32.13,10.14 7.77,-17.25 6.42,-24.86 14.09,-43.51 6.94,-16.88 6.9,-26.24 28.93,-31.03l3.15 -14.41c-25.49,10.65 -25.75,9.1 -55.22,5.5 -1.95,-2.24 -13.49,-14.67 -13.7,-15.03 -12.37,-20.15 -7.56,-9.35 1.29,-15.48 -10.65,-10.71 -9.78,-5.13 -10.65,-24.09 -0.25,-5.58 4.16,-18.51 7.43,-23.35 12.88,-19.01 16.86,-9.06 30.46,-24.76 25.95,-29.91 10.28,-40.75 70.05,-31.63 12.64,-55.6 -22.59,-152.1 -46.72,-200.67 -12.24,19.86 -50.5,158.07 -58.53,191.16 -16.77,69.17 -20.83,147.79 -26.65,218.54z"/>
  <path class="fil12" d="M3417.42 2420.16c28.88,4.33 51,13.38 74.57,25.84 10.74,5.68 23.82,15 33.27,21.76 16.39,11.73 17.97,12.97 26.71,24.56l23.58 28.56 12.71 23.57c14.42,-4.61 2.56,1.03 14.17,-8.97 0.65,-0.55 6.82,-7.39 8.78,-9.35 25.56,-25.7 37.95,-19.87 41.46,-69.54l-24.32 -18.51c-18.83,-17.16 -34.25,-34.29 -57.38,-46.46 -21.84,-11.48 -68.49,-37.85 -94.96,-42.58 -21.34,11.96 -11.11,15.87 -31.16,35.13 -22.09,21.23 -28.36,7.01 -27.43,35.99z"/>
  <path class="fil14" d="M3983.37 2748.07c-14.7,13.89 -66.54,37.85 -89.45,48.51 -20.65,9.6 -32.89,11.91 -55.19,18.11 -31.7,8.83 -19.39,6.18 -42.6,24.5 6.99,16.58 9.83,15.71 32.46,24.19 15.11,5.65 27.92,9.68 44,11.94 66.67,-30.81 112.68,-44.68 145.77,18.78l40.92 0.97c11.06,-26.45 18.13,-54.01 14.41,-80.74 -23.21,3.56 -46.44,21.43 -70.56,3.61 -17.55,-12.97 -22.55,-42.58 -4.98,-61.41 -3.77,-16.31 6.24,-12.77 -14.78,-8.46z"/>
  <path class="fil15" d="M4078.99 596.22c12.13,12.8 22.17,43.14 34.52,65.27 41.98,-42.31 74.44,-26.39 62.59,38.25 22.02,-2.3 33.05,-14.79 57.4,-23.87 -1.49,-0.82 -3.83,-3.56 -4.63,-2.17l-23.14 -8.28 82.23 -37.76c-19.09,-19.46 -34.68,-21.49 -55.61,-37.93 -20.08,-15.77 15.69,-9.15 -37.44,-36.5 -32.06,-4.2 -45.9,-9.54 -79.57,-3.41 -9.6,8.59 -32.48,37.57 -36.35,46.4z"/>
  <path class="fil2" d="M3335.31 2462.86c5.06,22.66 24.44,55.85 34.88,68.32 30.6,36.54 49.58,2.85 73.09,24.05 21.91,-0.51 28.06,4.67 41.64,13.14l2.26 23.75c10.65,12 7.56,31.06 22.99,56.4l16.49 20.27c2.6,-17.15 34.14,-56.96 42.67,-97.9 -16.91,7.14 -28.15,10.32 -49.99,4.38 -38.63,-32.89 -44.98,-44.09 -12.22,-89.09 -42.93,-4.82 -51.43,-6.44 -89.33,-21.05 -31.72,-12.24 -53.08,-4.48 -82.48,-2.27z"/>
  <path class="fil16" d="M4501.15 1643.97c-4.65,20.7 -25.06,65.93 -17.21,79.66 29.16,2.41 38.66,4.16 47.92,26.44 52.37,-25.81 40.55,12.2 103.03,-12.61 9.64,-25.07 5.5,-36.45 0.82,-64.07l-23.97 -47.33c-23.89,0.94 -37.15,4.38 -60.84,7.89 -23.49,3.48 -34.64,1.4 -49.75,10.02z"/>
  <path class="fil17" d="M3801.79 2726.11c-42.78,-4.32 -69.87,-0.45 -85.95,26.89 28.48,26.88 42.12,108.54 80.29,86.19 23.21,-18.32 10.9,-15.67 42.6,-24.5 22.3,-6.2 34.54,-8.51 55.19,-18.11 22.91,-10.66 74.75,-34.62 89.45,-48.51 -8.04,-15.99 -14.5,-13.2 -34.65,-22.99 -14.82,-7.19 -23.21,-13.94 -34.63,-21.81l-2.4 28.47c18.21,2.65 42.51,4.24 48.09,19.07l-40.5 -9.42c-8.27,17.37 0.51,18.26 -12.32,37.13 -25.9,0.12 -12.32,-2.98 -38.19,-15.29 -3.44,23.49 -0.33,26.4 -12.56,36.96 -15.78,-4.98 -8.31,-23.21 -54.42,-74.08z"/>
  <path class="fil16" d="M3556.81 796.77l-1.33 19.95c31.83,7.23 56.93,19.48 87.14,5.01 16.52,-13.47 39.32,-43.84 48.03,-64.6 -16.26,-11.84 -20.28,0.19 -34.97,10.59l-6.09 -23.86c-4.47,-22.19 -2.93,-11.4 -0.75,-31.48l5.06 -65.03 -20.53 0c-26.92,4.58 -25.72,0.2 -35.97,19.77 -3.15,6.02 -12.1,34.51 -13.88,41.55 -8.53,33.6 -14.04,57.96 -26.71,88.1z"/>
  <path class="fil18" d="M3335.31 2462.86c29.4,-2.21 50.76,-9.97 82.48,2.27 37.9,14.61 46.4,16.23 89.33,21.05 -32.76,45 -26.41,56.2 12.22,89.09 0,-11.01 -3.15,-9.2 6.74,-8.22 -22.6,-10.35 -28.36,-22.64 -27.69,-52.06 14.99,-17.78 24.84,-23.64 53.58,-22.67 -8.74,-11.59 -10.32,-12.83 -26.71,-24.56 -9.45,-6.76 -22.53,-16.08 -33.27,-21.76 -23.57,-12.46 -45.69,-21.51 -74.57,-25.84 -53.64,-9.52 -59.28,-49.87 -144.18,-43.15 0.85,1.74 2.17,2.28 2.63,5.2 0.47,3.06 4.07,8.43 4.84,10.12l18.64 38.2c6.44,8.76 24.23,27.02 35.96,32.33z"/>
  <path class="fil5" d="M3633.37 647.35l20.53 0 -5.06 65.03c-2.18,20.08 -3.72,9.29 0.75,31.48l6.09 23.86c14.69,-10.4 18.71,-22.43 34.97,-10.59 20.34,-9.52 40.42,-22.44 63.11,-37.5 27.34,-10.07 2.75,-2.58 4.41,-17.41l8.33 -20.9c-16.45,10.08 -40.34,31.6 -53.55,35.66 4.09,-9.92 10.81,-31.34 15.43,-41.11 12.69,-26.85 8.47,-8.6 35.24,-25.72 -6.54,-23.36 0.56,0.52 -18.35,-21.26l-5.81 1.43c-25.31,-0.48 -56.29,-32.6 -106.09,17.03z"/>
  <path class="fil13" d="M4325.94 1597.63c14.41,-3.11 9.41,9.24 10.39,28.13 0.72,13.83 -0.37,29.69 -0.68,43.76 65.9,-6.68 113.43,-33.42 157.57,-60.39l1.53 -37.77 -0.01 -2.89c-49.72,-0.23 -135.99,-3.34 -168.8,29.16z"/>
  <path class="fil6" d="M4010.83 935.85c20.98,-11.55 29.84,-25.76 58.72,-41.42 22.6,-12.24 37.74,-24.36 61.97,-31.94l19.98 -26.44c-12.98,-33.08 -23.39,-30.66 -33.7,-59.55l-13.08 -13.03c-24.98,-14.6 -16.54,-21.76 -43.4,-31.13 -0.58,37.26 -0.76,84.37 -11.25,117.75 -10.78,34.28 -33.35,54.14 -39.24,85.76z"/>
  <path class="fil11" d="M4059.28 2895.07l-40.92 -0.97c-41.97,0.89 -113.89,3.69 -145.77,-18.78 -16.08,-2.26 -28.89,-6.29 -44,-11.94 -22.63,-8.48 -25.47,-7.61 -32.46,-24.19 -38.17,22.35 -51.81,-59.31 -80.29,-86.19 -122.33,42.17 121.62,151.73 226.38,162.18 85.37,8.52 88.14,10.02 117.06,-20.11z"/>
  <path class="fil19" d="M4494.75 1571.36l-1.53 37.77 7.93 34.84c15.11,-8.62 26.26,-6.54 49.75,-10.02 23.69,-3.51 36.95,-6.95 60.84,-7.89 -14.92,-47.23 7.05,-77.61 -75.51,-67.81l-41.48 13.11z"/>
  <path class="fil20" d="M3837.33 1528.09c29.98,4.22 46.74,2.89 71.43,-9.11l11 -25.69c1.06,-36.71 9.05,-36.95 14.86,-69.03 -59.77,-9.12 -44.1,1.72 -70.05,31.63 -13.6,15.7 -17.58,5.75 -30.46,24.76 -3.27,4.84 -7.68,17.77 -7.43,23.35 0.87,18.96 0,13.38 10.65,24.09z"/>
  <path class="fil19" d="M3541.9 887.36l72.76 9.23c12.85,-7.58 18.43,-8.93 25.02,-27.85 6.45,-18.52 5.74,-28.2 2.94,-47.01 -30.21,14.47 -55.31,2.22 -87.14,-5.01l1.33 -19.95c-24.04,23.83 -32.55,59.4 -14.91,90.59z"/>
  <path class="fil15" d="M3766.5 681.32l-8.33 20.9c-1.66,14.83 22.93,7.34 -4.41,17.41 -11.61,26.19 -22.15,31.38 -31.03,54.1l79.29 7.24c-0.01,7.42 -3.44,-1.43 0.76,9.73l41.92 9.7c-5.6,-24.47 -19.44,-47.55 -31.59,-66.67 -19.27,-30.34 -14.08,-35.84 -25.46,-68.9 -11.92,8.79 -11.22,7.34 -21.15,16.49z"/>
  <path class="fil21" d="M3988.7 1522.51c16.74,9.94 13.79,11.59 27.82,25.66l-25.08 21.99 -2.34 14.8c37.57,14.82 71.49,5.24 114.02,8.68l-44.17 -85.9 -67.84 1.23 -2.41 13.54z"/>
  <path class="fil22" d="M4170.78 1693.56l3.93 18.24c26.08,-19.26 35.27,-37.89 68.79,-61.33 23.3,-16.27 53.58,-46.73 82.44,-52.84 32.81,-32.5 119.08,-29.39 168.8,-29.16l-5.5 -17.36 -9.41 -1.96c-81.01,-6.48 -123.07,9.05 -183.79,43.6 -20.13,11.44 -54.9,36.74 -67.58,49.03 -24.27,23.54 -33.82,25.95 -57.68,51.78z"/>
  <path class="fil23" d="M3908.76 1518.98l-3.8 34.12 -3.15 14.41 87.29 17.45 2.34 -14.8 -2.74 -47.65 2.41 -13.54c-26.14,-0.82 -51.43,-11.22 -71.35,-15.68l-11 25.69z"/>
  <path class="fil24" d="M3801.79 2726.11c46.11,50.87 38.64,69.1 54.42,74.08 12.23,-10.56 9.12,-13.47 12.56,-36.96 25.87,12.31 12.29,15.41 38.19,15.29 12.83,-18.87 4.05,-19.76 12.32,-37.13l40.5 9.42c-5.58,-14.83 -29.88,-16.42 -48.09,-19.07l2.4 -28.47c-1.49,0.88 -3.28,2.27 -4.3,2.93l-20.7 11.88c-9.24,3.6 -18,4.72 -29.56,7.01 -29.69,5.86 -26.37,1.9 -57.74,1.02z"/>
  <path class="fil25" d="M3802.72 1633.29l-15.91 -3.28c-16.62,11.3 -10.1,-5.38 -7.84,25.93 0.75,10.46 7.32,18.57 10.49,27.24 9.78,26.81 -2.33,28.84 -10.69,49.44l35.28 2.16 44.74 -92.73c-13.08,-3.16 -22.53,-7.66 -32.13,-10.14 -29.03,-7.49 -9.25,-9.86 -23.94,1.38z"/>
  <path class="fil10" d="M3526.08 2567.05c34.72,2.68 57.36,-8.19 49.47,-46.17l-23.58 -28.56c-28.74,-0.97 -38.59,4.89 -53.58,22.67 -0.67,29.42 5.09,41.71 27.69,52.06z"/>
  <path class="fil17" d="M3872.59 2875.32c31.88,22.47 103.8,19.67 145.77,18.78 -33.09,-63.46 -79.1,-49.59 -145.77,-18.78z"/>
  <path class="fil26" d="M3465 1963.72c9.43,42.79 24.11,55.25 34.17,84.18 7.69,-6.67 9.78,-6.1 15.77,-14.82l2.45 -55.36 -9.61 -36.83c-18.84,-6.55 -29.64,-12.63 -44.08,-19.52l1.3 42.35z"/>
  <path class="fil22" d="M4359 1467.32c-23.47,-40.92 -65.96,-69.28 -109.28,-90.96l-17 16.15c13.9,17.59 35.37,30.05 55.69,42.68 31.76,19.76 22.9,21.55 47.57,50.1 17.98,-6.03 13.44,-4.91 23.02,-17.97z"/>
  <path class="fil15" d="M3883.59 633.07l1.95 47.32c3.54,-20.07 -0.01,-19.8 9.15,-36.64 1.07,13.98 2.08,27.51 4.24,41.37 5.92,38.16 11.64,31.88 14.16,34.36l51.54 -102.63c-28.38,2.89 -59.01,13.64 -81.04,16.22z"/>
  <path class="fil10" d="M4000.17 2761.59c-4.86,52.29 22.63,68.06 65.36,37.75 2.26,-19.91 -0.29,-29.13 -7.71,-42.25l-48.18 -7.54c-0.43,0.62 -8.68,11.03 -9.47,12.04z"/>
  <path class="fil27" d="M3988.41 69.22c38.66,0.84 23.03,13.06 51.09,27.51l24.34 -96.89c-29.31,10.19 -25.36,9.39 -43.21,30.56 -18,21.36 -24.87,10.56 -32.22,38.82z"/>
  <path class="fil28" d="M4143.91 229.21l13.73 34.13 25.02 -7.2 16.56 29.01 29.19 -7.6c-9.8,-13.9 -4.69,-9.18 -8.92,-18.23 -4.02,-8.62 0.85,-4.16 -7.6,-14.31 -13.25,-53.55 -27.26,-27.88 -67.98,-15.8z"/>
  <path class="fil27" d="M3622.4 146.68c7.99,-28.63 19.69,-45.25 38.7,-62.07 -8.97,-24.89 -26.79,-49.16 -46.35,-61 -10.05,38.73 3.06,85.01 7.65,123.07z"/>
  <path class="fil29" d="M3517.39 1977.72l-2.45 55.36 -2.32 34.52c6.69,-1.8 17.67,-5.16 20.25,-6.3 19.73,-73.94 6.27,-50.24 4.47,-116.27l-25.16 -3.15 5.21 35.84z"/>
  <path class="fil15" d="M4104.72 763.47l13.08 13.03 68.6 8.33 -51.87 -34.02 68.78 -17.18 -45.91 -7.67c-39.01,15.89 -33.74,1.21 -52.68,37.51z"/>
  <path class="fil17" d="M3487.18 2592.12l-2.26 -23.75c-13.58,-8.47 -19.73,-13.65 -41.64,-13.14l-51.09 3.15c10.77,1.31 88.28,39.8 91.91,60.9l3.08 -27.16z"/>
  <path class="fil30" d="M3837.33 1528.09c-8.85,6.13 -13.66,-4.67 -1.29,15.48 0.21,0.36 11.75,12.79 13.7,15.03 29.47,3.6 29.73,5.15 55.22,-5.5l3.8 -34.12c-24.69,12 -41.45,13.33 -71.43,9.11z"/>
  <polygon class="fil28" points="3809.22,204.6 3900.42,215.75 3907.22,189.8 3834.99,185.18 "/>
  <path class="fil31" d="M3689.48 435.12l3.09 27.12c14.69,12.18 15.24,20.19 35.94,23.78 19.88,-45.77 9.21,-55.66 -39.03,-50.9z"/>
  <path class="fil6" d="M3842.23 493.22l-6.05 23.4 69.3 -22.28 2.59 -32.38c-21.34,9.76 -37.14,21.8 -65.84,31.26z"/>
  <path class="fil28" d="M3989.46 198.65l51.01 34c3.45,-31.05 -16.83,-48.69 -27.54,-65.32 -13.63,9.12 -10.91,1.19 -23.47,31.32z"/>
  <polygon class="fil32" points="3937.25,495.79 3905.48,494.34 3836.18,516.62 3842.23,493.22 3828.39,494.93 3822.24,533.19 "/>
  <path class="fil22" d="M3711.67 1375.47c-7.24,5.4 -10.69,7.3 -17.01,14.17 -0.66,0.71 -8.09,10.43 -8.09,10.44 -6.7,11.58 -0.59,-0.87 -5.94,14.62 46.66,-24.68 55.52,-21.42 61.64,-39.32 -13.92,-8.44 -8.19,-6.53 -30.6,0.09z"/>
  <path class="fil28" d="M3955.45 247.68l49.58 16.72c-7.44,-29.35 -9.99,-30.2 -34.58,-43.92 -6.2,12.18 -9.38,15.32 -15,27.2z"/>
  <polygon class="fil28" points="3870.63,163.51 3921.94,175.8 3934.45,141.97 "/>
  <path class="fil31" d="M3915.05 429.62l27.35 -43.19c-30.05,-5.13 -42.67,17.15 -27.35,43.19z"/>
  <path class="fil27" d="M3991.44 1570.16l25.08 -21.99c-14.03,-14.07 -11.08,-15.72 -27.82,-25.66l2.74 47.65z"/>
  <path class="fil22" d="M3997.48 1002.04l23.57 -1.52c8.55,-41.27 -32.56,-36.34 -23.57,1.52z"/>
  <path class="fil33" d="M2971.88 1447.99l1.79 28.41c-17.04,30.78 -3.33,29.67 -63.65,53.25 -28.53,11.15 -56.06,25.93 -80.96,41.66 -206.63,130.52 -282.04,396.3 -291.08,639.95 -0.54,14.53 -4.48,99.3 -2.8,105.74 7.85,30.15 99.18,39.6 94.43,143.72 -3.56,77.91 -60.1,134.58 -132.81,162.49 -11.32,4.35 -39.9,12.03 -47.15,16.21 5.92,16.8 40.21,53.03 42.72,88.15 8.36,116.88 -46.13,189.75 -174.13,210.01 -74.17,11.75 -144.12,-31.2 -178.84,-71.91 -19.17,-22.48 -34.16,-54.68 -41.69,-89.91 -13.41,-62.81 13.3,-93.46 12.07,-107.45 -74.84,-0.73 -152.03,3.79 -227.1,3.87 -74.08,0.08 -147.11,-5.85 -221.64,-4.91 6.73,16.35 37.6,46.44 43.23,98.1 14.35,131.65 -170.49,247.3 -310.74,158.33 -27.62,-17.52 -44.96,-34.9 -66.26,-68.4 -33.08,-52.04 -37.9,-126.6 -1.4,-180.53 3.02,-4.46 4.63,-6.35 7.36,-10.11l6.15 -11c-14.96,-5.16 -60.12,-3.04 -79.88,-5.79 -32.69,-4.54 -34.08,-21.79 -49.24,-44.97l-1.59 -25.15c19.94,-37.13 17.68,-40.99 74.18,-38.14 306.08,15.46 662.63,39.45 964.34,10.61 66.93,-6.39 151.07,-14.88 214.26,-29.91 9.51,-2.26 29.61,-15.09 35.97,-20.24 9.23,-7.47 17.5,-21.94 19.11,-38.33 9.05,-91.9 -231.76,-42.46 -280.33,-39.42 -284.93,17.85 -584.02,17.32 -857.02,-14.27 -121.15,-14.02 -140.37,3.51 -148.95,-75.79 -7.91,-73.01 -13.85,-147.51 -21.09,-221.28 -7.31,-74.51 -17.36,-145.38 -24.8,-218.1 -3.67,-35.89 -8.61,-72.87 -14.08,-107.69 -4.92,-31.27 -13.24,-73.84 -14.9,-104.53 1.97,-45.54 40.51,-51.42 83.54,-51.53 282.93,-0.74 610.73,-12.46 890.07,-26.08l388.56 -18.47c25.09,-1.31 102.68,0.6 117.4,-13.58 42.06,-40.51 99.21,-77.17 157.24,-109.46 28.48,-15.85 114.73,-61.37 147.26,-47.39 14.62,6.28 17.86,14.13 24.92,24.58l5.82 7.45c0.21,-0.51 1.1,1.24 1.71,1.81z"/>
  <path class="fil0" d="M2428.13 2195.38l-3.47 99.95c-51.72,9.18 -218.33,18.15 -279.06,21.65l9.33 -135.12c17.88,-3.49 258.21,6.74 273.2,13.52zm-384.13 -15.34l-9.69 140.88c-59.17,4.81 -249.26,2.79 -312.76,-0.82l-7.88 -133c16.49,-6.8 297.74,-10.12 330.33,-7.06zm-435.4 134.86c-34.3,0.18 -251.69,-16.26 -269.6,-23.3l-9.29 -84.27 272.03 -17.78 6.86 125.35zm-9.16 -334.89l0.98 96.47c-9.91,4.04 -235.68,17.29 -281.6,18.99l-10.29 -98.82c77.99,-7.43 224.61,-13.11 290.91,-16.64zm458.46 -19.23c1.2,7.1 -1,87.25 -5.05,100.44 -1.38,4.49 -1.35,4.13 -3.04,7.06l-337.22 5.46c-4.53,-14.31 -2.45,-77.34 -2.58,-97.34 36.31,-8.21 132.27,-6.93 175.34,-8.94 57.25,-2.66 114.68,-3.61 172.55,-6.68zm381.52 121.64l-275.54 -11.93 6.83 -112.37c23.17,-7.12 253.87,-17.67 290.89,-17.45l-22.18 141.75zm57.93 -255.39l-319.37 18.71 3.65 -131.07c16.51,-8.21 245.98,-14.5 284.42,-16.38 23.48,-1.15 46.95,-2.29 70.42,-3.6 24.72,-1.38 22.7,-3.22 4.24,32.97 -16.79,32.9 -29.19,64.38 -43.36,99.37zm-427.8 -110.19c2.26,14.24 -1.13,117.87 -4.27,131.64 -22.22,5.44 -304.35,13.52 -352.05,15.25 -5.76,-14.31 -1.65,-111.12 0.59,-131.62 15.23,-4.87 315.13,-14.11 355.73,-15.27zm-467.77 16.11l-2.21 135.03 -304.22 17.58 -19.84 -145.45 326.27 -7.16z"/>
  <path class="fil34" d="M2294.76 2676.55c44.2,6.53 86.28,36.35 87.32,75.2 1.52,56.66 -47.03,79.71 -87.88,76.75 -132.78,-9.62 -98.84,-166.64 0.56,-151.95z"/>
  <path class="fil35" d="M2198.88 193.38l-4.01 -11.22 -18.07 -4.81 -16.04 6.37c11.55,23.86 4,12.16 13.42,16.68l20.5 6.97 4.2 -13.99z"/>
  <path class="fil36" d="M308.12 975.47c48.23,-53.21 54.52,-28.77 70.37,-61.25 -84.12,35.65 -54.34,28.03 -142.97,30.51 14.41,19.67 42.35,29.84 72.6,30.74zm191.53 -158.63l13.91 55.48c14.37,60.54 1.15,95.32 -29.11,141.3 -14.73,22.38 -30.68,26.38 -27.59,61.3 5.52,62.71 2.23,97.85 -21.29,154.02 -10,23.86 11.37,115.03 -70.05,147.41 -24.19,9.62 -25.01,2.32 -33.04,18.3l-17.74 5.89 -3.33 11.44 -18.76 -6.75c-0.97,-0.23 -2.73,-0.44 -3.69,-0.66 -28.62,-6.29 -35.62,-32.11 -11.12,-77.68 22.33,-41.54 -4.32,-33.23 -5.07,-33.48 21.11,-10.35 55.49,-8.6 80.52,-21.28 76.34,-38.65 92.19,-127.89 50.93,-205.89 -104.91,27.12 -77.82,4.3 -130.82,-13.18 -28.13,17.66 -43.14,36.16 -54.35,80.09 38.03,55.97 49.68,67.56 18.16,147.5l-13.21 35.29 -60.96 -20.79c-0.5,-16.79 -11.22,-45.96 -23.28,-58.07 -11.75,-11.78 -37.21,-14.15 -53.24,-21.55 -14,-6.46 -39.62,-25.47 -47.74,-32.37l-36.65 -40.61c-2.66,-27.35 -6.16,-57.04 1.54,-85.64 8.52,-31.64 26.19,-46.31 33.91,-67.09l4.87 -6.65 16.66 -3.26 -2.86 12.61 -3.2 8.18c-29.16,78.15 18.61,167.84 88.16,177.14 65.18,-86.13 40.34,-9.02 68.48,-79.59 30.58,-76.71 51.74,-30.63 54.54,-99.14 -102.53,-20.33 -79.63,-75.52 -83.07,-99.02 -7.99,-54.47 -32.98,-99.8 -2.88,-155.55 20.4,-37.77 61.46,-65.1 119.68,-61.7 165.13,9.65 98.29,283.35 201.69,134z"/>
  <path class="fil37" d="M272.77 1293.41l-35.56 -12.76c31.51,-79.94 19.86,-91.53 -18.16,-147.5 11.21,-43.93 26.22,-62.43 54.35,-80.1 53,17.49 25.91,40.31 130.82,13.19 41.26,78 25.41,167.24 -50.93,205.89 -25.04,12.68 -59.41,10.93 -80.52,21.28z"/>
  <path class="fil38" d="M53.05 1000.7l3.21 -8.18c52.05,0.36 56.36,-47.85 36.14,-78.84l-29.19 -38.65 -23.6 53.96c-13.31,13.53 -9.58,36.13 2.85,54.18l-4.88 6.65c-28.98,-15.71 -36.94,-51.52 -22.36,-76.47 13.69,-23.44 4.39,-9.05 25.6,-19.63 -9.04,-44.91 -30.29,-96.27 24.08,-103.5 -4.83,24.29 -2.43,21.27 15.08,37.35 27.31,-2.8 3.1,0.14 15.07,-6.04 36.53,-18.82 -18.8,-3.84 9.66,-5.91 13.86,14.09 18.08,25.8 20.24,53.95l9.29 1.49c0.72,0.16 2.64,0.51 3.4,0.71l10.83 3.61c-25.98,33.23 33.6,149.83 -95.42,125.32z"/>
  <path class="fil39" d="M163.04 1295.16c-11.01,-14.95 -1.47,-7.67 -22.42,-13.07 -27.35,-7.05 -51.97,-5.72 -82.85,-38.11 -23.66,-24.82 -49.75,-51.26 -55.64,-101.43l36.65 40.61c8.12,6.9 33.75,25.91 47.74,32.37 16.03,7.4 41.49,9.76 53.23,21.55 12.07,12.11 22.79,41.28 23.29,58.08z"/>
  <path class="fil40" d="M56.26 992.52l2.85 -12.61 -16.65 3.26c-12.43,-18.05 -16.16,-40.65 -2.85,-54.18l23.6 -53.96 29.19 38.65c20.22,30.99 15.91,79.2 -36.14,78.84z"/>
  <path class="fil41" d="M308.12 975.47c-30.25,-0.89 -58.19,-11.07 -72.59,-30.74 88.61,-2.48 58.85,5.14 142.96,-30.51 -15.85,32.48 -22.14,8.04 -70.37,61.25z"/>
  <g>
   <path class="fil42 str0" d="M537.59 1038.24c23.64,-12.66 45.87,-24.55 66.74,-35.42 20.88,-10.87 43.09,-21.65 66.42,-32.3 23.33,-10.64 45.95,-19.74 67.72,-27.37 16.69,-5.99 34.09,-10.45 52.16,-13.6 30.07,-5.26 49.98,-7.85 59.61,-7.9 14.62,0.3 28.65,2.34 42.23,6.1 13.6,3.86 26.28,9.97 37.91,18.24 11.53,8.39 21.69,18.88 30.36,31.48 3.42,5.21 5.72,10.83 6.81,17.1 4.07,23.27 -3.69,54.09 -23.14,92.53 -19.45,38.55 -39.88,72.66 -61.07,102.43 -21.18,29.87 -37.15,51.28 -47.86,64.54l90.32 186.7 -71.24 73 -214.2 -383.09c-0.42,0.07 -2.11,2.34 -4.93,6.88 -2.82,4.54 -6.59,10.57 -11.13,17.82 -4.62,7.38 -7.57,11.84 -8.68,13.57 -0.65,0.11 -3.44,-4 -8.4,-12.34 -5.07,-8.31 -11.81,-19.95 -20.21,-34.79 -8.5,-14.83 -18.06,-31.34 -28.58,-49.55 -10.52,-18.2 -17.52,-29.46 -20.84,-34.03zm216.48 51.33l41.65 87.34c10.57,-15.32 23.39,-35.95 38.59,-61.82 15.07,-25.96 21.76,-44.1 19.99,-54.19 -0.68,-3.94 -2.69,-6 -6.2,-6.04 -9.71,-0.39 -19.02,0.15 -28.17,1.75 -27.41,4.79 -49.37,15.74 -65.86,32.96zm469.44 -8.84c16.14,5.28 30.01,13.81 41.59,25.59 11.58,11.77 20.92,25.69 28.08,41.64 7.17,15.93 12.34,32.99 15.49,51.05 2.62,14.99 3.95,29.53 3.94,43.89 0.1,14.33 -0.97,27.65 -3.1,39.96 -2.09,12.41 -5.25,23.15 -9.48,32.21 -9.67,21.73 -20.64,41.05 -33.18,57.7 -12.51,16.75 -25.72,30.77 -39.84,42.11 -14.01,11.31 -28.31,20.39 -42.9,27.1 -14.5,6.69 -29.23,11.33 -44.21,13.95 -17.64,3.08 -34.91,3.26 -51.72,0.5 -16.88,-2.64 -31.64,-7.51 -44.36,-14.49 -21.18,-12.17 -39.23,-30.27 -54.21,-54.58 -14.85,-24.24 -24.87,-50.85 -29.94,-79.86 -8.74,-50.06 -1.44,-92.94 22.1,-128.7 20.04,-30.66 42.19,-55 66.2,-72.99 24.02,-18 49.84,-29.41 77.37,-34.21 16.25,-2.84 32.12,-3.53 47.81,-2.11 15.58,1.44 32.44,5.17 50.36,11.24zm-9.25 55.49c-0.74,16.44 -5.96,31.71 -15.56,45.76 -9.58,14.05 -20,22.1 -31.27,24.07 -5.53,0.96 -10.78,0.35 -15.64,-1.76 -7.14,-3.9 -11.74,-12.07 -13.91,-24.51 -1.67,-9.55 -0.14,-19.57 4.5,-30.02 4.74,-10.46 13.45,-19.54 26.21,-27.36 -13.71,2.4 -26.52,7.38 -38.39,14.71 -11.84,7.43 -21.61,16.03 -29.32,25.82 -7.72,9.77 -13.43,20.3 -17.05,31.55 -3.72,11.28 -4.69,22.07 -2.87,32.48 3.36,19.24 14.98,33.08 34.82,41.33 18.43,7.74 35.19,10.28 50.06,7.68 14.78,-2.58 26.97,-9.85 36.72,-21.74 9.67,-11.76 16.17,-25.93 19.52,-42.5 3.24,-16.55 3.65,-32.39 1.02,-47.48 -1.82,-10.41 -4.76,-19.76 -8.84,-28.03zm-11.78 -240.5l146.54 -93.92 85.86 355.57 117.73 -94.04 138.61 -3.3 -152.61 165.84 187.75 96.21 29.35 123.55 -275.44 -133.13 34.44 151.45 -147.65 28.63 -122.5 -535.87 -44 18.3 1.92 -79.29zm723.89 232.32l90.83 77.42c-2.91,18.47 -14.45,37.02 -34.43,55.52 -20.01,18.38 -44.67,34.52 -74.23,48.34 -29.57,13.81 -59.86,23.48 -90.78,28.88 -27.41,4.79 -52.48,5.44 -75.23,1.86 -22.74,-3.47 -41.22,-11.53 -55.38,-24.27 -24.61,-21.76 -40.26,-52.43 -47.15,-91.86 -5.44,-31.13 -5.17,-62.83 0.82,-94.97 6.11,-32.17 14.42,-55.42 24.97,-69.63 12.58,-16.98 26.97,-31.76 43.05,-44.42 16.08,-12.67 33.21,-23 51.51,-31.12 18.29,-8.12 37.42,-13.99 57.6,-17.51 26.37,-4.61 52.18,-4.73 77.35,-0.48 25.26,4.24 48.23,12.83 68.87,25.65l-135.37 233.78c15.2,-2.65 28.99,-8.35 41.5,-16.99 12.48,-8.75 23.44,-19.97 32.77,-33.65 9.44,-13.7 17.11,-29.27 23.3,-46.55zm-98.86 -57.53c-11.12,-3.43 -21.97,-4.16 -32.49,-2.33 -11.26,1.97 -21.71,6.1 -31.33,12.49 -9.72,6.41 -16.22,13.13 -19.48,20.15 -9.96,18.83 -13.25,38.23 -9.77,58.11 1.28,7.33 3.22,14.11 5.88,20.54 2.64,6.34 6.67,15.04 12.21,26.01l74.98 -134.97zm-199.24 -196.48l149.85 -120.78 90.44 97.09 -194.69 73.43 -45.6 -49.74zm263.02 -59.09c14.64,-53.47 58.79,-86.58 132.44,-99.45 38.78,-6.77 80.64,-8.5 125.46,-5.16 44.95,3.43 98.46,9.52 160.78,18.35 -2.77,11.1 -8.01,38.74 -15.74,82.91 -7.62,44.14 -12.07,66.28 -13.35,66.51 -2,-1.41 -12.4,-5.18 -31.34,-11.4 -18.93,-6.22 -39.41,-11.84 -61.33,-16.99 -22.03,-5.13 -39.5,-7.34 -52.72,-6.56 -5.86,0.36 -20.01,-0.45 -42.29,-2.58 -22.25,-2.03 -38.61,-2.23 -49.02,-0.42 -9.46,1.66 -16.45,4.85 -20.8,9.43 -7.44,7.55 -10.47,15.3 -9.06,23.38 1.32,7.55 6.23,15.01 14.9,22.58 8.55,7.6 19.33,14.81 32.23,21.53 13,6.71 27.12,13.01 42.5,18.86 15.37,5.86 30.39,11.01 45.03,15.24 30.14,8.87 56.98,20.28 80.55,34.23 23.48,13.97 42.48,28.72 56.89,44.16 14.52,15.42 25.99,31.59 34.34,48.65 8.45,17.03 14.08,33.57 16.86,49.5 3.3,18.92 2.91,36.72 -1.28,53.55 -7.98,28.89 -23.16,51.69 -45.48,68.06 -22.33,16.39 -50.61,27.57 -84.6,33.51 -19.55,3.41 -41.81,5.22 -66.95,5.45 -25.04,0.21 -49.52,-0.77 -73.32,-2.86 -23.82,-2.18 -48.95,-5.02 -75.65,-8.68 -26.58,-3.57 -49.93,-6.83 -70.12,-9.65 1.95,-7.02 4.81,-20.67 8.42,-40.79 3.59,-20.23 6.66,-37.74 9.11,-52.51 2.48,-14.67 4.79,-27.78 6.99,-39 2.18,-11.34 3.7,-17.07 4.55,-17.22 6.57,3.77 27.95,10.78 64.02,21.12 35.96,10.25 63.17,14.92 81.59,13.78 6.8,-0.52 18.5,-0.05 35.3,1.5 16.7,1.57 28.17,2.64 34.36,2.99 6.1,0.46 13.24,-0.02 21.32,-1.43 9.57,-1.67 16.56,-4.87 20.8,-9.44 8.17,-8.43 11.56,-16.58 10.22,-24.23 -2.97,-17.01 -28.13,-33.2 -75.46,-48.37 -28.99,-9.28 -61.93,-23.57 -98.83,-42.97 -36.77,-19.31 -70.32,-43.34 -100.39,-71.93 -30.2,-28.67 -48.05,-59.39 -53.77,-92.12 -2.95,-16.89 -1.99,-34.03 2.84,-51.53zm525.05 34.35c35.06,-18.72 66.07,-30.49 93.06,-35.21 24.66,-4.3 47.05,-2.73 67.19,4.7 12.16,4.45 26.2,12.06 42.16,22.64 15.98,10.56 30.48,22.71 43.73,36.5 13.23,13.67 22.89,27.64 28.96,41.7 18.67,42.28 30.95,80 36.7,112.94 3.05,17.43 5.07,35.92 6.2,55.54 1.02,19.65 1.81,44.9 2.29,75.81l-128.72 30.47c-1.48,-10.35 -3.88,-25.38 -7.3,-44.93 -14.2,-81.29 -37.46,-148.62 -69.85,-201.77 -12.43,-19.84 -22.79,-28.98 -31.09,-27.53 -10.83,1.89 -20.13,18.84 -27.99,50.98 -1.8,7.88 -2.91,16.61 -3.29,26.31 -0.28,9.7 0.05,20.37 1.14,32.22 1.06,11.75 3.04,25.54 5.78,41.26 5.59,31.98 14.48,72.26 26.9,120.8l-149.82 44.45c-3.79,-11.71 -7.22,-25.68 -10.48,-41.86 -3.46,-16.04 -6.8,-32.65 -10.02,-49.83 -3.43,-17.14 -6.82,-32.75 -10.26,-46.83 -3.44,-14.07 -8.18,-29.89 -14.2,-47.46l-79.29 -404.46 124.89 -37.91 63.31 241.47zm528.54 -69.21c16.14,5.28 30.01,13.81 41.6,25.58 11.57,11.78 20.91,25.7 28.07,41.64 7.17,15.94 12.34,32.99 15.49,51.06 2.62,14.98 3.95,29.53 3.94,43.89 0.1,14.32 -0.97,27.65 -3.1,39.96 -2.09,12.41 -5.25,23.15 -9.48,32.21 -9.67,21.73 -20.64,41.05 -33.17,57.7 -12.52,16.75 -25.73,30.77 -39.85,42.11 -14.01,11.31 -28.31,20.38 -42.9,27.1 -14.49,6.69 -29.23,11.33 -44.21,13.95 -17.64,3.08 -34.91,3.25 -51.71,0.49 -16.89,-2.63 -31.65,-7.5 -44.37,-14.48 -21.18,-12.18 -39.23,-30.27 -54.21,-54.59 -14.85,-24.23 -24.87,-50.84 -29.93,-79.86 -8.75,-50.05 -1.45,-92.93 22.09,-128.7 20.05,-30.65 42.19,-54.99 66.2,-72.98 24.02,-18.01 49.84,-29.41 77.37,-34.22 16.25,-2.84 32.12,-3.53 47.81,-2.1 15.58,1.44 32.44,5.17 50.36,11.24zm-9.25 55.49c-0.74,16.44 -5.96,31.71 -15.56,45.76 -9.58,14.05 -20,22.1 -31.27,24.07 -5.53,0.96 -10.78,0.35 -15.64,-1.76 -7.13,-3.9 -11.74,-12.07 -13.91,-24.51 -1.67,-9.56 -0.14,-19.57 4.5,-30.02 4.74,-10.46 13.45,-19.54 26.21,-27.36 -13.71,2.39 -26.52,7.37 -38.39,14.7 -11.83,7.44 -21.61,16.04 -29.32,25.82 -7.72,9.78 -13.43,20.31 -17.05,31.56 -3.72,11.28 -4.69,22.06 -2.87,32.48 3.36,19.24 14.98,33.08 34.82,41.33 18.43,7.74 35.19,10.28 50.07,7.68 14.77,-2.58 26.96,-9.85 36.71,-21.74 9.67,-11.76 16.17,-25.93 19.52,-42.5 3.24,-16.56 3.65,-32.39 1.02,-47.48 -1.82,-10.42 -4.76,-19.76 -8.84,-28.03zm241.87 263.83l58.99 248.02 -138.77 31.9 -91.83 -400.41 -0.54 -3.09c-2.56,-10.28 -4.32,-17.86 -5.2,-22.85l-24.87 -109.21 -44.37 18.04 1.97 -78.96 146.54 -93.94 14.05 56.58c22.69,-16.13 46.62,-26.44 71.92,-30.86 30.81,-5.38 63.48,-2.1 98.29,9.78 16.14,5.28 30,13.81 41.59,25.58 11.58,11.78 20.91,25.7 28.07,41.64 7.17,15.94 12.34,32.99 15.5,51.06 2.62,14.98 3.95,29.53 3.94,43.89 0.09,14.32 -0.98,27.65 -3.1,39.96 -2.1,12.41 -5.26,23.15 -9.48,32.21 -12.86,29.18 -28.08,53.63 -45.86,73.49 -17.69,19.73 -36.28,34.92 -55.87,45.68 -19.5,10.63 -39.82,17.79 -60.97,21.49zm-57.06 -240.26c2.02,11.59 6.66,22.49 13.92,32.72 7.13,10.14 14.45,16.86 21.58,20.1 18.44,7.74 35.2,10.28 50.07,7.68 14.78,-2.58 26.97,-9.85 36.72,-21.74 9.67,-11.76 16.17,-25.93 19.52,-42.5 3.24,-16.56 3.65,-32.39 1.01,-47.48 -1.82,-10.42 -4.76,-19.76 -8.83,-28.03 -0.74,16.44 -5.97,31.71 -15.56,45.76 -9.59,14.05 -20.01,22.1 -31.28,24.07 -5.52,0.96 -10.78,0.35 -15.63,-1.76 -7.14,-3.9 -11.74,-12.07 -13.92,-24.51 -1.67,-9.56 -0.14,-19.57 4.5,-30.02 4.75,-10.46 13.45,-19.54 26.22,-27.36 -16.8,2.93 -31.78,9.27 -44.89,18.9 -12.97,9.72 -23.43,21.29 -31.26,34.81 -7.8,13.63 -11.87,26.71 -12.17,39.36z"/>
   <path id="1" class="fil43" d="M537.59 1038.24c23.64,-12.66 45.87,-24.55 66.74,-35.42 20.88,-10.87 43.09,-21.65 66.42,-32.3 23.33,-10.64 45.95,-19.74 67.72,-27.37 16.69,-5.99 34.09,-10.45 52.16,-13.6 30.07,-5.26 49.98,-7.85 59.61,-7.9 14.62,0.3 28.65,2.34 42.23,6.1 13.6,3.86 26.28,9.97 37.91,18.24 11.53,8.39 21.69,18.88 30.36,31.48 3.42,5.21 5.72,10.83 6.81,17.1 4.07,23.27 -3.69,54.09 -23.14,92.53 -19.45,38.55 -39.88,72.66 -61.07,102.43 -21.18,29.87 -37.15,51.28 -47.86,64.54l90.32 186.7 -71.24 73 -214.2 -383.09c-0.42,0.07 -2.11,2.34 -4.93,6.88 -2.82,4.54 -6.59,10.57 -11.13,17.82 -4.62,7.38 -7.57,11.84 -8.68,13.57 -0.65,0.11 -3.44,-4 -8.4,-12.34 -5.07,-8.31 -11.81,-19.95 -20.21,-34.79 -8.5,-14.83 -18.06,-31.34 -28.58,-49.55 -10.52,-18.2 -17.52,-29.46 -20.84,-34.03zm216.48 51.33l41.65 87.34c10.57,-15.32 23.39,-35.95 38.59,-61.82 15.07,-25.96 21.76,-44.1 19.99,-54.19 -0.68,-3.94 -2.69,-6 -6.2,-6.04 -9.71,-0.39 -19.02,0.15 -28.17,1.75 -27.41,4.79 -49.37,15.74 -65.86,32.96zm469.44 -8.84c16.14,5.28 30.01,13.81 41.59,25.59 11.58,11.77 20.92,25.69 28.08,41.64 7.17,15.93 12.34,32.99 15.49,51.05 2.62,14.99 3.95,29.53 3.94,43.89 0.1,14.33 -0.97,27.65 -3.1,39.96 -2.09,12.41 -5.25,23.15 -9.48,32.21 -9.67,21.73 -20.64,41.05 -33.18,57.7 -12.51,16.75 -25.72,30.77 -39.84,42.11 -14.01,11.31 -28.31,20.39 -42.9,27.1 -14.5,6.69 -29.23,11.33 -44.21,13.95 -17.64,3.08 -34.91,3.26 -51.72,0.5 -16.88,-2.64 -31.64,-7.51 -44.36,-14.49 -21.18,-12.17 -39.23,-30.27 -54.21,-54.58 -14.85,-24.24 -24.87,-50.85 -29.94,-79.86 -8.74,-50.06 -1.44,-92.94 22.1,-128.7 20.04,-30.66 42.19,-55 66.2,-72.99 24.02,-18 49.84,-29.41 77.37,-34.21 16.25,-2.84 32.12,-3.53 47.81,-2.11 15.58,1.44 32.44,5.17 50.36,11.24zm-9.25 55.49c-0.74,16.44 -5.96,31.71 -15.56,45.76 -9.58,14.05 -20,22.1 -31.27,24.07 -5.53,0.96 -10.78,0.35 -15.64,-1.76 -7.14,-3.9 -11.74,-12.07 -13.91,-24.51 -1.67,-9.55 -0.14,-19.57 4.5,-30.02 4.74,-10.46 13.45,-19.54 26.21,-27.36 -13.71,2.4 -26.52,7.38 -38.39,14.71 -11.84,7.43 -21.61,16.03 -29.32,25.82 -7.72,9.77 -13.43,20.3 -17.05,31.55 -3.72,11.28 -4.69,22.07 -2.87,32.48 3.36,19.24 14.98,33.08 34.82,41.33 18.43,7.74 35.19,10.28 50.06,7.68 14.78,-2.58 26.97,-9.85 36.72,-21.74 9.67,-11.76 16.17,-25.93 19.52,-42.5 3.24,-16.55 3.65,-32.39 1.02,-47.48 -1.82,-10.41 -4.76,-19.76 -8.84,-28.03zm-11.78 -240.5l146.54 -93.92 85.86 355.57 117.73 -94.04 138.61 -3.3 -152.61 165.84 187.75 96.21 29.35 123.55 -275.44 -133.13 34.44 151.45 -147.65 28.63 -122.5 -535.87 -44 18.3 1.92 -79.29zm723.89 232.32l90.83 77.42c-2.91,18.47 -14.45,37.02 -34.43,55.52 -20.01,18.38 -44.67,34.52 -74.23,48.34 -29.57,13.81 -59.86,23.48 -90.78,28.88 -27.41,4.79 -52.48,5.44 -75.23,1.86 -22.74,-3.47 -41.22,-11.53 -55.38,-24.27 -24.61,-21.76 -40.26,-52.43 -47.15,-91.86 -5.44,-31.13 -5.17,-62.83 0.82,-94.97 6.11,-32.17 14.42,-55.42 24.97,-69.63 12.58,-16.98 26.97,-31.76 43.05,-44.42 16.08,-12.67 33.21,-23 51.51,-31.12 18.29,-8.12 37.42,-13.99 57.6,-17.51 26.37,-4.61 52.18,-4.73 77.35,-0.48 25.26,4.24 48.23,12.83 68.87,25.65l-135.37 233.78c15.2,-2.65 28.99,-8.35 41.5,-16.99 12.48,-8.75 23.44,-19.97 32.77,-33.65 9.44,-13.7 17.11,-29.27 23.3,-46.55zm-98.86 -57.53c-11.12,-3.43 -21.97,-4.16 -32.49,-2.33 -11.26,1.97 -21.71,6.1 -31.33,12.49 -9.72,6.41 -16.22,13.13 -19.48,20.15 -9.96,18.83 -13.25,38.23 -9.77,58.11 1.28,7.33 3.22,14.11 5.88,20.54 2.64,6.34 6.67,15.04 12.21,26.01l74.98 -134.97zm-199.24 -196.48l149.85 -120.78 90.44 97.09 -194.69 73.43 -45.6 -49.74zm263.02 -59.09c14.64,-53.47 58.79,-86.58 132.44,-99.45 38.78,-6.77 80.64,-8.5 125.46,-5.16 44.95,3.43 98.46,9.52 160.78,18.35 -2.77,11.1 -8.01,38.74 -15.74,82.91 -7.62,44.14 -12.07,66.28 -13.35,66.51 -2,-1.41 -12.4,-5.18 -31.34,-11.4 -18.93,-6.22 -39.41,-11.84 -61.33,-16.99 -22.03,-5.13 -39.5,-7.34 -52.72,-6.56 -5.86,0.36 -20.01,-0.45 -42.29,-2.58 -22.25,-2.03 -38.61,-2.23 -49.02,-0.42 -9.46,1.66 -16.45,4.85 -20.8,9.43 -7.44,7.55 -10.47,15.3 -9.06,23.38 1.32,7.55 6.23,15.01 14.9,22.58 8.55,7.6 19.33,14.81 32.23,21.53 13,6.71 27.12,13.01 42.5,18.86 15.37,5.86 30.39,11.01 45.03,15.24 30.14,8.87 56.98,20.28 80.55,34.23 23.48,13.97 42.48,28.72 56.89,44.16 14.52,15.42 25.99,31.59 34.34,48.65 8.45,17.03 14.08,33.57 16.86,49.5 3.3,18.92 2.91,36.72 -1.28,53.55 -7.98,28.89 -23.16,51.69 -45.48,68.06 -22.33,16.39 -50.61,27.57 -84.6,33.51 -19.55,3.41 -41.81,5.22 -66.95,5.45 -25.04,0.21 -49.52,-0.77 -73.32,-2.86 -23.82,-2.18 -48.95,-5.02 -75.65,-8.68 -26.58,-3.57 -49.93,-6.83 -70.12,-9.65 1.95,-7.02 4.81,-20.67 8.42,-40.79 3.59,-20.23 6.66,-37.74 9.11,-52.51 2.48,-14.67 4.79,-27.78 6.99,-39 2.18,-11.34 3.7,-17.07 4.55,-17.22 6.57,3.77 27.95,10.78 64.02,21.12 35.96,10.25 63.17,14.92 81.59,13.78 6.8,-0.52 18.5,-0.05 35.3,1.5 16.7,1.57 28.17,2.64 34.36,2.99 6.1,0.46 13.24,-0.02 21.32,-1.43 9.57,-1.67 16.56,-4.87 20.8,-9.44 8.17,-8.43 11.56,-16.58 10.22,-24.23 -2.97,-17.01 -28.13,-33.2 -75.46,-48.37 -28.99,-9.28 -61.93,-23.57 -98.83,-42.97 -36.77,-19.31 -70.32,-43.34 -100.39,-71.93 -30.2,-28.67 -48.05,-59.39 -53.77,-92.12 -2.95,-16.89 -1.99,-34.03 2.84,-51.53zm525.05 34.35c35.06,-18.72 66.07,-30.49 93.06,-35.21 24.66,-4.3 47.05,-2.73 67.19,4.7 12.16,4.45 26.2,12.06 42.16,22.64 15.98,10.56 30.48,22.71 43.73,36.5 13.23,13.67 22.89,27.64 28.96,41.7 18.67,42.28 30.95,80 36.7,112.94 3.05,17.43 5.07,35.92 6.2,55.54 1.02,19.65 1.81,44.9 2.29,75.81l-128.72 30.47c-1.48,-10.35 -3.88,-25.38 -7.3,-44.93 -14.2,-81.29 -37.46,-148.62 -69.85,-201.77 -12.43,-19.84 -22.79,-28.98 -31.09,-27.53 -10.83,1.89 -20.13,18.84 -27.99,50.98 -1.8,7.88 -2.91,16.61 -3.29,26.31 -0.28,9.7 0.05,20.37 1.14,32.22 1.06,11.75 3.04,25.54 5.78,41.26 5.59,31.98 14.48,72.26 26.9,120.8l-149.82 44.45c-3.79,-11.71 -7.22,-25.68 -10.48,-41.86 -3.46,-16.04 -6.8,-32.65 -10.02,-49.83 -3.43,-17.14 -6.82,-32.75 -10.26,-46.83 -3.44,-14.07 -8.18,-29.89 -14.2,-47.46l-79.29 -404.46 124.89 -37.91 63.31 241.47zm528.54 -69.21c16.14,5.28 30.01,13.81 41.6,25.58 11.57,11.78 20.91,25.7 28.07,41.64 7.17,15.94 12.34,32.99 15.49,51.06 2.62,14.98 3.95,29.53 3.94,43.89 0.1,14.32 -0.97,27.65 -3.1,39.96 -2.09,12.41 -5.25,23.15 -9.48,32.21 -9.67,21.73 -20.64,41.05 -33.17,57.7 -12.52,16.75 -25.73,30.77 -39.85,42.11 -14.01,11.31 -28.31,20.38 -42.9,27.1 -14.49,6.69 -29.23,11.33 -44.21,13.95 -17.64,3.08 -34.91,3.25 -51.71,0.49 -16.89,-2.63 -31.65,-7.5 -44.37,-14.48 -21.18,-12.18 -39.23,-30.27 -54.21,-54.59 -14.85,-24.23 -24.87,-50.84 -29.93,-79.86 -8.75,-50.05 -1.45,-92.93 22.09,-128.7 20.05,-30.65 42.19,-54.99 66.2,-72.98 24.02,-18.01 49.84,-29.41 77.37,-34.22 16.25,-2.84 32.12,-3.53 47.81,-2.1 15.58,1.44 32.44,5.17 50.36,11.24zm-9.25 55.49c-0.74,16.44 -5.96,31.71 -15.56,45.76 -9.58,14.05 -20,22.1 -31.27,24.07 -5.53,0.96 -10.78,0.35 -15.64,-1.76 -7.13,-3.9 -11.74,-12.07 -13.91,-24.51 -1.67,-9.56 -0.14,-19.57 4.5,-30.02 4.74,-10.46 13.45,-19.54 26.21,-27.36 -13.71,2.39 -26.52,7.37 -38.39,14.7 -11.83,7.44 -21.61,16.04 -29.32,25.82 -7.72,9.78 -13.43,20.31 -17.05,31.56 -3.72,11.28 -4.69,22.06 -2.87,32.48 3.36,19.24 14.98,33.08 34.82,41.33 18.43,7.74 35.19,10.28 50.07,7.68 14.77,-2.58 26.96,-9.85 36.71,-21.74 9.67,-11.76 16.17,-25.93 19.52,-42.5 3.24,-16.56 3.65,-32.39 1.02,-47.48 -1.82,-10.42 -4.76,-19.76 -8.84,-28.03zm241.87 263.83l58.99 248.02 -138.77 31.9 -91.83 -400.41 -0.54 -3.09c-2.56,-10.28 -4.32,-17.86 -5.2,-22.85l-24.87 -109.21 -44.37 18.04 1.97 -78.96 146.54 -93.94 14.05 56.58c22.69,-16.13 46.62,-26.44 71.92,-30.86 30.81,-5.38 63.48,-2.1 98.29,9.78 16.14,5.28 30,13.81 41.59,25.58 11.58,11.78 20.91,25.7 28.07,41.64 7.17,15.94 12.34,32.99 15.5,51.06 2.62,14.98 3.95,29.53 3.94,43.89 0.09,14.32 -0.98,27.65 -3.1,39.96 -2.1,12.41 -5.26,23.15 -9.48,32.21 -12.86,29.18 -28.08,53.63 -45.86,73.49 -17.69,19.73 -36.28,34.92 -55.87,45.68 -19.5,10.63 -39.82,17.79 -60.97,21.49zm-57.06 -240.26c2.02,11.59 6.66,22.49 13.92,32.72 7.13,10.14 14.45,16.86 21.58,20.1 18.44,7.74 35.2,10.28 50.07,7.68 14.78,-2.58 26.97,-9.85 36.72,-21.74 9.67,-11.76 16.17,-25.93 19.52,-42.5 3.24,-16.56 3.65,-32.39 1.01,-47.48 -1.82,-10.42 -4.76,-19.76 -8.83,-28.03 -0.74,16.44 -5.97,31.71 -15.56,45.76 -9.59,14.05 -20.01,22.1 -31.28,24.07 -5.52,0.96 -10.78,0.35 -15.63,-1.76 -7.14,-3.9 -11.74,-12.07 -13.92,-24.51 -1.67,-9.56 -0.14,-19.57 4.5,-30.02 4.75,-10.46 13.45,-19.54 26.22,-27.36 -16.8,2.93 -31.78,9.27 -44.89,18.9 -12.97,9.72 -23.43,21.29 -31.26,34.81 -7.8,13.63 -11.87,26.71 -12.17,39.36z"/>
  </g>
  <g>
   <path class="fil42 str1" d="M584.83 978.77c23.63,-12.66 45.87,-24.55 66.74,-35.42 20.88,-10.87 43.09,-21.65 66.41,-32.3 23.34,-10.64 45.95,-19.74 67.72,-27.37 16.69,-5.99 34.09,-10.45 52.16,-13.6 30.08,-5.26 49.99,-7.85 59.61,-7.9 14.62,0.3 28.66,2.34 42.24,6.1 13.6,3.86 26.28,9.97 37.9,18.24 11.54,8.39 21.7,18.88 30.36,31.48 3.43,5.21 5.72,10.83 6.82,17.1 4.06,23.27 -3.69,54.09 -23.15,92.53 -19.45,38.55 -39.87,72.66 -61.07,102.43 -21.17,29.87 -37.15,51.28 -47.86,64.54l90.32 186.7 -71.24 73 -214.19 -383.09c-0.43,0.07 -2.11,2.34 -4.93,6.88 -2.82,4.54 -6.59,10.57 -11.13,17.82 -4.62,7.38 -7.57,11.84 -8.69,13.57 -0.64,0.11 -3.44,-4 -8.4,-12.34 -5.06,-8.31 -11.81,-19.95 -20.2,-34.79 -8.5,-14.83 -18.07,-31.34 -28.58,-49.55 -10.52,-18.2 -17.53,-29.46 -20.84,-34.03zm216.48 51.33l41.65 87.34c10.57,-15.32 23.39,-35.95 38.59,-61.82 15.06,-25.96 21.75,-44.1 19.99,-54.19 -0.69,-3.94 -2.69,-6 -6.2,-6.04 -9.71,-0.39 -19.03,0.15 -28.17,1.75 -27.42,4.79 -49.38,15.74 -65.86,32.96zm469.44 -8.84c16.14,5.28 30,13.81 41.59,25.59 11.58,11.77 20.91,25.69 28.07,41.64 7.17,15.93 12.34,32.99 15.5,51.05 2.62,14.99 3.95,29.53 3.94,43.89 0.09,14.33 -0.98,27.65 -3.1,39.96 -2.1,12.41 -5.26,23.15 -9.48,32.21 -9.68,21.73 -20.65,41.05 -33.18,57.7 -12.51,16.75 -25.73,30.77 -39.85,42.11 -14,11.31 -28.3,20.39 -42.9,27.1 -14.49,6.69 -29.22,11.33 -44.2,13.95 -17.65,3.08 -34.91,3.26 -51.72,0.5 -16.89,-2.64 -31.64,-7.51 -44.36,-14.49 -21.18,-12.17 -39.24,-30.27 -54.21,-54.58 -14.86,-24.24 -24.87,-50.85 -29.94,-79.86 -8.74,-50.06 -1.44,-92.94 22.1,-128.7 20.04,-30.66 42.18,-55 66.19,-72.99 24.03,-18 49.85,-29.41 77.37,-34.21 16.26,-2.84 32.12,-3.53 47.81,-2.11 15.58,1.44 32.45,5.17 50.37,11.24zm-9.25 55.49c-0.74,16.44 -5.97,31.71 -15.56,45.76 -9.59,14.05 -20.01,22.1 -31.28,24.07 -5.52,0.96 -10.78,0.35 -15.63,-1.76 -7.14,-3.9 -11.74,-12.07 -13.92,-24.51 -1.67,-9.55 -0.14,-19.57 4.5,-30.02 4.75,-10.46 13.45,-19.54 26.22,-27.36 -13.71,2.4 -26.53,7.37 -38.39,14.71 -11.84,7.43 -21.62,16.03 -29.33,25.82 -7.71,9.77 -13.43,20.3 -17.04,31.55 -3.73,11.28 -4.7,22.07 -2.88,32.48 3.36,19.24 14.99,33.08 34.82,41.33 18.44,7.74 35.2,10.28 50.07,7.68 14.78,-2.58 26.97,-9.85 36.72,-21.74 9.67,-11.76 16.17,-25.93 19.52,-42.5 3.24,-16.55 3.65,-32.39 1.01,-47.48 -1.82,-10.41 -4.76,-19.76 -8.83,-28.03zm-11.79 -240.5l146.55 -93.92 85.86 355.57 117.72 -94.04 138.61 -3.3 -152.6 165.84 187.74 96.21 29.36 123.55 -275.45 -133.13 34.45 151.45 -147.65 28.63 -122.51 -535.87 -43.99 18.3 1.91 -79.29zm723.9 232.32l90.82 77.42c-2.9,18.47 -14.44,37.02 -34.43,55.52 -20,18.38 -44.66,34.52 -74.23,48.34 -29.56,13.81 -59.85,23.48 -90.77,28.88 -27.42,4.79 -52.49,5.44 -75.23,1.86 -22.74,-3.47 -41.22,-11.53 -55.39,-24.27 -24.61,-21.76 -40.26,-52.43 -47.14,-91.86 -5.44,-31.13 -5.17,-62.83 0.82,-94.97 6.11,-32.17 14.42,-55.42 24.96,-69.63 12.59,-16.98 26.98,-31.76 43.06,-44.42 16.07,-12.67 33.21,-23 51.5,-31.12 18.3,-8.12 37.43,-13.99 57.61,-17.51 26.36,-4.61 52.18,-4.73 77.34,-0.48 25.27,4.24 48.24,12.83 68.87,25.65l-135.36 233.78c15.2,-2.65 28.98,-8.35 41.49,-16.99 12.48,-8.75 23.45,-19.97 32.78,-33.65 9.43,-13.7 17.11,-29.27 23.3,-46.55zm-98.86 -57.53c-11.12,-3.43 -21.98,-4.16 -32.5,-2.33 -11.26,1.97 -21.7,6.1 -31.33,12.49 -9.71,6.41 -16.21,13.13 -19.47,20.15 -9.96,18.83 -13.25,38.23 -9.78,58.11 1.28,7.33 3.23,14.11 5.88,20.54 2.64,6.33 6.68,15.04 12.21,26.01l74.99 -134.97zm-199.24 -196.48l149.84 -120.79 90.45 97.1 -194.69 73.43 -45.6 -49.74zm263.02 -59.09c14.63,-53.47 58.79,-86.58 132.43,-99.45 38.78,-6.77 80.64,-8.5 125.46,-5.16 44.95,3.43 98.47,9.52 160.79,18.35 -2.77,11.1 -8.02,38.74 -15.74,82.91 -7.62,44.14 -12.08,66.28 -13.36,66.51 -1.99,-1.41 -12.39,-5.18 -31.34,-11.4 -18.93,-6.22 -39.4,-11.84 -61.32,-16.99 -22.04,-5.13 -39.51,-7.34 -52.73,-6.56 -5.85,0.36 -20,-0.45 -42.28,-2.58 -22.25,-2.03 -38.61,-2.23 -49.03,-0.42 -9.45,1.66 -16.45,4.85 -20.79,9.43 -7.45,7.55 -10.48,15.3 -9.07,23.38 1.32,7.55 6.24,15.01 14.9,22.58 8.55,7.6 19.34,14.81 32.24,21.53 12.99,6.71 27.12,13.01 42.49,18.86 15.37,5.86 30.39,11.01 45.04,15.24 30.13,8.87 56.98,20.28 80.55,34.23 23.47,13.97 42.47,28.72 56.88,44.16 14.52,15.42 26,31.59 34.35,48.65 8.44,17.03 14.07,33.57 16.86,49.5 3.3,18.92 2.91,36.72 -1.28,53.55 -7.98,28.89 -23.16,51.69 -45.49,68.06 -22.32,16.39 -50.6,27.57 -84.6,33.51 -19.55,3.41 -41.8,5.22 -66.95,5.45 -25.03,0.21 -49.52,-0.77 -73.31,-2.86 -23.82,-2.18 -48.95,-5.02 -75.65,-8.68 -26.58,-3.57 -49.93,-6.83 -70.13,-9.65 1.95,-7.02 4.82,-20.67 8.43,-40.79 3.58,-20.23 6.66,-37.74 9.11,-52.51 2.47,-14.67 4.78,-27.78 6.98,-39 2.19,-11.34 3.7,-17.07 4.56,-17.22 6.57,3.77 27.94,10.78 64.02,21.12 35.96,10.25 63.17,14.92 81.59,13.78 6.8,-0.52 18.49,-0.05 35.3,1.5 16.7,1.57 28.16,2.64 34.36,2.99 6.1,0.46 13.24,-0.02 21.32,-1.43 9.56,-1.67 16.56,-4.87 20.79,-9.44 8.18,-8.43 11.56,-16.58 10.23,-24.23 -2.97,-17.01 -28.13,-33.2 -75.47,-48.37 -28.99,-9.28 -61.93,-23.57 -98.83,-42.97 -36.77,-19.31 -70.31,-43.35 -100.39,-71.93 -30.19,-28.67 -48.04,-59.39 -53.76,-92.12 -2.95,-16.89 -2,-34.03 2.84,-51.53zm525.05 34.35c35.06,-18.72 66.06,-30.49 93.06,-35.21 24.65,-4.3 47.05,-2.73 67.19,4.7 12.15,4.45 26.19,12.06 42.16,22.63 15.98,10.57 30.47,22.72 43.72,36.51 13.23,13.67 22.9,27.64 28.97,41.69 18.66,42.29 30.95,80.01 36.7,112.95 3.04,17.43 5.06,35.92 6.2,55.54 1.01,19.64 1.81,44.9 2.28,75.81l-128.71 30.47c-1.49,-10.36 -3.89,-25.38 -7.3,-44.93 -14.2,-81.29 -37.46,-148.62 -69.85,-201.77 -12.44,-19.84 -22.8,-28.98 -31.09,-27.53 -10.84,1.89 -20.14,18.84 -28,50.98 -1.8,7.88 -2.9,16.61 -3.29,26.31 -0.27,9.7 0.06,20.37 1.14,32.22 1.07,11.75 3.04,25.54 5.79,41.26 5.58,31.98 14.48,72.26 26.89,120.8l-149.81 44.45c-3.8,-11.71 -7.22,-25.68 -10.48,-41.86 -3.46,-16.04 -6.8,-32.65 -10.02,-49.83 -3.44,-17.14 -6.82,-32.76 -10.27,-46.83 -3.44,-14.07 -8.17,-29.89 -14.19,-47.46l-79.29 -404.46 124.89 -37.91 63.31 241.47zm528.54 -69.21c16.14,5.28 30,13.81 41.59,25.58 11.58,11.78 20.91,25.7 28.07,41.64 7.17,15.94 12.34,32.99 15.5,51.06 2.62,14.98 3.95,29.53 3.94,43.89 0.1,14.32 -0.98,27.65 -3.1,39.96 -2.1,12.41 -5.26,23.15 -9.48,32.21 -9.68,21.73 -20.64,41.05 -33.18,57.7 -12.51,16.75 -25.73,30.77 -39.85,42.11 -14,11.31 -28.3,20.38 -42.89,27.09 -14.5,6.7 -29.23,11.34 -44.21,13.96 -17.65,3.08 -34.91,3.25 -51.72,0.49 -16.88,-2.63 -31.64,-7.5 -44.36,-14.48 -21.18,-12.18 -39.24,-30.27 -54.21,-54.59 -14.85,-24.23 -24.87,-50.84 -29.94,-79.86 -8.74,-50.05 -1.44,-92.93 22.1,-128.7 20.04,-30.65 42.18,-55 66.2,-72.98 24.02,-18.01 49.84,-29.41 77.36,-34.22 16.26,-2.84 32.13,-3.53 47.81,-2.1 15.58,1.44 32.45,5.17 50.37,11.24zm-9.25 55.49c-0.74,16.44 -5.96,31.71 -15.56,45.76 -9.59,14.05 -20.01,22.1 -31.28,24.07 -5.52,0.96 -10.78,0.35 -15.63,-1.76 -7.14,-3.9 -11.74,-12.07 -13.92,-24.51 -1.66,-9.56 -0.13,-19.57 4.51,-30.02 4.74,-10.46 13.45,-19.54 26.21,-27.36 -13.71,2.39 -26.53,7.37 -38.39,14.7 -11.84,7.44 -21.62,16.04 -29.33,25.82 -7.71,9.78 -13.42,20.31 -17.04,31.56 -3.73,11.28 -4.7,22.06 -2.88,32.48 3.36,19.24 14.99,33.08 34.82,41.33 18.44,7.74 35.2,10.28 50.07,7.68 14.78,-2.58 26.97,-9.85 36.72,-21.74 9.67,-11.76 16.17,-25.93 19.52,-42.5 3.24,-16.56 3.65,-32.39 1.01,-47.48 -1.82,-10.42 -4.76,-19.76 -8.83,-28.03zm241.87 263.83l58.98 248.02 -138.76 31.9 -91.83 -400.41 -0.54 -3.09c-2.57,-10.28 -4.33,-17.86 -5.2,-22.85l-24.87 -109.21 -44.38 18.04 1.97 -78.97 146.55 -93.93 14.04 56.58c22.7,-16.13 46.63,-26.44 71.93,-30.86 30.81,-5.38 63.47,-2.1 98.28,9.78 16.14,5.28 30.01,13.81 41.6,25.58 11.57,11.78 20.91,25.7 28.07,41.64 7.17,15.94 12.34,32.99 15.49,51.06 2.62,14.98 3.95,29.53 3.94,43.89 0.1,14.32 -0.97,27.65 -3.1,39.96 -2.09,12.41 -5.25,23.15 -9.48,32.21 -12.86,29.18 -28.08,53.63 -45.85,73.49 -17.69,19.73 -36.29,34.92 -55.87,45.68 -19.5,10.63 -39.82,17.79 -60.97,21.49zm-57.07 -240.26c2.02,11.59 6.67,22.49 13.93,32.71 7.13,10.15 14.44,16.87 21.58,20.11 18.43,7.74 35.19,10.28 50.07,7.68 14.77,-2.58 26.96,-9.85 36.71,-21.74 9.67,-11.76 16.17,-25.93 19.52,-42.5 3.24,-16.56 3.65,-32.39 1.02,-47.48 -1.82,-10.42 -4.76,-19.76 -8.84,-28.03 -0.74,16.44 -5.96,31.71 -15.56,45.76 -9.58,14.05 -20,22.1 -31.27,24.07 -5.53,0.96 -10.78,0.35 -15.64,-1.76 -7.13,-3.9 -11.74,-12.07 -13.91,-24.51 -1.67,-9.56 -0.14,-19.57 4.5,-30.02 4.74,-10.46 13.45,-19.54 26.21,-27.36 -16.79,2.93 -31.77,9.27 -44.88,18.9 -12.97,9.72 -23.44,21.29 -31.26,34.81 -7.8,13.63 -11.87,26.71 -12.18,39.36z"/>
   <path id="1" class="fil44" d="M584.83 978.77c23.63,-12.66 45.87,-24.55 66.74,-35.42 20.88,-10.87 43.09,-21.65 66.41,-32.3 23.34,-10.64 45.95,-19.74 67.72,-27.37 16.69,-5.99 34.09,-10.45 52.16,-13.6 30.08,-5.26 49.99,-7.85 59.61,-7.9 14.62,0.3 28.66,2.34 42.24,6.1 13.6,3.86 26.28,9.97 37.9,18.24 11.54,8.39 21.7,18.88 30.36,31.48 3.43,5.21 5.72,10.83 6.82,17.1 4.06,23.27 -3.69,54.09 -23.15,92.53 -19.45,38.55 -39.87,72.66 -61.07,102.43 -21.17,29.87 -37.15,51.28 -47.86,64.54l90.32 186.7 -71.24 73 -214.19 -383.09c-0.43,0.07 -2.11,2.34 -4.93,6.88 -2.82,4.54 -6.59,10.57 -11.13,17.82 -4.62,7.38 -7.57,11.84 -8.69,13.57 -0.64,0.11 -3.44,-4 -8.4,-12.34 -5.06,-8.31 -11.81,-19.95 -20.2,-34.79 -8.5,-14.83 -18.07,-31.34 -28.58,-49.55 -10.52,-18.2 -17.53,-29.46 -20.84,-34.03zm216.48 51.33l41.65 87.34c10.57,-15.32 23.39,-35.95 38.59,-61.82 15.06,-25.96 21.75,-44.1 19.99,-54.19 -0.69,-3.94 -2.69,-6 -6.2,-6.04 -9.71,-0.39 -19.03,0.15 -28.17,1.75 -27.42,4.79 -49.38,15.74 -65.86,32.96zm469.44 -8.84c16.14,5.28 30,13.81 41.59,25.59 11.58,11.77 20.91,25.69 28.07,41.64 7.17,15.93 12.34,32.99 15.5,51.05 2.62,14.99 3.95,29.53 3.94,43.89 0.09,14.33 -0.98,27.65 -3.1,39.96 -2.1,12.41 -5.26,23.15 -9.48,32.21 -9.68,21.73 -20.65,41.05 -33.18,57.7 -12.51,16.75 -25.73,30.77 -39.85,42.11 -14,11.31 -28.3,20.39 -42.9,27.1 -14.49,6.69 -29.22,11.33 -44.2,13.95 -17.65,3.08 -34.91,3.26 -51.72,0.5 -16.89,-2.64 -31.64,-7.51 -44.36,-14.49 -21.18,-12.17 -39.24,-30.27 -54.21,-54.58 -14.86,-24.24 -24.87,-50.85 -29.94,-79.86 -8.74,-50.06 -1.44,-92.94 22.1,-128.7 20.04,-30.66 42.18,-55 66.19,-72.99 24.03,-18 49.85,-29.41 77.37,-34.21 16.26,-2.84 32.12,-3.53 47.81,-2.11 15.58,1.44 32.45,5.17 50.37,11.24zm-9.25 55.49c-0.74,16.44 -5.97,31.71 -15.56,45.76 -9.59,14.05 -20.01,22.1 -31.28,24.07 -5.52,0.96 -10.78,0.35 -15.63,-1.76 -7.14,-3.9 -11.74,-12.07 -13.92,-24.51 -1.67,-9.55 -0.14,-19.57 4.5,-30.02 4.75,-10.46 13.45,-19.54 26.22,-27.36 -13.71,2.4 -26.53,7.37 -38.39,14.71 -11.84,7.43 -21.62,16.03 -29.33,25.82 -7.71,9.77 -13.43,20.3 -17.04,31.55 -3.73,11.28 -4.7,22.07 -2.88,32.48 3.36,19.24 14.99,33.08 34.82,41.33 18.44,7.74 35.2,10.28 50.07,7.68 14.78,-2.58 26.97,-9.85 36.72,-21.74 9.67,-11.76 16.17,-25.93 19.52,-42.5 3.24,-16.55 3.65,-32.39 1.01,-47.48 -1.82,-10.41 -4.76,-19.76 -8.83,-28.03zm-11.79 -240.5l146.55 -93.92 85.86 355.57 117.72 -94.04 138.61 -3.3 -152.6 165.84 187.74 96.21 29.36 123.55 -275.45 -133.13 34.45 151.45 -147.65 28.63 -122.51 -535.87 -43.99 18.3 1.91 -79.29zm723.9 232.32l90.82 77.42c-2.9,18.47 -14.44,37.02 -34.43,55.52 -20,18.38 -44.66,34.52 -74.23,48.34 -29.56,13.81 -59.85,23.48 -90.77,28.88 -27.42,4.79 -52.49,5.44 -75.23,1.86 -22.74,-3.47 -41.22,-11.53 -55.39,-24.27 -24.61,-21.76 -40.26,-52.43 -47.14,-91.86 -5.44,-31.13 -5.17,-62.83 0.82,-94.97 6.11,-32.17 14.42,-55.42 24.96,-69.63 12.59,-16.98 26.98,-31.76 43.06,-44.42 16.07,-12.67 33.21,-23 51.5,-31.12 18.3,-8.12 37.43,-13.99 57.61,-17.51 26.36,-4.61 52.18,-4.73 77.34,-0.48 25.27,4.24 48.24,12.83 68.87,25.65l-135.36 233.78c15.2,-2.65 28.98,-8.35 41.49,-16.99 12.48,-8.75 23.45,-19.97 32.78,-33.65 9.43,-13.7 17.11,-29.27 23.3,-46.55zm-98.86 -57.53c-11.12,-3.43 -21.98,-4.16 -32.5,-2.33 -11.26,1.97 -21.7,6.1 -31.33,12.49 -9.71,6.41 -16.21,13.13 -19.47,20.15 -9.96,18.83 -13.25,38.23 -9.78,58.11 1.28,7.33 3.23,14.11 5.88,20.54 2.64,6.33 6.68,15.04 12.21,26.01l74.99 -134.97zm-199.24 -196.48l149.84 -120.79 90.45 97.1 -194.69 73.43 -45.6 -49.74zm263.02 -59.09c14.63,-53.47 58.79,-86.58 132.43,-99.45 38.78,-6.77 80.64,-8.5 125.46,-5.16 44.95,3.43 98.47,9.52 160.79,18.35 -2.77,11.1 -8.02,38.74 -15.74,82.91 -7.62,44.14 -12.08,66.28 -13.36,66.51 -1.99,-1.41 -12.39,-5.18 -31.34,-11.4 -18.93,-6.22 -39.4,-11.84 -61.32,-16.99 -22.04,-5.13 -39.51,-7.34 -52.73,-6.56 -5.85,0.36 -20,-0.45 -42.28,-2.58 -22.25,-2.03 -38.61,-2.23 -49.03,-0.42 -9.45,1.66 -16.45,4.85 -20.79,9.43 -7.45,7.55 -10.48,15.3 -9.07,23.38 1.32,7.55 6.24,15.01 14.9,22.58 8.55,7.6 19.34,14.81 32.24,21.53 12.99,6.71 27.12,13.01 42.49,18.86 15.37,5.86 30.39,11.01 45.04,15.24 30.13,8.87 56.98,20.28 80.55,34.23 23.47,13.97 42.47,28.72 56.88,44.16 14.52,15.42 26,31.59 34.35,48.65 8.44,17.03 14.07,33.57 16.86,49.5 3.3,18.92 2.91,36.72 -1.28,53.55 -7.98,28.89 -23.16,51.69 -45.49,68.06 -22.32,16.39 -50.6,27.57 -84.6,33.51 -19.55,3.41 -41.8,5.22 -66.95,5.45 -25.03,0.21 -49.52,-0.77 -73.31,-2.86 -23.82,-2.18 -48.95,-5.02 -75.65,-8.68 -26.58,-3.57 -49.93,-6.83 -70.13,-9.65 1.95,-7.02 4.82,-20.67 8.43,-40.79 3.58,-20.23 6.66,-37.74 9.11,-52.51 2.47,-14.67 4.78,-27.78 6.98,-39 2.19,-11.34 3.7,-17.07 4.56,-17.22 6.57,3.77 27.94,10.78 64.02,21.12 35.96,10.25 63.17,14.92 81.59,13.78 6.8,-0.52 18.49,-0.05 35.3,1.5 16.7,1.57 28.16,2.64 34.36,2.99 6.1,0.46 13.24,-0.02 21.32,-1.43 9.56,-1.67 16.56,-4.87 20.79,-9.44 8.18,-8.43 11.56,-16.58 10.23,-24.23 -2.97,-17.01 -28.13,-33.2 -75.47,-48.37 -28.99,-9.28 -61.93,-23.57 -98.83,-42.97 -36.77,-19.31 -70.31,-43.35 -100.39,-71.93 -30.19,-28.67 -48.04,-59.39 -53.76,-92.12 -2.95,-16.89 -2,-34.03 2.84,-51.53zm525.05 34.35c35.06,-18.72 66.06,-30.49 93.06,-35.21 24.65,-4.3 47.05,-2.73 67.19,4.7 12.15,4.45 26.19,12.06 42.16,22.63 15.98,10.57 30.47,22.72 43.72,36.51 13.23,13.67 22.9,27.64 28.97,41.69 18.66,42.29 30.95,80.01 36.7,112.95 3.04,17.43 5.06,35.92 6.2,55.54 1.01,19.64 1.81,44.9 2.28,75.81l-128.71 30.47c-1.49,-10.36 -3.89,-25.38 -7.3,-44.93 -14.2,-81.29 -37.46,-148.62 -69.85,-201.77 -12.44,-19.84 -22.8,-28.98 -31.09,-27.53 -10.84,1.89 -20.14,18.84 -28,50.98 -1.8,7.88 -2.9,16.61 -3.29,26.31 -0.27,9.7 0.06,20.37 1.14,32.22 1.07,11.75 3.04,25.54 5.79,41.26 5.58,31.98 14.48,72.26 26.89,120.8l-149.81 44.45c-3.8,-11.71 -7.22,-25.68 -10.48,-41.86 -3.46,-16.04 -6.8,-32.65 -10.02,-49.83 -3.44,-17.14 -6.82,-32.76 -10.27,-46.83 -3.44,-14.07 -8.17,-29.89 -14.19,-47.46l-79.29 -404.46 124.89 -37.91 63.31 241.47zm528.54 -69.21c16.14,5.28 30,13.81 41.59,25.58 11.58,11.78 20.91,25.7 28.07,41.64 7.17,15.94 12.34,32.99 15.5,51.06 2.62,14.98 3.95,29.53 3.94,43.89 0.1,14.32 -0.98,27.65 -3.1,39.96 -2.1,12.41 -5.26,23.15 -9.48,32.21 -9.68,21.73 -20.64,41.05 -33.18,57.7 -12.51,16.75 -25.73,30.77 -39.85,42.11 -14,11.31 -28.3,20.38 -42.89,27.09 -14.5,6.7 -29.23,11.34 -44.21,13.96 -17.65,3.08 -34.91,3.25 -51.72,0.49 -16.88,-2.63 -31.64,-7.5 -44.36,-14.48 -21.18,-12.18 -39.24,-30.27 -54.21,-54.59 -14.85,-24.23 -24.87,-50.84 -29.94,-79.86 -8.74,-50.05 -1.44,-92.93 22.1,-128.7 20.04,-30.65 42.18,-55 66.2,-72.98 24.02,-18.01 49.84,-29.41 77.36,-34.22 16.26,-2.84 32.13,-3.53 47.81,-2.1 15.58,1.44 32.45,5.17 50.37,11.24zm-9.25 55.49c-0.74,16.44 -5.96,31.71 -15.56,45.76 -9.59,14.05 -20.01,22.1 -31.28,24.07 -5.52,0.96 -10.78,0.35 -15.63,-1.76 -7.14,-3.9 -11.74,-12.07 -13.92,-24.51 -1.66,-9.56 -0.13,-19.57 4.51,-30.02 4.74,-10.46 13.45,-19.54 26.21,-27.36 -13.71,2.39 -26.53,7.37 -38.39,14.7 -11.84,7.44 -21.62,16.04 -29.33,25.82 -7.71,9.78 -13.42,20.31 -17.04,31.56 -3.73,11.28 -4.7,22.06 -2.88,32.48 3.36,19.24 14.99,33.08 34.82,41.33 18.44,7.74 35.2,10.28 50.07,7.68 14.78,-2.58 26.97,-9.85 36.72,-21.74 9.67,-11.76 16.17,-25.93 19.52,-42.5 3.24,-16.56 3.65,-32.39 1.01,-47.48 -1.82,-10.42 -4.76,-19.76 -8.83,-28.03zm241.87 263.83l58.98 248.02 -138.76 31.9 -91.83 -400.41 -0.54 -3.09c-2.57,-10.28 -4.33,-17.86 -5.2,-22.85l-24.87 -109.21 -44.38 18.04 1.97 -78.97 146.55 -93.93 14.04 56.58c22.7,-16.13 46.63,-26.44 71.93,-30.86 30.81,-5.38 63.47,-2.1 98.28,9.78 16.14,5.28 30.01,13.81 41.6,25.58 11.57,11.78 20.91,25.7 28.07,41.64 7.17,15.94 12.34,32.99 15.49,51.06 2.62,14.98 3.95,29.53 3.94,43.89 0.1,14.32 -0.97,27.65 -3.1,39.96 -2.09,12.41 -5.25,23.15 -9.48,32.21 -12.86,29.18 -28.08,53.63 -45.85,73.49 -17.69,19.73 -36.29,34.92 -55.87,45.68 -19.5,10.63 -39.82,17.79 -60.97,21.49zm-57.07 -240.26c2.02,11.59 6.67,22.49 13.93,32.71 7.13,10.15 14.44,16.87 21.58,20.11 18.43,7.74 35.19,10.28 50.07,7.68 14.77,-2.58 26.96,-9.85 36.71,-21.74 9.67,-11.76 16.17,-25.93 19.52,-42.5 3.24,-16.56 3.65,-32.39 1.02,-47.48 -1.82,-10.42 -4.76,-19.76 -8.84,-28.03 -0.74,16.44 -5.96,31.71 -15.56,45.76 -9.58,14.05 -20,22.1 -31.27,24.07 -5.53,0.96 -10.78,0.35 -15.64,-1.76 -7.13,-3.9 -11.74,-12.07 -13.91,-24.51 -1.67,-9.56 -0.14,-19.57 4.5,-30.02 4.74,-10.46 13.45,-19.54 26.21,-27.36 -16.79,2.93 -31.77,9.27 -44.88,18.9 -12.97,9.72 -23.44,21.29 -31.26,34.81 -7.8,13.63 -11.87,26.71 -12.18,39.36z"/>
  </g>
  <path class="fil45" d="M2143.49 597.44l-17.88 -31.85c13.85,-11.58 26.64,-32.81 38.39,-25.2 20.36,26.16 5.41,47.43 -20.51,57.05zm205.98 -122.56l-20.05 -33.98c10.26,-22.85 5.07,-21.37 20.05,-34.28l24.07 33.39c-7.46,16.12 -8.87,24.49 -24.07,34.87zm-412.75 -58.88c115.94,36.47 74.82,23.88 206.41,-6.58 -8.92,31.92 -52.24,68 -105.21,71.84 -50.95,3.69 -74.86,-25.52 -101.2,-65.26zm99.56 -78.59c3.76,-17.1 2.93,-18.85 15.15,-26.82 7.03,32.43 8.13,19.25 -15.15,26.82zm-40.31 -93.55c13.78,-11.59 12.32,-10.27 27.49,-16.08l34.22 25.74c-4.38,19.7 -41.98,69.53 -80.41,13.7l18.7 -23.36zm-61.39 297.03l28.9 -12.43 10.31 33.2c-10.52,9.63 -20.69,20.93 -37.5,24.49l-7.34 -18.15 -3.52 35.59c21.02,5.45 30.7,19.01 57.16,6.74 50.41,-23.37 32.19,-58.19 100.79,-40.36 33.15,8.62 13.48,12.19 40.7,34.04 16.73,13.44 8.65,6.76 31.11,13.18 1.17,0.33 2.83,0.81 3.96,1.13l7.19 2.2c40.29,9.3 65.45,-37.63 74.24,-71.57 8.31,-32.13 8.27,-19.46 32.44,-41.86l5.65 6.61c0.7,0.96 1.88,2.42 2.64,3.51 10.36,14.75 -1.19,-1.95 4.86,7.66 5.33,8.45 5.87,12.06 11.96,18.9 20.47,22.98 70.15,12.5 87.22,-15.38 36.11,-58.99 28.47,-91.36 -8.45,-164.46 -19.24,-10.16 -25.61,-19.24 -50.98,-29.64l5.65 23.35 -35.83 8.85 -21.17 -17.34 3.31 -31.28c-31.54,-14.63 -42.91,-3.6 -66.41,-33.29 15.71,-19.91 34.9,-52.44 25.8,-86.01 -50.82,-24.03 -95.67,19.03 -170.29,-10.68 -17.94,3.98 -83.19,13.47 -99.1,11.22 -32.89,-4.63 -42.1,-17.71 -87.13,-11.73 3.19,34.42 7.21,59.19 13.41,94.42 7.65,43.5 -22.23,130.09 -6.96,157.97 9.96,18.18 40.75,35.9 56.91,39.87 -2.46,26.76 -10.96,31.5 -9.53,61.25z"/>
  <path class="fil46" d="M2066.98 187.89c74.62,29.71 119.47,-13.35 170.29,10.68 9.1,33.57 -10.09,66.1 -25.8,86.01 23.5,29.69 34.87,18.66 66.41,33.29 22.73,1.77 31.05,5.24 48.04,16.42 25.37,10.4 31.74,19.48 50.98,29.64 53.53,-39.16 45.61,-124.42 17.06,-164.62 -32.02,-45.08 -73.04,-50.61 -103.88,-118.3 -41.72,4.3 -40.94,-8.24 -61.09,6.09 -22.93,16.32 -17.68,21.04 -53.99,33.35 -50.13,17 -95.62,25.6 -108.02,67.44z"/>
  <path class="fil41" d="M1936.72 416c26.34,39.74 50.25,68.95 101.2,65.26 52.97,-3.84 96.29,-39.92 105.21,-71.84 -131.59,30.46 -90.47,43.05 -206.41,6.58z"/>
  <path class="fil47" d="M1977.27 267.22c38.43,55.83 76.03,6 80.41,-13.7l-34.22 -25.74c-15.17,5.81 -13.71,4.49 -27.49,16.08l-18.7 23.36z"/>
  <path class="fil47" d="M2325.92 334.29c-16.99,-11.18 -25.31,-14.65 -48.04,-16.42l-3.31 31.28 21.17 17.34 35.83 -8.85 -5.65 -23.35z"/>
  <path class="fil47" d="M2143.49 597.44c25.92,-9.62 40.87,-30.89 20.51,-57.05 -11.75,-7.61 -24.54,13.62 -38.39,25.2l17.88 31.85z"/>
  <path class="fil47" d="M2349.47 474.88c15.2,-10.38 16.61,-18.75 24.07,-34.87l-24.07 -33.39c-14.98,12.91 -9.79,11.43 -20.05,34.28l20.05 33.98z"/>
  <path class="fil47" d="M1928.95 568l7.34 18.15c16.81,-3.56 26.98,-14.86 37.5,-24.49l-10.31 -33.2 -28.9 12.43 -5.63 27.11z"/>
  <path class="fil48" d="M2036.28 337.41c23.28,-7.57 22.18,5.61 15.15,-26.82 -12.22,7.97 -11.39,9.72 -15.15,26.82z"/>
  <path class="fil34" d="M1498.77 2693.07c40.09,6.13 88.93,30.52 89.68,76.79 0.94,58.28 -54.5,78.9 -89.7,75.06 -44.12,-4.82 -86.13,-29.85 -86.23,-78.8 -0.12,-53.56 57.74,-77.4 86.25,-73.05z"/>
  <path class="fil34" d="M2392.19 2163.69l-3.47 99.96c-51.73,9.18 -218.33,18.15 -279.06,21.65l9.33 -135.12c17.88,-3.49 258.21,6.74 273.2,13.51zm-384.13 -15.33l-9.69 140.87c-59.17,4.82 -249.26,2.8 -312.77,-0.81l-7.87 -133c16.49,-6.8 297.74,-10.12 330.33,-7.06zm-435.4 134.86c-34.3,0.18 -251.69,-16.26 -269.6,-23.3l-9.3 -84.27 272.04 -17.79 6.86 125.36zm-9.16 -334.89l0.98 96.47c-9.91,4.04 -235.68,17.28 -281.61,18.98l-10.28 -98.81c77.99,-7.43 224.61,-13.11 290.91,-16.64zm458.46 -19.23c1.2,7.09 -1,87.24 -5.05,100.44 -1.38,4.49 -1.35,4.13 -3.04,7.05l-337.22 5.47c-4.53,-14.32 -2.45,-77.34 -2.58,-97.34 36.3,-8.21 132.26,-6.94 175.33,-8.94 57.25,-2.66 114.69,-3.61 172.56,-6.68zm381.52 121.64l-275.54 -11.94 6.83 -112.37c23.17,-7.11 253.87,-17.66 290.89,-17.45l-22.18 141.76zm57.93 -255.39l-319.37 18.71 3.65 -131.07c16.51,-8.21 245.97,-14.51 284.42,-16.38 23.48,-1.15 46.95,-2.29 70.42,-3.6 24.72,-1.38 22.7,-3.22 4.24,32.97 -16.79,32.9 -29.19,64.38 -43.36,99.37zm-427.8 -110.19c2.26,14.24 -1.13,117.86 -4.28,131.64 -22.21,5.44 -304.34,13.52 -352.04,15.25 -5.76,-14.32 -1.65,-111.12 0.59,-131.62 15.23,-4.87 315.13,-14.11 355.73,-15.27zm-467.77 16.11l-2.21 135.02 -304.22 17.59 -19.84 -145.45 326.27 -7.16z"/>
 </g>
</svg>
