<?xml version="1.0" encoding="UTF-8"?>
<!DOCTYPE svg PUBLIC "-//W3C//DTD SVG 1.1//EN" "http://www.w3.org/Graphics/SVG/1.1/DTD/svg11.dtd">
<!-- Creator: CorelDRAW 2017 -->
<svg xmlns="http://www.w3.org/2000/svg" xml:space="preserve" width="15.3246mm" height="15.4938mm" version="1.1" style="shape-rendering:geometricPrecision; text-rendering:geometricPrecision; image-rendering:optimizeQuality; fill-rule:evenodd; clip-rule:evenodd"
viewBox="0 0 1532.46 1549.38"
 xmlns:xlink="http://www.w3.org/1999/xlink">
 <defs>
  <style type="text/css">
   <![CDATA[
    .fil0 {fill:url(#id0)}
   ]]>
  </style>
  <linearGradient id="id0" gradientUnits="userSpaceOnUse" x1="269.57" y1="1349.1" x2="1912.1" y2="1340.63">
   <stop offset="0" style="stop-opacity:1; stop-color:black"/>
   <stop offset="0.290196" style="stop-opacity:1; stop-color:#1A1A1A"/>
   <stop offset="0.509804" style="stop-opacity:1; stop-color:blue"/>
   <stop offset="0.780392" style="stop-opacity:1; stop-color:#003399"/>
   <stop offset="1" style="stop-opacity:1; stop-color:black"/>
  </linearGradient>
 </defs>
 <g id="Capa_x0020_1">
  <metadata id="CorelCorpID_0Corel-Layer"/>
  <path class="fil0" d="M806.37 1134.52c-90.7,419.09 -714.48,285.46 -630.79,-129.02 31.07,-153.9 186.21,-288.96 381.53,-250.28 153.11,30.32 290.07,190.72 249.26,379.3zm726.09 -865.07l0 43.31c-3.22,46.45 -16.73,89.67 -38.86,122.51 -22.46,33.33 -39,70.33 -79.67,81.19 54.46,113.51 59.26,213.31 59.26,338.66 0,261.88 -181.97,504.99 -417.69,623.7 -83.04,41.81 -176.52,65.08 -271.74,70.56l-88.56 0c-141.1,-8.06 -280.13,-54.47 -389.04,-136.82 -111.75,-84.5 -171.39,-153.51 -235.6,-280.87 -41.96,-83.24 -65.47,-179.89 -70.56,-278.18l0 -81.44c5.09,-98.28 28.6,-194.94 70.56,-278.18 38.34,-76.04 83.63,-144.39 143.19,-203.94 31.48,-31.49 61.13,-53.27 97.12,-80.68 167.66,-127.64 497.55,-187.63 696.66,-82.27 26.16,-49.43 43.15,-56.8 89.66,-88.14 34.96,-23.56 76.24,-38.86 130.47,-38.86 205.97,0 295.93,138.67 304.8,269.45zm-1379 645.93c13.62,-341.61 486.55,-549.97 762.61,-265.11 103.9,107.2 178.1,296.03 95.23,488.1 -55.02,127.54 -193.16,268.22 -374.64,271.83 195.63,-72.17 336.03,-404.59 91.54,-622.63l-114.04 -64.06c-124.27,-42.23 -257.23,-18.79 -355.93,59.88 -61.26,48.83 -75.68,94.01 -104.77,131.99zm1027.38 -840.04c134.64,-42.52 245.19,43.7 276.8,143.1 44.11,138.69 -44.9,251.2 -143.59,282.5 -281.24,89.21 -424.19,-333.71 -133.21,-425.6zm-1082.93 869.9c-23.29,-138.63 -15.66,-251.05 33.39,-373.55 41.29,-103.13 114.86,-203.69 179.27,-252.65 84.7,-64.39 154.31,-114.23 288.11,-143.21 160.15,-34.68 230.64,-5.34 369.4,24.68 -9.18,63.61 -17.63,113.62 2.27,174.88 46.29,142.52 192.27,232.62 365.82,186.12 145.96,297.86 -13.63,701.99 -322.4,841.65 -113.58,51.37 -213.29,68.14 -352.25,57.44 148.37,-35.11 254.51,-90.83 338.58,-206.44 23.93,-32.9 44.16,-70.54 61.17,-116.81 151.26,-411.48 -269.65,-810.64 -678.84,-619.22 -78.28,36.62 -152.12,105.24 -195.37,168.31 -48.53,70.76 -73.97,158.53 -89.15,258.8z"/>
 </g>
</svg>
