<?xml version="1.0" encoding="UTF-8"?>
<!DOCTYPE svg PUBLIC "-//W3C//DTD SVG 1.1//EN" "http://www.w3.org/Graphics/SVG/1.1/DTD/svg11.dtd">
<!-- Creator: CorelDRAW 2017 -->
<svg xmlns="http://www.w3.org/2000/svg" xml:space="preserve" width="32.2578mm" height="34.7978mm" version="1.1" style="shape-rendering:geometricPrecision; text-rendering:geometricPrecision; image-rendering:optimizeQuality; fill-rule:evenodd; clip-rule:evenodd"
viewBox="0 0 3225.78 3479.78"
 xmlns:xlink="http://www.w3.org/1999/xlink">
 <defs>
  <style type="text/css">
   <![CDATA[
    .fil1 {fill:#221815}
    .fil13 {fill:#291A15}
    .fil7 {fill:#311D14}
    .fil9 {fill:#381F14}
    .fil12 {fill:#3E3017}
    .fil8 {fill:#881115}
    .fil3 {fill:#983D0D}
    .fil5 {fill:#B43A3F}
    .fil2 {fill:#E5AB2E}
    .fil6 {fill:#E77371}
    .fil4 {fill:#E94F24}
    .fil11 {fill:#F1F1F0}
    .fil0 {fill:#FED823}
    .fil10 {fill:white}
   ]]>
  </style>
 </defs>
 <g id="Capa_x0020_1">
  <metadata id="CorelCorpID_0Corel-Layer"/>
  <g id="_1550472391584">
   <path class="fil0" d="M778.81 2055.43c44.33,3.5 96.64,18.35 147.95,20.33 59.68,2.31 113.21,-5.08 168.44,-10.57 -1.89,1.58 -4.77,1.67 -5.6,4.8 -5.22,19.63 -232.18,140.89 -310.79,-14.56zm-20.4 -357.85c-67.38,156.43 -297.75,47.2 -221.86,-106.88 65.82,-133.61 287.89,-46.42 221.86,106.88zm198.29 -94.38c187.19,35.97 210.25,-91.63 306.2,-32.53l72.66 36.02c2.11,0.74 5.42,1.77 7.25,2.4 1.67,0.57 5.26,1.85 6.56,2.3 1.23,0.42 4.18,1.3 6.19,2.16 -42.63,29.63 -17.95,-0.54 -45.96,77.41 -25.77,71.73 -105.3,207.76 -162.14,238.61 -97.16,52.73 -140.93,-155.3 -153.05,-226.32 -10.67,-62.51 -6.8,-62.6 -37.71,-100.05zm-791.37 38.75c-8.37,-40.12 -11.74,-21.54 5.44,-49.79 32.25,10.26 33.54,16.99 49.54,51.39 -26.3,-12.22 -23.88,-12.39 -39.03,-28.88l-15.95 27.28zm1114.48 -150.02c-18.32,44.86 -40.98,30.85 -60.65,-7.01l60.65 7.01zm176.4 27.08c-65.99,8.94 -85.59,-19.4 -87.29,-84.25 -1.45,-55.66 17.03,-90.64 62.38,-109.07 89.89,31.32 61.95,142.27 24.91,193.32zm-632.85 -265.22c133.64,-64.66 206.75,138.24 95.34,193.82 -133.35,66.52 -231.55,-127.91 -95.34,-193.82zm-281.34 -785.22c-4.27,183.42 23.08,421.08 59.48,577.78 -31.8,8.49 -19.18,7.15 -58.14,36.72 -48.6,36.88 -28.12,24.85 -25.99,99.75l-31.69 -16.89c-1.26,-0.66 -4.31,-0.23 -5.18,-2.62 -0.56,-1.54 -2.3,-0.97 -3.43,-1.5 -39.9,74.03 -49.34,314.95 -41.08,418.12 12.82,160.19 48.22,250.22 108.37,365.19 -124.28,-179.84 -24.62,-97.2 -186.02,-224.99 -184.44,-146.03 -127.34,-127.77 -158.86,-156.56 -26.56,-24.26 -15.04,12.59 -70.72,-0.59 -25.97,57.59 -74.1,85.79 -78.76,103.09 8.03,69 40.1,209.7 82.21,241.65 34.01,28.92 50.42,48.34 77.99,76.08 33.41,33.61 47.43,43.89 83.41,74.14 51.74,43.49 118.7,103.03 187.04,131.39l0.08 -23.67c15.1,140.8 -8.04,214.77 -4.03,342.74 63.52,-4.15 70.51,-6.12 115.57,18.37 -171.81,-18.11 -76.83,18.28 -61.08,160.83l-23.33 -45.95c-5.95,-17.69 -10.3,-37.41 -16.58,-56.58 -10.59,-32.31 -24.37,-67.18 -37.19,-93.59 -18.06,28.64 54.53,271.43 68.65,298.56l11.1 -0.57c121.48,-22.2 168.53,11.16 306.2,66.61 184.09,74.15 593.5,283.57 817.93,87 57.09,-50.01 56.18,-59.17 74.36,-142.17 5.89,-61.55 -38.28,-123.65 -65.54,-162.33 -16.5,-23.42 -88.5,-127.38 -97.33,-134.87 -78.88,-46.22 -150.14,-93.78 -180.22,-165.36 30.22,-30.08 75.48,-51.07 112.87,-75.86 41.12,-27.26 70.6,-55.24 117.98,-81.65 18.48,-6.92 36.87,-36.75 55.52,-60.24 23,-28.98 31.61,-45.12 51.49,-74.72 86.82,-129.26 164.65,-274.41 205.35,-424.89 15.66,-57.91 25.62,-52.51 41.82,-91.48 -98.21,-54.17 -4.99,-12 -71.81,-62.55l-26.44 -21.54c-1.33,-0.7 -4.23,-1.93 -5.6,-2.48l-12.26 -2.31c-22.6,-6.88 -9.88,10.38 -37.14,-32.24 -1.36,-2.13 -2.78,-6.29 -4.99,-8.86 -22.41,49.47 -47.31,38.28 -25.63,78.12 -30.11,-9.36 -14.51,-11.33 -41.36,-30.22 -26.12,66.1 -13.97,41.45 -59.3,78.2 -195.39,158.41 -59.76,98.78 -173.12,256.91 -71.46,99.67 -185.03,225.21 -303.94,257.76 66.16,-34.11 228.96,-170.94 254.17,-212.13 17.88,-29.21 16.01,-90.3 26.72,-131.83 13.69,-53.01 29.84,-71.07 46.38,-112.2 19.1,-47.48 -8.24,-74.1 -13.01,-128.65 -4.4,-50.29 0.25,-105.72 -2.46,-157.51 -2.75,-52.54 -17.41,-97.3 -20.72,-145.09 71.16,26.86 464.78,-149.42 518.63,-229.65 43.01,-64.09 56.09,-122.73 65.4,-207.13 -195.67,27.33 -485.58,131.46 -651.43,241.49 -56.74,37.64 -39.68,41.97 -47.08,57.2 -134.13,-86.39 -347,-126.99 -515.14,-116.14 -98.13,6.33 -126.97,5.13 -155.82,50.5 21.56,-199.1 91.84,-438.81 44.63,-651.27 -42.41,-9.9 -93.42,26.17 -132.1,52.97 -37.63,26.06 -91.05,64.65 -88.83,117.71z"/>
   <path class="fil1" d="M1566.54 2326.53c48.83,-41.28 73.35,-85.83 117.52,-125.39 -23.45,78.48 44.3,222.05 52.5,313.16 -72.92,-33.89 -22.25,-34.51 -108.92,-23.68 -27.52,-38.42 -58.75,-100.96 -61.1,-164.09zm126.7 -145.75c33.53,-42.76 68.07,-103.65 105.71,-146.4l66.75 121.54c20.63,45.03 40.47,82.97 56.68,127.29 -36.79,-12.59 -78.17,-32.13 -114.25,-48.89l-114.89 -53.54zm-197.6 -398.54c2.95,-63.94 23.48,-152.6 61.71,-189.01 15.96,87.54 -20.09,141.58 -61.71,189.01zm1626.96 235c-281.85,-19.46 -617.48,-17.65 -898.73,21.59l-79.35 14.82c-23.24,7.91 -15.78,5.96 -24.23,11.48l45.67 556.84c-74.42,-27.61 -161.43,-100.98 -240.57,-117.47l9.5 318.38c-27.83,-14.37 -149.4,-113.21 -173.56,-136.17l-26.74 41.64c-35.92,-86.69 -73.63,-68.21 -60.36,-189.08 30.02,20.19 107.52,80.48 142.52,80.19l-19.43 -79.59c-19.21,-90.26 -43.02,-192.9 -64.9,-284.39l274.69 120.33c3.04,-54.48 -123.9,-295.94 -149.96,-347.32 -52.97,-104.41 -52.33,-75.54 0.05,-178.56l82.56 -172.2c-2.38,-78.65 23.5,-87.97 47.11,-138 26.14,-55.39 21.27,-38.35 91.89,-66.57 227.96,-91.1 583.53,-247.05 817.95,-282.43l274.11 826.6 -48.22 -0.09zm-1502.51 163.6c-20.11,40.67 -103.83,140.15 -132.35,161.43 41.52,12.85 19.7,-6.34 43.2,64.1 12.18,36.53 26.48,61.97 38.52,97.34 8.83,7.49 80.83,111.45 97.33,134.87 27.26,38.68 71.43,100.78 65.54,162.33 8.1,12.05 4.16,1.06 9.16,23 17,74.75 -25.08,200.68 -78.77,260.25l6.73 14.59c32.92,75.08 58.17,236.3 39.81,308.28l-40.96 -118.03c-7.3,56.23 23.99,89.22 24.33,137.89 -37.9,-29.49 -35.71,-74.51 -62.39,-112.91 2.97,51.27 12.1,64.49 27.6,102.41 -25.4,-63.72 -90.99,-202.27 -97.41,-263.59 -0.46,-4.38 -1.7,-5.66 -3.08,-8.24 -252.95,23.54 -345.61,-94.31 -485.42,-108.52 -119.48,-12.13 -421.27,30.89 -513.78,-83.83l-22.33 23.34c-14.95,13.79 2.91,4.48 -18.4,14.07 -81.69,-105.13 -127.65,-321.81 -133.29,-483.2 36.12,-25.44 -34.01,-0.91 6.62,0.39 0.61,0.02 -0.87,41.51 6.98,-0.02 0.26,-1.38 2.85,0.14 4.13,-0.37l-6.24 -79.78c40.44,18.48 23.01,75.45 35.76,129.95l4.69 -91.07c28.41,18.1 6.92,-0.08 18.02,25.96 12.82,26.41 26.6,61.28 37.19,93.59 6.28,19.17 10.63,38.89 16.58,56.58l23.33 45.95c-15.75,-142.55 -110.73,-178.94 61.08,-160.83 -45.06,-24.49 -52.05,-22.52 -115.57,-18.37 -4.01,-127.97 19.13,-201.94 4.03,-342.74l-0.08 23.67 -6.53 137.88c-41.44,-21.23 -157.5,-142.34 -191.6,-184.57 -46.39,-57.44 -123.52,-155.54 -150.31,-234.92 -42.11,-31.95 -74.18,-172.65 -82.21,-241.65 4.66,-17.3 52.79,-45.5 78.76,-103.09 55.68,13.18 44.16,-23.67 70.72,0.59 31.52,28.79 -25.58,10.53 158.86,156.56 161.4,127.79 61.74,45.15 186.02,224.99 -60.15,-114.97 -95.55,-205 -108.37,-365.19 -8.26,-103.17 1.18,-344.09 41.08,-418.12 13.26,-39.82 21.54,-29.93 15.31,-86.39 -3.52,-31.86 -7.05,-59.62 -8.37,-92.07 -4.68,-115.04 5.05,-244.29 21.62,-359.95 14.12,-98.49 17.22,-129.5 36.39,-154.83 -2.22,-53.06 51.2,-91.65 88.83,-117.71 38.68,-26.8 89.69,-62.87 132.1,-52.97 47.21,212.46 -23.07,452.17 -44.63,651.27 28.85,-45.37 57.69,-44.17 155.82,-50.5 168.14,-10.85 381.01,29.75 515.14,116.14 7.4,-15.23 -9.66,-19.56 47.08,-57.2 165.85,-110.03 455.76,-214.16 651.43,-241.49 -9.31,84.4 -22.39,143.04 -65.4,207.13 -53.85,80.23 -447.47,256.51 -518.63,229.65 3.31,47.79 17.97,92.55 20.72,145.09 2.71,51.79 -1.94,107.22 2.46,157.51 4.77,54.55 32.11,81.17 13.01,128.65 -16.54,41.13 -32.69,59.19 -46.38,112.2 -10.71,41.53 -8.84,102.62 -26.72,131.83 -25.21,41.19 -188.01,178.02 -254.17,212.13 118.91,-32.55 232.48,-158.09 303.94,-257.76 113.36,-158.13 -22.27,-98.5 173.12,-256.91 45.33,-36.75 33.18,-12.1 59.3,-78.2 26.85,18.89 11.25,20.86 41.36,30.22 -21.68,-39.84 3.22,-28.65 25.63,-78.12 2.21,2.57 3.63,6.73 4.99,8.86 27.26,42.62 14.54,25.36 37.14,32.24l12.26 2.31c1.37,0.55 4.27,1.78 5.6,2.48l26.44 21.54c66.82,50.55 -26.4,8.38 71.81,62.55 -16.2,38.97 -26.16,33.57 -41.82,91.48 -40.7,150.48 -118.53,295.63 -205.35,424.89 -19.88,29.6 -28.49,45.74 -51.49,74.72 -18.65,23.49 -37.04,53.32 -55.52,60.24zm-798.04 -1743.78c0,-699.99 -222.49,-439.45 -316.93,-65.03 -121.01,479.78 -37.74,601.29 -90.53,823.1 -44.34,186.34 -34.6,303.76 -18.67,482.75 -152.71,-56.82 -140.31,-200.01 -226.22,-182.32l-41.02 11.05c-37.55,11.49 -14.53,-6.97 -56.76,39.72 -5.39,5.96 -9.8,10.22 -15.16,16.29 -11.34,12.83 -17.82,21.32 -28.17,34.54 -48.42,61.8 -24.75,141.81 5.77,226.25 83.9,232.2 199.55,335.04 341.35,488.44l59.64 63.88c-54.87,-15.48 -68.37,-20.44 -85.86,25.98 -46.23,122.7 24.08,382.23 61.4,494.81 68.98,208.11 109.13,119.43 189.4,146.26 232.6,77.76 387.38,8.73 530.97,57.79 144.39,49.34 191.3,96.52 373.57,96.52 29.52,17.05 8.65,-12.24 28.22,38.02 47.01,120.76 40.38,248.59 183.83,246.25 27.84,-31.15 50.56,-46.32 50.56,-103.08 0,-113.7 -41.16,-236.96 -38.66,-282.91 4.47,-82.04 79.92,-72.88 59.67,-318.46 94.43,51.59 107.73,125.15 191.69,100.42 21.74,-82.08 -13.44,-199.63 -1.31,-293.45 255.89,103.67 272.98,277.62 193.07,-487.13 170.07,-21.06 333.7,-42.02 509.42,-42.02 615.18,0 592.68,103.55 483.22,-231.1 -48.35,-147.8 -191.69,-596.46 -240.97,-681.47 -113.97,-10.7 -840.98,254.59 -921.14,312.51 -107.54,-50.01 -19.57,-42.66 -132.15,-90.49 -39.19,-16.65 -33.14,-33.86 -85.07,4.56 -17.5,12.95 -2.2,3.72 -17.67,13.95l-13.33 7.74c-101.71,57.93 -13.14,65.14 -160.05,143.02 -22.99,-113.41 -15.71,-212.59 -28.93,-330.23 238.33,-42.84 894.16,-441.34 811.46,-545.57 -117.7,-83.13 -692.24,110.78 -800.23,166.22 -180.36,92.59 -176.83,132.41 -246.79,104.61 -207.99,-82.67 -306.18,-88.77 -537.92,-70.83l30.3 -420.59z"/>
   <path class="fil0" d="M1939.76 1677.73c-8.97,35.66 -3.16,7.85 6.25,19.81 213.78,0 486.45,49.6 653.14,92.61 139.72,36.06 441.03,142.63 523.45,227.09l48.22 0.09 -274.11 -826.6c-234.42,35.38 -589.99,191.33 -817.95,282.43 -70.62,28.22 -65.75,11.18 -91.89,66.57 -23.61,50.03 -49.49,59.35 -47.11,138z"/>
   <path class="fil2" d="M1797.32 2539.87c29.19,7.58 17.82,19.04 23.33,-37.35l24.93 37.57 21.59 -72.13 20.72 77.31c16.41,-51.12 -2.78,-30.3 37.5,-40.77 79.14,16.49 166.15,89.86 240.57,117.47l-45.67 -556.84c8.45,-5.52 0.99,-3.57 24.23,-11.48l79.35 -14.82c281.25,-39.24 616.88,-41.05 898.73,-21.59 -82.42,-84.46 -383.73,-191.03 -523.45,-227.09 -166.69,-43.01 -439.36,-92.61 -653.14,-92.61 -9.41,-11.96 -15.22,15.85 -6.25,-19.81l-82.56 172.2c-52.38,103.02 -53.02,74.15 -0.05,178.56 26.06,51.38 153,292.84 149.96,347.32l-274.69 -120.33c21.88,91.49 45.69,194.13 64.9,284.39z"/>
   <path class="fil2" d="M1732.33 2800.91c-18.18,83 -17.27,92.16 -74.36,142.17 -224.43,196.57 -633.84,-12.85 -817.93,-87 -137.67,-55.45 -184.72,-88.81 -306.2,-66.61l-11.1 0.57c-14.12,-27.13 -86.71,-269.92 -68.65,-298.56 -11.1,-26.04 10.39,-7.86 -18.02,-25.96l-4.69 91.07c-12.75,-54.5 4.68,-111.47 -35.76,-129.95l6.24 79.78c-1.28,0.51 -3.87,-1.01 -4.13,0.37 -7.85,41.53 -6.37,0.04 -6.98,0.02 -40.63,-1.3 29.5,-25.83 -6.62,-0.39 5.64,161.39 51.6,378.07 133.29,483.2 21.31,-9.59 3.45,-0.28 18.4,-14.07l22.33 -23.34c92.51,114.72 394.3,71.7 513.78,83.83 139.81,14.21 232.47,132.06 485.42,108.52 1.38,2.58 2.62,3.86 3.08,8.24 6.42,61.32 72.01,199.87 97.41,263.59 -15.5,-37.92 -24.63,-51.14 -27.6,-102.41 26.68,38.4 24.49,83.42 62.39,112.91 -0.34,-48.67 -31.63,-81.66 -24.33,-137.89l40.96 118.03c18.36,-71.98 -6.89,-233.2 -39.81,-308.28l-6.73 -14.59c53.69,-59.57 95.77,-185.5 78.77,-260.25 -5,-21.94 -1.06,-10.95 -9.16,-23z"/>
   <path class="fil3" d="M1797.32 2539.87l19.43 79.59c-35,0.29 -112.5,-60 -142.52,-80.19 -13.27,120.87 24.44,102.39 60.36,189.08l26.74 -41.64c24.16,22.96 145.73,121.8 173.56,136.17l-9.5 -318.38c-40.28,10.47 -21.09,-10.35 -37.5,40.77l-20.72 -77.31 -21.59 72.13 -24.93 -37.57c-5.51,56.39 5.86,44.93 -23.33,37.35z"/>
   <path class="fil2" d="M477.07 1161.81c1.13,0.53 2.87,-0.04 3.43,1.5 0.87,2.39 3.92,1.96 5.18,2.62l31.69 16.89c-2.13,-74.9 -22.61,-62.87 25.99,-99.75 38.96,-29.57 26.34,-28.23 58.14,-36.72 -36.4,-156.7 -63.75,-394.36 -59.48,-577.78 -19.17,25.33 -22.27,56.34 -36.39,154.83 -16.57,115.66 -26.3,244.91 -21.62,359.95 1.32,32.45 4.85,60.21 8.37,92.07 6.23,56.46 -2.05,46.57 -15.31,86.39z"/>
   <path class="fil4" d="M608.82 1545.91c-182.01,67.81 23.96,322.47 126.96,160.78 52.28,-82.09 -25.43,-198.61 -126.96,-160.78z"/>
   <path class="fil1" d="M876.52 1300.37c40.09,-38.9 69.22,24.5 41.21,52.05 -28.92,28.44 -81.43,-13.04 -41.21,-52.05zm-53.16 -46.58c-136.21,65.91 -38.01,260.34 95.34,193.82 111.41,-55.58 38.3,-258.48 -95.34,-193.82z"/>
   <path class="fil2" d="M480.65 2189.33c-68.34,-28.36 -135.3,-87.9 -187.04,-131.39 -35.98,-30.25 -50,-40.53 -83.41,-74.14 -27.57,-27.74 -43.98,-47.16 -77.99,-76.08 26.79,79.38 103.92,177.48 150.31,234.92 34.1,42.23 150.16,163.34 191.6,184.57l6.53 -137.88z"/>
   <path class="fil5" d="M1020.45 1750.04c62.64,-7.34 113.11,-7.3 170.58,19.04l34.22 20.26c1.97,1.32 5.35,3.82 6.94,4.93 1.62,1.12 4.62,3.43 6.97,5.08 -7.02,-68.81 -36.93,-115.87 -73.55,-151.31 -57.64,-55.8 -78.56,-23.66 -161.79,-20.07 -4.01,46.33 0.77,87.33 16.63,122.07z"/>
   <path class="fil6" d="M1020.45 1750.04c15.94,69.63 43.63,146.75 87.25,174.52 65.68,-6.35 96.73,-79.41 131.46,-125.21 -2.35,-1.65 -5.35,-3.96 -6.97,-5.08 -1.59,-1.11 -4.97,-3.61 -6.94,-4.93l-34.22 -20.26c-57.47,-26.34 -107.94,-26.38 -170.58,-19.04z"/>
   <path class="fil7" d="M1239.16 1799.35c-34.73,45.8 -65.78,118.86 -131.46,125.21 -43.62,-27.77 -71.31,-104.89 -87.25,-174.52 -15.86,-34.74 -20.64,-75.74 -16.63,-122.07 83.23,-3.59 104.15,-35.73 161.79,20.07 36.62,35.44 66.53,82.5 73.55,151.31zm-102.2 -196.31c83.11,-60.95 117.35,-18.45 176.33,18.21 -9.43,57.95 -37.48,97.67 -55.9,144.36 -58.48,-104.68 2.14,-55.68 -120.43,-162.57zm-180.26 0.16c30.91,37.45 27.04,37.54 37.71,100.05 12.12,71.02 55.89,279.05 153.05,226.32 56.84,-30.85 136.37,-166.88 162.14,-238.61 28.01,-77.95 3.33,-47.78 45.96,-77.41 -2.01,-0.86 -4.96,-1.74 -6.19,-2.16 -1.3,-0.45 -4.89,-1.73 -6.56,-2.3 -1.83,-0.63 -5.14,-1.66 -7.25,-2.4l-72.66 -36.02c-95.95,-59.1 -119.01,68.5 -306.2,32.53z"/>
   <path class="fil2" d="M1569.46 2503.71c-12.04,-35.37 -26.34,-60.81 -38.52,-97.34 -23.5,-70.44 -1.68,-51.25 -43.2,-64.1 28.52,-21.28 112.24,-120.76 132.35,-161.43 -47.38,26.41 -76.86,54.39 -117.98,81.65 -37.39,24.79 -82.65,45.78 -112.87,75.86 30.08,71.58 101.34,119.14 180.22,165.36z"/>
   <path class="fil1" d="M1410.29 1424.14c-15.34,-29.36 -8.5,-47.93 3.48,-69.02 8.28,10.52 16.53,14.84 15.79,37.51 -1.65,49.93 -13.72,27.67 -19.27,31.51zm45.92 94.87c37.04,-51.05 64.98,-162 -24.91,-193.32 -45.35,18.43 -63.83,53.41 -62.38,109.07 1.7,64.85 21.3,93.19 87.29,84.25z"/>
   <path class="fil8" d="M1136.96 1603.04c122.57,106.89 61.95,57.89 120.43,162.57 18.42,-46.69 46.47,-86.41 55.9,-144.36 -58.98,-36.66 -93.22,-79.16 -176.33,-18.21z"/>
   <path class="fil2" d="M778.81 2055.43c78.61,155.45 305.57,34.19 310.79,14.56 0.83,-3.13 3.71,-3.22 5.6,-4.8 -55.23,5.49 -108.76,12.88 -168.44,10.57 -51.31,-1.98 -103.62,-16.83 -147.95,-20.33z"/>
   <path class="fil9" d="M608.82 1545.91c101.53,-37.83 179.24,78.69 126.96,160.78 -103,161.69 -308.97,-92.97 -126.96,-160.78zm149.59 151.67c66.03,-153.3 -156.04,-240.49 -221.86,-106.88 -75.89,154.08 154.48,263.31 221.86,106.88z"/>
   <path class="fil4" d="M1495.64 1782.24c41.62,-47.43 77.67,-101.47 61.71,-189.01 -38.23,36.41 -58.76,125.07 -61.71,189.01z"/>
   <path class="fil10" d="M876.52 1300.37c-40.22,39.01 12.29,80.49 41.21,52.05 28.01,-27.55 -1.12,-90.95 -41.21,-52.05z"/>
   <path class="fil11" d="M1410.29 1424.14c5.55,-3.84 17.62,18.42 19.27,-31.51 0.74,-22.67 -7.51,-26.99 -15.79,-37.51 -11.98,21.09 -18.82,39.66 -3.48,69.02z"/>
   <path class="fil12" d="M181.28 1614.67c15.15,16.49 12.73,16.66 39.03,28.88 -16,-34.4 -17.29,-41.13 -49.54,-51.39 -17.18,28.25 -13.81,9.67 -5.44,49.79l15.95 -27.28z"/>
   <path class="fil13" d="M1279.81 1491.93l-60.65 -7.01c19.67,37.86 42.33,51.87 60.65,7.01z"/>
  </g>
 </g>
</svg>
