<?xml version="1.0" encoding="UTF-8"?>
<!DOCTYPE svg PUBLIC "-//W3C//DTD SVG 1.1//EN" "http://www.w3.org/Graphics/SVG/1.1/DTD/svg11.dtd">
<!-- Creator: CorelDRAW 2017 -->
<svg xmlns="http://www.w3.org/2000/svg" xml:space="preserve" width="44.1112mm" height="35.6446mm" version="1.1" style="shape-rendering:geometricPrecision; text-rendering:geometricPrecision; image-rendering:optimizeQuality; fill-rule:evenodd; clip-rule:evenodd"
viewBox="0 0 4411.12 3564.46"
 xmlns:xlink="http://www.w3.org/1999/xlink">
 <defs>
  <style type="text/css">
   <![CDATA[
    .fil4 {fill:#AB3437}
    .fil3 {fill:#9C9C9D}
    .fil1 {fill:#989798}
    .fil0 {fill:#787979}
    .fil5 {fill:#777677}
    .fil2 {fill:#292929}
   ]]>
  </style>
 </defs>
 <g id="Capa_x0020_1">
  <metadata id="CorelCorpID_0Corel-Layer"/>
  <path class="fil0" d="M3581.93 2065.52l-53.83 0.24 -8.35 -22.29 4.14 26.53c22.34,1.1 42.03,1.81 58.04,-4.48z"/>
  <path class="fil0" d="M3450.4 1458.22l0.04 -19.73c18.08,-0.36 44.54,0.72 56.83,-6.33 -13.04,-1.45 -17.5,-0.6 -31.02,0.61 -2.65,0.23 -11.33,0.77 -13.34,1.13 -13.74,2.41 -4.96,-0.13 -12.47,4.59 -2.32,4.25 -3.03,-0.69 -3.12,8.74 -0.09,11.04 1.6,8.06 3.08,10.99z"/>
  <path class="fil0" d="M394.42 930.13c0.33,-11.42 -1.61,-5.82 4.61,-12.88l-11 2.91 6.39 9.97z"/>
  <path class="fil1" d="M3963.71 1724.94l-0.86 -40.93 301.75 -1.9 -18.13 -5.36c-48.3,-4.1 -269.9,-0.95 -283.62,7.26 -6.7,5.57 -2,-4.99 -4.59,7.77 -0.04,0.19 -0.18,12.48 -0.15,12.93 0.58,10.31 -0.48,16.96 5.6,20.23z"/>
  <path class="fil1" d="M3839.78 1688.33c0.36,13.72 1.56,33.06 7.21,42.12 0.55,-15.2 0.57,-31.23 -7.21,-42.12 -0.88,-2.6 6.67,-8.54 -12.34,-6.03l12.34 6.03z"/>
  <path class="fil1" d="M3943.28 1449.03l-0.22 -20.13 24.5 -8.68 -26.36 1.43c-4.14,16.56 -3.46,14.79 2.08,27.38z"/>
  <path class="fil1" d="M3146.23 2070.22l-30.15 -6.41 -5.09 -16.83c0.5,25.9 5.17,23.87 35.24,23.24z"/>
  <path class="fil1" d="M1197.95 757.45c-0.59,7.53 -0.32,11.54 -2.07,23.13 -1.86,12.32 -3.45,37 -4.11,43.75 -3.85,39.5 -1.47,8.73 -5.83,57.4l12.42 -93.52c-4.45,-31 -1.67,-10.67 -0.41,-30.76z"/>
  <path class="fil1" d="M4280.62 2379.88c3.29,-13.59 -1.78,-6.73 4.43,-13.2l-8.61 5.3c-1.28,9.47 -4,7.9 4.18,7.9z"/>
  <polygon class="fil1" points="3106.28,1975.08 3106.11,1961.72 3115.86,1957.84 3106.11,1961.72 "/>
  <path class="fil2" d="M399.03 917.25c-6.22,7.06 -4.28,1.46 -4.61,12.88 7.6,35.5 61.29,69.76 84.52,92.55 45.59,44.73 163.74,104.86 229.47,126.59 43.67,14.44 109.53,23.81 142.91,37.97 -5.77,32.15 -18.97,65.52 -26.72,98.98 -7.85,33.88 -11.61,69.98 -22.75,102.13 -19.25,55.57 -52.67,128.33 -83.37,165.92 -26.5,32.45 -44.37,63.57 -81.71,104.83l-109.06 140.1c-7.16,11.97 -14.61,25.83 -23.35,37.63l-46.96 -18.35c7.88,-25.67 92.91,-104.48 117.7,-131.56 -11.81,-21.81 -79.22,-62.88 -100.57,-81.49 -11.93,-10.41 -23.49,-16.96 -36.44,-24.16 7.09,-27.9 35.98,-86.68 49.22,-116 17.9,-39.63 33.52,-75.63 50.3,-114.32 14.01,-32.28 15.16,-30.09 -3.52,-54.03 -12.21,-15.66 -26.77,-30.67 -37.7,-46.81 -9.47,-13.97 -24.12,-32.79 -34.98,-45.01l-205.05 -208.9c-14.06,-13.04 -25.47,-26.95 -40.23,-39.82 -36.51,-31.84 -96.09,-93.22 -138.89,-109.35 -34.09,37.33 -75.02,311.76 -75.39,382.51l245.67 153.58c20.26,12.25 61.97,42.99 84.31,49.4l-22.82 196.51 114.54 93.48c-9.41,31.54 -76.35,99.59 -88.71,130.35 20.19,8.49 45.25,19.19 68.24,28.65l66.63 32.28c-14.9,39.25 -44.33,35.15 -58.63,66.73l47.59 17.93c3.01,127.67 38.8,102.63 40.52,168.71 1.5,57.82 -29.14,143.02 2.32,184.72 62.51,-12.9 83.59,-82.73 91.41,-140.92 146.35,3.17 217.94,-59.97 276.3,-62.11 23.33,-0.86 116.93,29.58 128.18,41.64 11.16,11.95 13.91,48.07 16.61,66.69 5.1,35.2 3.2,42.97 28.71,58.14 59.11,-17.1 41.36,-42.78 60.67,-105.12 219.05,-53.17 114.74,-238.08 159.75,-355.83 29.32,-13.03 154.03,-15.83 198.98,-23.72 65.5,-11.5 118.97,-32.29 180.97,-46.03l-3 -25.63 16.45 -9.95 -10.31 -21.83 19.38 -30.4 -23.83 -17.31 8.6 -34.94c-59.04,-14.36 -153.02,-50.36 -209.72,-75.24 161.57,-184.69 71.98,-151 38.48,-323.34 -9.96,-51.25 -39.78,-77.28 -45.59,-114 -4.12,-45.58 1.55,-98.83 -2.51,-146.66 -13.68,-95.74 -81.44,-325.22 -153.57,-355.46 -23.43,120.86 -21.97,223.06 2.53,343.74 8.68,34.51 22.59,62.37 30.25,92.88 -87.21,-12.35 -125.37,-38.98 -252.54,-9.6 -109.41,25.28 -12.7,45.99 -193.63,-49.96 -139.5,-73.97 -284.88,-102.56 -465.05,-89.67z"/>
  <path class="fil2" d="M3365.12 2567.71c-15.7,31.79 -67.26,60.24 -118.1,46.97 -113.61,-29.65 -42.55,-182.81 67.29,-155.94 36.31,8.89 74.42,61.14 50.81,108.97zm838.54 -48.94c-12.06,38.06 -56.51,68.68 -108.94,63.14 -44.52,-4.71 -88.83,-48.43 -67.68,-99.88 11.65,-28.33 62.75,-64.66 107.07,-59.17 40.55,5.02 85.3,46.2 69.55,95.91zm-231.21 -486.9l-2.05 -129.87 283.48 0.29c3.52,20.08 5.37,82.21 -9.09,90.05 -21.57,11.71 -249.43,39.74 -272.34,39.53zm-866.34 -70.15l9.75 -3.88c87.45,-4.07 179.79,-25.29 273.54,-27.75l18.18 140.24 -261.35 -0.11c-30.07,0.63 -34.74,2.66 -35.24,-23.24l-4.71 -71.9 -0.17 -13.36zm475.82 103.8c-16.01,6.29 -35.7,5.58 -58.04,4.48l-4.14 -26.53c2.52,-37.31 -16.87,-89.69 -10.6,-122.97 98.97,-10.7 242.36,-19.1 341.65,-14.83l1.42 140.54 -270.29 19.31zm245.51 -383.22c19.01,-2.51 11.46,3.43 12.34,6.03 7.78,10.89 7.76,26.92 7.21,42.12l-1.25 56.39 -355.13 16.45c-8.35,-32.3 -13.28,-77.33 -13.17,-110.95l350 -10.04zm135.41 1.71c13.72,-8.21 235.32,-11.36 283.62,-7.26l18.13 5.36 -4.71 101.46c-49.46,1.37 -98.75,0.99 -147.22,1.01 -13.54,0.01 -136.01,4.78 -145.6,-6.26 -7.07,-11.51 -5.35,-37.38 -3.36,-53.38 -6.08,-3.27 -5.02,-9.92 -5.6,-20.23 -0.03,-0.45 0.11,-12.74 0.15,-12.93 2.59,-12.76 -2.11,-2.2 4.59,-7.77zm-910.28 13.62c97.43,-5.88 209.22,-7.14 304.7,-1.68 24.57,150.48 33.56,115.82 -126.18,132.41 -48.79,5.07 -97.89,11.03 -146.85,15.26l-31.67 -145.99zm397.87 -259.14c7.51,-4.72 -1.27,-2.18 12.47,-4.59 2.01,-0.36 10.69,-0.9 13.34,-1.13 13.52,-1.21 17.98,-2.06 31.02,-0.61 49.51,9.16 238.7,-11.39 315.01,-2.15 4.87,41.94 12.82,93.66 9.19,135.69 -61.59,6.76 -204.47,7.02 -279.38,8.76l-83.18 -0.99c-19.11,-4.17 -19.2,-95.14 -18.51,-115.25 -1.48,-2.93 -3.17,0.05 -3.08,-10.99 0.09,-9.43 0.8,-4.49 3.12,-8.74zm-509.34 6.87l290.63 -6.22c110.28,-0.84 96.62,-17.44 104.61,70.43 2,22.07 6.31,46.92 4.4,68.15l-327.02 2.46c-12.05,-2.58 -28.12,-46.28 -39.44,-67.41 -8.88,-16.58 -34.57,-53.39 -33.18,-67.41zm1002.18 3.67c-5.54,-12.59 -6.22,-10.82 -2.08,-27.38l26.36 -1.43 314.44 -10.44 -11.43 151.83 -319.25 2.13 -8.04 -114.71zm337.34 930.85c-8.18,0 -5.46,1.57 -4.18,-7.9l8.61 -5.3c35.68,-0.27 91.64,-2.14 107.08,-26.66 29.13,-46.24 18.01,-59.58 -10.19,-93.05 -16.11,-8.55 -404.65,40.38 -456.23,45.5 -253.59,25.2 -462,39.66 -716.41,25.16 -68.22,-3.89 -167.76,-4.27 -180.07,-67.47 -14.03,-72.03 117.79,-71.2 175.8,-69.32 85.88,2.78 161.88,5.88 249.15,4.83 156.18,-1.88 317.7,-12.23 471.46,-28.84 65.1,-7.03 403,-47.58 428.29,-72.99 24.06,-24.17 19.05,-182.82 20.64,-227.72 2.84,-80.87 7.5,-161.16 11.17,-241.1 3.73,-81.13 10.11,-155.3 16.65,-235.03 8.92,-108.66 -41.14,-94.5 -163.7,-86.45 -362.62,23.81 -838.07,29.47 -1216.08,32.68 -41.49,0.35 -83.45,3.05 -124.58,2.77 -52.36,-0.35 -61.38,-18.56 -92.71,-38.77 -55.69,-35.92 -183.54,-109.57 -255.81,-116.99 -40.26,-4.13 -67.75,22.45 -65.98,60.13 2.84,60.29 64.72,50.49 152.19,97.54 233.72,125.73 325.57,396.76 352.6,647.65 3.22,29.85 12.11,85.86 10.49,112.83 -1.68,27.94 -44.55,43.55 -61.92,65.95 -44.64,57.57 -33.56,124.89 7.6,181.47 30.94,42.52 91.21,74.7 164.57,88.74 -6.25,23.96 -73.83,102.49 -13.99,210.02 60.15,108.06 254.82,144.85 356.55,7.59 76.62,-103.38 14.74,-199.41 21.72,-205.21 20.46,-11.92 194.52,-11.26 234.3,-13.7 56.87,-3.48 182.15,-23.67 229.67,-17.59 -33.32,73.63 -64.82,113.39 -3.05,203.83 30.6,44.81 108.42,92.08 196.42,84.98 79.88,-6.44 131.76,-48.52 169.14,-111.61 17.12,-28.9 27.92,-69.6 23.86,-109.97 -4.79,-47.53 -18.71,-67.92 -43.06,-96z"/>
  <path class="fil2" d="M2432.99 0.97l-132.96 0c-0.05,0.02 -149.99,18.44 -171.42,22.8 -163.37,33.24 -357.9,110.4 -481.52,207.84 -85.8,67.63 -108.26,82.39 -186.21,160.75l-68.04 78.63c-23.28,32.59 -73,84.98 -84.4,119.96 98.28,46.61 185.01,283.48 195.71,438.4 73.85,-11.01 253.04,-58.62 349.99,-79.81l23.04 -8.36c0.39,-0.55 30.45,-142.87 90.31,-215.68 10.67,-12.99 18.53,-22.76 27.88,-34.55 92.61,-116.77 283.25,-179.5 439.95,-179.98 146.11,-0.45 289.49,41.63 389.01,106.46 52.63,34.27 98.81,71.11 131.82,117.06 56.72,78.95 51.31,94.08 73.15,158.91l6.66 12.36 543.19 75.77c-27.09,-142.46 -94.27,-319.91 -170.76,-427.67 -58.61,-82.57 -73.06,-106.54 -150,-183.62 -19.7,-19.74 -44.89,-48.44 -67.5,-66.04 -24.28,-18.91 -45.72,-39.14 -72.07,-57.01 -95.99,-65.09 -131.57,-94.39 -254.68,-145.39 -102.15,-42.32 -202,-72.36 -312.87,-87.74 -13.37,-1.85 -114.47,-10.74 -118.28,-13.09z"/>
  <path class="fil2" d="M1529.2 1153.63c6.3,16.67 14.28,30.8 19.6,49.52 5.83,20.46 7.87,42.45 13.75,61.68 11.24,36.81 31.96,65.95 41.32,107 43.38,-4.02 265.51,-83.04 381.82,-79.99 18.5,29.17 37.05,63.17 54.9,95.73 31.5,57.48 88.72,133.7 142.76,168.81 41.75,27.12 43.92,34.49 98.06,57.64 143.5,61.35 338.32,51.29 464.66,-38.95 9.95,-7.11 13.3,-11.22 22.83,-16.77 -17.11,-46.1 -137.65,-152.95 -164.51,-155.57 -12.42,-1.2 -77.38,45.65 -192.36,23.65 -194.92,-37.3 -285.19,-259.38 -180.61,-423.77 67.7,-106.44 183.88,-168.48 310.58,-125.16 103.77,35.47 183.09,155.79 188.98,278.76 39.56,27.85 87.72,44.75 140.17,86 0.59,0.46 338.39,-7.66 396.03,-0.39 44.09,5.56 278.62,-0.3 335.11,-2.97 7.28,-19.19 -2.22,-106.27 -5.49,-129.55 -76.86,-9.94 -636.07,-81.38 -661.54,-100.25 -47.98,-35.54 20.84,-110.91 -130.1,-252.37 -55.44,-51.96 -167.99,-98.99 -267.9,-113.99 -117.69,-17.67 -233.17,-4.31 -329.5,42.61 -221.83,108.06 -196.98,310.69 -226.73,347.19 -24.36,29.87 -96.34,37.56 -143.48,48.56 -47.97,11.19 -281.87,61.8 -308.35,72.58z"/>
  <path class="fil2" d="M1621.89 2268.9c90.48,70.25 210.47,136.16 319.51,173.9 148.59,51.43 321.8,79.13 494.52,63.49 151.18,-13.45 273.88,-34.68 413.04,-88.72 16.75,-6.51 30.94,-14 47.65,-19.59 -7.03,-18.57 -22.54,-34.27 -32.91,-57.76 -8.45,-19.15 -14.64,-56.21 -21.54,-69.55 -23.43,5.64 -57.56,23.37 -84.37,33.13 -34.23,10.74 -68.84,20.18 -104.23,28.49 -64.84,17.28 -134.7,29.87 -205.03,35.94 -156.17,13.48 -286.69,-3.3 -425.53,-46.57 -162.77,-50.72 -333.8,-167.41 -439.35,-281.44 -22.7,-26.46 -104.14,-125.83 -116.43,-152.07l-150.98 -2.11c-2.77,21.93 -7.87,42.24 4.29,56.86 104.17,143.03 129.98,171.11 261.67,294.47l39.69 31.53z"/>
  <path class="fil2" d="M1230.91 677.15c-49.99,105.55 -83.3,214.91 -92.84,333.5 36.79,-2.64 77.12,1.79 104.15,14.28 -29.47,-132.63 -30.3,-245.36 -11.31,-347.78z"/>
  <path class="fil3" d="M3174.94 3159.63l7.97 -9.41c4.27,-5.1 3.82,-4.29 6.97,-9.32l8.61 -15.88c2.54,-4.13 1.5,-2.08 4.14,-4.74 0.13,12.74 -2.06,45.95 0.54,57.83 2.19,10 0.75,2.68 2.84,6.34 0.19,-15.18 0.91,-56.67 -0.55,-69.77 -8.95,3.48 -3.22,-3.04 -11.21,13.95 -10.86,23.08 -13.24,14.59 -19.31,31z"/>
  <path class="fil3" d="M1537.31 3115.01c2.81,2.35 1.31,2.45 6.61,4.51 0.98,0.38 8.94,2.02 10.32,2.18 29.63,3.48 55.5,-16.68 37.61,-44.02 -7.35,-11.21 -40.39,-32.37 -52.03,-35.59l10.08 7c15.66,9.5 51.41,30.25 44.78,50.78 -14.74,22.44 -23.78,22.08 -57.37,15.14z"/>
  <path class="fil3" d="M4202.93 3175.67c-21.71,8.61 -13.6,10.33 -42.85,12.57l28.95 -40.14 -8.64 9.65c-4.01,6.44 -20.31,20.27 -23.39,33.45 13.95,0.02 29.82,-3.49 40.54,-11.01l5.39 -4.52z"/>
  <path class="fil3" d="M2354.2 3444.94l-35.75 1.89c-4.11,-15.89 0.9,-20.34 -6.15,-36.19l0.34 40.44 41.56 -6.14z"/>
  <path class="fil3" d="M3056.39 2949.9c-8.23,-0.29 -4.33,-2.15 -5.39,2.85 -5.59,-1.41 -4.66,-2.97 -4.66,2.1l4.66 -2.1 5.39 -2.85 7.74 -3.21 14.18 -1.4c-0.09,0.23 -3.26,6.03 -3.67,6.64 -4.5,-0.99 -3.79,-2.26 -3.64,1.81 -4.34,-0.75 -3.59,-1.86 -3.21,2.23 -4.18,-0.55 -3.28,-1.48 -2.78,2.68 -4.16,-0.53 -3.04,-1.25 -2.29,3.13l-1.62 3.81 -4.09 4.09 -1.99 4.8c4.94,0 3.27,0.88 1.99,-4.8l4.09 -4.09 1.62 -3.81c3.82,0.13 2.77,0.93 2.29,-3.13 4.06,0.48 3.13,1.37 2.78,-2.68 4.13,0.52 3.35,1.6 3.21,-2.23l3.64 -1.81c10.19,-6.05 5.6,-1.05 9.8,-9.01 -9.15,-1.65 -13.94,-1.39 -20.31,3.77 -7.25,-2.03 -6.18,-1.53 -7.74,3.21z"/>
  <path class="fil3" d="M895.57 3285.92l46.42 -1.74c2.5,-10.19 1.73,-10.66 1.12,-21.24 -0.2,-3.46 -0.51,-9.67 -1.03,-12.91 -1.96,-12.23 -1.31,-5.08 -2.54,-8.16l0.36 39.45 -44.33 4.6z"/>
  <path class="fil3" d="M1097.81 3008.77l-4.35 2.03 -4.51 1.88 -4.61 2.04c-5.96,-1.65 -4.19,-2.52 -4.19,3.98 5.59,-0.79 4.69,0.95 4.19,-3.98 5.57,1.38 4.69,2.98 4.61,-2.04l4.51 -1.88 4.35 -2.03 5.2 -2.54 -0.24 7.35 -3.4 8.23c4.11,-3.14 4.39,5.93 3.4,-8.23l6.77 -12.08 -11.73 7.27z"/>
  <path class="fil4" d="M4294.47 3287.61c-64.05,27.76 -116.85,53.05 -201.93,39.23 -21.02,-3.42 -28.85,-10.24 -50.75,-7.66 -18.81,2.22 -37.88,2.63 -56.94,3.79 -57.72,3.51 -58.84,9.12 -95.73,-19.55 -28.8,7.65 -58.46,11.84 -90.88,14.02 -12.88,55.8 -65.3,46.44 -128.08,50.47 -18.74,1.2 -22.11,9.79 -43.78,11.81 -27.27,2.54 -86.54,7.38 -111.94,5.63 -33.7,-2.34 -53.07,-26.92 -55.58,-61.42 -19.19,-2.4 -39.37,3.19 -59.18,1.3 -20.32,-1.94 -30.38,-14.13 -41.15,-21.81 -37.65,10.57 -80.17,12.93 -121.61,18.04 -54.76,6.74 -70.97,-9.74 -83.21,-52.87 -25.75,12.1 -74.11,67.14 -178.11,64.94 -190.67,-4.03 -255.14,-218.83 -173.94,-359.36 16.42,-28.39 37.71,-45.02 52.69,-67.57 -14.1,9.74 -52.47,48.02 -67.32,63.96 -70.32,75.48 -82.87,196.39 -31.6,296.28 31.27,60.92 78.01,93.7 159.26,104.11 67.1,8.6 125.43,-14.38 176.87,-49.57l19.4 -12.9c2,20.37 14.31,33.51 26.84,43.62 15.75,12.7 34.36,10.1 56.53,7.95 31.55,-3.07 100.23,-9.31 123.92,-18.61 20.6,30.59 52.67,21.06 97.01,21.06 0.23,18.07 9.07,39.16 23.57,49.58 24.73,17.79 93.48,12.23 126.53,7.81 6.97,-0.93 24.85,-1.28 32.43,-3.04 12.21,-2.84 12.84,-7.75 26.16,-9.2 43.22,-4.71 97.16,2.95 119.82,-24.84 5.51,-6.76 7.61,-14.73 16.17,-19.81 25.98,-15.41 55.89,-10.73 85.42,-20.29 12.83,12.04 27.34,23.11 51.93,22.57 18.68,-0.42 48.84,-3.89 66.02,-5.28 12.68,-1.02 22.94,0.57 34.56,-1.52 35.17,-6.32 18.43,9.55 88.17,9.33 51.61,-0.17 87.22,-5.97 124.44,-20.99 38.05,-15.35 65.98,-32.23 83.99,-59.21z"/>
  <path class="fil4" d="M46.59 2811.48l0 9.55 32.09 89.71c11.51,29.2 21.11,65.73 39.92,81.97 14.07,12.15 29.22,9.92 36.47,24.16l93.91 267.42c21.78,62.61 77.26,70.26 112.67,44.14l68.92 -49.4c18.12,13.45 24.14,22.74 51.2,35.63 96.74,46.06 200.62,-0.67 205.66,-10.91 9.75,23.3 -3.9,49.24 26.96,78.54 23.16,22 44.86,17.23 84.16,17.23 79.51,-0.01 131.13,14.3 161.44,-46.86 -45.75,-1.35 -115.99,7.66 -157.61,1.86 -58.95,-8.23 -59.16,-60.22 -61.13,-95.74 -15.99,3.01 -40.81,18.1 -63.68,23.92 -87.82,22.35 -139.63,-5.78 -195.8,-49.19 -17.74,6.08 -54.84,39.42 -74.1,51.25 -31.11,19.11 -74.28,10.59 -92.08,-12.45 -15.22,-19.71 -81.9,-220.51 -99.43,-271.34 -13.97,-40.49 -6.86,-33.46 -21.22,-39.57 -46.62,-19.84 -46.94,-43.75 -71.92,-113.65 -13.62,-38.06 -27.59,-54.2 -20.92,-99.79 -18.96,4.47 -28.92,12.25 -38.49,23.58 -4.53,5.37 -8.34,11.64 -10.8,18.09 -3.4,8.94 -1.78,14.95 -6.22,21.85z"/>
  <path class="fil4" d="M1190.99 3365.4c41.37,-34.59 2.93,-26.9 58.56,-37.72 79.9,-15.53 39.95,-26.96 111.7,-5.86 76.44,22.47 173.15,37.4 248.95,7.49 17.32,-6.83 19.29,-0.4 39.5,-0.79l151.94 -18.47c13.18,-3.46 11.85,-5.75 12.13,-6.31 21.16,24.4 41.8,30.11 83.23,25.18 35.21,-4.18 71.13,0.26 102.67,-6.5 29.49,-6.32 34.25,12.25 91.58,12.19 62.22,-0.05 61.73,-10.88 91.33,-15.55 8.08,27.19 2.62,45.73 6.64,73.28 7.3,50 -1.64,109.46 16.53,140.03 12.74,21.45 44.23,30.14 44.26,30.08 0.46,-0.75 1.77,0.62 2.59,1.04l34.32 0c12.61,-8.01 101.9,-2.79 126.01,-10.94 20.21,-6.83 27.22,-17.95 37.25,-33.11 11.42,-17.26 23.89,-9.64 40.68,-28.54 -16.67,10.63 -23.01,17.84 -45.01,19.76 -20.5,1.79 -41.86,2.26 -62.46,3.28 -42.67,2.14 -85.01,11.82 -114.31,-13.02 -28.37,-24.03 -23.32,-60.34 -26.27,-105.36 -2.69,-41.25 -4.13,-82.38 -6.65,-123.38 -35.42,7.42 -53.23,19.01 -96.93,17.57 -32.36,-1.07 -65.65,-17.25 -87.97,-13.15 -28.99,5.34 -73.29,5.91 -103.85,7.57 -47.37,2.56 -57.28,-1.85 -81.7,-25.5 -17.3,9.03 -136.86,23.19 -164.82,23.93 -21.1,0.56 -22.21,-6.67 -40.57,0.26 -13.39,5.06 -21.96,8.44 -36.09,11.74 -81.98,19.17 -169.78,-6.75 -246.55,-28.56 -21.43,-6.09 -50.69,10.09 -74.31,15.41 -29.58,6.66 -52.87,6.45 -82.48,10.11 1.72,46.62 -7.45,44.87 -29.9,73.84z"/>
  <path class="fil4" d="M978.39 3346.96l69.11 47.65c8.74,5.55 12.93,10.84 22.32,15.7 17.34,8.97 43.53,10.72 63.27,1.27 22.22,-10.65 26.61,-20.04 36.63,-40 -42.86,5.24 -65.34,-16.27 -88.31,-33.12 -21.8,-15.99 -47.68,-36.66 -68.48,-48.14 -5.59,10.41 -5.76,20.97 -13.27,32.96 -8.7,13.9 -15.64,12.71 -21.27,23.68z"/>
  <path class="fil4" d="M1018.16 2876.2l86.36 8.65c-9.97,-15.14 -21.77,-32.98 -31.54,-49.62 -14.66,-24.94 -12.86,-36.6 -9.82,-67.06 -22.22,6.02 -41.02,22.29 -48.35,39.78 -12.64,30.16 -4.74,42.5 3.35,68.25z"/>
  <path class="fil4" d="M633.69 2821.25l42.33 -1.29 17.58 -95.02c-43.42,10.23 -55.61,49.71 -59.91,96.31z"/>
  <path class="fil4" d="M3367.34 2913.3l37.5 -0.51 13.02 -66.03c-17.33,4.64 -26.69,9.34 -36.39,23.6 -9.31,13.67 -7.76,30.81 -14.13,42.94z"/>
  <path class="fil4" d="M2499.4 3300.03c20.55,-12.67 50.17,-32.59 63.75,-52.44 -20.16,8.41 -37.84,21.62 -65.8,30.14l2.05 22.3z"/>
  <path class="fil2" d="M102.1 2747.96c-6.67,45.59 7.3,61.73 20.92,99.79 24.98,69.9 25.3,93.81 71.92,113.65 14.36,6.11 7.25,-0.92 21.22,39.57 17.53,50.83 84.21,251.63 99.43,271.34 17.8,23.04 60.97,31.56 92.08,12.45 19.26,-11.83 56.36,-45.17 74.1,-51.25 56.17,43.41 107.98,71.54 195.8,49.19 22.87,-5.82 47.69,-20.91 63.68,-23.92 1.97,35.52 2.18,87.51 61.13,95.74 41.62,5.8 111.86,-3.21 157.61,-1.86 4.86,-1.82 11.57,-4.05 18.4,-5.7 5.63,-10.97 12.57,-9.78 21.27,-23.68 7.51,-11.99 7.68,-22.55 13.27,-32.96 20.8,11.48 46.68,32.15 68.48,48.14 22.97,16.85 45.45,38.36 88.31,33.12 11.11,-0.95 11.62,-2.87 21.27,-6.18 22.45,-28.97 31.62,-27.22 29.9,-73.84 29.61,-3.66 52.9,-3.45 82.48,-10.11 23.62,-5.32 52.88,-21.5 74.31,-15.41 76.77,21.81 164.57,47.73 246.55,28.56 14.13,-3.3 22.7,-6.68 36.09,-11.74 18.36,-6.93 19.47,0.3 40.57,-0.26 27.96,-0.74 147.52,-14.9 164.82,-23.93 24.42,23.65 34.33,28.06 81.7,25.5 30.56,-1.66 74.86,-2.23 103.85,-7.57 22.32,-4.1 55.61,12.08 87.97,13.15 43.7,1.44 61.51,-10.15 96.93,-17.57 2.52,41 3.96,82.13 6.65,123.38 2.95,45.02 -2.1,81.33 26.27,105.36 29.3,24.84 71.64,15.16 114.31,13.02 20.6,-1.02 41.96,-1.49 62.46,-3.28 22,-1.92 28.34,-9.13 45.01,-19.76 6.71,-15.39 12.34,-14.23 17.25,-38.14 3.22,-15.67 -1.73,-30.36 -1.6,-49.17 0.21,-30.4 -3.97,-71.18 -7.11,-103.56l-2.05 -22.3c27.96,-8.52 45.64,-21.73 65.8,-30.14 145.79,-91.93 149.63,-303.96 50.93,-382.57 -32.1,-25.56 -88.4,-47.24 -145.24,-47.24 -13.3,-2.67 -7.11,-16.85 -40.13,-29.43 -54.79,-20.87 -137.67,46.43 -162.5,42.53 -7.13,-1.12 -18.17,-5.27 -26.93,-7.28 -8.66,-1.99 -25.86,-4 -33.49,-4.98 -36.67,-4.75 -88.43,8.87 -120.77,25.27 -18.65,9.46 -30.64,20.18 -45.57,28.71 -22.97,-19.8 -30.58,-32.27 -64.51,-49.82 -33.62,-17.38 -59.22,-17.39 -102.28,-17.39 -1.93,-35.89 -5.78,-147.75 -25.67,-174.49 -14.37,-19.32 -34.23,-21.04 -42.8,-26.62l-27.99 0c-4.44,3.05 -85.58,11.57 -100.01,13.44 -53.83,6.95 -49.06,30.03 -66.87,44.93 -0.22,-0.2 -1.38,-1.13 -6.97,-2.59 -32.97,-8.62 -107.06,-15.12 -138.14,-12.06 -77.64,7.66 -87.68,30.55 -118.5,42.6 -19.54,-24.59 -23.89,-46.15 -70.39,-46.37 -40.13,-0.19 -103.63,48.6 -152.06,73.29 -38.29,19.51 -42.98,17.55 -60.1,50.65 -3.04,30.46 -4.84,42.12 9.82,67.06 9.77,16.64 21.57,34.48 31.54,49.62l-86.36 -8.65c-6.55,3.2 -28.45,14.18 -34.01,15.83 -3.98,-39.82 -11.52,-213.99 -20.34,-232.05 -3,-6.16 -14.44,-20.08 -18.41,-23.46 -31.71,-27.03 -66.41,-13.88 -93.92,-2.09 -22.47,9.63 -41.33,18.01 -58.9,25.17 -45.2,18.41 -82.22,25.51 -98.98,65.34l-17.58 95.02 -42.33 1.29c-7.82,0.16 -16.25,1.95 -22.83,5.73 9.76,-29.52 -1.81,-61.36 -12.06,-83.71 -7.31,-15.9 -10.49,-18.97 -20.09,-31.1 -20.84,-26.29 -55.16,-45.47 -89.8,-56.89 -69.83,-23.05 -197.34,3.31 -259.89,22.92 -55.69,17.45 -108.82,23.63 -126.92,69.76zm1435.21 367.05c33.59,6.94 42.63,7.3 57.37,-15.14 6.63,-20.53 -29.12,-41.28 -44.78,-50.78l-10.08 -7c-61.17,-29.84 -213.44,-138.15 -181.87,-243.46 43.76,-145.96 275.29,-50.37 321.75,-45.64l-0.96 -64.07 111.98 -13.59 17.64 214.87c25.77,0.16 83.49,-32.33 141.5,-0.74 16.26,8.85 35.61,28.22 46.3,40.08 22.92,25.42 29.98,45.51 39.1,53.25 19.35,-39.95 94.17,-100.97 170.59,-92.79 71.22,7.62 34.14,32.02 101.46,3.62 31.5,-13.29 63.51,-28.28 93.49,-38.83l4.81 47.8c39.8,-7.38 76.3,-31.68 147.07,8.25 114.75,64.75 52.55,305.08 -127.45,309.3l9.48 167.51c6.55,13.1 5.01,35.25 5.06,54.76 -9.68,1.36 -47.96,6.46 -59.91,4.25l-25.66 -1.72 -41.56 6.14 -0.34 -40.44 -13.95 -276.11c-17.71,8.8 -45.14,64.11 -116.53,81.49 -44.13,10.74 -98.58,1.48 -129.35,-33.22 -9.67,-10.91 -8.91,-19.19 -16.1,25.81l-112.88 7.54c-3.05,-15.59 0.16,-85.98 -8.72,-141.24 -28.78,-179.07 -81.66,-103.59 -87.95,-16.49 -3.35,46.3 2.31,91.51 3.37,137.37 -16.68,8.29 -46.87,7.77 -68.05,10.24 -82.3,9.6 -61.67,21.37 -69.72,-39.96 -4.15,3.32 -2.03,1.25 -5.81,5.62l-13.85 18.4c-82.26,93.38 -278.38,1.99 -308.49,-0.1 -32.29,-2.25 -63.42,52.69 -217.47,18.78l4.85 92.61c-18.43,-9.72 -36.43,-24.7 -53.81,-36.91 -30.6,-21.51 -148.11,-108.93 -161.9,-113.7l3.6 91.1c1.23,3.08 0.58,-4.07 2.54,8.16 0.52,3.24 0.83,9.45 1.03,12.91 0.61,10.58 1.38,11.05 -1.12,21.24l-46.42 1.74 -83.38 -0.38 -11.15 -209.48c-4.4,33.08 -37.42,71.72 -53.75,87.68 -100.9,98.49 -236.77,66.89 -255.05,-67.67 -11.79,-86.83 27.84,-148.98 101.79,-187.86 72.05,-37.88 172.74,-15.77 199.78,52.98l-6.28 -151.15 -38.44 5.54c-0.04,-9.37 6.93,-51.88 9.99,-59.54 5.28,-13.24 130.47,-61.89 140.7,-62.48l20.02 314.19c27.33,-7.44 76.62,-43.16 104.99,-56.28 19.46,-8.99 50.42,0.65 72.01,3.9 46.2,6.95 29.46,7.4 58.73,-13.5 86.36,-61.66 212.25,-39.45 241.59,4.53 -7.4,14.11 -90.53,106.73 -109.07,130.9 -9.66,12.61 -32.1,34.24 -37.02,49.12 47.8,-3.31 79.96,-35 92.77,-66.53l14.71 10.5 8.66 -16.56c18.54,5.84 55.14,28.33 79.21,38.09 19.16,7.77 69.6,20.57 90.93,23.09zm-406.73 -319.12c6.47,-6.93 133.46,-77.13 144.74,-80.16l61.69 92.34 -176.23 35.65 -30.2 -47.83zm-960.34 -22.15c21.4,-14.87 131.24,-42.7 165.18,-49.35 65.45,-12.82 140.22,-13.67 179.93,25.37 52.64,51.77 16.68,96.95 -18.27,141.57 -26.64,34 -73.75,85.74 -105.89,108.1l49.21 177.02c-19.14,11.76 -59.06,44.32 -72.06,48.75l-125.32 -356.93c-11.24,4.88 -7.87,3.42 -15.45,12.79 -5.46,6.72 -5.87,7.7 -11.86,13.03 -9.35,-12.68 -38.34,-99.08 -45.47,-120.35z"/>
  <path class="fil2" d="M4189.03 3148.1l-28.95 40.14c29.25,-2.24 21.14,-3.96 42.85,-12.57 7.1,-9.46 15.54,-12.06 28.04,-30.21l12.49 -12.03c7.03,10.04 51.38,60.62 51.81,66.85 1.31,19.14 -44.37,44.56 -65.8,52.76 -52.17,19.99 -132.48,31.36 -180.44,-7.6l-11.01 -8.02 -3.35 23.38 -97.23 5.65c-1.28,-43.37 0.18,-79.3 -6.9,-121.24 -26.67,-158.15 -70.21,-79.29 -75.3,-13.13 -3.06,39.71 2.42,78.03 2.8,117.12 -0.78,0.37 -1.97,-0.12 -2.45,0.89 -0.47,1 -1.78,0.65 -2.44,0.83l-51.38 6.84c-19.46,2.26 -38.37,5.02 -58.23,6.3l-3.88 -34.03c-0.91,12.97 -1.48,25.38 -0.84,38.3 0.3,6.26 0.91,10.7 1.29,16.85l-0.17 12.57c-0.13,0.71 -0.42,1.52 -0.57,2.14 -0.15,0.59 -0.6,1.52 -0.74,1.98 -0.14,0.45 -0.45,1.32 -0.83,1.9l-103.01 7.07 -5.44 -252.15 -20.98 4.66 15.39 256.99c-23.63,1.49 -85.87,7.84 -105.46,4.5l-5.59 -96.39c-2.66,3.38 -1.72,1.32 -3.82,6.78l-8.8 24.46c-0.51,0.18 -1.48,0.66 -2.11,0.85 -0.63,0.19 -1.45,0.47 -2.15,0.64 -2.7,0.66 -8.87,0.93 -11.65,1.04l-76.99 4.19c-2.49,-68.88 -1.92,-171 -39.76,-214.01 -60.16,-1.67 -38.18,162.17 -39.47,198.81l-114.45 13.2c-2.63,-22.43 -9.57,-59.46 -7.5,-79.96 -2.09,-3.66 -0.65,3.66 -2.84,-6.34 -2.6,-11.88 -0.41,-45.09 -0.54,-57.83 -2.64,2.66 -1.6,0.61 -4.14,4.74l-8.61 15.88c-3.15,5.03 -2.7,4.22 -6.97,9.32l-7.97 9.41c-34.45,50.46 -120.97,130.98 -226.49,111.67 -102.59,-18.77 -137.98,-133.11 -115.6,-219.48 21.95,-84.68 164.93,-238.87 308.38,-162.07 62.93,33.69 57.85,53.74 80.54,92.25 15.9,-0.24 31.84,-3.01 47.19,-5.11 24.05,-3.3 24.18,-5.91 33.31,11.67 41.61,-3.52 81.09,-36.24 132.55,-1.43 27.2,18.39 58.16,52.37 70.05,94.69l-7.57 -162.86 -34.02 5.52c1.62,-12.57 5.5,-36.08 8.91,-48.12 4.4,-15.47 24.33,-18.02 37.07,-23.35 15.12,-6.32 71.08,-32.21 83.81,-32.82l11.6 186.97c22,-2.69 92.71,-40.57 119.87,-47.3l6.55 25.34 93.95 -11.34 11.6 15.21c72.19,-18.24 112.37,-38.5 170.63,38.23 24.07,31.69 20.53,43.12 29.31,55.67 13.61,-40.13 54.52,-67.69 102.27,-79.23 26.29,-6.35 57.13,-6.73 83.43,-0.33 19.06,4.64 50.75,15.86 61.42,32.62 -5.34,11.32 -57.07,69.87 -71.07,85.53 -7.01,7.84 -13.61,21.37 -23.6,26.54zm-537.44 -328.47c29.21,-12.8 61.45,10.54 69.6,26.18 12.38,23.72 -7.29,61.48 -22.41,68.29 -30.1,13.58 -62.61,-5.02 -71.46,-26.39 -8.05,-19.47 -3.27,-56 24.27,-68.08zm-233.73 27.13l-13.02 66.03 -37.5 0.51c-24.73,-1.27 -33.94,10.35 -54.07,4.04 -44.18,-13.85 -43.79,15.34 -62.65,-11.42 -4.42,-6.28 -3.18,-4.9 -8.32,-10.65 -6.49,-7.26 -10.75,-14.23 -18.06,-20.13 -44.94,-36.24 -90.68,-67.67 -161.02,-68.19 -69.82,-0.5 -140.35,34.37 -187.48,80.08 -8.77,8.52 -13.59,10.09 -21.39,19.57 -14.98,22.55 -36.27,39.18 -52.69,67.57 -81.2,140.53 -16.73,355.33 173.94,359.36 104,2.2 152.36,-52.84 178.11,-64.94 12.24,43.13 28.45,59.61 83.21,52.87 41.44,-5.11 83.96,-7.47 121.61,-18.04 10.77,7.68 20.83,19.87 41.15,21.81 19.81,1.89 39.99,-3.7 59.18,-1.3 2.51,34.5 21.88,59.08 55.58,61.42 25.4,1.75 84.67,-3.09 111.94,-5.63 21.67,-2.02 25.04,-10.61 43.78,-11.81 62.78,-4.03 115.2,5.33 128.08,-50.47 32.42,-2.18 62.08,-6.37 90.88,-14.02 36.89,28.67 38.01,23.06 95.73,19.55 19.06,-1.16 38.13,-1.57 56.94,-3.79 21.9,-2.58 29.73,4.24 50.75,7.66 85.08,13.82 137.88,-11.47 201.93,-39.23 14.66,-6.6 26.55,-18.69 37.25,-30.65 5.58,-6.24 9.38,-11.6 14.01,-18.87 5.42,-8.51 6.27,-16.76 11.08,-23.64l0 -29.23c-8.23,-12.29 2.72,-6.83 -24.88,-39.6 -10.3,-12.23 -19.99,-23.01 -29.29,-35.8 14.26,-17.7 84.31,-82.13 11.46,-129.49 -50.53,-32.85 -98.7,-50.18 -166.96,-39.74 -20.82,3.18 -36.86,7.07 -54.45,14.12 -17.1,6.86 -38.13,21.2 -48.36,24.28 -28.11,-38.58 -66.54,-60.43 -115.39,-67.58 -28.55,-4.19 -68.11,9.8 -77.02,8.39 -7.66,-1.22 -19.73,-8.49 -38.41,-6.09 -15.49,2 -24.75,5.46 -40.94,3.75 19.16,-28.34 20.57,-83.49 -12.45,-121.4 -21.01,-24.11 -75.52,-52.2 -122.77,-36.31 -44.79,15.06 -4.07,-28.77 -120.6,24.38 -38.38,17.5 -95.53,32.15 -98.89,62.63z"/>
  <path class="fil2" d="M1685.16 3049.03l-2.47 -155.5c-28.01,-23.23 -86.71,-43.88 -128.49,-52.83 -19.54,-4.2 -55.5,-17.62 -75.91,-11.33 -33.93,10.45 -10.71,44.21 1.82,56.3 32.07,30.96 73.3,45.66 112.62,69.75 35.54,21.77 49.88,35.82 72.68,64.94 8.76,11.18 10.14,19.69 19.75,28.67z"/>
  <path class="fil2" d="M735.07 2962.43c-8.63,9.76 -14,23.77 -22.54,32.31 -7.26,7.26 -20.75,19.67 -37.01,13.65 -14.32,-5.3 -23.67,-33.97 6.2,-60.4 5.21,-4.61 3.98,-2.77 8.63,-8.44 -65.67,2.11 -119.37,84.51 -58.46,119.01 69.08,39.13 119.04,-31.71 103.18,-96.13z"/>
  <path class="fil2" d="M2539.39 2962.35c-18.03,22.08 -25.08,55.55 -64.8,44.77 -4.62,-3.52 -16.71,-31.57 6.88,-54.46l13.69 -13.18c-71.78,2.18 -110.05,87.95 -58.6,119.15 69.02,41.85 122.14,-38.49 102.83,-96.28z"/>
  <path class="fil2" d="M2260.57 2978.22c-19.12,0.65 -19.2,12.04 -31.79,22.44 -14.81,12.22 -23.85,10.77 -38.98,4.45 -13.43,-41.58 6.83,-45.6 23.53,-65.53 -61.54,1.46 -117.26,77.73 -64.24,115.42 61.2,43.51 111.79,-7.82 111.48,-76.78z"/>
  <path class="fil2" d="M3056.39 2949.9l-5.39 2.85 -4.66 2.1c-31.37,17.96 -52.78,88.98 5.36,111.81 27.3,10.72 48.06,-2.55 59.41,-18.28 14.76,-20.46 22.15,-59.2 11.36,-73.12 -32.98,88.55 -88.27,54.9 -67.45,-0.78l1.99 -4.8 4.09 -4.09 1.62 -3.81c-0.75,-4.38 -1.87,-3.66 2.29,-3.13 -0.5,-4.16 -1.4,-3.23 2.78,-2.68 -0.38,-4.09 -1.13,-2.98 3.21,-2.23 -0.15,-4.07 -0.86,-2.8 3.64,-1.81 0.41,-0.61 3.58,-6.41 3.67,-6.64l-14.18 1.4 -7.74 3.21z"/>
  <path class="fil2" d="M1093.46 3010.8l-4.51 1.88c0.08,5.02 0.96,3.42 -4.61,2.04 0.5,4.93 1.4,3.19 -4.19,3.98 -18.95,21.53 -69.76,50.64 -80.25,66.56 15.07,10.92 31.77,21.53 47.38,34.6 9.06,7.58 38.99,30.86 48.89,34.95 -13.12,-56.1 -12.84,-78.39 3.2,-133l3.4 -8.23 0.24 -7.35 -5.2 2.54 -4.35 2.03z"/>
  <path class="fil2" d="M346.7 2846.1c1.63,18.55 14.46,69.62 23.07,81.22 12.55,-8.26 52.34,-55.06 61.78,-72.87 14.46,-27.28 -9.25,-25.49 -33.12,-24.17 -24.37,1.35 -34.21,7.88 -51.73,15.82z"/>
  <path class="fil2" d="M4102.37 3164.22c8.38,-5.98 28.78,-32.33 36.64,-42.46 8.78,-11.32 31.76,-35.26 35.39,-47.56 -66.94,-17.71 -89.43,33.02 -72.03,90.02z"/>
  <path class="fil2" d="M1185.72 3095.5c11.5,-8.25 30.99,-36.88 41.75,-49.69 9.58,-11.41 37.65,-42.35 41.91,-54.36 -87.33,-26.45 -106.06,62.15 -83.66,104.05z"/>
  <path class="fil5" d="M2379.86 3446.66c11.95,2.21 50.23,-2.89 59.91,-4.25 -0.05,-19.51 1.49,-41.66 -5.06,-54.76l0.96 53.47 -46.94 1.9c-15.95,2.58 -2.97,-0.53 -8.87,3.64z"/>
 </g>
</svg>
